<svg xmlns="http://www.w3.org/2000/svg" aria-hidden="true" style="position:absolute;width:0;height:0;overflow:hidden">
    <defs>
        <symbol id="icon-how" viewBox="0 0 46 32">
            <path fill="#fcfcfc"
                d="M17.393 20.722c-.002-.413.097-.806.189-1.198.051-.215.159-.404.27-.589.204-.342.405-.688.605-1.034.14-.244.278-.489.456-.701.019-.022.034-.049.053-.07.04-.043.09-.053.126-.012.061.069.144.117.18.214.032.088.089.151.145.218.187.222.393.418.618.588.269.203.521.434.767.674.082.08.166.157.25.233.259.233.489.505.735.754.206.209.416.411.629.611.249.235.52.435.771.666l.346.317c.293.27.59.535.868.824.049.051.106.095.16.141.136.114.268.232.376.381.038.053.085.1.134.138.089.069.173.146.249.232.158.179.337.326.522.468.16.124.175.273.064.45a1.877 1.877 0 0 1-.089.125c-.094.12-.187.241-.283.359a.939.939 0 0 1-.301.264 2.774 2.774 0 0 0-.387.246c-.369.27-.774.463-1.16.694-.112.067-.238.105-.358.156l-.474.196c-.196.081-.389.174-.606.142-.025-.004-.052.01-.079.014a.942.942 0 0 1-.322.008c-.173-.034-.348-.034-.523-.036-.308-.004-.596-.109-.875-.249-.147-.075-.288-.166-.432-.248-.339-.194-.639-.453-.925-.733-.056-.055-.102-.122-.151-.185s-.094-.131-.145-.192a2.777 2.777 0 0 1-.335-.517c-.076-.145-.157-.286-.234-.431-.035-.066-.074-.13-.098-.201-.092-.272-.229-.52-.315-.795-.079-.252-.17-.499-.252-.75a3.79 3.79 0 0 1-.169-1.171l-.001-.001zm8.047 3.53c.021 0 .023-.014.013-.012-.026.006.003-.01-.008.018-.02.007-.024.012-.01.014a.09.09 0 0 0 .005-.021v.001zm-.237.197c.091-.016.1-.028.092-.123.014-.001.013.009.006.006-.025-.012.001.019-.002-.011-.018.059-.092.053-.105.117-.058.002-.094.042-.121.095-.032.008-.071.007-.097.027-.108.084-.23.125-.348.179-.088.04-.176.078-.259.127-.199.117-.416.174-.631.23a4.398 4.398 0 0 1-1.001.126 1.318 1.318 0 0 1-.576-.088.908.908 0 0 0-.235-.063 1.266 1.266 0 0 1-.402-.147c-.17-.092-.34-.185-.522-.244a.772.772 0 0 1-.215-.123c-.185-.139-.359-.298-.558-.414a.305.305 0 0 1-.095-.084 3.545 3.545 0 0 0-.37-.453c-.229-.378-.5-.72-.719-1.107-.153-.27-.273-.56-.417-.835a2.173 2.173 0 0 1-.172-.44c-.109-.405-.186-.816-.164-1.245.004-.068-.004-.136-.006-.205a1.078 1.078 0 0 0-.066.283c-.017.152-.036.305-.039.458-.008.414.095.802.234 1.18.088.24.181.479.283.713.126.288.248.579.423.835.161.237.343.453.537.653.294.303.573.63.955.795.013.006.023.015.035.023.189.134.38.262.596.335a.271.271 0 0 1 .071.042c.211.155.447.204.692.221a.81.81 0 0 1 .258.046.45.45 0 0 0 .278.021c.059-.014.121-.012.181-.017.301-.025.603-.046.897-.141.187-.061.378-.108.567-.159a2.03 2.03 0 0 0 .817-.431c.031-.027.074-.044.066-.103.063.014.104-.02.133-.079v.001zm-6.896-5.066c.078-.023.07-.109.084-.168.068-.282.16-.55.291-.804.092-.177.163-.369.239-.557.055-.138.082-.29.151-.422.003-.006-.007-.03-.015-.034-.01-.004-.029.001-.035.01-.036.055-.073.11-.102.17-.082.167-.157.338-.239.505a3.558 3.558 0 0 0-.273.789c-.038.17-.067.342-.099.516.003.061-.031.123 0 .199.026-.079.01-.142-.002-.204v-.001zm1.876 6.167h.003l-.007.008c.01-.035-.01-.055-.028-.079-.053-.07-.119-.132-.152-.212a.473.473 0 0 0-.319-.29c-.038-.012-.078-.025-.105-.063-.097-.137-.226-.242-.303-.398a.373.373 0 0 0-.106-.135c-.061-.047-.115-.105-.177-.153a.409.409 0 0 1-.149-.237c-.009-.037-.019-.073-.027-.111-.037-.177-.107-.329-.247-.431a.512.512 0 0 1-.184-.32c-.011-.052-.013-.106-.019-.16-.026-.2-.073-.39-.198-.544a.614.614 0 0 1-.079-.134 1.05 1.05 0 0 0-.204-.31c-.062-.063-.079-.14-.072-.228a1.73 1.73 0 0 1 .021-.159.59.59 0 0 0-.002-.251 1.486 1.486 0 0 1-.038-.318.668.668 0 0 0-.067-.263c-.036-.075-.041-.172-.124-.247-.005.162-.02.3-.011.437.029.462.127.908.269 1.34.175.532.388 1.045.657 1.525.097.174.176.364.3.517.149.186.284.387.457.549.14.131.285.257.435.372s.298.236.477.29zm-2.041-6.756c-.003.057-.033.098-.059.143-.074.128-.154.253-.215.389-.067.147-.148.296-.07.476.018.042-.008.089-.015.134-.033.223-.04.445.05.654.116.269.088.572.157.852.007.028-.001.061-.005.091-.021.157-.007.301.103.418.038.041.064.099.094.149.162.264.328.527.36.861a.573.573 0 0 0 .228.413c.11.088.173.211.207.356.007.029.017.058.022.088a.457.457 0 0 0 .234.353c.103.057.161.149.218.258.093.178.206.335.396.401a.462.462 0 0 1 .27.231c.082.172.212.296.315.446.038.055.082.073.142.053.084-.027.169-.047.253-.074a.199.199 0 0 1 .193.034c.127.102.275.159.404.257a.44.44 0 0 0 .363.095.52.52 0 0 1 .428.081c.077.058.165.059.252.019.043-.02.09-.031.134-.049.316-.128.633-.255.949-.386.055-.023.118-.039.15-.112-.042-.016-.081-.001-.12.008-.125.029-.247.07-.376.079-.249.016-.496.044-.744.067a.47.47 0 0 1-.2-.018c-.143-.051-.291-.055-.439-.066a1.326 1.326 0 0 1-.561-.171c-.294-.17-.59-.334-.877-.519-.146-.095-.294-.186-.426-.304-.085-.075-.16-.164-.243-.241a5.82 5.82 0 0 1-.765-.913c-.062-.09-.128-.181-.17-.284-.149-.36-.328-.703-.465-1.071a14.252 14.252 0 0 1-.243-.704 2.623 2.623 0 0 1-.082-1.11c.046-.372.105-.742.156-1.113.012-.089.047-.18-.007-.268l.012.003-.011-.007.003.001zm1.096-1.197c-.05.053-.058.116-.074.173-.021.073-.04.147-.068.216-.09.223-.182.444-.276.665a4.322 4.322 0 0 0-.214.667c-.064.262-.073.529-.082.797-.008.24.017.475.063.707.105.53.312 1.013.559 1.471.243.451.515.88.828 1.273.163.204.324.411.54.548.1.063.189.145.28.224a.942.942 0 0 0 .314.203c.194.064.384.142.565.244a.941.941 0 0 0 .267.101c.106.023.213.039.316.073.171.056.348.067.519.06.309-.012.618-.044.921-.119.078-.019.154-.053.23-.084.139-.057.277-.119.415-.177.151-.063.309-.111.449-.203.164-.106.325-.216.485-.331a.812.812 0 0 0 .186-.175.74.74 0 0 1 .207-.203c-.014-.022-.02-.039-.031-.046-.269-.166-.453-.455-.71-.639-.033-.024-.055-.067-.083-.1-.123-.142-.233-.299-.382-.408-.182-.134-.34-.297-.506-.454a26.338 26.338 0 0 0-1.28-1.159c-.464-.384-.877-.837-1.282-1.297a5.039 5.039 0 0 0-.573-.577 3.436 3.436 0 0 1-.222-.199c-.241-.233-.481-.468-.746-.666a3.194 3.194 0 0 1-.336-.292c-.095-.095-.195-.185-.28-.294l-.001-.001zm2.026 8.356c-.022-.038-.026-.055-.037-.061-.096-.052-.196-.094-.28-.173-.044-.041-.1-.044-.153-.031-.062.014-.124.039-.19.062.038.084.106.095.159.105.161.034.314.135.501.099z"
                opacity=".08" style="fill:var(--color1, #fcfcfc)" />
            <path fill="#fcfcfc"
                d="M22.499 23.808c-.007.076-.007.154-.023.228-.033.158-.184.238-.315.172-.025-.012-.048-.027-.073-.036-.038-.014-.053-.046-.053-.086.001-.243.054-.469.173-.672a.45.45 0 0 1 .053-.069c.034-.036.068-.086.118-.074.056.014.054.079.059.131.014.136.074.264.059.407v.001zm-.186.11c.002-.029-.011-.044-.033-.043s-.032.023-.035.045.002.049.022.053c.032.005.041-.027.047-.055h-.001zM22.054 21.198c0 .038.002.077 0 .115-.013.232-.164.377-.363.352-.184-.024-.24-.12-.165-.311.049-.125.094-.254.173-.361.038-.052.081-.084.137-.036.035.029.059.008.089-.012.088-.057.116-.04.129.07a.798.798 0 0 1 .004.068v.115h-.004zM21.418 22.734c-.02.316-.106.555-.333.701-.024.016-.05.028-.073.003-.025-.026-.05-.049-.085-.055-.055-.009-.061-.061-.05-.103.032-.116.064-.233.112-.342.066-.15.147-.292.267-.397.045-.039.089-.027.115.031a.539.539 0 0 1 .047.161v.001zm-.262.365.008-.003-.003.01a.04.04 0 0 0-.014.008c-.002.001-.002.007-.004.01l.012-.024.001-.001zM20.834 21.187c-.058-.007-.122-.01-.158-.075a.22.22 0 0 1 .005-.216.664.664 0 0 1 .227-.253 4.14 4.14 0 0 1 .231-.138c.064-.036.117-.014.169.066.042.066.046.161 0 .209-.112.12-.228.236-.342.352-.037.038-.083.047-.133.053l.001.001zM19.725 20.138c.04.005.119.012.199.023.037.005.058.036.069.073.028.097-.008.218-.089.25-.151.059-.303.125-.468.095-.026-.005-.054-.005-.079-.014-.073-.027-.166-.137-.155-.192.016-.091.079-.135.15-.166.108-.048.22-.059.373-.068l-.001-.001zM22.524 22.003c0-.071-.002-.102 0-.132.006-.092.044-.134.133-.116a.141.141 0 0 0 .112-.018c.048-.029.092-.01.126.035.101.132.101.446 0 .578-.032.042-.069.068-.123.054-.044-.011-.105.009-.133-.019a.345.345 0 0 1-.106-.215l-.011-.166.001-.001zM19.518 19.381a.368.368 0 0 1-.304-.107c-.076-.069-.07-.162.014-.225.124-.092.253-.137.4-.077.05.021.103.032.156.044a.12.12 0 0 1 .082.055c.118.185.105.227-.098.281-.083.023-.166.068-.25.027l-.001.001zm-.001-.211c-.003-.005-.005-.012-.009-.014a.02.02 0 0 0-.017.002c-.011.011-.006.02.011.021.005 0 .01-.006.015-.01l-.001.001zM20.324 21.592c.088-.001.124.023.137.093.007.04.005.079-.018.108-.095.117-.188.237-.31.321-.156.108-.228.104-.375-.03-.019-.018-.02-.04-.011-.06.011-.027.028-.051.044-.075.095-.132.221-.22.34-.318.06-.049.13-.026.195-.039h-.001zM20.55 20.291c-.043-.006-.071-.006-.095-.016-.062-.026-.132-.047-.15-.134-.019-.089.037-.141.088-.189a.371.371 0 0 1 .337-.105c.072.014.145.025.217.042.05.012.077.062.068.119-.011.07-.03.138-.095.162-.127.045-.255.084-.369.12zM23.657 24.079c-.125.001-.195-.045-.233-.168a3.153 3.153 0 0 1-.073-.286.483.483 0 0 1-.004-.137c.009-.082.087-.122.149-.073.029.023.047.048.085.028.063-.033.1.003.128.066.061.138.115.278.108.437-.004.107-.026.13-.12.134h-.04l.001-.001zM23.618 22.75c.001-.098.076-.204.166-.231a.079.079 0 0 1 .091.032c.079.105.151.216.207.34.022.05.026.102.022.157-.005.082-.063.139-.136.135-.179-.01-.351-.222-.349-.431l-.001-.001zM22.414 21.796c.002.079-.032.129-.086.124s-.102-.059-.103-.117c-.001-.047.042-.09.096-.095s.092.029.094.088h-.001zM21.95 22.913c.042.003.078.054.078.11 0 .064-.044.12-.095.12-.049.001-.095-.064-.089-.124s.057-.111.106-.107h-.001zM21.949 22.306c-.007.049-.058.105-.092.101-.05-.006-.099-.079-.084-.129.014-.046.045-.075.088-.075s.094.062.088.103h.001zM23.32 22.635c.006.047-.031.094-.084.104-.055.011-.099-.021-.104-.073-.005-.059.024-.108.07-.118.059-.012.11.025.118.086zM22.899 23.121c.061-.001.115.053.119.119.004.054-.034.099-.083.101-.052.001-.091-.049-.093-.118-.001-.053.026-.101.057-.102zM21.425 20.209c.061-.001.1.031.101.082a.1.1 0 0 1-.09.101.101.101 0 0 1-.112-.1c-.002-.049.04-.082.101-.083zM22.401 20.994c.059.003.099.049.101.117.002.057-.04.107-.086.101-.051-.006-.089-.062-.089-.13 0-.048.035-.09.075-.088zM20.065 21.132c-.001.051-.043.098-.092.101-.048.003-.093-.044-.093-.097s.043-.086.101-.083c.047.003.084.038.084.079zM21.025 21.762c.068 0 .108.037.108.104 0 .051-.029.088-.072.09-.069.004-.111-.047-.106-.131.003-.048.034-.06.07-.064zM20.287 19.38a.098.098 0 0 1 .094.115c-.01.057-.051.063-.091.064-.055.001-.103-.058-.095-.114.005-.036.048-.066.093-.065h-.001zM23.476 22.295c-.01.05-.079.103-.12.092-.033-.009-.067-.08-.062-.129.005-.039.048-.067.092-.059.058.011.098.053.091.095h-.001zM20.8 22.58c-.004.049-.038.086-.075.084a.107.107 0 0 1-.093-.118.084.084 0 0 1 .088-.068c.051.006.085.049.081.103l-.001-.001zM20.556 20.831c-.004.052-.049.103-.09.1-.047-.004-.091-.074-.08-.131.008-.042.038-.058.074-.056.055.001.098.043.095.088v-.001zM6.926 26.296a5.64 5.64 0 0 1-.153 1.175.44.44 0 0 1-.026.072c-.173.382-.338.768-.524 1.142-.106.213-.226.419-.422.559-.085.06-.15.154-.224.234a2.263 2.263 0 0 1-1.233.692c-.109.023-.22.038-.33.056-.212.035-.426.054-.637.096-.279.055-.553.02-.813-.124a5.083 5.083 0 0 0-.75-.336c-.283-.1-.534-.267-.774-.457a1.096 1.096 0 0 1-.249-.28c-.122-.194-.238-.393-.36-.586a1.067 1.067 0 0 1-.138-.359 1.92 1.92 0 0 0-.177-.538 1.087 1.087 0 0 1-.109-.478 3.297 3.297 0 0 1 .05-.755c.011-.059.025-.121.021-.18-.023-.344.028-.675.091-1.01a3.48 3.48 0 0 1 .165-.569.935.935 0 0 1 .152-.263c.156-.198.305-.402.492-.568.068-.06.133-.123.199-.186.119-.113.259-.199.345-.355a.406.406 0 0 1 .204-.175c.134-.058.257-.139.377-.224.17-.122.349-.196.555-.216.253-.025.502-.086.755-.121.229-.032.459-.048.688.011.077.019.159.015.237.028.101.018.204.032.297.091.402.257.762.567 1.047.975.106.153.228.291.368.409.192.161.343.368.484.576.132.195.208.432.247.675.026.164.053.326.101.485.047.152.037.311.047.505l-.001-.001zm-3.359-2.342c-.042.038-.036.093-.042.143-.03.277-.053.554-.091.829a3.183 3.183 0 0 0-.01.625c.007.109.053.199.09.294.018.047.061.047.102.034s.066-.044.09-.08c.06-.092.116-.189.184-.273.197-.245.321-.538.441-.832a.952.952 0 0 0 .093-.422c-.105-.014-.199-.026-.293-.041-.038-.006-.064-.06-.055-.1s.038-.056.07-.056c.094.002.187.008.285.013 0-.03.009-.062-.001-.081a.526.526 0 0 0-.265-.249.77.77 0 0 0-.352-.038c-.178.01-.194.028-.251.241l.005-.009v.001zm1.785 2.021c.04-.001.079.002.119-.004.094-.013.188-.037.283-.046.134-.013.178.02.211.152.104.425.072.847-.048 1.26-.053.183-.128.231-.304.214-.079-.007-.157-.027-.236-.04-.05-.008-.082.023-.07.073.023.101.05.201.077.301.047.172.043.323-.113.437-.092.067-.169.159-.259.23-.219.171-.49.116-.648-.125-.039-.059-.06-.136-.152-.182.106.259.141.52.263.746.008.015.012.033.016.049.03.137.006.253-.159.285-.149.03-.302.034-.446.074-.165.046-.316.006-.47-.026a.56.56 0 0 1-.287-.177c-.054-.059-.025-.167-.025-.254 0-.051-.006-.102-.009-.153-.031.053-.041.111-.057.166-.069.229-.209.363-.431.388-.033.004-.079-.023-.1.039.018.016.035.035.054.047.235.136.481.22.751.229.305.011.604-.007.89-.137.132-.06.265-.116.4-.172.25-.104.454-.285.649-.48.267-.267.465-.596.671-.917a.451.451 0 0 0 .053-.116c.102-.375.226-.745.262-1.139.02-.217.07-.431.048-.65a2.934 2.934 0 0 0-.116-.64c-.088-.27-.16-.547-.341-.77a1.088 1.088 0 0 1-.162-.289c-.095-.246-.248-.443-.411-.636a.69.69 0 0 0-.168-.143 1.409 1.409 0 0 0-.583-.215c-.165-.02-.333-.024-.492-.094-.049-.022-.11-.019-.165-.018-.191.003-.382.006-.573.017a.583.583 0 0 0-.209.047.753.753 0 0 1-.441.076.364.364 0 0 0-.231.042 2.635 2.635 0 0 0-.708.527 5.18 5.18 0 0 1-.371.37c-.201.178-.321.412-.396.671a6.558 6.558 0 0 0-.248 1.622c-.002.079-.006.159.004.235.038.258.068.519.127.771a2.21 2.21 0 0 0 .967 1.398c.021.013.05.046.082.002-.095-.224-.045-.414.113-.588.141-.154.27-.321.402-.485.023-.029.062-.057.04-.109-.06.004-.094.056-.138.089-.191.144-.39.271-.61.352-.205.076-.407-.019-.485-.234-.026-.072-.056-.147-.065-.224-.022-.208-.035-.417-.049-.626-.007-.106.04-.178.119-.239.134-.103.289-.143.44-.196.167-.058.336-.107.502-.166.04-.014.094-.023.105-.104-.136-.011-.269-.029-.403-.031a2.403 2.403 0 0 1-.61-.117c-.177-.051-.263-.18-.27-.379-.008-.21.005-.418.06-.622a.946.946 0 0 1 .382-.548c.065-.046.129-.047.203-.013.209.096.384.245.547.414.104.108.207.217.312.323.033.033.07.037.107.007l-.008.009.013.002a3.242 3.242 0 0 1-.424-1.072.618.618 0 0 1 .092-.492c.065-.099.14-.19.209-.286a.76.76 0 0 1 .202-.182c.107-.073.209-.066.309.02.128.11.219.252.294.407.018.037.022.086.08.096.02-.069.05-.139.059-.213a.334.334 0 0 1 .266-.298.904.904 0 0 1 .872.213.343.343 0 0 1 .12.245c.006.083.015.166.023.254.285-.15.434-.128.659.093.077.076.15.157.228.231.231.219.323.511.361.83.015.122-.023.224-.125.287-.111.069-.223.135-.332.206-.038.025-.092.038-.093.104-.018-.003-.037-.01-.046.017 0 0 .012.009.014.007.01-.009.018-.019.027-.03l.001.002zm.5-1.811c-.023.034-.011.067.003.098.064.14.128.28.214.407.052.076.102.157.137.245.156.385.252.788.276 1.21.004.078.009.158-.001.235-.057.413-.096.827-.218 1.228a2.83 2.83 0 0 1-.329.748c-.268.407-.566.773-.958 1.041-.397.272-.817.462-1.289.505-.412.037-.814.002-1.183-.209-.219-.125-.448-.224-.667-.346-.36-.199-.678-.444-.909-.819a2.597 2.597 0 0 1-.314-.67 4.54 4.54 0 0 1-.099-.483 3.713 3.713 0 0 1-.045-1.009c.009-.078.008-.157.012-.235.002-.044.003-.088.01-.13.061-.369.128-.737.229-1.095a1.42 1.42 0 0 1 .287-.535c.158-.184.331-.351.5-.523.182-.185.374-.353.603-.462.087-.041.178-.077.26-.13a.5.5 0 0 1 .272-.078c.079-.002.165.012.237-.016.246-.095.5-.089.754-.1.2-.009.397.002.59.069a.484.484 0 0 0 .14.028c.218.008.422.079.625.156.024.009.052.045.078-.009-.054-.072-.109-.15-.187-.193-.149-.082-.282-.199-.444-.252a.508.508 0 0 0-.094-.02c-.165-.026-.331-.047-.495-.076a.725.725 0 0 0-.237.002c-.331.05-.661.093-.992.142a.744.744 0 0 0-.271.095c-.195.113-.4.208-.543.406a6.132 6.132 0 0 0-.852.754c-.29.298-.519.636-.571 1.087-.01.086-.031.171-.052.255a1.9 1.9 0 0 0-.048.597c.01.131.018.263-.01.392-.038.181-.042.363-.048.547-.006.205.033.4.119.579.079.164.133.337.174.513.043.182.114.342.216.49.077.111.155.223.219.342.097.178.229.313.395.407.239.136.465.303.738.357.061.012.119.049.177.077l.458.224c.17.083.343.123.532.107.176-.015.343-.07.515-.1.243-.043.488-.069.727-.135.258-.071.5-.172.706-.358.166-.149.324-.309.488-.46.099-.091.179-.196.248-.315.167-.287.287-.603.431-.904.078-.161.164-.325.208-.499.1-.396.165-.8.152-1.215a1.317 1.317 0 0 0-.05-.361 2.96 2.96 0 0 1-.098-.431c-.035-.217-.093-.434-.213-.606-.147-.212-.298-.431-.519-.566h.002zm-2.044 1.805c.128.058.222.121.309.194a.184.184 0 0 0 .202.033c.059-.025.12-.045.177-.076.157-.084.32-.152.48-.227.219-.102.429-.225.639-.346.09-.051.107-.109.088-.217-.008-.043-.011-.088-.028-.127-.065-.157-.1-.331-.223-.453-.094-.093-.187-.189-.282-.28-.168-.161-.304-.15-.45.033-.021.026-.035.057-.051.087-.189.372-.387.737-.646 1.059-.073.091-.133.195-.216.319h.001zm2.028.63c.011-.125-.035-.241-.055-.361-.014-.085-.045-.106-.116-.084-.282.087-.574.129-.847.251-.043.019-.092.026-.138.039-.139.036-.282.057-.414.112-.082.034-.179.068-.23.165.032.128.144.118.226.15.126.051.26.079.379.154.237.15.501.217.761.295.045.014.094.018.141.022.156.012.182-.023.219-.177.043-.184.051-.378.074-.567h-.001zm-3.602.177c-.023.002-.039.003-.054.007-.289.071-.552.215-.815.357a.145.145 0 0 0-.075.125c-.006.227 0 .453.068.67.044.14.092.164.218.109a2.685 2.685 0 0 0 1.046-.788 1.44 1.44 0 0 0 .192-.33c.024-.056 0-.098-.06-.108a.626.626 0 0 0-.307.011c-.055.019-.107.026-.155-.023-.016-.016-.041-.022-.057-.03l-.001-.001zm.955-1.965h.001c0-.105.005-.21-.001-.314a1.25 1.25 0 0 0-.262-.687c-.091-.122-.165-.136-.28-.015a1.701 1.701 0 0 0-.27.365c-.038.069-.071.145-.049.224.048.175.05.363.125.53.133.298.28.587.458.855.023.034.038.092.081.085.058-.009.058-.075.06-.125.002-.069-.005-.139-.008-.209-.002-.055.006-.114.046-.143.104-.076.097-.191.1-.303.002-.087 0-.174 0-.262h-.001zm.159 3.902h-.011v.235c.004.16.03.19.17.236.231.076.456.002.682-.034a.073.073 0 0 0 .058-.096c-.048-.166-.087-.337-.153-.494-.147-.356-.323-.696-.449-1.063a1.112 1.112 0 0 0-.086-.185.598.598 0 0 0-.09-.12c-.013-.014-.053-.023-.063-.012-.05.05-.126.077-.119.178.01.139.009.278.015.418.013.312.029.625.043.936l.001.001zm-.868-2.417c.003-.056 0-.098.009-.137.011-.05.032-.097.05-.146.035-.096.037-.098-.042-.172a35.572 35.572 0 0 0-.638-.589 1.524 1.524 0 0 0-.241-.167c-.118-.069-.135-.063-.224.041-.189.22-.215.496-.215.778 0 .135.026.178.139.205.216.052.427.135.654.127.165-.006.331-.006.509.06h.001zm2.53 1.94c.087-.003.199-.107.184-.182-.032-.168-.081-.333-.127-.498-.006-.022-.032-.037-.05-.055a.573.573 0 0 0-.184-.116c-.18-.069-.356-.148-.534-.22-.119-.048-.238-.094-.358-.141-.033-.012-.061-.006-.084.025-.026.035-.048.073-.03.118.016.04.035.079.06.111.228.302.436.619.641.94a.443.443 0 0 0 .136.143c.036.023.074.035.114.025a.102.102 0 0 0 .053-.042c.005-.007-.003-.035-.012-.044-.016-.017-.043-.025-.058-.043-.051-.06-.051-.136-.004-.183s.114-.03.156.045c.012.022.009.057.024.072.022.023.054.033.073.044h.001zm-2.385-.232c.061.065.108.131.051.229-.017.03.004.084.003.128-.001.062-.038.088-.097.077-.065-.012-.094-.055-.101-.125-.003-.03.018-.077-.031-.079-.018 0-.041.023-.054.042-.086.126-.18.245-.286.351-.067.066-.08.151-.06.238a.39.39 0 0 0 .113.196c.126.125.276.123.428.102.14-.02.184-.153.232-.272a.75.75 0 0 0 .052-.173c.052-.335.1-.671.148-1.006.009-.063.04-.128.006-.21-.159.15-.278.319-.402.501h-.001zm.46-1.074c.092-.051.16-.09.188-.198.028-.106.114-.111.182-.03.021.026.038.056.06.082.038.045.082.101.14.07.038-.02.009-.079.011-.121.001-.024.007-.058.022-.07.062-.048.077-.101.039-.178-.029-.059-.008-.117.026-.171.013-.02.016-.05-.007-.07-.06-.054-.104-.133-.201-.115-.104.02-.184-.03-.249-.117-.047-.061-.08-.033-.103.026-.038.099-.112.114-.197.105-.031-.003-.062-.013-.094-.018-.127-.019-.143-.003-.11.127.021.079.026.146-.022.22-.042.064-.028.101.035.106.118.01.191.077.236.188.019.047.027.1.043.164l.001-.001zm-.03.23c-.004-.016-.003-.039-.012-.047-.021-.018-.039 0-.053.02s-.033.037-.043.059c-.012.025-.052.055-.004.08.028.015.06.004.085-.02.026-.024.028-.058.028-.092l-.001-.001z"
                opacity=".08" style="fill:var(--color1, #fcfcfc)" />
            <path fill="#fcfcfc"
                d="M4.561 25.827c-.015-.003-.033-.002-.044-.011a.162.162 0 0 1-.041-.056.05.05 0 0 1 .021-.064c.026-.017.053-.035.082-.043.052-.014.094.016.104.069s-.016.088-.077.098l-.045.006zM4.72 25.144c-.048.006-.074-.016-.078-.069-.005-.062.03-.111.075-.104.053.008.112.077.1.123-.013.053-.06.044-.096.05H4.72zM5.08 25.221c-.003.039-.019.069-.057.068-.034-.002-.084.026-.094-.041-.006-.045 0-.089.048-.105.043-.015.097.028.104.079v-.001zM5.148 25.032c-.009.05-.049.051-.087.051-.061 0-.091-.031-.091-.087 0-.044.033-.08.073-.079.062.003.106.049.104.115v-.001zM5.171 25.507c.053.002.083.038.1.088.012.036-.023.068-.073.067-.039 0-.077-.003-.082-.061-.004-.045.023-.093.056-.095l-.001.001zM4.25 25.711c-.005.048-.043.072-.105.064-.046-.005-.068-.034-.063-.083.006-.057.045-.091.094-.086s.079.05.074.105h.001zM4.641 25.254c.055-.002.118.059.106.107-.003.012-.02.028-.032.03-.065.012-.121-.03-.118-.084a.055.055 0 0 1 .043-.054v.001zM3.909 25.013c.001.07-.068.157-.146.178-.029.008-.067.017-.082-.022-.011-.03-.016-.076-.001-.098a.595.595 0 0 1 .117-.123c.027-.023.112.03.112.065zM3.647 25.557c-.07.005-.098-.007-.104-.046-.007-.044 0-.085.042-.106a.118.118 0 0 1 .111.001c.03.015.049.044.043.079-.004.022-.02.049-.038.058-.026.014-.059.014-.053.013h-.001zM3.563 23.962c.023-.037.053-.065.096-.066.044-.002.077.026.089.07.011.039-.019.058-.048.076-.087.053-.091.051-.131-.088l-.005.009-.001-.001zM3.722 24.749c.004.044-.058.1-.119.097-.018-.001-.043-.026-.049-.045-.017-.063.021-.136.068-.142.04-.006.095.044.099.09h.001zM3.971 24.418c-.006.034-.072.071-.115.065-.038-.006-.063-.062-.054-.123.006-.04.03-.059.065-.055.061.008.114.068.104.114zM4.199 24.646c-.009.05-.064.09-.109.081-.053-.011-.045-.058-.04-.099.006-.051.04-.075.079-.058.035.015.072.031.07.076zM5.457 27.206c-.05 0-.089-.041-.09-.094-.001-.067.049-.132.094-.118.048.016.078.054.08.111.002.054-.038.1-.084.1zM4.636 26.813c-.077-.002-.111-.034-.104-.097s.052-.101.115-.094c.06.006.105.06.094.12s-.053.079-.105.072zM5.543 26.345c.047-.006.081.027.09.093.008.054-.016.098-.051.097-.062-.002-.119-.049-.116-.104.002-.048.031-.076.077-.086zM5.301 26.689c-.046-.003-.085-.072-.074-.139.009-.053.047-.065.089-.061.053.006.083.049.08.107-.003.05-.05.096-.095.093l-.001.001zM5.233 26.811c-.001.007-.002.016-.006.023-.033.05-.133.038-.158-.019a.098.098 0 0 1 .006-.097c.028-.043.066-.032.103-.01s.06.052.056.103h-.001zM1.818 27.543c0 .055-.041.095-.094.09-.048-.004-.083-.047-.087-.105s.033-.104.083-.105c.058-.002.098.048.098.12zM2.422 27.251c-.009.013-.016.032-.028.037-.047.023-.122-.013-.139-.064-.013-.041.013-.105.056-.129.021-.012.045-.012.062.013.03.042.045.09.048.142zM2.195 27.286c-.009.046-.042.061-.084.056-.067-.008-.109-.058-.099-.112.01-.052.049-.061.087-.063.059-.002.1.049.095.119h.001zM2.892 25.221c-.074-.002-.119-.04-.111-.094.007-.044.029-.08.07-.09.055-.013.118.065.107.13-.006.039-.033.054-.067.054zM2.862 24.842c.001.044-.015.061-.054.064-.048.003-.093.013-.107-.058-.011-.055.018-.118.057-.118.048 0 .095.052.104.111zM2.933 24.414c-.035.002-.061-.015-.062-.056-.001-.048.023-.088.064-.093.039-.006.076.023.093.065.015.039-.035.083-.094.085zM2.603 24.537c-.053.002-.077-.028-.079-.074-.001-.032.007-.067.048-.065.055.002.092.038.089.087-.003.044-.034.047-.058.052zM2.752 24.161c-.011.014-.023.042-.041.048-.05.018-.116-.039-.111-.093.002-.029.025-.045.049-.047a.1.1 0 0 1 .104.09l-.001.001zM3.772 28.756c.061-.006.124-.013.171.043.027.032.043.071.03.115-.011.038-.04.047-.072.05-.023.002-.046.007-.069.007-.09 0-.107-.027-.105-.168l-.005.006.055-.061-.005.009v-.001zM3.485 27.59c.051-.006.09.028.097.084.009.071-.024.133-.072.138-.057.006-.108-.039-.115-.1-.008-.065.029-.115.09-.122z"
                opacity=".08" style="fill:var(--color1, #fcfcfc)" />
            <path fill="#fcfcfc"
                d="M3.726 28.803a.146.146 0 0 1-.131-.049c-.028-.032-.048-.072-.033-.118.011-.037.042-.05.075-.053.042-.005.082.006.101.051.016.038.023.082.035.123l.005-.009c-.033.005-.043.034-.055.061l.005-.005-.001.001zM3.722 28.205c-.001.052-.038.084-.099.086-.06.002-.094-.03-.093-.089 0-.076.04-.129.094-.122.058.007.099.06.099.125zM1.61 25.833c.054-.071.12-.069.192-.041.055.022.099.009.148-.036.054-.051.106-.028.149.047.02.034.014.073-.022.083-.105.03-.211.055-.318.074-.105.019-.106.016-.142-.137l-.006.009zM1.453 25.274c.072.008.143.076.15.144a.067.067 0 0 1-.016.045c-.032.037-.113.043-.151.013-.037-.03-.059-.118-.035-.163.011-.02.036-.029.051-.04h.001z"
                opacity=".08" style="fill:var(--color1, #fcfcfc)" />
            <path fill="#fcfcfc"
                d="m1.617 25.824-.089.019c-.028.005-.062.028-.081-.013-.021-.047-.025-.101.01-.143.03-.037.07-.03.106-.009.059.034.059.093.048.155l.006-.009zM4.959 27.822c-.002.059-.052.098-.12.096-.062-.002-.103-.055-.094-.12s.059-.111.116-.101a.124.124 0 0 1 .099.125zM4.506 27.438c-.006.07-.044.105-.111.101-.043-.003-.078-.054-.076-.108.003-.062.051-.106.111-.101.048.004.079.049.075.109v-.001zM2.531 28.641c.058.004.089.05.084.125-.004.058-.033.087-.092.089-.065.002-.103-.041-.099-.109s.045-.109.106-.105zM36.411 13.439c-.17.332-.365.645-.578.945a3.66 3.66 0 0 1-.837.83 5.235 5.235 0 0 1-.758.464 1.413 1.413 0 0 1-.467.131.335.335 0 0 0-.217.1c-.087.089-.202.116-.311.152-.083.027-.156-.022-.214-.092-.014-.016-.02-.04-.034-.056-.073-.076-.023-.217-.138-.281-.087-.048-.122-.174-.174-.265-.138-.247-.295-.485-.373-.77a2.064 2.064 0 0 1-.035-1.041c.077-.318.161-.634.249-.949.028-.1.066-.198.115-.286.155-.281.315-.559.479-.833.051-.086.122-.159.186-.235.173-.209.343-.421.55-.59.211-.173.428-.336.674-.444a1.24 1.24 0 0 1 .57-.118c.047.002.094-.002.141-.004a.164.164 0 0 0 .137-.081c.02-.03.043-.058.059-.091.095-.199.259-.225.432-.206.147.017.237.13.289.278.037.105.058.216.063.328a.239.239 0 0 0 .077.173c.146.137.252.308.323.507.038.106.062.213.073.325.013.126.022.254.041.379.023.157.016.313.002.47a3.945 3.945 0 0 1-.217 1.023 1.622 1.622 0 0 1-.11.239v-.001zm-.129-.224c.186-.376.244-.826.265-1.286.001-.029-.003-.059-.007-.09l-.069-.579a.966.966 0 0 0-.313-.609c-.086-.079-.135-.158-.132-.282a.955.955 0 0 0-.07-.325c-.046-.102-.117-.13-.219-.101-.071.02-.115.072-.147.141-.083.183-.223.247-.399.238-.047-.002-.094.001-.141.003a1.381 1.381 0 0 0-.432.097c-.265.102-.488.285-.703.473-.211.183-.39.409-.559.642s-.298.497-.444.748c-.096.165-.17.338-.22.526-.074.28-.156.558-.212.842-.061.312-.037.623.072.926.076.212.197.391.304.58a.113.113 0 0 0 .098.062c.095.01.139.078.147.18.005.067.01.134.019.201a.93.93 0 0 0 .031.152c.027.084.067.104.139.074.075-.032.154-.059.207-.132.05-.07.117-.09.193-.103.179-.031.356-.076.522-.157.258-.128.505-.282.734-.464.294-.235.576-.488.789-.823.186-.293.383-.577.546-.934h.001z"
                opacity=".08" style="fill:var(--color1, #fcfcfc)" />
            <path fill="#fcfcfc"
                d="M33.603 13.138c-.017.034-.039.047-.068.045-.031-.003-.048-.024-.057-.054-.022-.07.008-.13.064-.132.065-.003.093.068.061.141h.001zM33.39 13.968c-.023.028-.05.049-.086.028-.047-.027-.067-.101-.043-.155.014-.033.072-.039.108-.013.038.028.048.089.021.139zM33.373 15.089c-.024.041-.053.054-.089.037-.041-.018-.06-.058-.075-.1a.059.059 0 0 1 .004-.041c.019-.032.086-.034.129-.006.038.024.05.075.031.109v.001zM33.009 13.817c-.016.038-.048.055-.08.051-.043-.005-.079-.088-.07-.14.007-.038.057-.056.098-.035a.1.1 0 0 1 .051.124h.001zM33.09 14.376c-.023.039-.074.056-.103.034-.041-.03-.063-.095-.047-.134.018-.04.078-.047.123-.015a.087.087 0 0 1 .026.114zM33.808 12.069c-.015.044-.06.077-.089.064-.042-.018-.067-.094-.046-.148.016-.041.049-.043.082-.033.05.015.071.064.053.117h.001zM34.169 14.855c.045.023.064.066.044.104-.018.034-.047.055-.082.047-.04-.009-.074-.083-.062-.122s.054-.052.101-.029zM33.231 13.237c-.01.034-.068.068-.098.057-.036-.013-.067-.082-.058-.127.008-.04.057-.066.095-.051a.106.106 0 0 1 .061.122v-.001zM33.872 15.144c-.048-.025-.075-.086-.055-.122.019-.034.076-.045.125-.023.03.013.041.056.023.092-.023.049-.06.07-.093.053h.001zM33.399 12.714c-.017.045-.063.068-.094.047-.039-.025-.058-.09-.036-.132.021-.04.054-.033.085-.018.045.022.061.062.045.103zM33.538 14.961c-.038-.018-.064-.069-.055-.106.008-.035.06-.054.103-.034.038.018.04.053.028.092-.013.04-.036.059-.075.047zM33.459 14.395c-.017.023-.037.045-.066.031-.041-.019-.069-.098-.046-.13.02-.026.048-.021.074-.011.041.015.057.064.038.109v.001zM34.9 10.778c-.017.014-.034.029-.051.009s-.037-.042-.046-.067c-.013-.034.014-.083.041-.086.031-.004.048.017.06.044.016.035.019.07-.004.101l-.001-.001zM34.55 10.854c-.039-.023-.051-.065-.034-.111.009-.024.028-.03.047-.024a.08.08 0 0 1 .048.102c-.011.026-.032.046-.06.033l-.001.001zM34.002 11.352c-.011.019-.028.031-.048.025-.043-.014-.035-.051-.028-.086.005-.023.019-.037.041-.027.028.013.044.058.035.089v-.001zM38.1 27.412a2.829 2.829 0 0 1-.915-.345c-.438-.25-.734-.634-.922-1.127a1.59 1.59 0 0 1-.103-.77.574.574 0 0 0-.065-.338.547.547 0 0 1-.072-.311c.008-.077.034-.142.106-.168.109-.04.215-.094.335-.097.215-.006.423.002.632.092.443.193.904.265 1.385.214.313-.033.625-.061.935-.125a4.84 4.84 0 0 0 1.291-.467c.345-.18.655-.424.986-.629.108-.067.214-.139.323-.202.279-.161.533-.366.789-.565.115-.089.228-.18.344-.268.214-.163.449-.281.711-.294a.387.387 0 0 0 .282-.146c.109-.125.205-.26.232-.44.009-.062.033-.121.05-.182.057-.208.11-.273.295-.224.199.054.392.015.587.036.024.002.049.002.074.009a.138.138 0 0 1 .097.077c.099.222.18.45.12.705l-.106.475c-.027.122-.024.223.086.311.092.074.163.179.24.274.155.192.218.416.216.674-.004.495-.098.971-.225 1.441a16.309 16.309 0 0 1-.633 1.886c-.214.53-.432 1.059-.732 1.541-.357.572-.754 1.1-1.283 1.496-.273.204-.531.432-.796.648a3.257 3.257 0 0 1-.463.315c-.221.123-.439.253-.659.379a1.42 1.42 0 0 1-.135.068c-.561.25-1.134.451-1.736.552-.325.055-.625-.021-.92-.146-.131-.056-.256-.126-.396-.157a.281.281 0 0 1-.093-.034c-.115-.072-.23-.144-.341-.222-.104-.074-.097-.185.018-.248.097-.053.188-.114.27-.192.027-.026.047-.054.039-.093-.041-.208.044-.347.198-.454.032-.022.021-.074-.014-.085l-.261-.081c-.391-.123-.714-.372-1.018-.657-.082-.077-.159-.16-.245-.23-.214-.175-.343-.415-.434-.682-.052-.152-.089-.305-.199-.429-.08-.09-.067-.221-.03-.336a.21.21 0 0 1 .163-.151c.139-.024.274-.07.417-.07.282-.002.563-.013.845-.015.259-.003.504-.057.734-.211l-.003-.002zm6.241-5.377c-.044.009-.087.04-.089.082-.006.125-.072.163-.166.14-.248-.062-.455.038-.655.179a8.39 8.39 0 0 0-.573.43c-.157.133-.32.261-.494.364-.401.238-.782.511-1.175.762-.416.265-.85.489-1.328.588-.195.04-.391.077-.585.122a2.791 2.791 0 0 1-.616.07c-.041 0-.084-.002-.124.005-.537.088-1.056-.013-1.565-.188-.189-.065-.376-.053-.565-.04-.072.005-.103.06-.075.133.058.152.102.306.091.474-.03.462.137.848.391 1.198.115.156.256.285.41.392.311.218.638.377 1.02.372.173-.002.347.002.52.007a.765.765 0 0 0 .38-.081c.157-.079.315-.157.468-.247.636-.375 1.227-.825 1.803-1.3.04-.032.077-.07.113-.106.306-.305.611-.612.886-.951.259-.318.522-.633.72-1.004.11-.205.238-.395.392-.56.188-.201.362-.428.627-.52.05-.017.081-.059.102-.112l.09-.219c-.016.007-.019.005-.007-.008l.004.015.001.001zm-5.651 8.102c.124.005.247-.016.369-.04.318-.062.64-.11.941-.242.686-.3 1.338-.67 1.923-1.171.117-.1.232-.207.358-.294.199-.137.359-.32.521-.501.069-.078.144-.15.213-.227.219-.247.426-.502.59-.801.127-.231.235-.48.402-.683.083-.102.148-.218.22-.328.201-.312.361-.65.536-.979.129-.241.272-.471.336-.753.09-.399.129-.787-.066-1.159-.152-.291-.15-.586-.043-.889.033-.095.041-.194.052-.293.005-.049-.013-.089-.06-.104-.032-.01-.065-.014-.097-.024-.058-.019-.093.007-.117.065-.078.18-.177.35-.222.545-.03.13-.075.235-.214.254-.029.004-.056.037-.083.057-.293.226-.56.48-.769.801-.01.015-.02.029-.028.044-.143.277-.332.519-.509.769a5.97 5.97 0 0 1-.253.334c-.111.134-.229.261-.342.394a6.051 6.051 0 0 1-.704.726c-.408.34-.816.683-1.256.973-.276.182-.546.378-.847.513-.429.192-.859.383-1.299.541-.259.092-.52.18-.797.192-.331.014-.661.037-.992.06-.065.005-.13.024-.194.042-.069.02-.088.064-.047.116.108.133.152.298.201.462.041.138.09.278.187.378.203.212.415.415.627.618.126.12.279.194.423.281.324.193.666.316 1.04.322h-.002zm6.553-7.384c-.007.093.031.133.053.18.106.214.148.442.118.683a4.096 4.096 0 0 1-.192.842.957.957 0 0 1-.079.168 8.189 8.189 0 0 0-.285.54c-.141.298-.313.573-.469.86a2.822 2.822 0 0 1-.213.334 4.101 4.101 0 0 0-.341.534 5.35 5.35 0 0 1-.228.389c-.29.447-.661.81-1.032 1.173-.037.036-.078.069-.117.101-.253.204-.507.408-.762.61-.06.048-.122.095-.188.13-.23.125-.449.271-.679.394-.261.139-.529.257-.789.396-.058.032-.126.041-.189.063-.238.084-.488.101-.73.162a1.488 1.488 0 0 1-.517.053.218.218 0 0 0-.216.097.83.83 0 0 1-.103.117c-.082.073-.132.159-.13.279s-.047.208-.14.27c-.021.014-.038.034-.055.053-.04.047-.029.111.027.126.186.05.358.137.528.23.088.048.185.082.281.108.16.044.325.074.491.053.272-.035.537-.109.796-.201.385-.137.774-.26 1.135-.474.32-.19.65-.36.947-.594.323-.254.641-.516.958-.776.073-.06.14-.127.209-.192.324-.303.576-.675.822-1.05.068-.103.145-.201.197-.314.197-.429.392-.858.574-1.295.117-.28.208-.573.31-.859.051-.143.109-.285.151-.43.137-.466.269-.932.352-1.414.035-.2.029-.397.022-.595a.64.64 0 0 0-.111-.328 1.435 1.435 0 0 0-.405-.421l.002-.002zm-.129-1.332c.059-.003.084 0 .106-.006.011-.002.026-.021.025-.032 0-.013-.013-.032-.024-.038a.26.26 0 0 0-.165-.011c-.022.005-.047.019-.034.053.005.014.019.032.031.033.031.005.064.002.06.002zm.093.964-.005-.022c-.004.01-.01.019-.013.03-.001.003.007.01.011.015l.007-.022v-.001zm.091-.424-.01.018.013.003-.004-.021h.001z"
                opacity=".08" style="fill:var(--color1, #fcfcfc)" />
            <path fill="#fcfcfc"
                d="M42.841 26.337c-.035.004-.044-.023-.048-.049-.008-.048.015-.088.037-.126.098-.166.197-.332.299-.496.224-.357.45-.712.677-1.067a.821.821 0 0 1 .109-.145c.033-.034.076-.024.111.01.027.027.038.059.021.095-.049.104-.097.209-.149.311-.199.396-.451.753-.684 1.125-.086.137-.214.222-.328.326-.011.011-.03.01-.044.014l-.001.001zM41.365 28.016c-.024-.016-.05-.024-.064-.044-.03-.044-.06-.099-.025-.148a.63.63 0 0 1 .141-.15c.362-.265.658-.604.923-.978a.72.72 0 0 1 .103-.117c.048-.045.106-.049.163-.02.031.016.057.049.041.087a.787.787 0 0 1-.099.186c-.259.328-.509.668-.836.923-.087.068-.173.139-.261.208-.027.02-.057.035-.087.053h.001zM37.853 29.553c-.065-.006-.1-.004-.131-.014-.206-.067-.412-.133-.596-.262a1.213 1.213 0 0 1-.119-.098c-.081-.075-.109-.159-.071-.205s.127-.052.209-.006c.036.02.069.05.103.074a2.2 2.2 0 0 0 .422.226c.079.033.155.05.242.033.089-.018.181-.021.272-.026.058-.002.116.002.173.009.041.006.08.027.084.081.002.043-.03.06-.059.078-.007.004-.015.01-.023.011l-.505.099-.001-.001zM40.394 28.804c.004.049-.011.073-.034.082-.29.115-.529.324-.789.495-.05.032-.099.062-.16.058-.045-.003-.078-.023-.094-.07s-.005-.091.03-.12c.079-.064.159-.129.244-.183.184-.117.351-.267.562-.328.056-.016.112-.036.169-.012.04.017.069.046.073.078l-.001.001zM44.726 22.967c.007.146-.032.239-.128.299-.032.019-.098-.014-.095-.053a5.66 5.66 0 0 1 .045-.37c.005-.032.033-.069.07-.057.03.009.061.029.081.054.035.044.024.102.027.127h-.001zM44.706 23.636a.116.116 0 0 1-.122-.105c-.007-.068.043-.136.095-.129.058.008.129.083.132.138.001.04-.057.094-.105.095zM37.578 28.418c.086.008.123.053.15.112.004.007.007.018.005.024-.017.049-.056.061-.098.067-.067.009-.109-.015-.118-.064-.013-.07.031-.142.061-.14h.001zM39.009 29.733c.052 0 .091.043.089.099-.003.061-.035.096-.086.108-.052.011-.11-.044-.116-.104-.006-.057.045-.102.114-.102h-.001zM38.334 29.933c-.05-.002-.087-.051-.086-.112.002-.071.05-.116.115-.107a.101.101 0 0 1 .09.108.122.122 0 0 1-.12.111zM36.956 28.662c0 .064-.059.121-.117.108-.044-.01-.071-.042-.074-.095-.004-.059.033-.101.089-.104.058-.002.102.036.102.09l-.001.001zM44.777 24.173c0 .058-.03.085-.074.094-.05.011-.103-.028-.111-.078s.033-.12.072-.125c.049-.006.111.055.114.108h-.001zM39.801 29.677c.006.059-.027.099-.084.104s-.101-.027-.109-.08c-.009-.053.026-.092.088-.099s.1.019.105.076h.001zM37.247 28.474c-.02-.008-.053-.015-.078-.034s-.052-.05-.031-.088c.011-.02.033-.042.053-.046a.174.174 0 0 1 .093.009c.039.015.072.044.066.097-.007.059-.054.053-.103.062h-.001zM36.844 28.409c-.046-.011-.075-.046-.075-.107 0-.044.038-.076.082-.068a.098.098 0 0 1 .084.104.08.08 0 0 1-.091.071v-.001zM39.958 25.579c.021.003-.013.002-.044-.007-.044-.013-.069-.047-.072-.097s.021-.085.064-.103a.214.214 0 0 1 .048-.013c.393-.041.748-.214 1.104-.383.25-.119.497-.244.745-.366.03-.015.061-.032.092-.036.021-.003.052.006.066.023.013.015.021.054.013.072-.043.087-.09.166-.181.212-.179.091-.352.197-.537.277-.268.116-.531.247-.807.341a1.396 1.396 0 0 1-.491.081h.001zM38.477 25.579c.132-.009.27.01.407.037.019.003.04.032.047.054a.051.051 0 0 1-.03.063c-.03.014-.059.036-.091.04a2.567 2.567 0 0 1-.54.011c-.03-.002-.065-.023-.085-.047s-.029-.064-.029-.097c0-.04.032-.06.068-.061.082-.002.164 0 .255 0l-.001-.001zM37.12 25.516c-.152.039-.248-.121-.355-.253-.027-.033-.033-.081-.008-.125s.081-.063.13-.042c.015.006.032.012.044.023.118.11.239.216.383.281.025.011.031.039.027.066-.004.032-.029.044-.052.048-.04.004-.081.001-.168.001zM37.165 25.825c-.06-.003-.118-.061-.115-.114.002-.047.056-.101.1-.102.055 0 .113.059.113.117 0 .049-.051.101-.097.099zM37.375 26.279c-.018.062-.069.09-.133.071-.054-.015-.079-.059-.067-.117.013-.067.065-.095.128-.069.057.023.086.069.072.115zM38.078 26.38c0 .051-.024.084-.068.095-.053.012-.116-.041-.12-.101-.003-.05.022-.083.068-.091a.104.104 0 0 1 .12.098zM37.887 26.709c-.006.04-.055.077-.092.069-.055-.011-.097-.084-.079-.143a.05.05 0 0 1 .058-.036c.07.007.121.059.114.111zM38.407 26.665c.046-.003.067.032.071.079.002.027-.013.055-.038.057-.048.002-.066-.038-.076-.083-.007-.032.013-.047.044-.053zM42.196 29.808c.015 0-.008-.024-.024-.057-.019-.038-.007-.07.018-.096.12-.125.237-.251.361-.37a2.24 2.24 0 0 0 .256-.293c.164-.227.346-.437.535-.64.089-.095.17-.197.256-.294a.464.464 0 0 1 .098-.08c.031-.019.064-.005.092.019s.042.06.031.095a.491.491 0 0 1-.064.146c-.083.112-.164.229-.26.327a6.864 6.864 0 0 0-.536.639c-.16.209-.341.392-.553.538-.049.034-.097.07-.211.069v-.002zM41.254 30.467c-.005.017-.006.042-.016.049-.147.098-.282.22-.444.289-.061.026-.123.056-.192.041-.047-.01-.065-.05-.079-.094a.077.077 0 0 1 .035-.092c.2-.108.408-.193.626-.245.029-.006.068.002.071.052zM38.999 31.127c.111.008.185-.011.254.034.036.023.047.086.012.111a.607.607 0 0 1-.468.118.114.114 0 0 1-.063-.04.129.129 0 0 1-.035-.121.088.088 0 0 1 .069-.068c.089-.015.178-.027.231-.035v.001zM44.576 26.601c-.005.018-.01.066-.031.101a1.607 1.607 0 0 1-.134.192c-.028.036-.045.116-.107.067-.045-.036-.083-.099-.063-.164a.502.502 0 0 1 .231-.3c.042-.025.104.023.104.104l-.001.001zM39.831 31.507c-.066.004-.114-.036-.12-.1a.102.102 0 0 1 .106-.112c.053 0 .101.038.107.085.008.062-.038.124-.095.127h.001zM40.188 30.551c-.006.013-.011.043-.027.058a.121.121 0 0 1-.178-.003.129.129 0 0 1-.028-.07c-.006-.047.04-.082.104-.086.077-.004.128.031.129.101h.001zM39.657 30.951c.004.056-.037.102-.091.099-.052-.002-.095-.024-.107-.087-.01-.048.034-.091.094-.095.061-.004.101.028.104.083zM15.691 3.436c.126-.169.297-.272.453-.397.352-.282.741-.47 1.157-.593.058-.017.114-.042.171-.063.052-.02.09.001.124.048-.091.218-.24.377-.399.525-.099.092-.17.209-.26.309-.026.028-.035.075-.065.142l.383-.135c.025-.009.05-.018.076-.022.042-.005.075.049.054.09-.039.078-.072.156-.158.192-.067.028-.122.09-.181.138-.008.006-.011.028-.008.04s.017.026.027.026c.067.003.133.003.199.003s.133 0 .199.003c.036.002.061.051.043.082-.033.055-.052.127-.117.148-.137.043-.249.143-.367.223-.228.154-.447.325-.67.491-.055.041-.111.086-.132.168.051.042.11.045.167.038.306-.036.611.014.917.022.032.001.064.017.094.03.009.004.022.03.021.032-.048.055-.053.149-.145.166a1.256 1.256 0 0 0-.433.167c-.018.011-.037.018-.053.032a.063.063 0 0 0-.019.037c0 .01.01.028.018.03.109.033.219.064.329.094.148.041.298.077.446.122.069.021.068.061.027.125-.043.066-.098.071-.157.074a3.053 3.053 0 0 0-.838.192.144.144 0 0 0-.091.071c.131.028.249.1.385.077.034-.005.061.044.044.077-.032.065-.067.129-.102.199l.492.251c.025.013.055.036.046.065-.016.048.007.111-.041.143a.071.071 0 0 1-.057.007c-.383-.135-.763-.045-1.139.009-.019.056.009.08.033.105.117.123.207.276.338.383.055.044.033.111.027.168-.003.03-.031.047-.06.046a.128.128 0 0 1-.039-.007c-.238-.093-.482-.092-.728-.062-.012.001-.023.011-.045.023.031.086.108.129.15.201.034.058-.011.098-.028.143-.015.039-.052.051-.085.033-.212-.115-.442-.108-.665-.11a7.423 7.423 0 0 0-.815.057c-.125.013-.253-.013-.39.038-.006.117.011.243-.019.364-.003.011.02.042.035.046.208.055.298.236.363.44.048.151.065.307.053.468-.005.064-.016.129.052.179.029.021.041.096.037.145-.012.175.013.347.011.519s-.036.343-.057.515c-.005.037-.015.073-.023.111-.048.219-.11.433-.125.662-.014.214-.087.41-.21.578-.09.122-.177.245-.267.366-.065.086-.139.166-.11.296-.053.179-.106.358-.202.515a2.856 2.856 0 0 0-.25.486 1.343 1.343 0 0 1-.424.561.663.663 0 0 0-.192.253c-.106.238-.262.436-.411.638a.386.386 0 0 1-.088.092c-.174.109-.335.246-.529.313-.114.04-.225.088-.345.104a.289.289 0 0 0-.215.141.398.398 0 0 1-.287.186c-.125.017-.25.049-.376.058a.537.537 0 0 1-.377-.113c-.047-.037-.08-.036-.126-.02-.252.088-.468-.009-.666-.178-.04-.034-.078-.055-.126-.054-.371.01-.663-.183-.926-.456a2.702 2.702 0 0 1-.071-.08 1.48 1.48 0 0 0-.371-.327c-.207-.117-.322-.329-.369-.585a2.856 2.856 0 0 1-.043-.29c-.021-.228-.106-.435-.154-.654a2.979 2.979 0 0 1-.087-.625 1.559 1.559 0 0 1 .062-.491c.043-.135.053-.281.116-.409a.107.107 0 0 0 .01-.063c-.031-.135.021-.252.062-.37.061-.176.125-.35.189-.524.078-.21.206-.387.314-.577.018-.032.048-.06.054-.094.028-.16.112-.29.166-.435a.9.9 0 0 1 .19-.314c.142-.147.254-.33.417-.454.026-.02.043-.056.062-.086.176-.286.377-.545.627-.751.086-.071.181-.126.272-.189.023-.015.053-.032.044-.065-.023-.084.027-.125.069-.173.115-.126.23-.251.333-.391a.667.667 0 0 1 .238-.202c.14-.07.278-.145.418-.213.073-.035.15-.063.226-.088.031-.011.071-.012.088.029.027.064.063.065.113.041.135-.065.278-.101.421-.135.037-.009.057-.034.057-.079-.001-.297-.025-.587-.178-.844-.059-.1-.104-.21-.154-.317-.042-.088-.027-.118.087-.178a1.53 1.53 0 0 0-.309-.285c-.192-.138-.353-.321-.539-.467a.198.198 0 0 1-.046-.071c-.018-.04.009-.103.046-.104a.81.81 0 0 1 .139.007c.093.013.185.028.276.046a.305.305 0 0 0 .195-.011c.06-.026.108.005.122.075a.536.536 0 0 0 .11.253c.028.033.027.084.027.129-.001.028-.018.042-.037.045-.017.003-.043-.001-.053-.015a.3.3 0 0 1-.068-.183c-.001-.041-.015-.067-.05-.086-.112-.061-.231-.057-.351-.057-.005 0-.011.007-.015.013-.01.015-.008.028.003.04.024.026.047.053.074.076.198.177.408.335.621.49a.541.541 0 0 0 .01-.39c-.024-.07-.056-.137-.087-.203a17.424 17.424 0 0 0-.223-.455.81.81 0 0 0-.1-.14l-.251-.292a.424.424 0 0 1-.059-.09c-.014-.028-.011-.061.012-.082.014-.013.036-.025.053-.024.054.004.1.035.148.064.117.073.234.144.352.214.034.02.065.055.11.039.025-.042.021-.086.009-.131-.077-.288-.119-.589-.231-.865-.005-.013-.011-.028-.012-.043-.004-.031-.002-.061.02-.083.028-.028.065-.032.092-.01a.396.396 0 0 1 .101.107c.086.146.198.264.307.386.134.15.24.323.328.511.018.038.027.086.071.102.051-.158.059-.375.015-.544a4.137 4.137 0 0 1-.117-.711c-.014-.158-.039-.314-.056-.471-.005-.044-.004-.09 0-.134s.062-.064.096-.038c.05.04.084.097.115.155.058.11.112.222.166.336.013.027.021.055.064.065.021-.055-.011-.108-.015-.16a1.326 1.326 0 0 0-.022-.179c-.071-.341-.065-.689-.083-1.036-.002-.036.013-.073.024-.108.01-.03.062-.045.087-.027a.167.167 0 0 1 .046.042c.029.041.058.084.081.129.196.394.406.78.554 1.203.034.098.073.194.111.29.052.131.099.263.126.405.011.055.017.117.057.168a2.14 2.14 0 0 0-.047-.825 7.581 7.581 0 0 0-.083-.255.26.26 0 0 1-.017-.132.108.108 0 0 1 .03-.052c.018-.016.042-.004.052.014.033.057.061.117.093.174.009.017.028.039.041.038.036-.002.033-.041.033-.069.001-.196.013-.393-.009-.589-.008-.074-.017-.15.009-.224.012-.036.039-.039.065-.031.049.016.074.058.085.114.014.064-.009.135.024.195.045-.015.039-.056.04-.092.002-.212.002-.423.005-.635.002-.226.002-.453.058-.673.01-.041.049-.056.078-.031a.467.467 0 0 1 .144.24c.08.295.165.589.228.889.094.449.144.905.111 1.368-.004.053-.004.106-.017.156-.017.065-.044.125-.066.188a.055.055 0 0 0-.001.022c.005.09.008.181.016.271.006.067.02.133.03.199.057.007.065-.044.082-.079.055-.112.105-.228.161-.339a.542.542 0 0 0 .046-.172c.014-.12.03-.239.041-.359.03-.346.087-.687.147-1.027.034-.191.099-.376.16-.559.088-.269.184-.534.276-.801.008-.024.023-.035.044-.033.024.002.032.026.036.047.005.03.009.06.008.09-.012.332-.002.665-.043.996a1.555 1.555 0 0 0-.011.226c.004.137-.006.272-.023.406a1.462 1.462 0 0 0-.004.428c.018.107-.014.209-.031.313-.015.093-.057.181-.04.282.045-.009.058-.045.072-.079.047-.117.1-.231.14-.35.112-.331.24-.655.312-1.001.011-.051.03-.1.044-.15.011-.04.034-.065.072-.06s.059.036.058.077c-.001.09-.008.181-.009.271-.002.203-.004.405-.003.608 0 .036.001.076.033.115.09-.088.159-.198.231-.302.116-.166.22-.34.318-.521.052-.096.12-.181.183-.267.008-.011.037-.011.054-.005.026.009.05.036.04.067-.04.119-.063.245-.122.358a9.012 9.012 0 0 0-.476 1.042.562.562 0 0 1-.047.099c-.128.21-.178.453-.243.691-.005.019.006.043.009.063.004-.022 0-.029-.012-.021l.012.017.003-.001zm-1.253 1.59-.036.068c-.152.092-.218.242-.223.431-.002.001-.005.003-.008.003l.202-.342c.017-.029.042-.057.024-.097.039 0 .034-.031.033-.059.017.003.013.014.005.008-.021-.018-.004.016.002-.013l-.001-.001zm-2.29 4.725-.023.065-.047.038-.03.06-.064.022.012.009-.012.009v-.016l.06-.031c.009-.019.018-.038.029-.057.017-.011.044-.007.047-.04.008-.02.016-.041.026-.061.028 0 .055-.002.056-.045.019.005.037.011.057.013.09.01.09.009.085.098-.006.135-.015.271-.017.407a4.953 4.953 0 0 1-.138 1.14c-.023.092-.063.182-.055.289.025-.01.046-.013.06-.026l.69-.652c.038-.036.06-.078.047-.138-.015-.076.006-.15.017-.224.027-.185.063-.369.033-.561-.023-.148-.029-.3-.042-.45a1.819 1.819 0 0 0-.171-.588c-.117.094-.175.245-.274.356s-.192.229-.288.344l-.059.038-.001.001zm1.554-.364-.013.01-.012.009a.188.188 0 0 0 .022-.026l.021-.124c.06-.001.063-.069.094-.103.047-.052.124-.034.147.034a.388.388 0 0 1 .012.179c-.043.298-.028.602-.081.899-.003.018.005.04.012.083.105-.196.118-.403.172-.594a.073.073 0 0 0-.002-.044c-.039-.097-.008-.193 0-.29.009-.105.015-.211.015-.317a.761.761 0 0 0-.109-.406c-.019-.031-.039-.062-.087-.053a4.826 4.826 0 0 1-.16.527c-.009.027-.006.059-.008.09-.036.035-.026.081-.023.125zm.449.765a2.612 2.612 0 0 0-.215.815c.059-.049.127-.058.142-.135.037-.181.088-.359.096-.548a.208.208 0 0 0-.028-.126l.01.005-.005-.011v-.001zm2.671-6.489-.235.032c-.036.005-.065-.011-.082-.049a.081.081 0 0 1 .008-.084c.15-.21.271-.448.466-.617.088-.077.169-.167.233-.282-.274.011-.765.278-.97.529.109-.03.205-.053.295-.102.036-.02.071-.036.115-.02.045.016.061.057.036.099-.057.096-.138.162-.215.235l-.352.332c-.016.015-.03.031-.022.056.023.024.049.013.074.009.132-.02.264-.053.396-.053a.44.44 0 0 0 .258-.09c-.018.005-.02.001-.008-.011l.005.018h.001zm-1.992-.734c-.042.128-.054.263-.074.395-.002.01.009.029.018.033s.03 0 .034-.007c.029-.059.055-.119.079-.18.014-.034.034-.068.035-.102.001-.049-.059-.02-.075-.057-.011-.026-.033-.048-.018-.081-.007-.12.004-.239.021-.356.032-.208.058-.417.093-.625.068-.402.077-.81.1-1.217.001-.024.012-.062-.049-.077-.036.138-.103.265-.148.405-.129.395-.155.808-.183 1.221.032.088-.024.181.008.267.031.084.014.163-.001.244-.008.044-.028.086-.006.146.052-.027.109-.006.166-.009v.001zm-3.243 5.177c.023.015.046.029.072.007.169-.144.333-.295.509-.429.159-.121.218-.295.238-.495.009-.096.001-.195-.002-.292-.002-.046-.036-.071-.066-.046-.057.046-.101.066-.176.022-.082-.048-.192.02-.226.118-.044.133-.081.269-.121.404-.072.24-.113.493-.231.714l.007.008-.005-.011h.001zm1.595 3.91c.049-.12.144-.194.218-.29.062-.081.156-.15.101-.289-.008-.02.012-.056.022-.084.018-.057.042-.111.057-.168.124-.464.185-.941.203-1.424.001-.034.009-.077-.04-.094-.104.106-.154.257-.223.39-.058.11-.105.226-.182.322a.61.61 0 0 0-.056.092c-.015.031-.008.054.025.066.017.007.044.023.044.035-.001.09.035.177.006.269a.615.615 0 0 0-.028.154 3.591 3.591 0 0 1-.126.753c-.021.087-.047.174-.014.264-.015-.005-.017-.008-.004-.009l-.003.014-.002-.001zm-5.529-.07c.006-.027.005-.049-.023-.023-.006.005.012.024.028.019.043.191.148.351.203.536.012.04.048.038.077-.002.022-.03.042-.065.008-.097-.063-.059-.054-.123-.033-.202.071-.272.154-.541.167-.831a.968.968 0 0 0-.041-.353c-.056-.168-.109-.339-.17-.506-.019-.053-.003-.124-.067-.161-.065.071-.137.137-.182.232-.1.213-.171.439-.246.664-.01.028-.021.069.007.08.088.036.058.139.092.204.04-.016.052-.053.069-.084.022-.038.044-.075.068-.111.032-.045.084-.061.123-.042.037.017.043.056.044.093.005.135.008.271.009.407 0 .128-.002.128-.131.178h-.001zm3.911.623c.055.018.087-.026.12-.06.12-.12.252-.221.388-.317.074-.052.141-.112.204-.181.05-.055.099-.151.18-.103.068.04.068.141.069.222.005.241.004.482.006.723 0 .033-.028.073.014.099a.85.85 0 0 0 .209-.262c-.008-.016-.013-.03-.022-.041s-.022-.016-.031-.027c-.053-.059-.056-.071-.021-.132.033-.057.067-.113.102-.168a2.89 2.89 0 0 0 .368-.97c.02-.096.034-.192.029-.291-.004-.061-.036-.085-.077-.052a1.239 1.239 0 0 0-.094.083c-.234.223-.464.451-.701.67-.165.152-.338.293-.509.435-.036.03-.095.03-.12.065-.032.044-.04.11-.058.166-.016.049-.033.098-.048.148l-.006-.005-.001-.001zm4.324-10.237c-.073.046-.145.096-.22.139-.048.028-.093-.004-.096-.069-.004-.12-.003-.241-.004-.361l-.002-.249a.036.036 0 0 0-.008-.02c-.017-.023-.008.031-.017-.003-.014.069-.02.137-.043.197-.115.296-.199.606-.332.893a1.659 1.659 0 0 0-.128.379c-.02.102-.055.201-.082.302-.014.052-.037.113-.083.119-.085.011-.094.087-.131.147-.046.075-.064.146-.033.232-.044.038-.085.072-.105.141-.054.186-.12.368-.18.552-.011.032-.028.069.016.102.152-.132.339-.197.5-.32.005-.004.012-.006.018-.009.026-.011.052-.013.074.01s.023.054.019.084a.252.252 0 0 1-.063.137c-.126.145-.25.292-.375.439-.02.023-.042.036-.069.034l.008.009-.005-.013c.038.017.074.022.113-.003.174-.108.353-.205.522-.322.244-.17.511-.28.773-.403.018-.009.038-.02.057-.018.032.003.074.003.093.024.027.031-.002.067-.023.096s-.039.061-.065.083c-.118.097-.237.19-.355.284.016-.007.02.006.01.007-.026.003.005.013-.007-.013.133.059.243.031.336-.1.071-.1.164-.175.253-.255.194-.173.396-.332.612-.468a.5.5 0 0 0 .196-.192c-.131-.028-.234-.019-.323.089-.039.046-.101.069-.155.096-.046.023-.073-.009-.065-.069.005-.036.03-.068.013-.113-.099-.015-.195.023-.293.034-.132.015-.263.036-.396.053a.084.084 0 0 1-.087-.041c-.036-.056-.031-.108.023-.154.154-.129.301-.266.46-.431-.043.007-.063.008-.081.014-.206.062-.398.17-.598.255-.23.099-.453.217-.639.409-.038.039-.091.059-.138.088-.024.015-.052.026-.071-.004-.023-.035-.048-.075-.005-.117.04-.116.14-.154.224-.204.158-.094.322-.174.484-.259.071-.037.16-.057.098-.188-.011-.023.014-.07.027-.104l.293-.761c.023-.061.066-.115.053-.189.006-.002.012-.003.017-.007.002-.002 0-.014 0-.014-.015-.002-.019.007-.012.026l-.002-.001zM9.291 12.35a.296.296 0 0 0 .265-.125c.08-.114.185-.195.272-.298a.858.858 0 0 1 .301-.216c.08-.037.125.003.127.105s-.026.193-.069.28c-.023.045-.044.104-.097.1-.065-.005-.082-.066-.082-.132 0-.007-.003-.014-.005-.022-.005-.018-.015-.022-.03-.011-.01.007-.025.018-.026.029-.005.057.036.112-.006.172-.064.092-.079.204-.094.317-.013.104-.046.205-.063.308-.02.124-.068.244-.055.391.116-.078.224-.149.329-.225.035-.025.032-.061-.005-.088-.041-.031-.041-.073-.018-.118.072-.144.14-.292.22-.431.055-.097.097-.197.123-.308.063-.277.125-.555.186-.833.004-.02.003-.049-.007-.064-.02-.032-.048-.009-.069.003-.151.078-.305.15-.451.239a2.223 2.223 0 0 0-.499.448.302.302 0 0 0-.055.094 1.7 1.7 0 0 1-.157.288c-.019.03-.043.059-.031.101-.021-.003-.037 0-.014.024.007.006.017-.013.009-.028h.001zm4.342-4.69c.018-.004.045-.019.055-.01a.201.201 0 0 0 .204.047c.031-.009.066 0 .099-.002.199-.011.399-.014.597-.036.233-.026.463-.041.694.009.045.009.093.007.139.008.017 0 .026-.012.021-.028-.004-.013-.011-.032-.02-.036-.031-.012-.064-.019-.096-.026-.035-.008-.059-.032-.079-.063-.044-.066-.026-.14.041-.158.026-.007.053-.008.079-.011.192-.026.384-.029.577-.006.059.007.119.007.179.007.028 0 .041-.038.025-.066-.059-.104-.151-.166-.239-.234a.255.255 0 0 0-.226-.051 21.75 21.75 0 0 1-.666.131c-.062.011-.116.02-.148.092-.025.057-.079.071-.119.04-.084-.067-.159-.043-.244-.009a2.199 2.199 0 0 1-.326.102c-.185.043-.346.15-.519.224-.032.014-.027.047-.025.075-.018-.005-.036-.014-.053-.013-.023.001-.043.037-.029.041.008.002.019-.007.029-.011l.052-.018-.001.001zm-.288-2.182c-.043-.022-.061.016-.075.047a2.55 2.55 0 0 1-.339.557.132.132 0 0 0-.03.125c.009.031.014.057-.02.073-.043.02-.067.077-.118.08-.054.003-.082.041-.108.088-.021.038-.039.081-.067.112-.065.072-.07.157-.058.251.018.135.031.269.008.406-.004.02-.005.042.024.062.071-.059.151-.113.218-.183s.138-.117.232-.092c.06.016.1-.013.135-.067.093-.147.187-.293.284-.437.04-.059.045-.096-.014-.147-.042-.037-.024-.098.023-.129.031-.02.065-.032.094-.007.044.038.074.04.115-.011.115-.147.239-.284.335-.441l-.059-.239c-.036 0-.056.032-.081.055-.15.141-.321.242-.487.354-.027.018-.051.01-.072-.011s-.035-.046-.033-.079c.002-.022.009-.043.015-.065.024-.102.049-.203.072-.307l.004-.022c.008-.024.003-.03-.008-.012-.004.007.006.026.009.039v-.001zm-2.244 5.493c.058-.102.14-.18.209-.27.136-.177.307-.311.453-.476.032-.036.052-.065-.006-.099-.056-.033-.064-.09-.036-.154.009-.02.015-.042.024-.063.163-.402.224-.834.295-1.263a.604.604 0 0 0 .004-.113c-.001-.02-.006-.044-.018-.057-.018-.02-.039-.001-.051.015-.075.1-.174.162-.27.229a2.342 2.342 0 0 0-.383.323c-.042.045-.1.077-.113.151.118.069.116.069.11.197-.004.074-.028.148-.009.223.03-.004.046-.028.061-.054l.087-.152c.024-.04.056-.063.101-.056.056.009.075.055.08.112.006.06.013.12.015.18.004.13-.01.141-.123.1-.026-.009-.052-.024-.069.011-.047.096-.107.057-.165.018-.033.049-.025.104-.027.155a3.05 3.05 0 0 1-.157.882.224.224 0 0 0-.005.153c-.005-.002-.012-.003-.014-.007-.003-.015.002-.017.009-.004.002.003-.002.01-.004.015l.002.003zm-.848-.976c.006 0 .015.002.02-.002.154-.129.287-.289.455-.4a.08.08 0 0 0 .034-.075c-.009-.111.04-.203.077-.299.068-.18.139-.358.204-.539.067-.189.102-.389.123-.592.008-.081-.028-.111-.096-.077-.121.06-.244.115-.355.2-.197.151-.404.286-.601.436a.8.8 0 0 0-.273.312c.016.008.023.015.027.013l.608-.335c.024-.013.048-.026.073-.034.029-.008.057.006.058.041.001.067.008.144-.044.189-.153.133-.217.321-.25.522-.035.213-.079.427-.053.647l-.007-.009.005.002h-.001zm-1.629 3.392c.012.006.024.014.037.018.141.038.176.079.138.23-.064.256-.045.525-.106.78a.103.103 0 0 0 .021.093c.134-.087.269-.184.424-.229a.053.053 0 0 0 .035-.069.154.154 0 0 1 .003-.11c.065-.148.124-.301.199-.442a1.02 1.02 0 0 0 .101-.268c.039-.176.081-.35.118-.526.024-.117.043-.236.061-.355.007-.045-.024-.071-.061-.055a2.664 2.664 0 0 0-.601.352.946.946 0 0 0-.155.172c-.092.123-.138.274-.208.409l.015.009c.002.001.006-.003.009-.005l-.031-.004-.001-.001zm2.119-2.244c.037.01.062-.003.081-.042.109-.225.205-.453.238-.713.034-.267.067-.534.057-.8-.052-.023-.084.004-.12.025-.201.12-.366.297-.549.446a1.38 1.38 0 0 0-.312.406c-.043.076-.074.16-.109.241a2.147 2.147 0 0 1-.278.493c-.028.036-.049.069-.096.063-.023-.003-.037.014-.04.037-.009.064-.018.128.02.199l.092-.065c.155-.115.315-.224.484-.312l.414-.22a.34.34 0 0 1 .075-.028c.038-.009.086.036.076.077-.015.065.013.138-.028.198v.043l.002.019c.015-.001.021-.012.014-.03-.005-.013-.014-.025-.021-.037l.001-.001zm-2.587 1.109c.053-.121.168-.165.246-.256.037-.042.074-.078.096-.139.07-.2.196-.355.332-.501a.263.263 0 0 1 .066-.049c.034-.017.09.007.101.045.033.11.052.228-.005.328-.122.215-.139.451-.133.694.002.086-.014.174.005.259.027-.003.04-.001.052-.007.076-.038.077-.039.068-.155a.188.188 0 0 1 .015-.086c.049-.116.109-.223.181-.323.234-.324.263-.435.244-.848a1.538 1.538 0 0 0-.012-.135 1.477 1.477 0 0 1-.014-.404c.004-.03.004-.064-.024-.079s-.05.011-.072.026c-.212.153-.427.303-.641.453s-.357.377-.428.656l-.091.369c-.014.053-.017.103.015.15l-.023-.022.022.023h-.001zm6.198-8.86c-.012.084-.059.15-.089.225a.279.279 0 0 1-.112.125c-.024.018-.074-.001-.086-.032a.276.276 0 0 1-.018-.064c-.023-.186-.071-.369-.053-.56.004-.046.011-.106-.058-.139-.03.074-.068.146-.086.224s-.054.133-.108.182c-.062.057-.089.058-.119-.015-.036-.089-.067-.181-.099-.272a1.464 1.464 0 0 1-.038-.129c-.009-.036-.014-.087-.052-.082-.057.007-.034.069-.035.108-.002.067.003.135.007.203.016.264.005.528-.019.79a2.144 2.144 0 0 1-.085.464 4.226 4.226 0 0 0-.109.385c-.034.153-.056.31-.083.465-.01.057-.036.114-.004.172.087.002.078-.092.103-.144.072-.144.13-.296.195-.445.012-.028.032-.048.062-.047.042.002.055.037.059.075.014.129-.002.255-.018.382l-.042.357c0 .005.007.011.018.026.218-.139.418-.311.611-.493a.31.31 0 0 0 .068-.108c.093-.258.183-.517.272-.777.006-.018.004-.051-.007-.063-.009-.01-.038-.007-.053.001-.028.015-.05.055-.087.034-.042-.023-.049-.069-.044-.116.006-.06.011-.12.023-.179.022-.11.043-.221.075-.328a.35.35 0 0 0 .004-.219c.017.002.015.014.005.009-.023-.013-.002.016 0-.014l.001-.001zm1.108 1.545a.077.077 0 0 0-.094-.004c-.297.197-.623.344-.858.647-.037.048-.074.054-.119.009-.025-.026-.046-.005-.065.02-.034.046-.071.088-.107.133l-.543.693c-.017.022-.036.044-.023.077.005.003.012.011.014.009.03-.016.06-.032.089-.051a4.672 4.672 0 0 1 1.179-.542c.205-.059.417-.091.613-.191a.117.117 0 0 1 .133.01c-.012.097-.043.183-.135.245.054.017.085.032.118.035.093.009.186.009.278.019a.5.5 0 0 0 .269-.055c.215-.101.431-.198.665-.232.055-.008.109-.034.163-.051-.014-.06-.05-.059-.081-.069-.109-.032-.219-.061-.327-.098a.19.19 0 0 1-.118-.113c-.033-.08-.031-.132.031-.175.068-.046.142-.081.212-.123.015-.009.033-.029.036-.046.006-.034-.024-.031-.041-.031-.186 0-.372 0-.558.002a.37.37 0 0 0-.099.014c-.186.05-.379.066-.562.135a.531.531 0 0 1-.097.025c-.044.008-.077-.012-.097-.058a.126.126 0 0 1 .006-.127.338.338 0 0 1 .121-.114c-.015-.001-.014-.013-.005-.009.024.013 0-.016.002.015l.001-.001zm-3.415 4.645c.012 0 .03.006.037-.001.162-.179.326-.354.468-.555a.24.24 0 0 0 .046-.098c.033-.177.063-.353.056-.537-.009-.247-.094-.47-.153-.7-.014-.055-.046-.063-.092-.026-.114.091-.223.19-.341.275a1.594 1.594 0 0 0-.452.472.589.589 0 0 1-.217.193c-.031.019-.088-.026-.085-.067a.402.402 0 0 1 .024-.108c.142-.375.264-.757.358-1.15.018-.077.054-.15.053-.229-.013-.007-.019-.015-.024-.014a1.296 1.296 0 0 0-.744.398c-.131.141-.25.291-.341.468-.033.064-.075.1-.136.115-.089.022-.163.062-.184.177a.061.061 0 0 1-.057.053c-.037.003-.062-.023-.076-.06-.023-.061-.018-.117.027-.165a.562.562 0 0 1 .179-.141.129.129 0 0 0 .072-.071c.109-.267.219-.534.231-.835.001-.02-.004-.048-.015-.058-.012-.009-.042-.009-.054.001-.112.098-.241.158-.365.231s-.24.156-.318.299c-.024.044-.052.11-.115.113l.007.014-.005-.016c.058.045.113.015.171-.003.089-.028.103-.022.125.082.014.067.043.076.096.084.063.009.08.076.04.133a.503.503 0 0 1-.056.065c-.05.052-.065.051-.121-.027-.021-.03-.042-.04-.062-.014-.069.091-.136.179-.138.315-.001.088-.031.177-.053.263-.016.064-.036.126-.017.193.011.001.021.005.024.002.166-.164.358-.286.545-.414.153-.104.303-.218.473-.289.093-.039.182-.09.272-.137.042-.022.082-.051.131-.047.027.002.057.01.059.045.011.166.027.335-.026.493-.068.204-.1.422-.188.618-.013.03-.034.065.004.104.118-.108.235-.218.355-.325.188-.166.402-.295.554-.513.039-.055.105-.044.128.026.023.066.046.084.11.09.101.009.134.071.131.186-.002.083-.009.166-.015.248-.002.03-.013.06-.043.069-.037.011-.063-.007-.08-.046-.014-.03-.019-.074-.063-.061-.027.157-.061.311-.077.468-.015.142-.076.275-.059.422-.021.018-.01-.023-.016.007-.001.004.001.013.002.013.015 0 .018-.008.009-.024l.002-.001zm.172-6.117c-.039.176-.03.306-.007.429a.257.257 0 0 1-.096.27c-.033.028-.06.023-.079-.02-.06-.135-.117-.271-.179-.404a1.734 1.734 0 0 0-.472-.643.385.385 0 0 0 .017.205c.049.159.075.321.06.488-.007.075.022.129.064.181.113.141.191.307.252.484.065.189.138.376.207.564.129.349.228.707.274 1.083l.045.381c.004.031.011.063.04.068.015.003.036-.017.049-.032.086-.104.166-.217.258-.315a.447.447 0 0 0 .116-.3c.012-.21.023-.423.056-.63.06-.382.058-.765.055-1.15a.162.162 0 0 0-.007-.044c-.001-.005-.008-.009-.014-.011s-.015-.001-.017.002c-.01.018-.021.037-.027.057-.026.085-.043.175-.077.255-.035.082-.096.081-.132 0a10.15 10.15 0 0 1-.18-.428c-.059-.15-.105-.306-.203-.491l-.001.001zm3.109 3.389c.066.018.125.003.183-.008l.903-.172c.025-.005.062-.014.069-.032.02-.054-.039-.042-.056-.067-.012-.018-.027-.033-.038-.052a.112.112 0 0 1 .036-.153c.017-.011.039-.01.057-.017.017-.007.02-.02.012-.033-.004-.006-.007-.015-.012-.016-.025-.008-.051-.02-.077-.021-.092-.001-.181-.058-.275-.022s-.179-.033-.272-.031c-.205.005-.411-.01-.617.007a.676.676 0 0 1-.119.001c-.041-.003-.083-.018-.097-.065-.028-.093-.081-.082-.142-.056-.093.04-.185.084-.28.117-.459.157-.853.445-1.225.776-.169.151-.17.202-.071.414l.019.04c.019.041.05.05.083.03.117-.071.236-.137.36-.189.268-.115.545-.189.824-.261.149-.038.298-.07.448-.106.031-.007.073-.016.071-.063-.005-.135.118-.146.169-.227.008-.012.038-.008.058-.007.063.003.093.064.059.127-.017.031-.041.056-.068.09l-.001-.001zm-2.667-2.699c.045-.17.074-.286.107-.4a.934.934 0 0 0 .038-.333c-.009-.142.018-.215.069-.201.084.024.078.115.085.185.025.24.049.48.059.721.007.18.013.36-.002.542-.009.116-.031.236-.007.358.039-.017.036-.051.041-.079.024-.111.03-.222.032-.336.002-.111.082-.201.097-.317.026-.193.07-.384.096-.577.015-.119.012-.241.015-.361.001-.045-.017-.07-.061-.053-.049.018-.074-.018-.093-.06-.012-.027-.017-.057-.026-.086-.043-.15-.076-.305-.131-.45-.13-.346-.269-.689-.409-1.03-.041-.102-.098-.196-.148-.294-.008-.016-.018-.022-.039-.012-.004.016-.012.036-.011.055.004.06.01.12.016.18.016.172.047.345.045.517-.002.23.041.445.097.661.023.086.036.176.049.265.009.065-.046.085-.078.117-.023.023-.072-.007-.093-.057a9.541 9.541 0 0 1-.119-.311c-.062-.166-.11-.34-.192-.496-.005-.009-.022-.018-.032-.016s-.024.016-.026.026a.938.938 0 0 0 .078.503c.156.342.282.699.419 1.05.031.081.067.159.122.289l-.002.001zM9.371 14.18c.099-.041.154-.065.21-.086.088-.032.141.011.145.118.001.038-.005.075-.008.113-.006.075-.018.15-.017.226s-.052.141-.033.22c.077-.026.152-.049.226-.078.205-.083.389-.194.478-.44.02-.055.047-.108.073-.161.085-.175.099-.375.15-.562.042-.152.061-.309.064-.469.001-.034.011-.075-.025-.098-.286.086-.55.222-.787.424-.091.078-.188.158-.234.273-.068.164-.153.316-.242.521H9.37zm-.608-5.272c-.087.053-.157.092-.215.153-.121.129-.249.249-.354.396-.098.135-.18.274-.138.463a.168.168 0 0 1-.005.089c-.065.165-.03.324.016.484.068.24.166.469.207.754.095-.136.186-.236.295-.306.087-.056.108-.123.091-.236-.019-.12.026-.239.067-.349.056-.151.065-.307.061-.466l-.024-.983zm1.431.107c-.023-.004-.039-.012-.046-.007-.144.108-.294.203-.43.327a7.548 7.548 0 0 0-.628.66.565.565 0 0 0-.147.338.826.826 0 0 1-.038.198c-.012.04-.032.084 0 .142.132-.084.258-.178.379-.282.095-.082.19-.164.289-.242.05-.04.133-.043.148-.011.025.057.005.115-.011.17-.008.027-.034.047-.048.071a.571.571 0 0 0-.077.255 5.571 5.571 0 0 0-.005.317c0 .027-.005.065.027.077s.046-.02.059-.044c.084-.154.164-.311.253-.461.08-.135.121-.28.145-.44.054-.356.037-.721.129-1.071v.002zm.482 5.015c.06-.039.113-.07.161-.106.106-.079.216-.148.336-.194a.712.712 0 0 0 .368-.329.46.46 0 0 1 .061-.088c.02-.021.047-.026.074-.013s.042.037.039.07c-.007.127-.017.255-.023.383-.002.034-.017.076.031.102.084-.036.145-.119.22-.177.185-.141.283-.35.355-.583.084-.272.071-.548.055-.827-.002-.04-.037-.051-.074-.022-.152.12-.306.239-.457.361a2.362 2.362 0 0 0-.594.658c-.043.075-.082.148-.151.203a.563.563 0 0 0-.173.271c-.025.085-.064.13-.146.105-.039-.012-.063.004-.074.049-.008.035-.031.067-.01.135l.001.001zm.12-.542c.107-.127.21-.253.316-.376a.879.879 0 0 0 .163-.282c.025-.07.056-.137.083-.205.13-.335.198-.687.232-1.049.004-.044-.028-.067-.066-.044-.241.143-.487.278-.721.435a.924.924 0 0 0-.371.488c-.039.119-.097.232-.145.348-.01.024-.039.046-.001.085a.704.704 0 0 0 .299-.152c.127-.116.281-.193.37-.364.047-.09.133-.146.214-.2a.22.22 0 0 1 .075-.028c.052-.012.092.027.094.086a.477.477 0 0 1-.104.309c-.043.058-.065.064-.133.009-.025-.02-.039-.037-.061-.007a1.121 1.121 0 0 0-.179.375c-.046.174-.057.354-.084.532-.002.01.009.022.018.042h.002zm.852-6.913c.093-.005.166-.007.238-.015.066-.007.119.009.141.089.009.033.03.044.061.042.058-.004.086-.032.084-.096a4.569 4.569 0 0 0-.275-1.428c-.075-.21-.146-.421-.223-.629-.051-.137-.103-.276-.197-.373-.036-.001-.044.02-.059.036-.061.067-.066.131-.017.216.05.087.103.179.121.284.04.232.02.466.014.699-.001.059-.035.095-.09.101-.024.003-.053-.003-.069.043.041.167.166.3.195.482.029.177.095.345.074.549h.001zm-1.056 5.326c.253-.161.487-.313.725-.461.104-.065.214-.12.322-.179.018-.009.036-.019.055-.024.059-.018.104.028.093.098-.03.185.004.375-.051.571a.598.598 0 0 0 .223-.327c.133-.407.186-.832.208-1.263.004-.063.009-.131-.007-.183-.036-.019-.053-.005-.067.009-.075.074-.151.148-.224.224a.048.048 0 0 0-.005.06c.012.018.031.03.042.048a.365.365 0 0 1 .04.301c-.011.036-.032.067-.07.07-.03.003-.049-.02-.063-.046a.15.15 0 0 1-.015-.042c-.009-.06-.039-.071-.086-.052-.027.011-.052.001-.074-.019-.029-.026-.055-.036-.085 0-.235.275-.513.504-.687.844-.035.068-.089.135-.15.129-.068-.008-.08.016-.09.074-.008.049-.019.098-.032.166v.001zm-2.709 2.056c.046.013.063-.011.082-.029.077-.072.148-.153.231-.215.103-.077.185-.158.211-.307.018-.102.075-.192.128-.28a.835.835 0 0 0 .086-.249c.055-.252.023-.511.061-.764.004-.029-.03-.058-.053-.046-.041.022-.085.044-.122.073-.21.165-.379.377-.529.61a.373.373 0 0 0-.052.214c.005.227-.022.449-.063.671a.799.799 0 0 0 .019.321v.001zm5.203-1.106v-.09a.513.513 0 0 0-.009-.067c-.01-.057-.051-.074-.085-.032-.118.143-.23.292-.35.432a3.325 3.325 0 0 0-.322.428 1.4 1.4 0 0 1-.444.476c-.063.039-.119.097-.182.137a.25.25 0 0 0-.103.158c-.011.042-.047.087-.021.125.032.047.071-.001.106-.015.075-.03.149-.064.225-.089.152-.05.303-.102.446-.182.078-.043.143-.114.223-.142.181-.065.283-.224.36-.397.101-.23.132-.486.155-.741h.001zM9.764 7.872c-.335.092-.558.348-.784.599.037.056.096.075.104.145.004.031.027.048.06.034.073-.032.144-.007.214.014.027.008.054.024.055.057a1 1 0 0 1-.079.391c-.006.014-.034.025-.052.024-.027-.003-.05-.025-.051-.059-.002-.053.001-.105 0-.158-.001-.057-.03-.079-.078-.062-.025.009-.049.021-.074.033-.103.05-.15.131-.141.264.014.224.016.448.024.697.224-.218.402-.462.624-.641-.055-.156-.057-.156-.037-.294.05-.348.147-.683.216-1.044zM13.787.487a.59.59 0 0 0-.056.288c.002.189.004.377-.009.565-.007.09-.021.181-.011.267.018.165.009.331.014.496.002.058-.032.091-.085.098-.044.006-.058-.053-.098-.053a.68.68 0 0 0 .008.523c.05.123.106.243.163.371.019-.024.041-.042.052-.068.053-.121.106-.243.155-.367.035-.086.034-.194.122-.249.012-.007.017-.039.019-.061.004-.06.007-.121.007-.181-.002-.542-.131-1.058-.253-1.575-.005-.019-.016-.035-.026-.056v.001zm-2.26 13.251c-.097.058-.176.115-.261.152-.144.063-.275.15-.411.23a.703.703 0 0 0-.321.383c-.062.171-.076.35-.113.525-.007.034.017.058.048.049.103-.028.204-.073.309-.087.215-.028.362-.155.482-.352.163-.267.259-.554.267-.901zm1.637-3.394.211-.377c.032-.057.063-.115.093-.174.021-.044.036-.08-.034-.09-.039-.006-.061-.058-.055-.107a.58.58 0 0 1 .03-.131c.114-.318.16-.653.188-.992.005-.059-.004-.12-.011-.179-.005-.044-.043-.06-.073-.032l-.507.475c-.058.054-.069.121-.065.201a.564.564 0 0 0 .065.212.631.631 0 0 1 .074.256c.004.309.075.613.084.938l.002-.001zm-4.88 4.745c.225.221.459.319.73.3a.325.325 0 0 0 .267-.168c.131-.22.231-.454.272-.719.02-.123 0-.19-.135-.125-.054.026-.116.032-.172.053-.196.075-.385.164-.513.364-.037.058-.08.099-.151.073-.013-.005-.04.012-.05.028-.056.089-.139.135-.249.194h.001zm-.576-1.713c.037-.169.034-.311.05-.449a.751.751 0 0 0-.036-.309 3.374 3.374 0 0 0-.352-.78c-.017-.028-.027-.071-.068-.064-.008.005-.016.007-.018.013-.167.358-.231.733-.139 1.132.012.054.026.056.076.009.086-.08.106-.082.181.008.059.071.111.149.164.226.043.062.084.126.143.215h-.001zm.865.436c.002-.087-.033-.116-.085-.088-.024.013-.046.03-.069.044-.159.102-.281.25-.406.396a.644.644 0 0 0-.139.319c-.005.028-.007.066.006.086.055.085.081.191.155.262.081.078.163.094.256.036a.263.263 0 0 0 .11-.127 2.95 2.95 0 0 0 .094-.274c.062-.218.055-.448.079-.653h-.001zm4.643-6.132c-.04.119-.107.161-.148.226-.01.016-.031.032-.05.013-.014-.014-.033-.034-.034-.052 0-.095.024-.176.107-.222.096-.052.095-.055.055-.152a.962.962 0 0 0-.138-.247c-.032-.039-.071-.045-.107-.014-.068.061-.132.126-.196.191a.087.087 0 0 0-.023.082c.01.051.022.102.03.155.027.179.098.344.11.527.004.067.017.134.026.201.008.065-.012.133.018.195.015-.001.031.003.04-.003.163-.118.296-.279.446-.416.036-.033.036-.082.02-.125-.043-.109-.092-.216-.154-.36v.001zm-3.952 7.864a.396.396 0 0 0 .385.09.793.793 0 0 0 .335-.189c.18-.158.278-.374.324-.624-.183-.062-.185-.066-.324.018-.081.049-.175.074-.235.164-.023.034-.062.024-.091.004-.044-.03-.077-.018-.096.032-.072.181-.185.33-.297.503zm1.877-.149c.147-.046.267-.086.388-.121a.798.798 0 0 0 .402-.276c.13-.16.255-.326.339-.525.012-.03.048-.057.015-.099-.257.047-.487.185-.726.288-.087.038-.147.107-.144.218.002.078-.039.119-.079.17-.075.094-.155.186-.194.344zm-.093-.286-.474.127c-.045.012-.088.026-.136.015-.099-.023-.104-.024-.144.064-.056.125-.147.212-.233.305-.037.04-.026.076.025.1s.102.04.155.035c.132-.013.263-.032.395-.052a.129.129 0 0 0 .069-.04c.143-.147.282-.298.342-.555l.001.001zm2.218-2.523c.061-.024.082-.084.115-.129.076-.104.151-.21.226-.315.095-.135.191-.27.283-.408a.806.806 0 0 0 .118-.402c.001-.022-.006-.044-.011-.065-.006-.026-.051-.043-.065-.023l-.097.143a5.688 5.688 0 0 1-.56.732c-.029.032-.059.061-.085.095-.012.015-.024.048-.018.059.053.094.027.222.093.311h-.001zm-5.895.587a.989.989 0 0 0-.047.358c.01.212.052.418.087.626a.72.72 0 0 0 .181.344c.017.02.04.006.048-.015.013-.034.018-.072.027-.108a1.258 1.258 0 0 0-.018-.67c-.053-.187-.173-.334-.279-.535zm4.248-6.421c-.317.036-.347.065-.611.195-.095.047-.141.137-.182.228-.031.07-.034.157-.049.236.057.013.079-.03.11-.055.156-.128.303-.278.491-.34.128-.041.198-.128.241-.265h-.001zM14.48 3.76l.16-.223-.094-.187a.825.825 0 0 0-.066.41zm-3.208.374c.091-.135.072-.173-.11-.233.02.092.06.164.11.233zm1.68 1.623c.055-.008.067-.062.087-.106.014-.033-.008-.054-.029-.07-.031-.024-.049.002-.055.03-.011.047-.027.096-.002.146h-.001zm-5.36 5.982c-.011.006-.027.009-.031.018-.013.03.004.057.022.074.02.019.033-.001.036-.023.004-.028.001-.056-.027-.069zm1.219-.04c-.004-.005-.008-.016-.011-.016-.023.002-.029.024-.033.044-.001.004.007.015.011.015.024-.001.029-.021.033-.042H8.81zm5.783-8.502-.006-.016-.005.017h.011v-.001zm-2.722 6.901-.006.011.01.001-.004-.012h-.001z"
                opacity=".08" style="fill:var(--color1, #fcfcfc)" />
            <path fill="#fcfcfc"
                d="M11.225 7.397c.013.006.039.009.047.024.037.066.001.131-.015.192-.01.038-.047.047-.083.03-.039-.018-.06.009-.081.041-.012.02-.03.03-.047.008-.008-.011-.017-.026-.017-.039.002-.092.091-.224.17-.256.006-.002.013 0 .026 0v-.001zM12.444 5.447a.084.084 0 0 1-.095.083c-.035-.005-.063-.024-.072-.064-.011-.048.052-.106.109-.097.035.005.058.032.059.078h-.001zM12.455 5.157c.042-.003.085.042.086.098.001.03-.011.058-.042.064-.049.009-.113-.033-.122-.079-.005-.031.04-.08.077-.083zM12.245 4.689c-.001.044-.035.087-.073.089-.044.003-.075-.022-.097-.063-.003-.005-.002-.014-.001-.021.009-.056.05-.063.088-.072.035-.007.065.003.078.045l.004.022.001.001zM12.395 6.248c-.041.001-.075-.04-.072-.086s.038-.076.083-.075c.034.001.064.035.062.071-.002.046-.037.089-.073.09zM13.609 7.06c0 .064-.043.121-.09.119s-.095-.051-.09-.094c.006-.053.054-.093.116-.092.037.001.059.025.065.067h-.001zM14.875 6.361c.003.051-.025.092-.064.095-.062.005-.11-.038-.11-.098-.001-.042.032-.075.079-.082.055-.007.092.027.096.084l-.001.001zM14.232 6.777c.048.006.068.034.068.073-.001.044-.012.089-.059.098a.107.107 0 0 1-.056-.005c-.037-.017-.072-.045-.069-.094.002-.038.039-.055.069-.065.018-.006.037-.007.047-.008l-.001.001zM14.088 4.157a.154.154 0 0 1-.031.106c-.027.036-.081.034-.1-.009a.462.462 0 0 1-.03-.106c-.008-.047.02-.084.064-.096.043-.011.079.014.089.063l.006.041h.001zM13.803 4.161a.084.084 0 0 1-.098.08c-.042-.007-.075-.03-.082-.08-.007-.048.06-.102.112-.094.038.006.071.051.068.094zM13.665 4.778c-.036-.006-.078-.051-.078-.084 0-.055.069-.105.131-.094.031.005.042.035.04.065-.005.068-.052.122-.094.115v-.001zM13.957 4.72c.061-.001.097.032.091.084-.005.045-.053.09-.097.09s-.091-.048-.093-.096c-.002-.047.036-.077.099-.078zM12.707 10.119c-.007.081-.01.141-.018.2-.005.039-.027.069-.063.075-.028.005-.05-.018-.064-.044-.04-.075-.041-.174-.11-.234-.009-.009-.009-.044-.003-.063.03-.094.094-.155.154-.151s.099.075.105.192v.024zM10.367 13.632c-.023.09-.038.2-.093.296-.018.032-.074.021-.095-.031-.026-.06-.043-.089-.092-.026-.017.022-.041.044-.063.047s-.05-.013-.071-.03a.067.067 0 0 1-.017-.08.674.674 0 0 1 .297-.315c.058-.032.128.035.133.138v.001zM8.563 9.754c-.018.088-.035.175-.056.262a.076.076 0 0 1-.096.052c-.16-.049-.194-.129-.122-.294a.978.978 0 0 1 .084-.152c.051-.077.106-.073.159.006a.163.163 0 0 1 .031.125v.001zM10.819 10.317c-.004.053-.006.105-.012.157-.006.059-.033.086-.081.062a.168.168 0 0 0-.151-.005c-.034.013-.063-.014-.082-.048s-.024-.073.002-.104c.068-.082.135-.166.209-.24.044-.045.104-.006.107.065.002.038 0 .075 0 .113h.008zM9.71 9.587c.011.003.033.003.049.013.024.015.039.04.04.073.001.023-.004.044-.023.057-.056.039-.112.08-.168.118-.031.021-.063.018-.09-.013a.092.092 0 0 1-.023-.083c.027-.108.112-.175.215-.166l.001.001zM9.171 13.421c-.001.009 0 .032-.005.054-.009.047-.033.081-.075.093-.046.013-.106-.009-.11-.063-.006-.084-.054-.108-.106-.14-.037-.024-.033-.083.002-.113.011-.009.021-.019.032-.026.148-.089.262-.009.262.195v-.001zM11.882 13.171c.004-.055-.013-.073-.051-.052-.035.019-.062.055-.106.055a.072.072 0 0 1-.066-.038.065.065 0 0 1 .014-.08c.088-.079.18-.15.282-.202.056-.028.107.001.124.066a.377.377 0 0 1-.075.352c-.029.035-.078.046-.107.021-.03-.026-.035-.06-.021-.099l.005-.022v-.001zM11.85 5.728c-.004.036-.025.055-.052.057-.059.006-.116-.04-.112-.088.003-.037.049-.077.084-.073.039.004.079.059.079.105zM11.917 6.247c-.003.046-.04.082-.078.075a.088.088 0 0 1-.072-.088c.002-.037.041-.073.082-.075.037-.002.071.042.068.088zM11.823 5.973c-.009.033-.032.048-.061.045s-.049-.024-.045-.059c.004-.034.048-.056.08-.04.02.009.027.03.026.054h-.001zM12.901 6.495c.012.005.046.012.046.022.009.119.147.061.167.161.006.03.003.062-.017.084-.024.028-.055.051-.088.03a2.909 2.909 0 0 1-.201-.133c-.034-.024-.032-.086-.002-.118a.13.13 0 0 1 .094-.046l.001.001zM13.302 6.202c.007.039-.026.068-.054.098-.032.034-.071.04-.108.014-.022-.016-.04-.044-.023-.075.033-.059.078-.098.143-.094.021.001.033.022.042.057v.001zM8.383 12.923c.001.04-.019.078-.066.081-.046.003-.072.03-.094.069-.032.058-.078.046-.123.028-.028-.011-.046-.036-.041-.069a.585.585 0 0 1 .121-.303c.062-.075.135-.06.177.028.024.049.026.1.027.165zM12.467 13.772a.097.097 0 0 1-.053.062c-.037.018-.075.031-.11-.007-.027-.031-.012-.088.037-.133a.602.602 0 0 1 .206-.131c.09-.032.159.02.169.125.007.079-.036.168-.104.199-.031.014-.066.011-.09-.022-.021-.029-.039-.06-.058-.09l.012.007-.01-.009.001.001zM12.931 11.666c-.001.06 0 .121-.039.17-.012.016-.036.042-.043.038-.098-.051-.16.035-.234.075-.022.012-.04.003-.051-.015s-.023-.041-.021-.06c.011-.082.217-.302.29-.314.056-.009.098.035.098.106v.001zM11.198 14.501c-.009.024-.021.067-.04.105-.017.034-.047.054-.083.049a1.137 1.137 0 0 1-.154-.032c-.042-.012-.056-.064-.032-.107a.417.417 0 0 1 .155-.167c.089-.053.155-.005.154.111v.042-.001zM13.255 8.776c.03 0 .056.011.069.038.024.052.044.106.066.159.014.032.009.057-.016.076-.026.02-.052.051-.086.024-.026-.021-.046-.056-.074-.068-.039-.017-.1 0-.085-.082.015-.084.066-.138.126-.146zM9.029 15.077c-.06-.018-.116.003-.171.034a.304.304 0 0 1-.093.036c-.025.004-.053-.011-.066-.04-.015-.033.002-.061.024-.076a2.299 2.299 0 0 1 .336-.197c.079-.04.124.003.113.106-.011.105-.047.14-.144.138v.001zM7.559 12.429c-.006.034-.021.122-.081.187-.034.037-.074.017-.108-.009-.03-.023-.046-.057-.028-.096a.516.516 0 0 1 .132-.19c.012-.009.038-.003.055.004s.034.023.03.104h.001zM12.261 7.267a.308.308 0 0 1-.091.186c-.018.02-.069-.008-.078-.041-.025-.084.012-.142.064-.192.021-.02.046-.032.071-.009.014.013.022.035.035.056h-.001z"
                opacity=".08" style="fill:var(--color1, #fcfcfc)" />
        </symbol>
    </defs>
</svg>