<svg xmlns="http://www.w3.org/2000/svg" width="443" height="308" fill="none">
  <path fill="#FCFCFC" fill-opacity=".08"
    d="M167.26 199.272c-.017-3.976.93-7.755 1.819-11.521.49-2.067 1.53-3.884 2.592-5.668a863.657 863.657 0 0 0 5.814-9.941c1.351-2.344 2.673-4.707 4.388-6.741.179-.211.323-.468.508-.672.381-.415.866-.507 1.212-.118.589.665 1.386 1.125 1.727 2.06.306.849.854 1.455 1.397 2.1a36.822 36.822 0 0 0 5.946 5.656c2.587 1.948 5.012 4.173 7.373 6.478.785.77 1.594 1.507 2.408 2.238 2.494 2.245 4.705 4.852 7.066 7.255a215.731 215.731 0 0 0 6.045 5.879c2.396 2.258 5.006 4.18 7.413 6.406 1.103 1.02 2.217 2.027 3.326 3.048 2.817 2.594 5.669 5.141 8.343 7.926.473.494 1.016.915 1.535 1.356 1.305 1.1 2.575 2.232 3.62 3.667.37.507.82.962 1.294 1.33.86.665 1.662 1.403 2.396 2.232 1.518 1.718 3.244 3.134 5.017 4.497 1.541 1.191 1.68 2.626.612 4.325-.266.421-.56.81-.861 1.198-.9 1.159-1.795 2.317-2.719 3.45-.837 1.02-1.715 1.948-2.892 2.534-1.299.646-2.529 1.501-3.724 2.37-3.551 2.594-7.442 4.457-11.16 6.676-1.08.645-2.287 1.014-3.441 1.501-1.519.632-3.037 1.258-4.556 1.883-1.882.777-3.741 1.672-5.825 1.363-.243-.04-.502.098-.756.138-1.028.165-2.079.27-3.095.079-1.669-.323-3.343-.323-5.029-.349-2.962-.039-5.733-1.047-8.412-2.396-1.414-.718-2.765-1.593-4.151-2.39-3.256-1.87-6.143-4.352-8.891-7.051-.537-.527-.981-1.172-1.455-1.777-.473-.606-.901-1.265-1.397-1.844-1.27-1.494-2.292-3.193-3.222-4.97-.727-1.396-1.507-2.752-2.246-4.141-.334-.632-.71-1.251-.941-1.936-.883-2.613-2.199-5.003-3.025-7.65-.756-2.423-1.634-4.799-2.419-7.209-1.184-3.634-1.611-7.413-1.628-11.264l-.006-.007Zm77.382 33.951c.202 0 .225-.138.121-.118-.248.059.029-.099-.075.171-.196.066-.231.118-.098.138.006 0 .035-.131.052-.197v.006Zm-2.275 1.89c.878-.152.964-.27.889-1.185.133-.013.122.085.058.059-.237-.112.012.184-.017-.105-.173.566-.884.507-1.011 1.125-.554.02-.9.402-1.16.909-.312.079-.681.066-.93.257-1.033.803-2.211 1.204-3.348 1.724-.843.382-1.692.751-2.494 1.225-1.917 1.126-4.001 1.672-6.068 2.212-3.158.823-6.397 1.126-9.63 1.211-1.854.053-3.742-.065-5.537-.849-.716-.316-1.495-.487-2.258-.606-1.362-.217-2.627-.743-3.862-1.415-1.634-.889-3.274-1.778-5.023-2.35-.751-.25-1.409-.692-2.067-1.185-1.784-1.337-3.452-2.864-5.363-3.983-.341-.198-.682-.468-.918-.803-1.109-1.541-2.241-3.049-3.563-4.359-2.205-3.634-4.803-6.925-6.916-10.645-1.473-2.594-2.621-5.385-4.013-8.025a20.66 20.66 0 0 1-1.657-4.233c-1.051-3.891-1.784-7.848-1.576-11.969.035-.652-.035-1.31-.058-1.969-.352.889-.531 1.798-.635 2.719-.162 1.462-.346 2.93-.375 4.405-.075 3.983.918 7.715 2.252 11.343.848 2.311 1.737 4.608 2.719 6.853 1.212 2.765 2.384 5.57 4.07 8.032 1.553 2.278 3.297 4.352 5.167 6.281 2.824 2.916 5.514 6.056 9.186 7.65.121.052.225.144.335.223 1.819 1.284 3.655 2.515 5.727 3.22.243.085.474.243.687.401 2.027 1.495 4.301 1.962 6.651 2.127.843.059 1.68.112 2.483.441a4.273 4.273 0 0 0 2.673.197c.566-.131 1.16-.118 1.738-.164 2.898-.244 5.802-.441 8.625-1.356 1.802-.586 3.638-1.034 5.456-1.528 2.864-.777 5.508-2.1 7.852-4.147.295-.257.71-.422.63-.988.606.138.998-.191 1.281-.763v.013Zm-66.32-48.718c.751-.217.676-1.047.809-1.613.652-2.712 1.535-5.293 2.794-7.729.883-1.705 1.57-3.548 2.298-5.352.531-1.33.791-2.791 1.455-4.062.029-.059-.07-.29-.145-.323-.098-.039-.283.007-.334.093-.347.533-.705 1.059-.982 1.632-.785 1.607-1.513 3.252-2.304 4.859-1.172 2.396-2.026 4.931-2.621 7.584-.363 1.633-.646 3.292-.952 4.964.028.586-.295 1.185 0 1.916.248-.764.092-1.363-.018-1.962v-.007Zm18.048 59.304h.029l-.063.079c.098-.336-.099-.533-.266-.757-.508-.672-1.149-1.271-1.466-2.041-.641-1.547-1.686-2.364-3.072-2.785-.369-.112-.751-.237-1.01-.606-.93-1.316-2.171-2.33-2.916-3.825-.266-.533-.572-.954-1.016-1.296-.589-.455-1.109-1.014-1.697-1.469-.734-.566-1.207-1.316-1.438-2.277-.087-.356-.179-.705-.26-1.067-.358-1.705-1.028-3.16-2.373-4.148-.97-.711-1.501-1.817-1.772-3.074-.11-.5-.121-1.02-.185-1.534-.254-1.922-.699-3.746-1.905-5.227-.306-.375-.549-.83-.757-1.284-.508-1.126-1.137-2.14-1.963-2.982-.594-.606-.756-1.35-.692-2.193a16.7 16.7 0 0 1 .202-1.527c.144-.81.184-1.646-.023-2.409-.272-1.008-.318-2.028-.364-3.055a6.518 6.518 0 0 0-.641-2.528c-.346-.718-.398-1.653-1.189-2.377-.046 1.56-.197 2.89-.11 4.207.283 4.444 1.218 8.736 2.587 12.89 1.685 5.116 3.735 10.047 6.316 14.662.935 1.672 1.691 3.496 2.881 4.97 1.437 1.784 2.731 3.72 4.399 5.28a57.48 57.48 0 0 0 4.18 3.582c1.432 1.099 2.869 2.264 4.584 2.791Zm-19.63-64.966c-.029.547-.317.942-.565 1.376-.711 1.231-1.478 2.43-2.067 3.74-.641 1.409-1.421 2.85-.676 4.575.173.402-.081.856-.144 1.291-.318 2.139-.387 4.279.479 6.287 1.12 2.587.849 5.497 1.513 8.19.063.27-.012.586-.052.875-.202 1.514-.064 2.89.993 4.016.369.395.612.948.906 1.429 1.559 2.541 3.158 5.069 3.459 8.282.167 1.744.969 3.008 2.193 3.976 1.063.843 1.669 2.028 1.992 3.424.064.283.168.559.214.849.242 1.573 1.01 2.719 2.246 3.397.987.546 1.547 1.435 2.096 2.482.894 1.711 1.98 3.219 3.81 3.858 1.039.362 2.055 1.086 2.598 2.218.791 1.659 2.038 2.851 3.031 4.293.364.526.785.698 1.363.513.808-.263 1.628-.447 2.436-.711.676-.217 1.334-.099 1.859.329 1.218.981 2.644 1.528 3.88 2.469 1.068.81 2.182 1.152 3.487.915 1.42-.263 2.829-.184 4.117.777.739.553 1.582.566 2.425.184.415-.19.866-.296 1.293-.467 3.042-1.231 6.091-2.449 9.122-3.713.525-.217 1.131-.375 1.437-1.08-.404-.151-.773-.006-1.154.079-1.201.277-2.373.672-3.62.757-2.39.158-4.769.428-7.159.646-.647.059-1.288.046-1.923-.178-1.374-.487-2.794-.527-4.22-.639-1.871-.151-3.695-.658-5.393-1.646-2.823-1.639-5.669-3.212-8.435-4.99-1.409-.908-2.823-1.784-4.099-2.923-.814-.724-1.541-1.573-2.338-2.317-2.76-2.594-5.139-5.603-7.356-8.783-.6-.862-1.235-1.744-1.639-2.732-1.432-3.463-3.158-6.761-4.469-10.303-.831-2.238-1.622-4.477-2.332-6.768-1.092-3.522-1.23-7.064-.786-10.671.439-3.575 1.011-7.137 1.501-10.705.116-.856.451-1.732-.063-2.574l.115.033-.104-.066.029.006Zm10.543-11.507c-.485.507-.555 1.112-.71 1.665-.202.698-.387 1.409-.653 2.074a350.83 350.83 0 0 1-2.656 6.393c-.883 2.06-1.512 4.213-2.055 6.418-.618 2.515-.704 5.089-.791 7.67-.075 2.304.168 4.569.606 6.801 1.011 5.095 3.003 9.743 5.381 14.141 2.338 4.332 4.948 8.466 7.962 12.245 1.564 1.962 3.112 3.957 5.19 5.267.964.606 1.819 1.396 2.696 2.153.924.796 1.865 1.58 3.02 1.955 1.865.612 3.689 1.369 5.433 2.35.82.461 1.674.777 2.569.968 1.016.217 2.05.375 3.037.705 1.639.539 3.348.645 4.994.579 2.967-.112 5.941-.428 8.856-1.146.751-.184 1.484-.507 2.212-.803 1.339-.553 2.661-1.145 3.995-1.698 1.455-.606 2.967-1.067 4.318-1.949a108.94 108.94 0 0 0 4.66-3.186c.652-.468 1.299-1.014 1.789-1.679.578-.784 1.19-1.475 1.986-1.955-.138-.211-.196-.376-.294-.442-2.586-1.599-4.359-4.378-6.824-6.149-.318-.23-.526-.645-.797-.961-1.183-1.362-2.246-2.877-3.672-3.923-1.749-1.284-3.268-2.858-4.861-4.365-4.03-3.819-8.066-7.63-12.309-11.146-4.463-3.693-8.435-8.045-12.327-12.469-1.749-1.982-3.51-3.917-5.513-5.55a33.6 33.6 0 0 1-2.136-1.916c-2.316-2.245-4.625-4.496-7.171-6.405a30.641 30.641 0 0 1-3.233-2.812c-.912-.915-1.871-1.777-2.696-2.824l-.006-.006Zm19.479 80.357c-.213-.362-.254-.533-.352-.586-.923-.5-1.882-.908-2.69-1.665-.422-.395-.964-.422-1.472-.303-.601.138-1.19.375-1.831.592.37.81 1.017.909 1.525 1.014 1.553.323 3.019 1.297 4.82.948Z" />
  <path fill="#FCFCFC" fill-opacity=".08"
    d="M216.364 228.951c-.07.73-.07 1.481-.22 2.192-.317 1.521-1.772 2.291-3.025 1.652-.237-.118-.462-.263-.705-.349-.369-.131-.513-.441-.508-.829.012-2.337.52-4.51 1.669-6.465.144-.244.323-.461.508-.665.323-.349.652-.83 1.137-.711.543.132.52.757.572 1.257.133 1.31.716 2.542.572 3.911v.007Zm-1.79 1.053c.023-.283-.104-.428-.318-.415-.208.013-.306.217-.335.435-.029.217.018.474.208.507.312.046.393-.257.451-.527h-.006ZM212.08 203.855c0 .368.017.737 0 1.106-.127 2.231-1.577 3.627-3.493 3.383-1.773-.23-2.304-1.152-1.588-2.995.468-1.205.906-2.442 1.663-3.476.369-.5.779-.803 1.322-.342.335.283.566.079.854-.112.849-.547 1.12-.382 1.242.671.023.217.034.441.04.659.006.368 0 .737 0 1.106h-.046.006ZM205.965 218.621c-.196 3.042-1.016 5.339-3.198 6.742-.231.151-.479.27-.704.033-.243-.251-.48-.468-.82-.527-.531-.086-.589-.586-.479-.994.311-1.113.617-2.245 1.073-3.285.636-1.442 1.409-2.812 2.564-3.819.433-.375.86-.257 1.108.296.266.593.433 1.225.456 1.548v.006Zm-2.517 3.516.081-.027-.029.093c-.046.019-.098.039-.138.072-.023.013-.023.066-.035.099.04-.079.081-.152.115-.231l.006-.006ZM200.348 203.749c-.554-.066-1.178-.092-1.518-.724-.364-.672-.318-1.383.046-2.08a6.34 6.34 0 0 1 2.182-2.43 38.787 38.787 0 0 1 2.217-1.323c.618-.349 1.126-.138 1.622.639.405.632.439 1.547 0 2.014-1.079 1.152-2.188 2.265-3.285 3.384-.352.362-.796.448-1.276.514l.012.006ZM189.684 193.657c.387.046 1.149.118 1.917.224.358.046.56.342.664.704.271.935-.075 2.1-.86 2.403-1.449.566-2.91 1.198-4.498.908-.254-.046-.519-.046-.756-.138-.699-.263-1.594-1.316-1.495-1.843.156-.876.756-1.297 1.443-1.6 1.033-.461 2.119-.566 3.591-.652l-.006-.006ZM216.606 211.597c0-.685-.017-.981 0-1.271.058-.889.427-1.284 1.282-1.119.421.079.721.046 1.079-.171.462-.283.884-.092 1.213.335.976 1.271.97 4.286 0 5.557-.312.408-.664.652-1.184.52-.421-.105-1.01.086-1.276-.184-.514-.52-.952-1.205-1.022-2.068-.052-.658-.086-1.316-.104-1.593l.012-.006ZM187.698 186.382c-1.137.138-2.084-.257-2.921-1.027-.733-.665-.676-1.554.133-2.159 1.189-.883 2.436-1.317 3.851-.738.479.198.993.303 1.501.422.323.079.577.197.791.533 1.131 1.777 1.01 2.179-.941 2.699-.803.217-1.6.652-2.408.263l-.006.007Zm-.011-2.034c-.029-.046-.052-.119-.087-.132-.046-.02-.127-.013-.162.02-.103.105-.057.191.11.197.046 0 .093-.059.144-.092l-.005.007ZM195.446 207.64c.849-.013 1.195.224 1.317.895.069.382.051.764-.174 1.04-.918 1.126-1.807 2.278-2.979 3.088-1.501 1.04-2.194 1.001-3.608-.29-.185-.171-.191-.388-.11-.579.11-.257.266-.494.427-.718.913-1.27 2.125-2.113 3.268-3.061.577-.474 1.247-.25 1.871-.375h-.012ZM197.617 195.125c-.41-.059-.681-.053-.918-.152-.6-.25-1.27-.454-1.443-1.283-.179-.856.352-1.356.848-1.817.947-.869 2.015-1.264 3.239-1.014.693.138 1.398.243 2.09.408.485.119.739.599.653 1.146-.11.671-.289 1.329-.918 1.553-1.218.435-2.454.803-3.551 1.159ZM227.501 231.558c-1.207.013-1.877-.435-2.241-1.613a28.449 28.449 0 0 1-.704-2.752c-.086-.421-.081-.882-.035-1.317.087-.79.838-1.178 1.432-.698.277.224.451.461.814.27.607-.316.965.027 1.23.632.583 1.324 1.103 2.673 1.039 4.201-.04 1.027-.248 1.25-1.154 1.283h-.387l.006-.006ZM227.12 218.779c.005-.941.727-1.962 1.599-2.225.329-.099.641-.007.877.303.762 1.007 1.449 2.074 1.986 3.265.214.481.249.981.214 1.508-.052.79-.606 1.336-1.311 1.297-1.72-.092-3.377-2.133-3.36-4.141l-.005-.007ZM215.544 209.602c.023.757-.312 1.237-.832 1.191-.519-.046-.975-.566-.987-1.125-.012-.448.404-.863.924-.916.525-.059.883.277.9.85h-.005ZM211.081 220.346c.404.033.75.52.75 1.06 0 .612-.427 1.152-.912 1.159-.468.006-.912-.619-.854-1.192.057-.573.548-1.066 1.022-1.027h-.006ZM211.075 214.506c-.063.474-.56 1.014-.889.975-.485-.059-.947-.757-.803-1.244.133-.442.433-.718.843-.718.416 0 .901.599.843.987h.006ZM224.256 217.673c.058.455-.3.902-.808 1.001-.526.105-.953-.198-.999-.698-.052-.566.231-1.04.67-1.132.571-.119 1.062.237 1.137.829ZM220.209 222.347c.583-.006 1.108.514 1.149 1.146.034.52-.329.955-.803.968-.496.006-.877-.468-.895-1.133-.011-.507.248-.974.549-.981ZM206.035 194.342c.589-.007.964.302.976.79a.957.957 0 0 1-.866.967.983.983 0 0 1-1.08-.961c-.017-.467.381-.79.97-.796ZM215.417 201.893c.565.026.947.474.97 1.125.017.553-.387 1.027-.832.968-.49-.059-.86-.592-.86-1.251 0-.461.341-.862.722-.842ZM192.952 203.216c-.006.494-.416.941-.889.968-.462.026-.895-.428-.895-.935 0-.501.41-.83.976-.797.45.027.808.369.808.764ZM202.184 209.279c.658 0 1.033.356 1.039 1.001 0 .487-.277.843-.693.869-.664.039-1.068-.454-1.016-1.257.029-.461.323-.58.67-.613ZM195.094 186.369a.943.943 0 0 1 .901 1.106c-.093.546-.491.605-.872.612-.525.013-.993-.56-.918-1.093.046-.349.462-.638.895-.625h-.006ZM225.757 214.401c-.092.481-.756.994-1.155.889-.317-.086-.646-.77-.594-1.238.046-.375.462-.645.883-.566.554.105.947.513.872.915h-.006ZM200.025 217.14c-.041.467-.364.823-.722.803-.531-.039-.976-.599-.895-1.132.058-.382.462-.698.849-.652.49.053.814.474.773.988l-.005-.007ZM197.675 200.326c-.035.5-.474.994-.86.961-.451-.04-.878-.711-.768-1.264.081-.402.369-.553.71-.54.525.013.947.415.918.849v-.006ZM66.608 252.872c-.041 3.596-.594 7.469-1.475 11.304-.054.24-.15.472-.252.697-1.665 3.671-3.255 7.386-5.043 10.982-1.017 2.045-2.177 4.03-4.06 5.371-.82.577-1.447 1.483-2.15 2.247-3.317 3.589-7.316 5.716-11.86 6.653-1.051.217-2.116.367-3.174.539-2.04.337-4.094.517-6.128.921-2.682.532-5.316.188-7.82-1.191a48.784 48.784 0 0 0-7.214-3.228c-2.722-.967-5.138-2.57-7.445-4.398a10.665 10.665 0 0 1-2.395-2.689c-1.174-1.865-2.286-3.776-3.467-5.633-.669-1.057-1.064-2.225-1.33-3.454-.39-1.798-.813-3.55-1.707-5.169-.757-1.378-.982-3.026-1.05-4.599a31.214 31.214 0 0 1 .484-7.259c.11-.569.239-1.161.198-1.73-.225-3.304.273-6.495.874-9.716.354-1.918.928-3.693 1.59-5.469.348-.936.839-1.753 1.46-2.532 1.501-1.902 2.934-3.865 4.736-5.461.655-.576 1.283-1.183 1.917-1.79 1.147-1.086 2.491-1.918 3.317-3.416.437-.794 1.153-1.341 1.959-1.685 1.29-.555 2.47-1.334 3.623-2.158 1.631-1.168 3.358-1.88 5.337-2.075 2.43-.24 4.831-.831 7.26-1.161 2.205-.307 4.416-.464 6.62.105.737.187 1.529.142 2.28.27.975.172 1.958.307 2.852.876 3.87 2.472 7.33 5.453 10.072 9.379 1.024 1.468 2.191 2.801 3.542 3.933 1.843 1.55 3.296 3.535 4.654 5.543 1.27 1.873 2 4.15 2.375 6.487.253 1.573.505 3.139.976 4.66.45 1.46.355 2.989.45 4.854l-.007-.008Zm-32.306-22.518c-.403.367-.348.892-.403 1.379-.286 2.659-.512 5.326-.873 7.97-.273 2.008-.226 3.993-.096 6.008.068 1.049.505 1.91.867 2.824.177.45.587.45.983.33.402-.113.634-.427.866-.772.58-.884 1.112-1.813 1.768-2.622 1.897-2.359 3.084-5.176 4.237-8 .512-1.259.99-2.585.894-4.06-1.01-.135-1.917-.248-2.818-.39-.362-.06-.614-.577-.525-.959.088-.389.368-.539.668-.539.901.015 1.802.075 2.744.127 0-.292.082-.592-.014-.779-.587-1.116-1.42-1.91-2.545-2.389-1.113-.472-2.246-.427-3.385-.368-1.713.098-1.87.27-2.416 2.315l.048-.082v.007Zm17.163 19.432c.382-.007.764.023 1.14-.037.907-.128 1.808-.352 2.722-.442 1.29-.128 1.713.194 2.027 1.46 1.003 4.091.696 8.143-.457 12.121-.512 1.76-1.236 2.217-2.921 2.06-.758-.067-1.508-.262-2.266-.382-.484-.075-.791.225-.675.704.225.974.484 1.933.744 2.899.45 1.656.416 3.109-1.086 4.203-.887.644-1.624 1.528-2.49 2.21-2.109 1.64-4.709 1.116-6.23-1.207-.376-.569-.574-1.31-1.461-1.752 1.023 2.487 1.358 5.004 2.525 7.176.075.142.116.315.15.472.287 1.318.055 2.435-1.529 2.742-1.433.284-2.907.322-4.292.711-1.583.442-3.037.06-4.525-.247-1.057-.217-2.02-.891-2.757-1.7-.518-.57-.238-1.603-.238-2.442 0-.495-.055-.982-.082-1.476-.3.509-.396 1.064-.553 1.595-.662 2.203-2.006 3.491-4.15 3.731-.313.037-.757-.225-.961.375.177.157.334.337.518.449 2.26 1.311 4.627 2.112 7.22 2.202 2.935.105 5.808-.067 8.558-1.318 1.27-.577 2.552-1.116 3.842-1.656 2.409-1.003 4.367-2.741 6.237-4.614 2.566-2.57 4.47-5.731 6.456-8.817.218-.337.396-.727.505-1.116.983-3.611 2.17-7.169 2.518-10.952.191-2.083.669-4.143.464-6.255-.205-2.09-.464-4.173-1.112-6.158-.847-2.592-1.543-5.259-3.283-7.401-.648-.802-1.174-1.783-1.556-2.779-.914-2.367-2.388-4.263-3.95-6.113a6.515 6.515 0 0 0-1.618-1.378c-1.747-1.094-3.603-1.828-5.61-2.068-1.59-.187-3.2-.232-4.729-.906-.47-.21-1.058-.18-1.59-.173-1.836.03-3.671.06-5.507.165-.676.038-1.385.165-2.006.45-1.372.636-2.75.959-4.245.734a3.5 3.5 0 0 0-2.225.404c-2.477 1.356-4.824 2.892-6.803 5.064-1.14 1.244-2.32 2.45-3.57 3.559-1.93 1.708-3.09 3.962-3.807 6.457-1.46 5.064-2.218 10.278-2.382 15.596-.02.757-.061 1.528.041 2.263.362 2.479.655 4.989 1.221 7.416 1.365 5.888 4.56 10.337 9.302 13.446.198.128.477.442.791.023-.914-2.158-.436-3.986 1.085-5.656 1.352-1.483 2.594-3.086 3.863-4.66.225-.277.594-.546.389-1.048-.58.037-.908.539-1.324.854-1.836 1.386-3.746 2.607-5.869 3.386-1.972.726-3.91-.18-4.66-2.255-.253-.697-.54-1.416-.622-2.15-.211-2-.334-4.008-.47-6.015-.069-1.019.382-1.716 1.14-2.3 1.289-.989 2.777-1.379 4.23-1.88 1.604-.562 3.228-1.034 4.825-1.596.382-.135.907-.225 1.01-1.004-1.304-.105-2.586-.277-3.876-.299-2.014-.038-3.945-.577-5.862-1.124-1.706-.487-2.525-1.731-2.593-3.648-.076-2.023.047-4.015.58-5.986.614-2.292 1.863-4 3.671-5.273.628-.442 1.242-.45 1.952-.128 2.013.922 3.692 2.352 5.261 3.978 1.003 1.034 1.993 2.083 3.003 3.109.314.314.675.352 1.03.067l-.075.083.123.015c-1.945-3.162-3.323-6.555-4.08-10.308-.37-1.82-.055-3.311.88-4.727.627-.951 1.344-1.828 2.006-2.749.532-.742 1.221-1.259 1.938-1.753 1.03-.704 2.006-.637 2.968.195 1.229 1.056 2.102 2.419 2.832 3.91.178.36.212.824.771.921.192-.666.478-1.34.567-2.045.218-1.678 1.283-2.547 2.559-2.861 3.044-.749 5.903-.21 8.387 2.052.696.63 1.092 1.379 1.153 2.36.055.802.143 1.596.219 2.442 2.736-1.446 4.17-1.228 6.34.892.743.726 1.44 1.505 2.19 2.224 2.224 2.105 3.105 4.915 3.473 7.978.144 1.177-.218 2.158-1.2 2.765-1.065.666-2.144 1.296-3.194 1.977-.362.24-.88.367-.894.997-.178-.03-.355-.098-.444.164 0 0 .116.083.137.068.095-.083.177-.187.259-.285l.007.015Zm4.81-17.409c-.224.322-.102.644.028.944.614 1.348 1.235 2.697 2.06 3.918.5.734.984 1.513 1.318 2.352 1.501 3.7 2.422 7.573 2.655 11.633.04.749.088 1.521-.014 2.263-.553 3.97-.928 7.955-2.095 11.813-.778 2.57-1.7 4.967-3.16 7.192-2.572 3.917-5.439 7.431-9.212 10.015-3.822 2.614-7.855 4.442-12.393 4.854-3.958.36-7.827.023-11.376-2.007-2.102-1.206-4.306-2.158-6.415-3.326-3.46-1.911-6.517-4.27-8.741-7.873-1.256-2.038-2.369-4.098-3.024-6.443-.423-1.52-.696-3.071-.955-4.644-.532-3.236-.792-6.443-.437-9.701.082-.749.075-1.506.116-2.262.02-.42.028-.847.096-1.251.587-3.551 1.228-7.087 2.204-10.533a13.637 13.637 0 0 1 2.764-5.146c1.515-1.768 3.18-3.379 4.804-5.034 1.747-1.776 3.596-3.394 5.8-4.442.84-.398 1.713-.742 2.498-1.251.833-.547 1.693-.72 2.62-.75.765-.022 1.59.12 2.28-.149 2.368-.914 4.811-.854 7.247-.967 1.925-.09 3.822.015 5.671.659.43.15.894.255 1.345.27 2.095.075 4.06.757 6.012 1.498.232.09.498.435.75-.09-.518-.696-1.044-1.445-1.794-1.857-1.434-.787-2.71-1.911-4.266-2.427a5.187 5.187 0 0 0-.9-.195c-1.59-.247-3.18-.457-4.764-.734-.77-.135-1.508-.098-2.279.022-3.18.48-6.36.899-9.54 1.364a7.186 7.186 0 0 0-2.607.913c-1.877 1.087-3.849 2.001-5.22 3.903-2.969 2.098-5.63 4.607-8.196 7.252-2.785 2.869-4.996 6.12-5.494 10.45-.095.824-.3 1.64-.498 2.449a18.216 18.216 0 0 0-.457 5.738c.095 1.259.17 2.532-.096 3.768-.368 1.738-.402 3.491-.457 5.259-.061 1.97.32 3.851 1.147 5.566.757 1.573 1.276 3.236 1.671 4.937a13.645 13.645 0 0 0 2.082 4.712c.737 1.071 1.488 2.142 2.109 3.288.934 1.716 2.197 3.011 3.794 3.918 2.3 1.303 4.47 2.914 7.097 3.431.587.112 1.146.472 1.706.741 1.467.712 2.934 1.431 4.402 2.15 1.63.802 3.296 1.184 5.118 1.027 1.692-.143 3.303-.675 4.954-.967 2.334-.412 4.688-.659 6.995-1.296 2.484-.681 4.804-1.655 6.79-3.438 1.597-1.431 3.112-2.974 4.695-4.427.955-.877 1.72-1.888 2.388-3.034 1.61-2.764 2.757-5.798 4.15-8.69.75-1.55 1.576-3.124 1.999-4.794.962-3.806 1.583-7.693 1.46-11.686-.034-1.191-.122-2.352-.477-3.469-.437-1.348-.71-2.734-.942-4.142-.341-2.083-.894-4.173-2.047-5.828-1.413-2.038-2.867-4.143-4.989-5.446h.02Zm-19.66 17.357a12.348 12.348 0 0 1 2.976 1.865c.6.502 1.235.607 1.938.315.566-.24 1.153-.435 1.699-.727 1.508-.809 3.078-1.461 4.613-2.18 2.102-.981 4.122-2.165 6.149-3.326.866-.494 1.03-1.049.846-2.083-.075-.412-.11-.846-.266-1.221-.621-1.505-.963-3.183-2.143-4.352-.9-.899-1.795-1.813-2.716-2.689-1.617-1.551-2.92-1.446-4.327.314-.198.248-.34.547-.491.839-1.815 3.581-3.726 7.087-6.21 10.181-.703.876-1.276 1.873-2.075 3.064h.007Zm19.504 6.052c.102-1.206-.335-2.322-.526-3.468-.136-.816-.43-1.019-1.112-.809-2.71.832-5.52 1.244-8.148 2.412-.416.187-.88.255-1.324.375-1.338.344-2.716.547-3.985 1.078-.785.33-1.72.652-2.211 1.589.307 1.228 1.385 1.131 2.176 1.445 1.215.487 2.505.764 3.645 1.484 2.279 1.438 4.818 2.082 7.315 2.839.437.135.9.172 1.358.209 1.502.12 1.754-.217 2.102-1.7.41-1.768.491-3.633.717-5.454h-.007Zm-34.633 1.708c-.218.023-.375.03-.519.068-2.777.682-5.309 2.067-7.84 3.431-.417.224-.704.659-.717 1.206-.055 2.18 0 4.36.655 6.442.423 1.349.88 1.573 2.095 1.049 3.87-1.693 7.295-4.12 10.059-7.581.757-.944 1.344-2.03 1.842-3.169.232-.539 0-.944-.58-1.041-.99-.165-1.972-.225-2.948.105-.525.18-1.03.255-1.494-.217-.157-.158-.396-.21-.546-.285l-.007-.008Zm9.185-18.9h.007c0-1.011.048-2.022-.007-3.018-.143-2.51-1.078-4.675-2.518-6.608-.873-1.168-1.583-1.311-2.695-.142-.99 1.041-1.884 2.195-2.593 3.506-.362.667-.683 1.393-.471 2.15.457 1.685.484 3.491 1.2 5.094 1.284 2.861 2.69 5.641 4.41 8.217.217.33.36.884.777.817.56-.09.56-.719.573-1.199.02-.666-.047-1.34-.075-2.007-.02-.525.062-1.094.444-1.379 1.003-.734.935-1.835.962-2.914.02-.839 0-1.678 0-2.517h-.014Zm1.522 37.523h-.102c0 .757-.014 1.506 0 2.263.034 1.535.293 1.827 1.638 2.269 2.224.734 4.388.015 6.558-.322a.7.7 0 0 0 .56-.921c-.465-1.596-.84-3.236-1.468-4.75-1.413-3.423-3.105-6.697-4.32-10.225-.211-.622-.511-1.213-.825-1.783a5.572 5.572 0 0 0-.867-1.153c-.13-.135-.512-.218-.607-.12-.478.479-1.208.741-1.14 1.715.095 1.334.082 2.675.143 4.015.13 3.004.28 6.008.416 9.005l.014.007Zm-8.346-23.245c.027-.539 0-.943.082-1.318.11-.479.307-.936.478-1.401.334-.921.355-.944-.403-1.655-2.034-1.903-4.06-3.813-6.135-5.664-.703-.629-1.515-1.131-2.32-1.603-1.133-.666-1.297-.606-2.156.39-1.823 2.12-2.068 4.772-2.068 7.483 0 1.296.252 1.708 1.337 1.971 2.075.501 4.102 1.296 6.285 1.221 1.584-.053 3.187-.06 4.893.576h.007Zm24.328 18.661c.833-.03 1.918-1.027 1.775-1.753-.307-1.618-.778-3.199-1.222-4.787-.061-.21-.307-.36-.477-.524a5.468 5.468 0 0 0-1.768-1.117c-1.726-.666-3.419-1.423-5.139-2.12-1.14-.464-2.293-.906-3.446-1.355-.314-.12-.587-.053-.812.239-.252.337-.457.704-.286 1.139.15.382.334.757.573 1.071 2.19 2.907 4.197 5.956 6.162 9.042.355.562.764 1.026 1.303 1.378.348.225.71.337 1.092.24.191-.045.382-.225.512-.405.048-.067-.027-.337-.116-.427-.157-.164-.41-.239-.56-.412-.49-.576-.49-1.303-.04-1.76.457-.464 1.091-.292 1.5.435.117.209.09.546.233.696.211.217.518.315.703.42h.013ZM25.24 269.3c.587.622 1.038 1.259.492 2.203-.164.284.034.809.027 1.228-.014.6-.369.847-.935.742-.628-.12-.908-.525-.969-1.199-.027-.284.17-.741-.3-.756-.17 0-.396.224-.519.404-.826 1.214-1.727 2.352-2.75 3.371-.642.637-.771 1.453-.58 2.292.164.727.553 1.364 1.085 1.888 1.208 1.206 2.655 1.184 4.115.982 1.351-.188 1.767-1.469 2.231-2.615.219-.532.41-1.094.499-1.663.498-3.221.962-6.45 1.419-9.678.089-.607.382-1.229.055-2.015-1.529 1.438-2.676 3.071-3.863 4.816h-.007Zm4.43-10.322c.886-.487 1.535-.869 1.808-1.903.273-1.019 1.091-1.071 1.753-.285.205.247.369.54.574.787.361.434.784.966 1.35.674.362-.187.09-.757.103-1.161.014-.232.068-.562.212-.674.6-.465.737-.974.375-1.708-.28-.57-.075-1.124.246-1.648.123-.195.15-.48-.069-.674-.573-.517-1.003-1.281-1.93-1.102-.997.188-1.768-.292-2.396-1.123-.45-.592-.771-.315-.99.247-.368.951-1.078 1.094-1.89 1.011-.3-.03-.6-.127-.9-.172-1.222-.18-1.38-.03-1.058 1.221.198.764.252 1.408-.212 2.12-.403.614-.273.966.334 1.019 1.133.097 1.836.741 2.273 1.805.184.449.26.959.41 1.573l.006-.007Zm-.287 2.21c-.035-.158-.028-.375-.116-.45-.205-.172-.376 0-.512.187-.144.188-.314.36-.417.57-.116.239-.498.524-.04.771.273.143.58.038.818-.187.253-.232.273-.554.273-.884l-.006-.007Z" />
  <path fill="#FCFCFC" fill-opacity=".08"
    d="M43.862 248.363c-.143-.03-.32-.015-.423-.105a1.571 1.571 0 0 1-.395-.539c-.11-.248 0-.487.197-.615.246-.164.512-.337.792-.412.498-.134.9.158 1.003.667.11.517-.15.847-.737.944-.143.022-.293.037-.437.06ZM45.391 241.801c-.457.06-.716-.158-.75-.66-.048-.599.286-1.063.723-1.003.505.075 1.078.741.962 1.183-.13.51-.573.427-.928.48h-.007ZM48.851 242.535c-.027.375-.184.659-.546.652-.328-.015-.812.254-.908-.39-.061-.434 0-.854.458-1.011.41-.142.935.27.996.756v-.007ZM49.506 240.722c-.082.479-.47.494-.832.494-.587 0-.874-.299-.874-.839 0-.427.32-.771.703-.756.594.03 1.024.472 1.003 1.108v-.007ZM49.731 245.292c.512.022.799.367.962.846.117.345-.225.652-.702.644-.376 0-.744-.03-.792-.584-.04-.435.225-.891.54-.914l-.008.008ZM40.867 247.247c-.048.464-.41.689-1.01.614-.444-.052-.655-.33-.608-.802.055-.546.437-.876.901-.824.464.053.764.48.71 1.012h.007ZM44.634 242.857c.525-.015 1.132.569 1.023 1.026-.027.12-.19.27-.307.292-.62.113-1.167-.284-1.133-.809a.528.528 0 0 1 .417-.517v.008ZM37.591 240.535c.007.674-.655 1.505-1.406 1.708-.28.075-.648.164-.785-.21-.102-.285-.157-.734-.013-.944.3-.457.716-.839 1.126-1.184.26-.224 1.078.285 1.078.63ZM35.073 245.771c-.676.052-.942-.067-1.003-.442-.068-.419 0-.816.402-1.019a1.153 1.153 0 0 1 1.072.008c.287.142.47.419.41.764-.042.21-.192.472-.362.562-.253.135-.567.135-.512.127h-.007ZM34.26 230.429c.22-.359.513-.622.922-.637.423-.015.737.255.86.675.11.374-.184.554-.464.726-.833.51-.874.487-1.263-.846 0 .007-.047.09-.047.09l-.007-.008ZM35.796 237.995c.035.427-.56.959-1.14.929-.17-.007-.416-.247-.47-.434-.164-.607.205-1.304.655-1.364.389-.052.914.427.948.869h.007ZM38.192 234.819c-.062.33-.69.682-1.106.622-.368-.053-.607-.592-.518-1.184.054-.382.293-.569.62-.532.587.075 1.092.652 1.004 1.094ZM40.375 237.006c-.088.48-.614.862-1.044.779-.505-.104-.437-.561-.389-.951.062-.487.39-.719.765-.562.34.143.689.3.668.734ZM52.475 261.629c-.478 0-.86-.389-.867-.906-.007-.644.47-1.273.908-1.131.464.15.75.517.77 1.071.021.517-.361.966-.811.966ZM44.579 257.847c-.737-.015-1.065-.323-1.003-.937.061-.607.498-.966 1.105-.906.58.06 1.01.577.908 1.153-.11.585-.505.757-1.01.69ZM53.307 253.344c.45-.059.778.263.867.892.075.517-.15.944-.492.936-.593-.015-1.14-.472-1.112-1.003.02-.465.294-.735.737-.825ZM50.973 256.656c-.443-.03-.819-.697-.71-1.341.082-.51.45-.63.86-.585.512.06.799.472.772 1.027-.028.479-.478.921-.915.891l-.007.008ZM50.325 257.824c-.014.067-.02.157-.061.217-.321.48-1.277.367-1.522-.18a.938.938 0 0 1 .061-.929c.273-.412.635-.307.99-.097s.573.502.539.989h-.007ZM17.487 264.866c0 .531-.396.913-.908.868-.457-.037-.798-.456-.832-1.011-.034-.554.32-.996.798-1.011.553-.015.942.457.942 1.154ZM23.294 262.057c-.088.127-.157.307-.266.359-.45.217-1.174-.127-1.337-.614-.13-.397.123-1.011.539-1.236.204-.113.436-.113.6.127.287.405.43.862.464 1.364ZM21.11 262.401c-.081.442-.402.584-.805.539-.641-.074-1.05-.554-.955-1.078.095-.502.47-.592.84-.607.566-.022.962.472.914 1.146h.007ZM27.812 242.542c-.71-.022-1.146-.382-1.065-.906.069-.427.28-.772.676-.862.532-.127 1.133.622 1.03 1.251-.06.375-.313.517-.641.517ZM27.518 238.894c.014.42-.143.592-.518.614-.457.03-.894.128-1.03-.554-.103-.532.177-1.139.545-1.131.457 0 .915.502 1.003 1.071ZM28.208 234.781c-.341.015-.587-.142-.6-.539-.014-.464.218-.846.613-.899.376-.052.73.217.894.622.144.375-.34.794-.907.816ZM25.035 235.958c-.506.015-.738-.27-.758-.712-.014-.307.068-.644.464-.629.532.022.88.367.853.839-.027.419-.328.457-.56.502ZM26.46 232.347c-.108.135-.224.405-.395.464-.478.173-1.12-.374-1.071-.891.02-.277.239-.434.47-.449a.974.974 0 0 1 1.004.868l-.007.008ZM36.274 276.537c.587-.053 1.194-.128 1.645.412.259.307.41.681.286 1.108-.109.367-.389.45-.696.48-.218.022-.443.067-.662.067-.866 0-1.03-.262-1.01-1.618l-.048.053.533-.585-.048.09v-.007ZM33.51 265.323c.492-.06.867.269.935.809.089.681-.232 1.281-.696 1.326-.546.052-1.037-.375-1.105-.959-.076-.622.28-1.102.866-1.176Z" />
  <path fill="#FCFCFC" fill-opacity=".08"
    d="M35.83 276.986c-.484.045-.92-.09-1.255-.472-.273-.307-.458-.689-.321-1.139.11-.359.403-.479.717-.509.402-.045.791.06.969.487.157.367.225.787.334 1.184l.048-.09c-.314.045-.417.322-.533.584l.048-.052-.007.007ZM35.79 271.233c-.007.502-.362.809-.956.824-.58.015-.9-.285-.894-.854 0-.734.389-1.236.9-1.176.554.067.956.577.95 1.206ZM15.48 248.423c.52-.682 1.154-.667 1.843-.39.532.21.956.09 1.42-.344.518-.487 1.023-.27 1.433.449.19.33.13.704-.212.802a33.68 33.68 0 0 1-3.057.711c-1.01.188-1.017.15-1.365-1.318l-.061.09ZM13.973 243.052c.689.075 1.371.734 1.44 1.386a.631.631 0 0 1-.15.434c-.308.36-1.086.412-1.454.127-.355-.284-.567-1.131-.335-1.565.103-.187.348-.277.492-.382h.007Z" />
  <path fill="#FCFCFC" fill-opacity=".08"
    d="M15.549 248.333c-.287.06-.573.127-.86.18-.273.045-.6.269-.778-.128-.198-.457-.239-.966.096-1.378.286-.36.675-.285 1.017-.082.566.329.566.898.464 1.49l.06-.082ZM47.684 267.555c-.02.569-.498.944-1.153.921-.594-.022-.99-.524-.908-1.153.082-.637.567-1.064 1.112-.974.546.09.97.629.949 1.206ZM43.33 263.854c-.054.674-.423 1.012-1.064.967-.41-.03-.751-.517-.73-1.042.027-.591.49-1.018 1.07-.966.465.037.765.472.724 1.049v-.008ZM24.338 275.428c.56.038.854.479.813 1.206-.035.562-.321.839-.887.854-.628.015-.99-.389-.95-1.049.042-.666.43-1.048 1.024-1.011ZM350.15 129.24c-1.635 3.196-3.507 6.2-5.558 9.089-2.269 3.19-5.011 5.75-8.046 7.982a49.734 49.734 0 0 1-7.286 4.458c-1.434.714-2.949 1.074-4.487 1.261-.806.096-1.48.334-2.091.958-.835.856-1.947 1.113-2.989 1.46-.795.264-1.503-.212-2.056-.881-.133-.154-.191-.386-.329-.534-.702-.727-.219-2.084-1.324-2.702-.836-.463-1.175-1.672-1.671-2.553-1.325-2.374-2.839-4.664-3.582-7.404-.899-3.306-1.152-6.651-.334-10.015a287.279 287.279 0 0 1 2.39-9.121c.265-.959.639-1.904 1.106-2.753a265.945 265.945 0 0 1 4.602-8.009c.495-.83 1.175-1.524 1.785-2.264 1.665-2.007 3.301-4.052 5.293-5.673 2.034-1.66 4.119-3.23 6.486-4.272 1.762-.778 3.571-1.235 5.483-1.138.449.02.904-.02 1.354-.039.553-.019.99-.276 1.319-.778.19-.29.414-.56.564-.875.91-1.917 2.494-2.168 4.153-1.981 1.411.16 2.275 1.248 2.782 2.67.357 1.01.553 2.077.605 3.158.034.7.259 1.203.743 1.659 1.405 1.319 2.419 2.959 3.11 4.876.369 1.016.599 2.046.703 3.126.121 1.216.207 2.445.391 3.647.225 1.512.156 3.011.023 4.522-.293 3.384-.921 6.677-2.085 9.836a16.13 16.13 0 0 1-1.054 2.296v-.006Zm-1.244-2.162c1.791-3.615 2.344-7.944 2.546-12.363.012-.283-.029-.572-.063-.862a899.573 899.573 0 0 0-.668-5.564c-.3-2.399-1.371-4.361-3.013-5.86-.829-.759-1.296-1.518-1.267-2.708.012-.495-.075-1.01-.179-1.492-.12-.56-.264-1.126-.495-1.634-.443-.984-1.129-1.248-2.108-.971-.685.193-1.106.688-1.411 1.357-.795 1.762-2.148 2.374-3.836 2.29-.449-.02-.904.006-1.354.032-1.428.07-2.799.418-4.152.933-2.552.977-4.689 2.74-6.762 4.547-2.028 1.763-3.75 3.937-5.374 6.176-1.63 2.244-2.869 4.779-4.274 7.197a20.406 20.406 0 0 0-2.114 5.056c-.708 2.689-1.503 5.365-2.039 8.099-.587 3.004-.351 5.988.697 8.902.732 2.039 1.895 3.757 2.926 5.577.231.405.524.553.945.598.91.097 1.336.746 1.417 1.731.052.643.098 1.293.184 1.929.069.496.15.997.3 1.467.259.81.645 1.003 1.336.708.72-.309 1.48-.573 1.987-1.274.484-.669 1.129-.862 1.86-.991 1.722-.296 3.427-.727 5.017-1.511a39.268 39.268 0 0 0 7.056-4.464c2.828-2.265 5.535-4.69 7.585-7.919 1.786-2.817 3.687-5.544 5.247-8.986h.006Z" />
  <path fill="#FCFCFC" fill-opacity=".08"
    d="M323.143 126.345c-.161.328-.375.457-.657.431-.294-.026-.461-.232-.547-.521-.207-.676.075-1.248.616-1.267.622-.026.893.649.582 1.357h.006ZM321.092 134.328c-.218.27-.478.469-.823.27-.455-.258-.645-.972-.415-1.486.138-.315.691-.38 1.037-.122.368.27.461.855.201 1.338ZM320.937 145.108c-.23.399-.513.515-.858.361-.392-.174-.576-.56-.72-.965a.543.543 0 0 1 .04-.393c.179-.308.824-.328 1.244-.058.363.232.484.721.294 1.049v.006ZM317.429 132.868c-.155.366-.461.527-.772.488-.409-.051-.76-.849-.673-1.35.063-.367.547-.541.944-.335.444.225.663.746.496 1.197h.005ZM318.213 138.245c-.225.373-.709.534-.991.328-.392-.29-.611-.913-.449-1.287.172-.385.748-.456 1.186-.141.351.251.467.746.254 1.1ZM325.118 116.059c-.144.425-.575.74-.858.618-.403-.174-.645-.907-.443-1.428.155-.392.472-.412.789-.315.478.148.68.617.507 1.125h.005ZM328.592 142.857c.437.225.616.63.42 1.003-.173.329-.449.528-.789.451-.386-.09-.714-.798-.599-1.177.121-.386.524-.502.968-.277ZM319.572 127.297c-.098.328-.651.65-.939.547-.346-.129-.645-.785-.559-1.222.075-.386.548-.637.916-.489.444.174.72.72.582 1.171v-.007ZM325.735 145.629c-.461-.238-.72-.829-.53-1.17.184-.328.731-.431 1.198-.225.288.128.392.533.225.887-.225.47-.582.676-.899.508h.006ZM321.179 122.267c-.167.431-.605.65-.904.457-.375-.245-.559-.869-.346-1.274.202-.386.518-.322.818-.174.432.213.587.592.432.991ZM322.515 143.873c-.363-.173-.616-.662-.53-1.016.081-.335.582-.515.991-.322.368.174.386.508.265.882-.127.386-.346.572-.726.456ZM321.761 138.425c-.162.225-.358.431-.64.302-.397-.18-.662-.945-.438-1.247.191-.251.467-.206.715-.11.391.148.547.618.363 1.049v.006ZM335.613 103.651c-.162.135-.323.283-.496.084-.167-.193-.351-.405-.437-.643-.121-.322.132-.798.397-.83.294-.039.461.167.576.425.15.334.184.669-.034.971l-.006-.007ZM332.255 104.378c-.375-.218-.49-.624-.323-1.068.087-.231.271-.289.45-.231.385.122.61.592.46.978-.103.25-.305.443-.581.315l-.006.006ZM326.979 109.171c-.11.186-.271.295-.461.238-.415-.136-.34-.489-.265-.83.052-.219.184-.354.392-.258.265.123.426.56.334.856v-.006ZM366.391 263.611c-3.14-.559-6.018-1.726-8.796-3.313-4.214-2.403-7.056-6.097-8.868-10.833-.909-2.38-1.3-4.845-.995-7.404.142-1.197-.113-2.232-.625-3.25-.469-.926-.81-1.898-.696-2.987.078-.739.326-1.368 1.023-1.617 1.051-.381 2.068-.902 3.219-.934 2.067-.054 4.064.016 6.075.887 4.263 1.859 8.697 2.551 13.323 2.061 3.012-.319 6.011-.591 8.995-1.198 4.334-.871 8.441-2.418 12.413-4.487 3.319-1.734 6.303-4.075 9.486-6.051 1.038-.645 2.054-1.337 3.105-1.944 2.686-1.547 5.123-3.515 7.589-5.436 1.101-.855 2.196-1.734 3.304-2.574 2.061-1.563 4.313-2.699 6.836-2.831 1.158-.062 1.989-.583 2.707-1.4 1.051-1.197 1.975-2.504 2.231-4.231.085-.598.313-1.166.476-1.749.547-1.999 1.059-2.629 2.835-2.155 1.911.522 3.773.14 5.649.343.234.023.476.023.711.085.405.101.76.335.937.739.953 2.139 1.727 4.324 1.159 6.782-.349 1.516-.675 3.048-1.017 4.565-.262 1.174-.227 2.146.825 2.986.881.708 1.57 1.719 2.309 2.636 1.492 1.851 2.096 3.998 2.075 6.486-.036 4.76-.945 9.341-2.16 13.859a156.255 156.255 0 0 1-6.09 18.136c-2.06 5.094-4.156 10.18-7.041 14.815-3.432 5.498-7.248 10.577-12.342 14.388-2.622 1.959-5.102 4.152-7.653 6.229a30.973 30.973 0 0 1-4.455 3.025c-2.125 1.182-4.221 2.434-6.338 3.648-.419.241-.86.458-1.301.653-5.393 2.403-10.907 4.332-16.69 5.304-3.127.529-6.012-.202-8.847-1.4-1.257-.537-2.465-1.213-3.808-1.509-.306-.07-.626-.155-.896-.326-1.101-.693-2.209-1.385-3.275-2.139-1.002-.708-.931-1.781.17-2.388.931-.513 1.805-1.096 2.594-1.851.256-.248.455-.521.376-.894-.39-1.999.427-3.336 1.905-4.363.305-.21.206-.708-.135-.816-.839-.265-1.677-.514-2.516-.778-3.758-1.182-6.864-3.578-9.791-6.315-.789-.739-1.528-1.54-2.352-2.216-2.061-1.688-3.297-3.99-4.171-6.556-.497-1.463-.853-2.932-1.911-4.13-.768-.863-.647-2.123-.284-3.235.255-.786.817-1.322 1.57-1.455 1.336-.233 2.636-.668 4.007-.668 2.708-.016 5.415-.125 8.122-.148 2.487-.024 4.846-.545 7.056-2.03l-.029-.016Zm60.02-51.709c-.426.086-.838.389-.859.794-.057 1.197-.69 1.57-1.592 1.345-2.387-.599-4.377.365-6.303 1.719-1.868 1.322-3.737 2.644-5.506 4.137-1.507 1.275-3.077 2.512-4.747 3.5-3.858 2.286-7.517 4.915-11.298 7.326-4 2.55-8.171 4.705-12.775 5.653-1.876.389-3.759.739-5.628 1.175-1.961.459-3.929.653-5.926.669-.398 0-.803-.024-1.194.046-5.165.848-10.153-.124-15.049-1.804-1.819-.622-3.617-.506-5.436-.381-.689.047-.994.575-.724 1.283.554 1.462.98 2.94.874 4.557-.292 4.441 1.314 8.158 3.758 11.518 1.102 1.501 2.466 2.738 3.944 3.772 2.991 2.092 6.139 3.624 9.813 3.577 1.662-.023 3.339.024 5.002.07 1.322.039 2.494-.194 3.652-.777 1.514-.762 3.027-1.509 4.505-2.38 6.118-3.609 11.795-7.933 17.337-12.498.384-.311.739-.668 1.088-1.018 2.941-2.932 5.876-5.888 8.519-9.146 2.487-3.057 5.017-6.09 6.921-9.651 1.059-1.976 2.288-3.796 3.773-5.382 1.812-1.937 3.481-4.114 6.025-5.001.476-.163.782-.567.981-1.073.284-.715.582-1.415.867-2.108-.157.07-.185.047-.071-.077.014.046.021.101.035.147l.014.008Zm-54.35 77.91c1.194.047 2.374-.155 3.553-.389 3.056-.599 6.154-1.057 9.053-2.325 6.601-2.885 12.868-6.439 18.495-11.261 1.13-.964 2.231-1.991 3.439-2.823 1.919-1.314 3.454-3.08 5.01-4.822.668-.746 1.385-1.439 2.046-2.185 2.103-2.38 4.1-4.83 5.677-7.699 1.222-2.225 2.26-4.612 3.866-6.572.803-.98 1.428-2.092 2.117-3.157 1.933-3.002 3.475-6.253 5.159-9.411 1.243-2.317 2.615-4.534 3.233-7.24.867-3.834 1.243-7.567-.633-11.144-1.463-2.8-1.442-5.639-.412-8.547.32-.91.398-1.867.505-2.816.049-.474-.128-.855-.576-.995-.305-.093-.625-.132-.931-.233-.561-.187-.895.07-1.129.622-.754 1.726-1.699 3.367-2.132 5.241-.291 1.253-.725 2.256-2.061 2.442-.284.039-.54.358-.795.553-2.814 2.169-5.386 4.611-7.397 7.707-.093.14-.192.28-.27.427-1.379 2.668-3.191 4.993-4.896 7.396-.782 1.097-1.585 2.186-2.437 3.212-1.066 1.291-2.203 2.512-3.29 3.788-2.125 2.488-4.313 4.93-6.772 6.983-3.922 3.274-7.851 6.564-12.079 9.356-2.657 1.75-5.251 3.632-8.143 4.931-4.121 1.851-8.256 3.686-12.491 5.202-2.494.887-5.003 1.735-7.667 1.844-3.183.132-6.36.357-9.536.575-.625.047-1.25.233-1.861.404-.661.195-.846.615-.448 1.113 1.037 1.283 1.464 2.869 1.933 4.44.398 1.33.867 2.676 1.797 3.64 1.954 2.037 3.994 3.989 6.026 5.942 1.208 1.158 2.679 1.866 4.071 2.706 3.113 1.859 6.41 3.041 9.998 3.095h-.022ZM435.08 218.8c-.071.895.299 1.284.512 1.727 1.023 2.061 1.428 4.254 1.137 6.571-.349 2.769-.931 5.475-1.848 8.096a9.207 9.207 0 0 1-.76 1.618 74.167 74.167 0 0 0-2.736 5.195c-1.357 2.87-3.012 5.514-4.512 8.275a27.143 27.143 0 0 1-2.046 3.212 39.9 39.9 0 0 0-3.283 5.132 51.36 51.36 0 0 1-2.196 3.741c-2.785 4.301-6.359 7.793-9.919 11.277-.355.35-.746.661-1.13.972a1381.71 1381.71 0 0 1-7.325 5.864c-.576.459-1.173.91-1.812 1.252-2.21 1.198-4.313 2.605-6.53 3.787-2.508 1.338-5.088 2.473-7.589 3.811-.561.303-1.215.397-1.819.607-2.288.808-4.689.972-7.02 1.555-1.641.412-3.297.684-4.974.513-.888-.093-1.535.202-2.082.934-.305.404-.625.801-.995 1.127-.788.7-1.271 1.532-1.25 2.683.021 1.143-.455 1.999-1.35 2.598-.199.132-.37.326-.533.513-.384.451-.277 1.065.263 1.213 1.79.482 3.439 1.315 5.08 2.209.846.459 1.777.785 2.7 1.034 1.542.42 3.127.708 4.718.506 2.615-.335 5.166-1.05 7.653-1.929 3.702-1.314 7.447-2.496 10.914-4.557 3.077-1.828 6.253-3.461 9.102-5.709 3.105-2.442 6.161-4.961 9.216-7.465.703-.576 1.35-1.221 2.011-1.851 3.112-2.917 5.535-6.494 7.908-10.103.654-.987 1.393-1.936 1.89-3.017 1.897-4.122 3.773-8.252 5.521-12.451 1.123-2.691 1.997-5.506 2.978-8.259.49-1.377 1.044-2.738 1.456-4.138 1.315-4.479 2.586-8.967 3.382-13.602.334-1.921.277-3.818.214-5.724-.036-1.127-.448-2.232-1.073-3.149-1.052-1.54-2.217-2.971-3.894-4.044l.021-.024Zm-1.243-12.808c.568-.031.803 0 1.023-.062.106-.024.248-.203.241-.304a.506.506 0 0 0-.227-.365c-.512-.234-1.052-.218-1.585-.109-.213.046-.454.179-.326.505.049.133.184.304.298.319.299.047.611.016.576.016Zm.895 9.27c-.014-.07-.036-.14-.05-.21-.042.093-.099.187-.128.288-.007.031.064.093.107.14.021-.07.05-.14.071-.21v-.008Zm.874-4.075-.093.171.128.031-.042-.202h.007Z" />
  <path fill="#FCFCFC" fill-opacity=".08"
    d="M411.98 253.268c-.334.039-.419-.218-.462-.466-.078-.459.142-.848.356-1.214.945-1.594 1.89-3.196 2.877-4.767 2.153-3.43 4.328-6.844 6.509-10.258.313-.49.646-.987 1.051-1.392.32-.326.732-.233 1.066.093.263.257.363.568.199.918-.469 1.003-.931 2.007-1.428 2.994-1.918 3.811-4.341 7.241-6.58 10.818-.824 1.322-2.06 2.139-3.154 3.134-.107.101-.292.094-.427.132l-.007.008ZM397.79 269.413c-.227-.155-.483-.233-.611-.42-.291-.42-.575-.949-.241-1.423.376-.544.838-1.058 1.357-1.439 3.482-2.551 6.324-5.809 8.875-9.402a7.21 7.21 0 0 1 .987-1.128c.462-.435 1.024-.474 1.571-.194.298.155.547.474.39.832-.262.622-.547 1.275-.952 1.789-2.494 3.157-4.895 6.423-8.036 8.873-.838.653-1.663 1.338-2.508 1.999-.256.194-.547.334-.839.513h.007ZM364.018 284.197c-.625-.062-.959-.039-1.258-.132-1.982-.645-3.964-1.283-5.727-2.52-.398-.28-.781-.606-1.144-.941-.781-.723-1.044-1.524-.682-1.975.363-.451 1.222-.498 2.011-.055.348.195.661.483.995.716 1.279.894 2.643 1.586 4.057 2.178.76.318 1.492.482 2.324.318.859-.171 1.74-.202 2.614-.248a9.82 9.82 0 0 1 1.663.085c.398.055.768.264.803.778.021.412-.291.575-.568.746-.071.039-.142.094-.221.109-1.719.335-3.439.669-4.86.949l-.007-.008ZM388.454 276.996c.035.466-.107.7-.327.785-2.785 1.105-5.088 3.119-7.589 4.76-.476.311-.952.599-1.541.56-.434-.031-.747-.218-.903-.677-.156-.459-.05-.879.291-1.151.761-.614 1.528-1.237 2.345-1.758 1.769-1.127 3.375-2.566 5.407-3.157.54-.156 1.073-.35 1.621-.117.383.164.66.444.703.747l-.007.008ZM430.106 220.861c.064 1.408-.305 2.302-1.229 2.878-.306.186-.945-.132-.91-.506a54.18 54.18 0 0 1 .434-3.562c.05-.303.313-.661.675-.552.284.086.583.28.782.521.333.42.227.98.255 1.221h-.007ZM429.914 227.301a1.11 1.11 0 0 1-1.172-1.011c-.064-.654.412-1.307.917-1.237.561.078 1.243.793 1.264 1.33.015.389-.547.902-1.009.918ZM361.368 273.278c.831.078 1.179.513 1.442 1.081.036.07.071.171.05.233-.164.467-.54.592-.945.646-.647.085-1.045-.14-1.137-.614-.128-.669.298-1.369.583-1.346h.007ZM375.131 285.931c.504 0 .874.413.853.949-.029.583-.341.926-.832 1.035-.504.108-1.058-.428-1.115-1.004-.057-.552.433-.98 1.101-.98h-.007ZM368.637 287.852c-.484-.023-.839-.49-.825-1.073.022-.684.483-1.112 1.109-1.026.526.07.916.528.867 1.034-.05.599-.583 1.089-1.151 1.065ZM355.392 275.627c0 .614-.569 1.159-1.123 1.034-.419-.093-.682-.404-.71-.91-.036-.567.312-.972.859-.995.562-.023.981.35.981.863l-.007.008ZM430.604 232.457c0 .56-.292.816-.711.902-.483.101-.988-.272-1.066-.747-.078-.474.313-1.151.689-1.197.477-.063 1.066.529 1.095 1.042h-.007ZM382.748 285.395c.057.568-.263.956-.81.995-.554.039-.966-.264-1.052-.77-.085-.505.249-.886.846-.956.604-.07.959.186 1.009.731h.007ZM358.184 273.823c-.191-.078-.511-.14-.746-.327-.227-.186-.497-.482-.298-.848.107-.194.32-.404.512-.443a1.76 1.76 0 0 1 .895.086c.376.14.696.427.639.933-.064.568-.518.513-.994.599h-.008ZM354.312 273.201c-.441-.109-.718-.444-.718-1.027 0-.42.37-.731.789-.653.504.085.846.513.803 1.003a.77.77 0 0 1-.874.684v-.007ZM384.255 245.981c.199.031-.121.023-.42-.07-.419-.124-.661-.451-.689-.933-.028-.49.199-.817.611-.988.149-.062.306-.109.462-.124 3.78-.397 7.198-2.061 10.616-3.687 2.401-1.143 4.775-2.348 7.162-3.515.291-.14.583-.303.888-.35.206-.031.498.055.633.218.127.148.206.521.12.692-.412.84-.867 1.594-1.741 2.038-1.719.878-3.382 1.897-5.165 2.659-2.58 1.112-5.102 2.372-7.759 3.282-1.372.467-2.764.786-4.726.778h.008ZM370.015 245.981c1.265-.085 2.594.101 3.915.358.178.031.384.311.448.521a.493.493 0 0 1-.291.607c-.292.132-.569.349-.874.388a24.137 24.137 0 0 1-5.195.101c-.291-.023-.625-.217-.817-.451-.184-.233-.284-.614-.284-.933 0-.389.313-.575.654-.583.788-.016 1.577 0 2.451 0l-.007-.008ZM356.962 245.375c-1.463.373-2.387-1.167-3.417-2.435-.263-.318-.313-.777-.079-1.197.235-.428.782-.607 1.251-.405.142.063.305.117.419.226 1.137 1.058 2.295 2.076 3.688 2.706.242.109.298.374.256.638-.043.303-.277.428-.498.459-.383.039-.781.008-1.62.008ZM357.396 248.345c-.576-.031-1.137-.583-1.109-1.096.022-.451.54-.972.96-.98.532 0 1.087.568 1.087 1.127 0 .475-.491.973-.938.949ZM359.421 252.708c-.171.599-.661.864-1.279.685-.519-.148-.76-.568-.647-1.128.128-.645.625-.91 1.229-.661.548.225.825.661.697 1.104ZM366.178 253.68c0 .49-.234.809-.654.91-.511.117-1.115-.396-1.151-.972-.028-.482.213-.801.654-.879.59-.101 1.108.335 1.151.941ZM364.345 256.845c-.057.389-.526.739-.888.662-.533-.109-.931-.809-.761-1.377.086-.272.313-.381.555-.35.675.07 1.165.568 1.094 1.065ZM369.347 256.425c.441-.031.64.304.682.763.022.264-.121.528-.369.544-.462.016-.64-.366-.732-.793-.064-.311.121-.451.419-.514ZM405.777 286.655c.142 0-.078-.234-.234-.552-.178-.366-.071-.677.177-.926 1.151-1.197 2.281-2.411 3.468-3.562.895-.871 1.726-1.788 2.465-2.815 1.578-2.185 3.333-4.2 5.145-6.152.852-.909 1.634-1.897 2.465-2.823.277-.303.604-.56.945-.77.299-.178.618-.046.881.179.27.234.405.576.299.918-.157.49-.32 1.003-.611 1.4-.796 1.081-1.578 2.201-2.501 3.142-1.862 1.905-3.525 4.005-5.152 6.144-1.535 2.014-3.283 3.771-5.322 5.171-.469.327-.931.669-2.025.661v-.015ZM396.725 292.985c-.05.164-.057.405-.157.475-1.414.941-2.707 2.115-4.27 2.776-.583.249-1.187.537-1.848.397-.447-.094-.625-.483-.76-.903a.741.741 0 0 1 .334-.886c1.926-1.034 3.922-1.859 6.018-2.357.278-.062.654.016.683.498ZM375.039 299.331c1.065.078 1.783-.101 2.444.327.348.225.448.824.114 1.065-1.372.988-2.871 1.4-4.498 1.136-.213-.031-.448-.202-.604-.381-.277-.311-.455-.7-.334-1.167.092-.365.334-.591.661-.653.852-.148 1.712-.265 2.217-.335v.008ZM428.671 255.811c-.05.171-.092.63-.299.972-.376.653-.824 1.26-1.286 1.843-.27.342-.433 1.12-1.03.646-.433-.342-.796-.949-.604-1.579.377-1.268 1.137-2.248 2.224-2.885.405-.241 1.002.225 1.002.995l-.007.008ZM383.039 302.986c-.639.039-1.094-.35-1.151-.964-.049-.599.398-1.073 1.024-1.073.511 0 .973.365 1.03.816.078.599-.363 1.19-.91 1.221h.007ZM386.471 293.794c-.056.124-.106.412-.262.56-.512.49-1.216.482-1.713-.031-.149-.156-.242-.444-.27-.677-.057-.451.384-.793 1.002-.824.739-.039 1.229.295 1.236.972h.007ZM381.363 297.644c.035.536-.356.98-.874.956-.498-.023-.91-.233-1.031-.832-.092-.459.327-.879.903-.918.589-.039.966.265 1.002.794ZM150.896 33.045c1.21-1.626 2.854-2.617 4.354-3.822 3.39-2.715 7.128-4.523 11.122-5.702.554-.162 1.096-.402 1.644-.609.496-.188.867.013 1.193.46-.873 2.093-2.312 3.628-3.835 5.047-.947.881-1.638 2.009-2.5 2.974-.245.272-.336.72-.622 1.36 1.41-.498 2.545-.906 3.687-1.301.239-.085.485-.175.73-.208.4-.052.719.473.52.862-.377.745-.691 1.503-1.518 1.846-.64.266-1.176.862-1.741 1.329-.074.058-.103.272-.074.382.028.104.165.246.257.246.639.026 1.278.026 1.917.033.639.006 1.278 0 1.918.032.342.02.587.486.41.784-.314.531-.496 1.218-1.124 1.419-1.318.415-2.391 1.373-3.532 2.144-2.197 1.478-4.303 3.13-6.443 4.724-.531.395-1.067.822-1.267 1.62.491.401 1.056.434 1.609.362 2.945-.35 5.878.136 8.817.208.308.006.616.162.907.291.092.039.212.285.2.305-.462.53-.508 1.431-1.398 1.6a11.964 11.964 0 0 0-4.16 1.607c-.171.103-.354.175-.508.304a.598.598 0 0 0-.182.357c0 .097.097.265.176.291 1.05.318 2.106.616 3.162.907 1.426.395 2.865.745 4.285 1.173.668.2.651.59.257 1.199-.411.635-.941.68-1.512.712-2.768.156-5.427.92-8.058 1.847-.302.103-.61.22-.873.68 1.261.266 2.391.959 3.698.745.331-.052.582.428.422.745-.308.629-.639 1.244-.981 1.912 1.598.81 3.167 1.606 4.731 2.41.239.123.53.343.439.622-.154.46.063 1.062-.394 1.373a.675.675 0 0 1-.548.065c-3.686-1.296-7.338-.434-10.956.084-.183.538.085.771.314 1.011 1.124 1.18 1.986 2.657 3.247 3.68.525.421.314 1.063.262 1.614-.028.291-.297.453-.576.447-.126 0-.257-.026-.371-.072-2.288-.894-4.634-.887-7.002-.596-.114.013-.217.11-.434.22.297.83 1.039 1.238 1.444 1.938.325.557-.103.946-.274 1.373-.148.376-.496.493-.816.318-2.037-1.102-4.246-1.043-6.397-1.056-2.614-.013-5.233.272-7.841.55-1.204.13-2.437-.13-3.749.37-.063 1.12.108 2.332-.183 3.498-.028.11.194.409.337.448 1.997.53 2.87 2.267 3.492 4.23.463 1.452.628 2.955.514 4.503-.046.616-.154 1.244.496 1.724.28.2.394.926.36 1.393-.12 1.678.126 3.336.108 4.995-.017 1.652-.342 3.298-.547 4.95-.046.356-.143.706-.217 1.063-.462 2.105-1.062 4.166-1.204 6.369a10.47 10.47 0 0 1-2.02 5.559c-.862 1.172-1.701 2.358-2.568 3.518-.622.829-1.341 1.594-1.062 2.851-.513 1.716-1.021 3.446-1.94 4.95-.907 1.49-1.775 2.993-2.403 4.677-.844 2.281-2.362 3.966-4.08 5.391a6.483 6.483 0 0 0-1.849 2.43c-1.021 2.287-2.516 4.192-3.954 6.135-.246.331-.52.674-.845.881-1.672 1.05-3.224 2.365-5.09 3.013-1.096.382-2.163.843-3.321.998-.816.11-1.524.505-2.072 1.354-.656 1.011-1.603 1.633-2.756 1.788-1.204.162-2.403.473-3.612.558-1.29.09-2.563-.24-3.63-1.089-.45-.356-.77-.35-1.215-.194-2.426.848-4.503-.085-6.403-1.711-.388-.33-.748-.531-1.21-.518-3.567.097-6.38-1.762-8.908-4.386-.234-.247-.456-.512-.679-.771-1.073-1.219-2.163-2.346-3.567-3.143-1.991-1.127-3.093-3.168-3.55-5.624-.17-.92-.336-1.853-.416-2.792-.2-2.19-1.015-4.186-1.483-6.291-.44-1.976-.816-3.959-.84-6.006-.016-1.607.115-3.201.594-4.724.411-1.295.514-2.701 1.119-3.932.085-.175.137-.428.097-.609-.297-1.303.205-2.424.599-3.557a247.402 247.402 0 0 1 1.82-5.035c.754-2.021 1.98-3.725 3.02-5.552.17-.305.461-.577.518-.9.269-1.536 1.079-2.787 1.598-4.186.434-1.166 1.016-2.177 1.832-3.02 1.37-1.412 2.442-3.174 4.006-4.366.251-.188.411-.538.594-.83 1.694-2.747 3.629-5.241 6.031-7.217.828-.68 1.741-1.212 2.62-1.815.217-.149.508-.304.422-.628-.217-.803.257-1.205.668-1.659 1.101-1.211 2.214-2.416 3.201-3.757a6.432 6.432 0 0 1 2.288-1.944c1.347-.674 2.671-1.393 4.024-2.048.701-.337 1.438-.602 2.174-.848.302-.104.685-.117.844.278.257.616.611.629 1.09.395 1.301-.622 2.677-.971 4.052-1.302.354-.084.548-.324.548-.758-.012-2.857-.24-5.643-1.712-8.118-.571-.959-1.005-2.022-1.484-3.045-.399-.85-.262-1.134.833-1.71-.884-1.102-1.917-1.983-2.973-2.741-1.849-1.329-3.39-3.09-5.181-4.49-.194-.15-.331-.434-.445-.68-.177-.39.085-.992.445-1.005.445-.013.896 0 1.335.065.89.123 1.775.272 2.659.44.639.123 1.233.182 1.878-.103.576-.253 1.038.045 1.17.725.182.927.467 1.743 1.061 2.437.274.317.262.803.257 1.243-.006.266-.177.409-.354.435-.166.026-.417-.013-.514-.143a2.935 2.935 0 0 1-.656-1.762c-.011-.395-.143-.642-.479-.823-1.079-.59-2.226-.544-3.373-.55-.046 0-.103.07-.143.122-.097.143-.079.272.029.389.234.246.457.512.708.732 1.906 1.698 3.92 3.22 5.969 4.71.49-1.263.536-2.494.097-3.75-.234-.675-.537-1.323-.839-1.958a157.646 157.646 0 0 0-2.146-4.373c-.257-.492-.61-.927-.959-1.348-.793-.946-1.614-1.866-2.413-2.805a4.69 4.69 0 0 1-.571-.862c-.131-.265-.103-.583.114-.79.137-.13.342-.24.508-.227.519.039.964.337 1.421.616 1.124.7 2.248 1.386 3.384 2.053.325.195.628.525 1.056.376.239-.401.205-.83.091-1.257-.736-2.773-1.141-5.663-2.226-8.319a1.766 1.766 0 0 1-.12-.415c-.039-.298-.017-.583.195-.797.273-.272.622-.304.884-.097.365.279.73.622.97 1.03.828 1.407 1.906 2.54 2.95 3.713 1.29 1.445 2.306 3.11 3.151 4.911.171.37.262.823.679.979.49-1.523.565-3.603.142-5.23-.582-2.234-.93-4.515-1.13-6.841-.131-1.516-.371-3.02-.542-4.529a6.535 6.535 0 0 1 0-1.29c.046-.427.599-.615.919-.362.485.382.81.933 1.107 1.49a77.571 77.571 0 0 1 1.592 3.227c.126.259.206.531.616.622.2-.532-.108-1.037-.142-1.542-.04-.577-.097-1.16-.211-1.724-.685-3.278-.628-6.628-.799-9.958-.017-.343.125-.706.234-1.037.097-.291.593-.434.833-.259.16.117.325.233.439.402.28.395.56.803.776 1.244 1.884 3.79 3.904 7.503 5.325 11.571.331.946.702 1.866 1.072 2.793.503 1.257.948 2.533 1.21 3.894.103.531.166 1.12.548 1.613.382-2.378.183-5.812-.456-7.937-.246-.823-.52-1.639-.799-2.449-.143-.415-.24-.836-.16-1.27a.977.977 0 0 1 .291-.499c.177-.155.399-.038.502.136.314.545.582 1.121.896 1.672.091.162.268.376.394.37.348-.02.319-.396.319-.662.006-1.885.126-3.777-.085-5.662-.08-.713-.16-1.445.085-2.151.12-.344.377-.376.628-.298.474.155.708.557.822 1.095.131.615-.091 1.296.228 1.879.434-.143.377-.538.382-.888.018-2.035.023-4.069.052-6.103.023-2.177.023-4.354.559-6.473.097-.395.474-.538.753-.298.696.59 1.142 1.4 1.387 2.307.77 2.837 1.586 5.662 2.191 8.552.902 4.315 1.387 8.701 1.067 13.152-.034.506-.04 1.024-.165 1.504-.16.622-.422 1.205-.633 1.807a.527.527 0 0 0-.012.214c.046.868.074 1.743.154 2.605.057.648.194 1.283.291 1.918.548.064.622-.428.788-.765.525-1.082 1.01-2.19 1.552-3.259.262-.525.365-1.082.439-1.659.137-1.153.291-2.3.394-3.453.291-3.324.839-6.609 1.415-9.874.326-1.834.953-3.615 1.535-5.378.845-2.585 1.769-5.138 2.66-7.703.08-.227.217-.337.422-.318.234.02.308.246.342.454.052.285.086.576.075.868-.115 3.194-.018 6.395-.411 9.576-.092.72-.126 1.451-.109 2.17a25.586 25.586 0 0 1-.222 3.907c-.177 1.367-.274 2.741-.04 4.121.177 1.03-.137 2.009-.303 3.006-.148.894-.548 1.743-.388 2.709.434-.085.554-.434.691-.765.456-1.12.958-2.222 1.346-3.37 1.073-3.18 2.306-6.297 3.002-9.627.103-.492.291-.965.428-1.445.109-.389.325-.628.696-.576.371.045.565.343.554.745-.012.868-.08 1.736-.086 2.604-.023 1.95-.034 3.894-.028 5.844 0 .35.011.733.319 1.102.862-.842 1.524-1.905 2.226-2.903 1.118-1.594 2.117-3.272 3.053-5.015.496-.92 1.153-1.736 1.763-2.565.08-.11.36-.11.52-.052.251.09.485.343.382.641-.382 1.147-.605 2.352-1.17 3.44-1.683 3.247-3.298 6.531-4.577 10.017-.119.33-.274.661-.456.953-1.227 2.015-1.712 4.36-2.34 6.64-.051.182.057.415.086.61.04-.214 0-.279-.12-.201.04.052.08.104.12.162l.028-.007ZM138.844 48.33l-.342.654c-1.467.881-2.1 2.326-2.146 4.146a.366.366 0 0 1-.074.033c.65-1.095 1.301-2.19 1.946-3.285.159-.279.405-.544.234-.933.371 0 .325-.298.313-.564.166.026.126.136.052.078-.206-.168-.04.156.023-.123l-.006-.006Zm-22.022 45.444a30.43 30.43 0 0 0-.217.622c-.154.123-.302.246-.456.369-.097.194-.188.382-.285.577-.206.07-.411.142-.617.213.04.026.08.059.12.085l-.114.09c0-.052-.011-.103 0-.155.194-.097.388-.195.576-.298.092-.182.177-.363.28-.544.16-.11.428-.072.456-.39.075-.194.155-.394.246-.582.268 0 .531-.02.536-.434.183.045.36.11.548.13.862.096.862.09.822.939-.057 1.302-.143 2.61-.16 3.913-.063 3.719-.428 7.373-1.324 10.963-.222.881-.61 1.749-.525 2.779.24-.097.445-.123.576-.253 2.215-2.079 4.423-4.179 6.632-6.271.365-.344.576-.752.456-1.329-.148-.732.057-1.438.16-2.151.262-1.781.605-3.55.319-5.397-.216-1.425-.279-2.883-.405-4.328-.142-1.684-.747-3.77-1.643-5.656-1.13.9-1.684 2.359-2.637 3.421-.958 1.063-1.849 2.203-2.767 3.31-.189.124-.377.247-.565.364l-.012.013Zm14.946-3.505c-.04.032-.08.064-.126.097-.04.032-.08.058-.12.084.075-.078.149-.156.212-.253.068-.395.137-.797.199-1.192.577-.013.605-.66.902-.991.451-.5 1.193-.324 1.409.33.183.564.206 1.147.12 1.724-.416 2.863-.274 5.792-.776 8.65-.028.174.052.382.12.796 1.01-1.885 1.13-3.874 1.649-5.714a.776.776 0 0 0-.017-.428c-.377-.933-.08-1.853 0-2.786.086-1.01.143-2.028.148-3.045.012-1.413-.336-2.728-1.044-3.9-.182-.299-.371-.597-.839-.512-.393 1.704-.941 3.395-1.535 5.066-.091.26-.057.57-.08.868-.348.337-.245.778-.222 1.206Zm4.314 7.36c-1.084 2.429-1.775 4.989-2.066 7.833.565-.467 1.221-.557 1.37-1.296.354-1.743.85-3.453.919-5.267.017-.454-.04-.85-.274-1.212l.097.052-.046-.104v-.006Zm25.691-62.407c-.753.104-1.507.208-2.26.305-.348.045-.622-.11-.793-.467a.785.785 0 0 1 .074-.81c1.444-2.021 2.608-4.308 4.48-5.934.85-.739 1.626-1.607 2.237-2.715-2.631.11-7.362 2.676-9.33 5.086 1.05-.285 1.974-.512 2.841-.985.349-.188.685-.343 1.102-.194.428.155.588.544.342.952-.548.92-1.329 1.562-2.066 2.261-1.124 1.07-2.259 2.132-3.389 3.195-.154.142-.286.298-.211.537.222.234.467.123.713.085 1.267-.188 2.534-.512 3.806-.506.959 0 1.724-.343 2.483-.868-.172.045-.195.006-.08-.11.017.058.028.116.045.168h.006Zm-19.163-7.055c-.399 1.23-.519 2.526-.713 3.803-.017.097.086.279.171.317.091.04.291 0 .331-.07.274-.565.525-1.148.765-1.73.131-.325.331-.655.337-.986.011-.473-.565-.194-.72-.55-.108-.247-.319-.46-.171-.778-.068-1.153.035-2.293.206-3.427.308-2.002.559-4.01.89-6.006.651-3.868.742-7.788.964-11.702.012-.233.12-.596-.473-.738-.348 1.328-.988 2.546-1.427 3.894-1.244 3.796-1.495 7.768-1.763 11.74.308.849-.229 1.743.08 2.572.296.803.131 1.568-.012 2.345-.08.422-.274.823-.057 1.4.502-.26 1.044-.058 1.592-.09v.006Zm-31.18 49.785c.222.149.445.278.696.065 1.626-1.38 3.207-2.838 4.89-4.121 1.53-1.166 2.1-2.838 2.289-4.756.091-.926.011-1.872-.023-2.812-.017-.447-.343-.68-.634-.44-.547.447-.975.635-1.694.207-.788-.46-1.849.188-2.169 1.134-.428 1.276-.776 2.592-1.164 3.887-.696 2.307-1.09 4.743-2.22 6.868l.063.078-.046-.11h.012Zm15.333 37.604c.468-1.153 1.387-1.866 2.094-2.786.6-.784 1.501-1.445.976-2.779-.08-.195.12-.538.211-.81.177-.544.4-1.069.548-1.62 1.193-4.464 1.781-9.045 1.952-13.697.011-.33.091-.745-.388-.9-.999 1.023-1.478 2.468-2.146 3.751-.553 1.063-1.01 2.177-1.746 3.097-.211.266-.377.577-.536.888-.149.298-.075.518.239.635.166.065.428.22.428.337-.006.861.337 1.704.063 2.585a5.598 5.598 0 0 0-.268 1.477c-.08 2.488-.622 4.866-1.21 7.244-.205.835-.451 1.671-.137 2.539-.148-.045-.16-.077-.034-.09-.012.045-.023.09-.029.136l-.017-.007Zm-53.168-.674c.063-.259.051-.466-.223-.22-.057.046.115.227.269.182.416 1.833 1.42 3.375 1.951 5.15.114.389.457.363.736-.019.217-.292.406-.628.08-.933-.605-.564-.52-1.179-.32-1.944.686-2.617 1.484-5.202 1.604-7.988.052-1.193-.028-2.294-.393-3.395-.543-1.62-1.05-3.259-1.633-4.866-.182-.506-.028-1.192-.644-1.549-.623.687-1.319 1.316-1.747 2.229-.958 2.047-1.643 4.224-2.368 6.382-.091.266-.205.661.063.771.844.35.553 1.341.884 1.963.388-.155.497-.512.668-.81.211-.363.422-.725.656-1.069.309-.434.81-.583 1.182-.401.353.168.41.537.422.894.046 1.302.08 2.604.086 3.913 0 1.231-.018 1.231-1.262 1.71h-.011Zm37.612 5.987c.525.175.839-.253 1.158-.577 1.159-1.153 2.426-2.125 3.727-3.045a11.596 11.596 0 0 0 1.957-1.743c.48-.531.953-1.451 1.729-.991.651.382.651 1.361.668 2.138.046 2.32.034 4.639.057 6.952 0 .318-.268.706.137.953.873-.655 1.455-1.581 2.009-2.521-.08-.155-.126-.291-.211-.395-.086-.104-.212-.155-.303-.259-.514-.564-.536-.687-.2-1.27.314-.544.645-1.082.982-1.613 1.78-2.819 2.847-5.98 3.538-9.324.188-.92.331-1.846.28-2.799-.035-.583-.349-.816-.737-.505-.313.246-.616.518-.907.797-2.248 2.145-4.462 4.334-6.745 6.44-1.587 1.458-3.247 2.819-4.896 4.179-.343.285-.913.292-1.159.629-.308.421-.382 1.056-.559 1.593-.154.473-.314.946-.462 1.419-.017-.019-.034-.032-.057-.051l-.006-.007Zm41.578-98.443c-.702.447-1.398.927-2.117 1.341-.462.266-.896-.038-.919-.66-.04-1.154-.028-2.313-.04-3.473-.005-.797-.011-1.594-.023-2.391a.365.365 0 0 0-.079-.194c-.166-.22-.08.298-.16-.033-.137.661-.194 1.316-.417 1.892-1.101 2.844-1.917 5.825-3.195 8.591-.525 1.147-.982 2.352-1.233 3.642-.194.984-.525 1.937-.793 2.902-.137.5-.354 1.082-.794 1.14-.821.104-.907.836-1.261 1.413-.445.726-.61 1.406-.319 2.229-.428.363-.822.693-1.01 1.354-.52 1.788-1.153 3.537-1.729 5.306-.103.311-.274.661.154.985 1.461-1.27 3.264-1.898 4.805-3.078.051-.038.114-.058.176-.084.252-.103.497-.13.714.097.211.22.222.519.182.804-.068.518-.279.94-.61 1.322-1.216 1.393-2.408 2.805-3.607 4.217-.188.22-.405.344-.667.33l.079.092-.051-.123c.365.161.708.207 1.09-.026 1.672-1.044 3.396-1.97 5.022-3.097 2.351-1.633 4.913-2.696 7.436-3.875.176-.084.365-.188.547-.175.309.026.708.026.891.233.262.298-.018.648-.223.92-.205.273-.377.59-.628.797-1.13.933-2.277 1.827-3.412 2.728.154-.071.194.058.097.071-.251.033.051.123-.069-.13 1.279.564 2.34.299 3.23-.958.679-.966 1.581-1.685 2.437-2.45 1.866-1.664 3.806-3.193 5.883-4.496.708-.447 1.399-.933 1.889-1.846-1.255-.266-2.248-.182-3.11.855-.371.447-.976.66-1.495.927-.439.22-.702-.085-.622-.668.046-.343.285-.654.126-1.088-.948-.15-1.872.22-2.814.324-1.272.142-2.533.343-3.806.505-.331.039-.622-.058-.839-.395-.348-.538-.302-1.037.217-1.478a57.958 57.958 0 0 0 4.428-4.14c-.416.072-.605.078-.776.136-1.986.597-3.829 1.633-5.746 2.456-2.214.952-4.36 2.086-6.146 3.933-.366.376-.879.57-1.33.842-.234.143-.496.246-.685-.039-.222-.337-.462-.719-.045-1.12.388-1.115 1.346-1.484 2.157-1.964 1.518-.9 3.093-1.671 4.651-2.488.679-.356 1.535-.544.947-1.807-.103-.22.131-.674.257-.998.936-2.443 1.889-4.879 2.819-7.322.222-.583.633-1.107.508-1.814.057-.02.119-.032.165-.071.023-.02 0-.136 0-.136-.143-.02-.183.071-.12.246l-.017-.013Zm-63.434 96.337c1.01.039 1.934-.33 2.545-1.198.77-1.095 1.775-1.873 2.614-2.87.804-.953 1.826-1.581 2.898-2.074.77-.356 1.204.033 1.222 1.011.017.978-.246 1.859-.662 2.695-.217.434-.423 1.005-.93.959-.623-.052-.788-.635-.788-1.27 0-.071-.028-.136-.046-.207-.045-.169-.148-.214-.29-.11-.098.071-.246.175-.252.278-.045.545.343 1.076-.057 1.653-.616.881-.764 1.956-.901 3.051-.126.998-.446 1.97-.605 2.961-.189 1.192-.657 2.346-.531 3.764 1.113-.751 2.151-1.431 3.167-2.164.337-.239.308-.583-.051-.848-.4-.298-.394-.7-.177-1.134.696-1.387 1.347-2.806 2.111-4.147.531-.933.936-1.898 1.181-2.961.611-2.663 1.205-5.338 1.787-8.014.04-.195.028-.467-.069-.616-.194-.304-.462-.084-.667.026-1.45.752-2.934 1.445-4.337 2.3-1.815 1.108-3.35 2.657-4.8 4.309-.217.252-.4.57-.525.9-.394 1.005-.947 1.892-1.506 2.773-.183.292-.417.564-.297.972-.2-.032-.36 0-.131.227.063.058.165-.123.091-.266h.006Zm41.749-45.1c.177-.04.434-.182.525-.097.594.537 1.227.654 1.957.447.303-.085.64 0 .953-.02 1.912-.104 3.835-.136 5.741-.343 2.237-.247 4.451-.396 6.677.084.434.09.89.065 1.335.078.166 0 .251-.117.2-.266-.04-.13-.103-.311-.188-.343-.303-.117-.617-.182-.925-.247-.336-.077-.565-.304-.764-.602-.428-.635-.251-1.348.393-1.516.246-.065.508-.078.759-.11a22.074 22.074 0 0 1 5.547-.059c.571.072 1.147.065 1.718.072.268 0 .394-.363.239-.635-.57-1.005-1.449-1.6-2.294-2.255-.679-.525-1.369-.66-2.174-.492-2.128.453-4.268.874-6.408 1.257-.594.103-1.119.194-1.421.887-.24.544-.765.687-1.147.382-.805-.641-1.53-.414-2.346-.084a21.593 21.593 0 0 1-3.133.985c-1.774.415-3.326 1.445-4.993 2.157-.308.136-.257.448-.239.72-.172-.046-.343-.136-.508-.13-.217.007-.411.356-.274.395.08.02.182-.064.279-.103.166-.059.331-.117.497-.169l-.006.007Zm-2.768-20.986c-.416-.207-.582.149-.724.453-.908 1.931-1.935 3.758-3.259 5.359-.268.324-.422.732-.285 1.198.091.298.131.551-.194.707-.411.194-.645.738-1.136.764-.519.026-.793.395-1.038.842-.206.37-.377.778-.645 1.076-.622.693-.674 1.51-.554 2.41.171 1.296.297 2.592.08 3.9-.034.195-.045.409.228.597.685-.564 1.45-1.089 2.1-1.763.657-.68 1.324-1.12 2.232-.887.576.149.964-.123 1.301-.648.89-1.413 1.797-2.819 2.728-4.199.382-.57.433-.92-.137-1.412-.406-.356-.229-.94.222-1.238.297-.194.622-.304.902-.064.422.362.713.388 1.101-.104 1.102-1.413 2.3-2.728 3.224-4.237-.194-.79-.376-1.536-.565-2.294-.348 0-.536.304-.776.531-1.438 1.354-3.087 2.326-4.679 3.402-.257.175-.491.097-.696-.104-.206-.194-.337-.447-.314-.758.017-.214.091-.415.143-.628.234-.979.468-1.957.69-2.948.011-.072.017-.143.04-.208.08-.233.029-.291-.08-.116-.04.07.057.246.091.375v-.006Zm-21.582 52.83c.559-.978 1.347-1.73 2.015-2.598 1.312-1.704 2.95-2.993 4.359-4.574.309-.35.497-.622-.057-.953-.536-.317-.616-.868-.348-1.483.086-.195.149-.402.228-.603 1.57-3.861 2.152-8.02 2.837-12.148.057-.35.051-.726.034-1.082-.012-.188-.063-.428-.177-.55-.177-.189-.371-.007-.491.148-.719.966-1.672 1.562-2.596 2.203-1.313.907-2.568 1.911-3.681 3.11-.399.434-.959.745-1.084 1.451 1.13.661 1.113.661 1.055 1.899-.034.713-.273 1.419-.091 2.144.291-.038.44-.265.582-.518l.839-1.458c.228-.389.542-.609.97-.538.542.091.719.532.771 1.076.057.577.125 1.153.142 1.73.04 1.25-.091 1.354-1.187.959-.251-.09-.496-.227-.662.104-.456.92-1.027.55-1.586.174-.314.467-.24 1.005-.263 1.49-.137 2.916-.547 5.761-1.506 8.482-.177.499-.217.978-.046 1.47-.045-.019-.12-.032-.131-.071-.029-.142.017-.162.091-.039.017.026-.023.098-.034.149l.017.026Zm-8.155-9.388c.063 0 .143.02.189-.02 1.483-1.243 2.762-2.779 4.371-3.841.234-.156.348-.415.325-.726-.091-1.07.383-1.957.736-2.877.657-1.73 1.341-3.44 1.958-5.183.645-1.82.981-3.745 1.187-5.689.08-.777-.268-1.069-.925-.745-1.164.577-2.345 1.102-3.418 1.925-1.895 1.45-3.88 2.753-5.78 4.192-1.034.783-2.038 1.658-2.626 3 .154.077.223.142.257.122 1.952-1.069 3.892-2.15 5.844-3.226.228-.123.462-.253.701-.324.28-.078.548.058.554.395.011.641.074 1.387-.428 1.82-1.472 1.277-2.089 3.085-2.402 5.022-.337 2.047-.765 4.108-.508 6.22l-.069-.084.046.02h-.012Zm-15.664 32.622c.12.058.228.136.354.169 1.358.369 1.695.758 1.33 2.209-.617 2.462-.429 5.047-1.022 7.503-.063.265-.052.563.205.894 1.29-.836 2.585-1.769 4.075-2.203a.51.51 0 0 0 .337-.667c-.115-.363-.115-.726.028-1.056.622-1.426 1.193-2.897 1.917-4.251.44-.823.77-1.652.976-2.572.377-1.691.782-3.369 1.136-5.06.234-1.127.41-2.274.582-3.415.063-.434-.228-.686-.582-.524-2.026.907-3.989 1.943-5.775 3.388-.577.467-1.033 1.043-1.495 1.659-.885 1.186-1.33 2.637-1.998 3.933.052.032.097.071.149.09.023.007.057-.032.085-.045l-.296-.039-.006-.013Zm20.384-21.588c.354.097.599-.026.776-.402 1.044-2.164 1.969-4.354 2.288-6.855.325-2.572.645-5.131.548-7.697-.496-.22-.81.04-1.153.24-1.934 1.153-3.521 2.857-5.278 4.29-1.273 1.036-2.174 2.435-3.002 3.9-.41.725-.708 1.535-1.044 2.319-.725 1.698-1.558 3.317-2.67 4.743-.27.343-.475.661-.925.602-.223-.032-.354.136-.388.357-.092.615-.177 1.231.188 1.917.354-.252.622-.434.884-.622 1.495-1.108 3.03-2.151 4.657-2.999 1.33-.7 2.654-1.413 3.983-2.113.228-.116.474-.213.719-.272.365-.09.828.344.731.745-.149.622.125 1.329-.274 1.905 0 .136-.006.279 0 .415 0 .065.017.181.023.181.148-.013.199-.116.131-.285-.052-.129-.131-.239-.2-.356l.006-.013Zm-24.88 10.671c.507-1.166 1.614-1.587 2.362-2.462.353-.408.713-.752.918-1.335.674-1.924 1.89-3.414 3.196-4.814.183-.194.405-.343.633-.466.326-.169.868.065.976.434.32 1.056.497 2.196-.045 3.155-1.17 2.067-1.341 4.335-1.284 6.674.017.822-.137 1.671.051 2.488.257-.033.388-.013.496-.072.731-.369.742-.375.657-1.49-.023-.311.04-.564.148-.823a15.94 15.94 0 0 1 1.74-3.11c2.249-3.116 2.534-4.185 2.346-8.15a16.275 16.275 0 0 0-.114-1.296c-.177-1.289-.314-2.579-.137-3.888.04-.285.034-.615-.228-.758-.257-.136-.485.104-.69.253-2.044 1.471-4.104 2.909-6.164 4.354-2.06 1.445-3.435 3.628-4.12 6.311-.302 1.179-.576 2.371-.873 3.55-.131.512-.166.991.142 1.438-.074-.071-.142-.142-.216-.213.068.071.137.142.21.22h-.005Zm59.604-85.206c-.12.803-.565 1.445-.856 2.164-.222.557-.639.894-1.073 1.198-.233.169-.713-.012-.827-.304a2.756 2.756 0 0 1-.171-.616c-.223-1.788-.685-3.544-.514-5.384.04-.447.109-1.023-.553-1.334-.286.712-.657 1.4-.828 2.15a3.195 3.195 0 0 1-1.038 1.75c-.6.544-.856.557-1.142-.149-.342-.855-.645-1.736-.947-2.611a14.904 14.904 0 0 1-.365-1.238c-.086-.343-.137-.835-.502-.79-.548.065-.326.66-.337 1.037-.017.648.028 1.302.068 1.956.155 2.54.052 5.073-.182 7.6-.143 1.516-.343 3.013-.816 4.458-.4 1.211-.765 2.449-1.045 3.706-.325 1.47-.542 2.98-.798 4.47-.097.551-.343 1.095-.04 1.66.833.018.747-.889.993-1.381.69-1.386 1.249-2.85 1.871-4.283.12-.272.308-.466.594-.453.399.02.531.356.57.726.132 1.237-.017 2.455-.176 3.673-.149 1.14-.269 2.287-.4 3.434 0 .045.069.104.171.246 2.1-1.334 4.018-2.993 5.878-4.742.28-.266.514-.661.656-1.044a473.54 473.54 0 0 0 2.614-7.476c.057-.175.034-.486-.069-.603-.085-.097-.365-.071-.513.006-.274.143-.479.525-.839.33-.405-.22-.468-.66-.422-1.114.057-.576.108-1.153.217-1.716.211-1.056.416-2.126.724-3.156.217-.725.274-1.406.04-2.105.166.019.143.136.052.084-.223-.13-.017.155 0-.136l.005-.013Zm10.655 14.856c-.292-.22-.605-.233-.902-.039-2.853 1.892-5.992 3.305-8.252 6.227-.354.46-.713.518-1.141.084-.246-.246-.44-.052-.622.194-.325.441-.685.85-1.027 1.283-1.741 2.216-3.481 4.438-5.222 6.66-.165.214-.348.422-.222.746.045.032.114.104.136.09.292-.155.577-.31.856-.485 3.596-2.255 7.351-4.063 11.334-5.21 1.974-.57 4.011-.874 5.895-1.84.405-.207.867-.226 1.278.098-.12.933-.411 1.755-1.301 2.352.519.161.822.31 1.13.336.89.085 1.786.091 2.676.182.913.09 1.735-.123 2.591-.525 2.066-.972 4.149-1.905 6.391-2.235.531-.078 1.05-.324 1.564-.486-.137-.577-.485-.57-.782-.661-1.05-.311-2.106-.59-3.144-.946a1.8 1.8 0 0 1-1.136-1.082c-.314-.765-.297-1.27.303-1.678.656-.44 1.363-.778 2.037-1.186.148-.09.319-.278.348-.447.057-.324-.228-.298-.394-.298-1.792 0-3.578 0-5.37.02a3.61 3.61 0 0 0-.947.136c-1.792.48-3.646.635-5.404 1.302a5.204 5.204 0 0 1-.93.24c-.423.077-.736-.117-.936-.558-.2-.427-.183-.829.057-1.224.297-.492.708-.83 1.164-1.095-.148-.013-.131-.13-.051-.084.228.13 0-.15.017.142l.006-.013Zm-32.848 44.673c.12 0 .291.059.354-.006 1.558-1.717 3.139-3.408 4.503-5.339.199-.285.376-.57.445-.94.314-1.703.605-3.394.542-5.163-.091-2.371-.902-4.516-1.472-6.732-.137-.525-.445-.602-.885-.252-1.096.874-2.146 1.827-3.275 2.643-1.69 1.224-3.202 2.637-4.343 4.535-.519.868-1.296 1.38-2.089 1.86-.302.181-.85-.246-.816-.642.029-.35.109-.712.228-1.036 1.364-3.603 2.534-7.276 3.442-11.06.176-.739.519-1.438.507-2.203-.125-.071-.182-.142-.234-.136-2.71.486-5.118 1.646-7.15 3.83-1.261 1.36-2.408 2.798-3.275 4.502-.314.616-.725.966-1.313 1.108-.856.207-1.57.596-1.769 1.698a.59.59 0 0 1-.548.511c-.354.026-.599-.22-.73-.576-.223-.59-.172-1.121.257-1.588.513-.557 1.055-1.056 1.717-1.36.308-.143.554-.337.696-.687 1.045-2.566 2.106-5.132 2.22-8.034.006-.188-.04-.467-.148-.557-.12-.091-.4-.091-.519.013-1.073.94-2.317 1.522-3.51 2.222-1.187.7-2.305 1.503-3.053 2.877-.234.427-.496 1.056-1.107 1.082l.063.136-.046-.156c.554.434 1.084.143 1.644-.032.855-.266.987-.214 1.198.784.137.648.416.732.919.803.605.091.77.732.388 1.277a5.26 5.26 0 0 1-.537.622c-.479.499-.622.486-1.164-.26-.205-.285-.405-.388-.599-.136-.668.875-1.313 1.724-1.33 3.026-.011.849-.302 1.698-.508 2.533-.154.616-.342 1.212-.165 1.853.108.013.2.052.234.02 1.598-1.581 3.441-2.754 5.244-3.978 1.473-1.005 2.911-2.093 4.548-2.78.896-.376 1.752-.868 2.62-1.322.405-.213.787-.492 1.261-.453.262.02.548.09.571.434.102 1.594.262 3.22-.246 4.743-.656 1.963-.959 4.062-1.809 5.947-.125.286-.325.622.034.998 1.136-1.043 2.26-2.099 3.413-3.123 1.803-1.6 3.863-2.838 5.324-4.937.371-.531 1.01-.42 1.233.253.217.635.439.81 1.056.868.97.09 1.289.68 1.255 1.788-.023.797-.086 1.594-.148 2.385-.023.291-.126.576-.411.66-.36.104-.605-.07-.771-.44-.131-.292-.182-.713-.605-.59-.256 1.51-.582 2.994-.741 4.497-.149 1.36-.737 2.643-.571 4.056-.205.175-.097-.22-.154.065a.324.324 0 0 0 .017.13c.148 0 .177-.079.091-.234l.017-.007Zm1.661-58.83c-.377 1.692-.285 2.942-.068 4.121.222 1.205-.155 1.944-.925 2.598-.319.272-.576.22-.765-.194-.576-1.296-1.124-2.605-1.717-3.887-1.107-2.391-2.494-4.523-4.543-6.181-.165.751-.017 1.38.166 1.97.473 1.528.719 3.083.576 4.696-.063.726.211 1.238.616 1.743 1.09 1.36 1.838 2.948 2.426 4.652.627 1.82 1.324 3.616 1.986 5.423 1.238 3.356 2.191 6.803 2.636 10.419.148 1.218.291 2.442.434 3.66.034.298.108.61.382.655.143.026.348-.162.468-.311.828-1.005 1.598-2.087 2.477-3.026.759-.81 1.044-1.736 1.113-2.883.119-2.022.216-4.07.536-6.058.582-3.674.559-7.36.531-11.06 0-.143-.029-.285-.063-.428-.012-.045-.08-.09-.131-.103-.052-.013-.149-.013-.166.02-.097.174-.2.356-.262.55-.251.816-.417 1.678-.742 2.449-.337.79-.919.777-1.273 0a85.388 85.388 0 0 1-1.729-4.114c-.565-1.438-1.01-2.942-1.952-4.723l-.011.013Zm29.897 32.59c.639.175 1.204.026 1.763-.078 2.893-.55 5.792-1.094 8.686-1.658.239-.046.593-.136.662-.311.188-.518-.371-.402-.537-.648-.114-.169-.262-.318-.365-.499a1.074 1.074 0 0 1 .342-1.47c.16-.104.371-.098.548-.163.16-.064.194-.188.114-.317-.034-.058-.068-.143-.114-.156-.24-.077-.491-.194-.736-.2-.885-.007-1.741-.558-2.648-.208-.907.35-1.718-.317-2.619-.298-1.975.045-3.955-.097-5.935.065a6.781 6.781 0 0 1-1.147.013c-.394-.032-.799-.169-.936-.629-.268-.894-.776-.79-1.37-.537-.89.382-1.774.803-2.687 1.12-4.412 1.51-8.206 4.277-11.779 7.464-1.626 1.452-1.632 1.944-.679 3.985.057.13.126.253.183.382.182.395.479.48.799.285 1.124-.686 2.265-1.315 3.464-1.82 2.579-1.102 5.244-1.82 7.92-2.508 1.433-.369 2.871-.674 4.309-1.023.297-.072.702-.156.685-.61-.046-1.302 1.13-1.405 1.62-2.183.074-.116.366-.078.554-.071.61.026.89.615.565 1.224-.16.298-.4.538-.651.862l-.011-.013Zm-25.646-25.955c.434-1.633.708-2.747 1.028-3.842.308-1.05.439-2.1.365-3.207-.091-1.36.177-2.067.668-1.937.804.226.753 1.108.821 1.775.24 2.306.474 4.62.571 6.932.068 1.73.125 3.467-.017 5.216-.091 1.114-.297 2.274-.069 3.44.377-.162.343-.492.4-.758.228-1.062.285-2.131.308-3.226.023-1.07.787-1.937.936-3.045.251-1.86.673-3.693.919-5.553.148-1.14.114-2.313.142-3.473.012-.434-.16-.673-.588-.511-.467.174-.713-.175-.89-.577-.114-.26-.165-.544-.245-.823-.417-1.445-.736-2.935-1.261-4.328-1.256-3.33-2.591-6.622-3.938-9.906-.399-.979-.947-1.886-1.421-2.832-.08-.155-.177-.214-.371-.116-.034.149-.114.343-.102.53.034.578.097 1.154.154 1.73.154 1.66.45 3.318.433 4.97-.022 2.21.4 4.276.936 6.356.217.83.343 1.691.468 2.547.086.622-.439.816-.747 1.127-.223.22-.697-.071-.891-.55a88.095 88.095 0 0 1-1.141-2.988c-.593-1.6-1.061-3.265-1.849-4.768-.051-.091-.211-.175-.308-.156-.091.02-.234.156-.245.253-.183 1.697.051 3.317.747 4.833 1.501 3.285 2.716 6.719 4.029 10.101.302.778.645 1.53 1.176 2.78l-.018.006Zm-31.637 96.415c.953-.395 1.484-.628 2.02-.823.85-.304 1.358.11 1.393 1.134.011.363-.052.726-.08 1.082-.057.726-.171 1.445-.166 2.171.006.732-.502 1.354-.313 2.112.741-.253 1.466-.467 2.174-.752 1.968-.797 3.743-1.866 4.6-4.231.193-.531.456-1.036.701-1.548.822-1.685.953-3.603 1.444-5.404.399-1.464.582-2.974.616-4.509.006-.331.103-.719-.24-.94-2.75.823-5.29 2.132-7.566 4.076-.874.745-1.804 1.522-2.254 2.624-.651 1.574-1.473 3.038-2.323 5.008h-.006Zm-5.85-50.699c-.832.506-1.506.881-2.065 1.471-1.164 1.238-2.39 2.397-3.407 3.81-.941 1.302-1.729 2.637-1.33 4.457.058.266.046.61-.05.856-.623 1.587-.286 3.116.153 4.652.657 2.306 1.593 4.509 1.986 7.25.913-1.309 1.786-2.268 2.836-2.942.84-.538 1.04-1.186.874-2.268-.183-1.153.25-2.293.644-3.356.537-1.451.622-2.948.588-4.477-.068-3.045-.142-6.084-.228-9.453Zm13.76 1.024c-.217-.039-.372-.117-.44-.065-1.38 1.043-2.83 1.957-4.137 3.15-2.14 1.962-4.126 4.113-6.043 6.349-.777.9-1.33 1.95-1.41 3.246a8.222 8.222 0 0 1-.365 1.904c-.114.389-.308.81 0 1.368a31.902 31.902 0 0 0 3.64-2.709c.92-.79 1.832-1.58 2.78-2.326.485-.382 1.284-.414 1.42-.103.24.544.046 1.108-.108 1.632-.074.26-.325.447-.462.687-.422.745-.696 1.562-.736 2.449a60.164 60.164 0 0 0-.052 3.045c0 .26-.045.622.263.739.308.117.44-.188.57-.428.811-1.477 1.576-2.986 2.437-4.431.77-1.296 1.164-2.696 1.398-4.231.52-3.421.354-6.933 1.245-10.295v.02Zm4.639 48.23c.576-.376 1.084-.674 1.552-1.023 1.016-.759 2.077-1.419 3.23-1.866 1.512-.59 2.676-1.64 3.538-3.162.171-.298.36-.603.582-.849a.584.584 0 0 1 .708-.13c.257.124.399.357.376.674-.068 1.225-.159 2.456-.216 3.68-.018.324-.166.726.296.985.811-.343 1.393-1.147 2.117-1.704 1.781-1.36 2.717-3.362 3.413-5.604.805-2.618.685-5.274.525-7.95-.023-.389-.359-.486-.708-.207-1.466 1.153-2.938 2.3-4.394 3.472-2.197 1.769-4.223 3.745-5.712 6.33-.417.72-.787 1.419-1.449 1.957-.765.629-1.347 1.555-1.661 2.605-.24.816-.616 1.25-1.404 1.01-.376-.116-.61.039-.707.467-.08.337-.297.641-.097 1.302l.011.013Zm1.147-5.215c1.027-1.225 2.02-2.437 3.042-3.616a8.524 8.524 0 0 0 1.569-2.714c.24-.674.542-1.316.799-1.977 1.25-3.22 1.906-6.608 2.231-10.088.04-.421-.268-.647-.639-.427-2.323 1.373-4.685 2.669-6.934 4.185-1.609 1.082-2.881 2.611-3.572 4.698-.377 1.146-.93 2.228-1.392 3.343-.097.227-.371.447-.012.816 1.005-.278 2.038-.687 2.876-1.458 1.222-1.114 2.705-1.859 3.561-3.505.451-.861 1.284-1.406 2.055-1.924.211-.143.473-.214.719-.272.496-.117.884.259.901.823.046 1.159-.371 2.112-1.004 2.974-.411.557-.622.615-1.278.084-.24-.195-.377-.357-.588-.065a10.817 10.817 0 0 0-1.718 3.602c-.439 1.672-.548 3.408-.81 5.119-.017.097.091.214.177.402h.017Zm8.195-66.482c.896-.052 1.592-.071 2.288-.143.639-.064 1.141.091 1.358.856.091.317.285.427.582.408.554-.04.828-.311.811-.92-.137-4.762-1.062-9.33-2.643-13.736-.724-2.015-1.403-4.05-2.145-6.051-.491-1.322-.988-2.65-1.895-3.583-.342-.013-.428.194-.565.343-.588.648-.639 1.257-.165 2.073.485.836.987 1.717 1.164 2.728.388 2.229.188 4.477.137 6.719-.012.57-.337.914-.862.972-.234.026-.514-.026-.662.414.394 1.607 1.598 2.884 1.878 4.64.273 1.697.913 3.317.713 5.28h.006Zm-10.152 51.217c2.431-1.549 4.685-3.013 6.967-4.432 1.005-.622 2.06-1.153 3.093-1.723.172-.091.348-.182.531-.233.565-.169 1.004.272.896.939-.285 1.782.034 3.602-.491 5.494 1.199-.978 1.672-1.697 2.146-3.142 1.278-3.913 1.792-8.002 2.003-12.142.034-.609.091-1.263-.069-1.756-.342-.181-.508-.045-.644.091-.725.713-1.45 1.425-2.158 2.157a.463.463 0 0 0-.045.577c.114.169.297.285.405.46.542.888.685 1.866.382 2.896-.102.344-.308.648-.673.674-.285.026-.474-.188-.611-.44a1.237 1.237 0 0 1-.142-.402c-.086-.577-.377-.68-.828-.499-.257.104-.502.013-.713-.181-.274-.253-.531-.344-.822 0-2.26 2.643-4.936 4.846-6.608 8.111-.337.655-.856 1.303-1.444 1.238-.65-.078-.77.155-.867.713-.08.473-.183.939-.308 1.593v.007Zm-26.057 19.774c.44.13.605-.104.794-.279.736-.693 1.426-1.47 2.225-2.066.987-.739 1.775-1.523 2.026-2.948.177-.985.725-1.847 1.227-2.689.434-.726.639-1.536.827-2.397.525-2.424.217-4.918.588-7.348.04-.278-.285-.557-.508-.44-.4.213-.816.421-1.175.706-2.02 1.587-3.641 3.622-5.085 5.863-.405.629-.513 1.329-.496 2.054.051 2.184-.212 4.322-.605 6.453-.194 1.07-.034 2.126.182 3.084v.007Zm50.041-10.639c0-.291.012-.576 0-.868a4.703 4.703 0 0 0-.085-.641c-.097-.545-.491-.713-.822-.311-1.13 1.373-2.214 2.805-3.367 4.153-1.113 1.296-2.18 2.624-3.099 4.114-1.141 1.847-2.482 3.486-4.268 4.581-.611.376-1.141.933-1.746 1.321-.548.357-.816.875-.988 1.523-.108.402-.45.836-.199 1.199.308.447.685-.013 1.021-.149.719-.285 1.433-.616 2.163-.856 1.467-.479 2.91-.978 4.291-1.749.748-.415 1.376-1.095 2.146-1.367 1.741-.628 2.722-2.158 3.458-3.823.97-2.209 1.273-4.678 1.49-7.127h.005Zm-31.95-47.88c-3.225.888-5.365 3.343-7.545 5.76.36.538.919.726 1.004 1.393.035.298.263.46.577.33.702-.304 1.38-.064 2.06.136.257.078.52.234.525.545.023 1.321-.274 2.572-.76 3.764-.056.136-.33.24-.495.227-.263-.026-.48-.24-.491-.564-.023-.505.005-1.01 0-1.516-.006-.544-.286-.765-.754-.596-.24.09-.473.2-.707.317-.987.48-1.438 1.264-1.358 2.54.13 2.151.154 4.309.228 6.7 2.157-2.093 3.863-4.439 5.998-6.169-.531-1.503-.548-1.503-.36-2.824.485-3.344 1.415-6.57 2.077-10.043Zm38.684-71.01c-.462.894-.548 1.807-.542 2.766.017 1.814.04 3.628-.091 5.436-.063.862-.2 1.736-.109 2.572.177 1.588.092 3.181.137 4.769.017.557-.308.875-.822.94-.428.058-.559-.513-.941-.513-.634 1.925-.628 3.318.074 5.035.485 1.179 1.022 2.332 1.564 3.563.182-.233.393-.408.502-.654a125.813 125.813 0 0 0 1.495-3.525c.337-.83.325-1.866 1.176-2.39.119-.072.165-.376.182-.584.04-.576.063-1.16.063-1.736-.023-5.21-1.256-10.172-2.437-15.148-.045-.182-.154-.337-.251-.538v.007Zm-21.731 127.43c-.935.557-1.689 1.101-2.505 1.458-1.381.602-2.648 1.438-3.954 2.209-1.387.816-2.46 1.944-3.088 3.686-.593 1.646-.736 3.37-1.084 5.054-.068.331.16.557.462.473.993-.272 1.963-.706 2.968-.836 2.071-.265 3.481-1.49 4.634-3.382 1.569-2.572 2.488-5.332 2.567-8.662Zm15.745-32.642c.679-1.205 1.358-2.41 2.026-3.622.308-.55.61-1.107.89-1.671.205-.421.342-.771-.331-.868-.377-.059-.588-.558-.531-1.03.052-.428.143-.862.286-1.258 1.095-3.058 1.54-6.278 1.809-9.537.045-.57-.035-1.153-.103-1.723-.051-.421-.411-.577-.702-.305-1.626 1.517-3.241 3.052-4.873 4.568-.56.519-.668 1.166-.628 1.937.04.758.325 1.393.622 2.035.359.777.702 1.568.713 2.462.04 2.974.719 5.896.805 9.019l.017-.007Zm-46.931 45.632c2.163 2.125 4.417 3.071 7.02 2.883 1.066-.077 1.95-.589 2.567-1.619 1.255-2.112 2.22-4.367 2.614-6.913.188-1.186 0-1.828-1.301-1.199-.52.253-1.113.311-1.655.512-1.89.719-3.704 1.581-4.93 3.505-.355.557-.771.952-1.456.7-.126-.046-.382.116-.48.265-.536.856-1.335 1.303-2.39 1.866h.011Zm-5.535-16.476c.36-1.626.325-2.987.479-4.322.12-1.043-.051-1.995-.342-2.973-.81-2.689-1.975-5.164-3.384-7.497-.16-.265-.257-.68-.651-.615-.074.045-.154.071-.177.123-1.61 3.447-2.22 7.049-1.34 10.885.119.518.25.537.73.084.827-.771 1.021-.79 1.74.078.565.68 1.067 1.432 1.58 2.17.417.596.811 1.212 1.376 2.067h-.011Zm8.314 4.192c.017-.836-.32-1.114-.822-.849-.228.123-.445.285-.667.421-1.524.979-2.7 2.404-3.91 3.804-.758.874-1.13 1.917-1.34 3.064-.052.266-.069.635.057.829.53.817.776 1.834 1.49 2.521.78.751 1.568.9 2.464.343.463-.285.85-.68 1.062-1.218a28.23 28.23 0 0 0 .907-2.63c.594-2.1.525-4.309.765-6.285h-.006Zm44.654-58.966c-.388 1.14-1.027 1.549-1.427 2.177-.097.155-.296.311-.485.123-.137-.136-.319-.33-.325-.499 0-.913.228-1.69 1.033-2.138.919-.505.913-.531.531-1.458-.348-.855-.759-1.671-1.33-2.371-.308-.376-.685-.434-1.027-.136a40.72 40.72 0 0 0-1.889 1.84.847.847 0 0 0-.223.784c.097.492.212.985.286 1.49.257 1.717.947 3.31 1.056 5.067.039.648.165 1.29.245 1.937.074.622-.114 1.283.171 1.872.148-.013.297.033.388-.032 1.564-1.14 2.842-2.682 4.286-4.004.348-.317.348-.79.188-1.199-.416-1.05-.884-2.073-1.478-3.46v.007Zm-38.011 75.624c1.18.997 2.316 1.211 3.697.868 1.256-.311 2.272-.985 3.225-1.814 1.734-1.516 2.67-3.596 3.116-6-1.764-.596-1.781-.635-3.116.175-.776.473-1.678.713-2.26 1.581-.217.324-.594.233-.879.039-.428-.292-.736-.169-.924.311-.69 1.736-1.775 3.175-2.86 4.84Zm18.055-1.439c1.415-.44 2.568-.829 3.732-1.166 1.53-.441 2.814-1.361 3.864-2.65 1.249-1.542 2.453-3.136 3.264-5.047.12-.292.462-.551.142-.952-2.47.453-4.679 1.775-6.984 2.773-.839.362-1.41 1.03-1.387 2.099.017.751-.377 1.147-.765 1.639-.719.901-1.495 1.788-1.866 3.304Zm-.896-2.747c-1.712.46-3.133.836-4.554 1.218-.433.117-.85.246-1.312.143-.953-.221-1.005-.227-1.381.615-.537 1.199-1.415 2.041-2.243 2.935-.36.389-.245.732.24.959.48.227.981.389 1.49.337a74.038 74.038 0 0 0 3.8-.499c.234-.039.491-.194.668-.382 1.375-1.412 2.71-2.87 3.287-5.339l.005.013Zm21.331-24.264c.588-.233.788-.803 1.108-1.244a280.95 280.95 0 0 0 2.174-3.032c.913-1.302 1.837-2.598 2.722-3.92.753-1.134 1.044-2.468 1.135-3.861.012-.208-.057-.422-.102-.622-.057-.253-.491-.415-.628-.221-.32.454-.628.914-.93 1.38a55.529 55.529 0 0 1-5.382 7.043c-.273.305-.57.583-.816.914-.114.149-.234.46-.171.57.514.907.257 2.138.896 2.993h-.006Zm-56.689 5.65c-.428 1.438-.502 2.423-.45 3.44.097 2.041.496 4.024.838 6.019.223 1.303.93 2.365 1.74 3.311.166.194.389.058.463-.142.12-.331.171-.694.263-1.044.57-2.17.422-4.347-.172-6.44-.508-1.795-1.666-3.207-2.682-5.144Zm40.848-61.746c-3.053.344-3.338.622-5.878 1.88-.913.453-1.358 1.321-1.752 2.196-.302.674-.325 1.51-.468 2.267.548.13.759-.291 1.056-.53 1.501-1.232 2.91-2.677 4.725-3.266 1.227-.396 1.906-1.231 2.323-2.547h-.006Zm27.517-28.78c.508-.706 1.016-1.419 1.541-2.144-.297-.596-.571-1.134-.902-1.801-.559 1.295-.747 2.54-.639 3.945Zm-30.855 3.596c.873-1.296.696-1.665-1.062-2.241.189.887.577 1.58 1.062 2.241Zm16.161 15.608c.53-.077.645-.596.833-1.017.137-.317-.074-.518-.28-.674-.302-.227-.468.02-.525.285-.103.454-.262.927-.023 1.406h-.005Zm-51.542 57.534c-.103.059-.257.085-.297.175-.125.292.034.545.211.713.189.181.32-.013.348-.22.04-.272.006-.538-.262-.668Zm11.721-.388c-.034-.052-.074-.156-.103-.156-.222.02-.28.227-.313.421-.006.039.068.143.108.143.228-.007.28-.201.314-.408h-.006Zm55.605-81.76-.057-.155-.051.162h.108v-.007Zm-26.176 66.359-.057.104.097.013-.034-.117h-.006Z" />
  <path fill="#FCFCFC" fill-opacity=".08"
    d="M107.943 71.136c.125.058.376.084.456.233.36.635.012 1.257-.148 1.847-.097.362-.451.453-.799.291-.371-.175-.582.084-.776.395-.114.188-.285.285-.451.078-.08-.104-.165-.253-.16-.376.023-.887.873-2.157 1.632-2.462.057-.02.126 0 .246 0v-.006ZM119.67 52.386c-.023.498-.434.868-.913.796-.337-.045-.611-.226-.696-.615-.103-.467.502-1.017 1.05-.933.336.052.553.311.565.752h-.006ZM119.773 49.593c.399-.032.816.408.827.94.011.285-.108.557-.399.615-.474.09-1.09-.318-1.17-.758-.052-.298.388-.771.742-.797ZM117.758 45.09c-.011.428-.337.836-.702.855-.422.026-.719-.214-.93-.609-.028-.052-.017-.136-.011-.2.085-.538.479-.61.85-.694.337-.071.622.026.753.434.023.065.023.136.034.208l.006.006ZM119.196 60.09c-.394.012-.725-.39-.69-.83a.755.755 0 0 1 .799-.72c.331.014.616.337.593.68-.023.448-.359.856-.702.87ZM130.872 67.89c0 .615-.411 1.16-.868 1.147-.456-.014-.913-.487-.867-.901.057-.512.519-.894 1.113-.888.354.007.565.24.628.642h-.006ZM143.044 61.171c.028.486-.24.881-.616.913-.594.052-1.056-.362-1.062-.945-.005-.409.308-.726.765-.784.525-.065.884.259.919.81l-.006.006ZM136.864 65.175c.462.059.656.33.656.706-.006.428-.114.856-.571.946a.946.946 0 0 1-.536-.052c-.354-.162-.691-.434-.662-.9.023-.37.371-.525.668-.629.171-.058.359-.064.45-.077l-.005.006ZM135.477 39.971c.017.409-.08.733-.297 1.024-.257.35-.782.33-.958-.084a4.619 4.619 0 0 1-.291-1.017c-.075-.454.188-.81.616-.927.411-.103.759.136.856.61.028.142.045.284.063.395h.011ZM132.738 40.01c-.029.5-.451.85-.942.765-.399-.065-.719-.285-.787-.765-.069-.46.576-.984 1.073-.9.365.058.679.492.656.9ZM131.414 45.952c-.348-.059-.748-.493-.748-.81 0-.525.668-1.01 1.262-.907.296.052.405.337.388.622-.046.654-.497 1.172-.902 1.101v-.006ZM134.222 45.395c.582-.007.93.31.878.81-.045.434-.513.868-.935.861-.428 0-.874-.46-.896-.92-.023-.453.342-.739.953-.752ZM122.192 97.311c-.068.778-.097 1.354-.177 1.924-.051.376-.262.668-.61.726-.274.045-.48-.168-.617-.421-.388-.726-.393-1.672-1.061-2.248-.091-.085-.086-.421-.029-.603.286-.9.908-1.49 1.484-1.451.582.039.953.726 1.01 1.846.006.143 0 .285 0 .227ZM99.697 131.093c-.217.862-.365 1.924-.89 2.844-.177.305-.708.201-.913-.298-.246-.576-.417-.855-.885-.246-.16.207-.394.421-.61.454-.218.026-.486-.13-.68-.292-.216-.175-.285-.499-.16-.771.634-1.386 1.638-2.352 2.86-3.026.553-.304 1.232.337 1.278 1.329v.006ZM82.343 93.8c-.177.842-.337 1.684-.542 2.52-.103.408-.542.616-.919.499-1.535-.467-1.866-1.238-1.17-2.825a9.802 9.802 0 0 1 .805-1.464c.49-.745 1.021-.7 1.53.058.245.37.37.745.296 1.205v.007ZM104.039 99.21c-.034.505-.062 1.01-.114 1.509-.057.564-.314.823-.776.596-.513-.259-.947-.246-1.455-.045-.331.13-.611-.136-.793-.46-.188-.33-.228-.706.017-1.004.656-.79 1.301-1.594 2.014-2.307.428-.434.999-.058 1.033.629.017.362 0 .719 0 1.082h.074ZM93.38 92.193c.108.026.313.026.473.123a.822.822 0 0 1 .383.706c.005.22-.035.421-.223.55-.542.377-1.073.772-1.62 1.135-.303.2-.606.175-.868-.123a.88.88 0 0 1-.217-.797c.263-1.043 1.079-1.685 2.066-1.6l.006.006ZM88.192 129.059c-.005.09 0 .311-.045.518-.086.453-.314.777-.725.894-.445.13-1.022-.091-1.061-.609-.063-.81-.52-1.037-1.016-1.348-.354-.226-.314-.797.017-1.082.103-.084.2-.181.308-.246 1.427-.855 2.522-.091 2.522 1.879v-.006ZM114.266 126.661c.034-.531-.126-.699-.491-.499-.337.182-.599.532-1.016.532a.69.69 0 0 1-.639-.37.633.633 0 0 1 .131-.771c.845-.758 1.729-1.444 2.717-1.943.542-.272 1.032.013 1.192.635.337 1.283.08 2.41-.719 3.382-.279.337-.747.44-1.027.201-.291-.247-.337-.577-.2-.953.023-.065.035-.136.052-.207v-.007ZM113.952 55.087c-.04.35-.24.525-.497.544-.57.059-1.112-.388-1.072-.848.028-.357.473-.739.81-.706.376.038.759.563.759 1.01ZM114.597 60.07c-.029.447-.388.79-.748.725-.399-.071-.708-.447-.69-.842.017-.356.393-.706.787-.726.354-.02.679.409.651.843ZM113.701 57.44c-.092.317-.308.466-.582.433-.274-.032-.468-.233-.434-.57.034-.33.462-.538.77-.382.189.09.263.285.251.518h-.005ZM124.058 62.46c.12.052.44.117.445.214.086 1.147 1.415.59 1.61 1.549.057.291.028.596-.16.81-.229.265-.525.486-.851.285a25.823 25.823 0 0 1-1.934-1.283c-.325-.233-.308-.823-.017-1.134.262-.279.542-.428.901-.447l.006.006ZM127.916 59.642c.063.376-.246.654-.52.94-.308.323-.679.382-1.038.136-.211-.15-.388-.428-.223-.726.314-.564.748-.946 1.376-.9.205.012.313.207.405.544v.006ZM80.614 124.271c.011.388-.183.751-.64.777-.439.026-.695.285-.907.667-.308.558-.747.441-1.186.272a.594.594 0 0 1-.394-.66c.154-1.089.485-2.106 1.164-2.916.6-.719 1.301-.577 1.706.272.228.467.251.959.257 1.588ZM119.892 132.434a.923.923 0 0 1-.508.596c-.359.175-.724.298-1.055-.071-.263-.298-.12-.842.354-1.283.593-.551 1.244-.998 1.98-1.263.861-.311 1.529.188 1.62 1.205.069.764-.348 1.613-.998 1.911-.303.136-.634.11-.862-.214-.2-.278-.371-.576-.553-.868l.114.065-.097-.084.005.006ZM124.349 112.187c-.011.577 0 1.166-.371 1.633-.12.155-.342.408-.416.369-.942-.492-1.535.337-2.249.719-.211.117-.382.026-.49-.149-.103-.168-.223-.395-.2-.576.103-.791 2.083-2.903 2.785-3.02.542-.09.941.337.941 1.018v.006ZM107.686 139.451c-.086.233-.205.642-.388 1.011-.16.33-.457.518-.793.473a10.664 10.664 0 0 1-1.484-.311c-.405-.117-.536-.616-.308-1.03.371-.681.856-1.238 1.489-1.607.856-.506 1.495-.046 1.484 1.069v.402-.007ZM127.471 84.398c.291 0 .536.104.662.363.234.5.422 1.024.639 1.53.131.304.085.544-.154.731-.251.195-.497.493-.828.227-.251-.2-.439-.537-.713-.654-.377-.162-.964 0-.816-.79.148-.81.639-1.329 1.21-1.407ZM86.829 144.984c-.577-.175-1.113.033-1.644.324-.285.156-.588.298-.896.344-.245.038-.508-.111-.633-.389-.143-.318.022-.583.234-.732a22.962 22.962 0 0 1 1.666-1.069c.508-.298 1.038-.564 1.564-.83.764-.382 1.192.026 1.09 1.018-.103 1.01-.451 1.347-1.381 1.328v.006ZM72.693 119.522c-.063.323-.205 1.172-.776 1.794-.325.357-.707.162-1.038-.09-.291-.221-.446-.551-.274-.921.325-.693.696-1.367 1.272-1.827.114-.09.366-.032.525.039.166.072.331.221.286 1.005h.005ZM117.912 69.879c-.057.739-.428 1.29-.873 1.788-.171.195-.662-.078-.753-.395-.24-.81.114-1.367.616-1.847.2-.188.445-.31.679-.084.137.13.211.337.337.538h-.006Z" />
</svg>