<svg xmlns="http://www.w3.org/2000/svg" aria-hidden="true" style="position:absolute;width:0;height:0;overflow:hidden">
  <defs>
    <symbol id="icon-facebook" viewBox="0 0 32 32">
      <path d="M19.52 4.64h.96v3.6h-1.2c-.48 0-.96 0-1.2.24s-.24.48-.24 1.04v1.28h2.64v3.04h-2.64v13.2h-4.08V13.76H11.6v-3.04h2.16V9.68c0-1.76.24-3.04.72-3.6.72-1.04 2.16-1.52 4.32-1.52.24.08.48.08.72.08z"/>
    </symbol>
    <symbol id="icon-instagram" viewBox="0 0 32 32">
      <path d="M28.717 10.756a9.264 9.264 0 0 0-.596-3.145 6.547 6.547 0 0 0-3.743-3.737 9.42 9.42 0 0 0-3.108-.596c-1.368-.061-1.801-.078-5.273-.078s-3.917 0-5.274.078a9.418 9.418 0 0 0-3.106.596 6.541 6.541 0 0 0-3.743 3.737 9.288 9.288 0 0 0-.596 3.101c-.061 1.367-.08 1.8-.08 5.265s0 3.909.08 5.265a9.335 9.335 0 0 0 .596 3.104 6.548 6.548 0 0 0 3.744 3.735 9.37 9.37 0 0 0 3.106.639c1.369.061 1.803.08 5.274.08s3.916 0 5.274-.08a9.357 9.357 0 0 0 3.108-.595 6.555 6.555 0 0 0 3.743-3.737 9.35 9.35 0 0 0 .596-3.104c.061-1.365.08-1.798.08-5.265-.003-3.466-.003-3.906-.082-5.264zM15.99 22.531c-3.631 0-6.572-2.936-6.572-6.561s2.941-6.561 6.572-6.561c3.628 0 6.572 2.936 6.572 6.561s-2.944 6.561-6.572 6.561zm6.833-11.835a1.53 1.53 0 1 1 0-3.06 1.53 1.53 0 1 1 0 3.06z"/>
      <path d="M15.992 19.976a4.004 4.004 0 1 0 0-8.009 4.004 4.004 0 0 0 0 8.009z"/>
    </symbol>
    <symbol id="icon-youtube" viewBox="0 0 32 32">
      <path d="M24.24 6c-1.36-.08-4.16-.16-8.4-.16h-.56c-4.08 0-6.8.08-8.16.24-1.84.16-3.12.64-3.84 1.28-.64.56-1.12 1.6-1.28 2.96-.08.88-.16 2.72-.16 5.52v.4c0 2.64.08 4.48.24 5.36.24 1.28.64 2.24 1.44 2.8.8.64 2.16 1.04 4.08 1.2 1.36.08 4.16.16 8.4.16h.56c4.08 0 6.8-.08 8.16-.24 1.84-.16 3.12-.64 3.84-1.28.64-.56 1.12-1.6 1.28-2.96.08-.88.16-2.72.16-5.52v-.4c0-2.64-.08-4.48-.24-5.36-.24-1.28-.64-2.24-1.44-2.8-.8-.64-2.16-1.04-4.08-1.2zm-3.12 9.84-8.8 5.28V10.56l8.8 5.28z"/>
    </symbol>
    <symbol id="icon-btn-menu" viewBox="0 0 32 32">
      <path stroke-linecap="round" stroke-linejoin="round" stroke-width="1.5" d="M28 16H4M28 10.667H4M28 21.333H4"/>
    </symbol>
    <symbol id="icon-logo" viewBox="0 0 32 32">
      <path fill="#ff7f08" d="M29.082.314h-4.009c-1.237 0-2.24.983-2.24 2.195v3.929c0 1.212 1.003 2.195 2.24 2.195h4.009c1.237 0 2.24-.983 2.24-2.195V2.509c0-1.212-1.003-2.195-2.24-2.195zM6.73 23.04H2.412C1.08 23.04 0 24.023 0 25.235v3.929c0 1.213 1.08 2.195 2.412 2.195H6.73c1.332 0 2.412-.983 2.412-2.195v-3.929c0-1.212-1.08-2.195-2.412-2.195zm-.48-11.458H2.241c-1.237 0-2.24.983-2.24 2.195v3.929c0 1.212 1.003 2.195 2.24 2.195H6.25c1.237 0 2.24-.983 2.24-2.195v-3.929c0-1.212-1.003-2.195-2.24-2.195zm11.516 11.396h-4.009c-1.237 0-2.24.983-2.24 2.195v3.929c0 1.212 1.003 2.195 2.241 2.195h4.009c1.237 0 2.24-.983 2.24-2.195v-3.929c0-1.213-1.003-2.195-2.24-2.195zM6.25.086H2.241c-1.237 0-2.24.983-2.24 2.195V6.21c0 1.212 1.003 2.195 2.24 2.195H6.25c1.237 0 2.24-.983 2.24-2.195V2.281C8.49 1.069 7.487.086 6.25.086zm11.826 11.611h-4.009c-1.237 0-2.24.983-2.24 2.195v3.929c0 1.212 1.003 2.195 2.24 2.195h4.009c1.237 0 2.24-.983 2.24-2.195v-3.929c0-1.212-1.003-2.195-2.24-2.195zm11.257 11.281h-4.01c-1.237 0-2.24.983-2.24 2.195v3.929c0 1.212 1.003 2.195 2.24 2.195h4.009c1.237 0 2.24-.983 2.24-2.195v-3.929c0-1.213-1.003-2.195-2.24-2.195zM17.591.224h-4.009c-1.237 0-2.24.983-2.24 2.195v3.929c0 1.212 1.003 2.195 2.24 2.195h4.009c1.237 0 2.24-.984 2.24-2.196V2.418c0-1.212-1.003-2.195-2.24-2.195zm11.453 11.702h-4.01c-1.237 0-2.24.983-2.24 2.195v3.929c0 1.212 1.003 2.195 2.24 2.195h4.009c1.237 0 2.24-.983 2.24-2.195v-3.929c0-1.212-1.003-2.195-2.24-2.195z" style="fill:var(--color1, #ff7f08)"/>
    </symbol>
    <symbol id="icon-close" viewBox="0 0 32 32">
      <path stroke-linecap="round" stroke-linejoin="round" stroke-width="1.684" d="M24 8 8 24M8 8l16 16"/>
    </symbol>
    <symbol id="icon-star" viewBox="0 0 32 32">
      <path stroke-linecap="round" stroke-linejoin="round" stroke-width="1.6" d="m16 3.2 3.955 7.899 8.845 1.274-6.4 6.145 1.51 8.681L16 23.098l-7.91 4.101 1.51-8.681-6.4-6.145 8.845-1.274L16 3.2z"/>
    </symbol>




    
    <symbol id="icon-how" viewBox="0 0 58 32">
      <path fill="#fcfcfc" d="M21.87 17.819c-.002-.52.122-1.014.238-1.506.064-.27.2-.508.339-.741.257-.43.509-.865.76-1.3.177-.306.349-.615.574-.881.023-.028.042-.061.066-.088.05-.054.113-.066.159-.016.077.087.181.147.226.269.04.111.112.19.183.275.235.279.494.525.777.739.338.255.655.546.964.847.103.101.208.197.315.293.326.294.615.634.924.949.259.263.523.517.79.769.313.295.654.547.969.838l.435.399c.368.339.741.672 1.091 1.036.062.065.133.12.201.177.171.144.337.292.473.479a.873.873 0 0 0 .169.174c.112.087.217.183.313.292.199.225.424.41.656.588.202.156.22.343.08.566a2.223 2.223 0 0 1-.112.157c-.118.151-.235.303-.356.451a1.174 1.174 0 0 1-.378.331 3.39 3.39 0 0 0-.487.31c-.464.339-.973.583-1.459.873-.141.084-.299.133-.45.196l-.596.246c-.246.102-.489.219-.762.178-.032-.005-.066.013-.099.018a1.199 1.199 0 0 1-.405.01c-.218-.042-.437-.042-.657-.046-.387-.005-.75-.137-1.1-.313-.185-.094-.362-.208-.543-.312-.426-.244-.803-.569-1.163-.922-.07-.069-.128-.153-.19-.232s-.118-.165-.183-.241a3.432 3.432 0 0 1-.421-.65c-.095-.183-.197-.36-.294-.541-.044-.083-.093-.164-.123-.253-.116-.342-.288-.654-.396-1-.099-.317-.214-.628-.316-.943a4.775 4.775 0 0 1-.213-1.473l-.001-.001zm10.118 4.439c.026 0 .029-.018.016-.016-.032.008.004-.013-.01.022-.026.009-.03.016-.013.018l.007-.026v.001zm-.298.247c.115-.02.126-.035.116-.155.017-.002.016.011.007.008-.031-.015.002.024-.002-.014-.023.074-.116.066-.132.147-.072.003-.118.053-.152.119-.041.01-.089.009-.121.034-.135.105-.289.158-.438.226-.11.05-.221.098-.326.16-.251.147-.523.219-.793.289a5.523 5.523 0 0 1-1.259.158c-.242.007-.489-.009-.724-.111a1.17 1.17 0 0 0-.295-.079 1.57 1.57 0 0 1-.505-.185c-.214-.116-.428-.232-.657-.307a.964.964 0 0 1-.27-.155c-.233-.175-.451-.374-.701-.521a.377.377 0 0 1-.12-.105 4.45 4.45 0 0 0-.466-.57c-.288-.475-.628-.906-.904-1.392-.192-.339-.343-.704-.525-1.049a2.728 2.728 0 0 1-.217-.553c-.137-.509-.233-1.026-.206-1.565.005-.085-.005-.171-.008-.257a1.387 1.387 0 0 0-.083.355c-.021.191-.045.383-.049.576-.01.521.12 1.009.294 1.483.111.302.227.603.355.896.159.362.312.728.532 1.05.203.298.431.569.676.821.369.381.721.792 1.201 1 .016.007.029.019.044.029.238.168.478.329.749.421a.343.343 0 0 1 .09.053c.265.195.562.257.87.278.11.008.22.015.325.058.114.047.23.054.349.026.074-.017.152-.016.227-.021.379-.032.759-.058 1.128-.177.236-.077.476-.135.713-.2a2.57 2.57 0 0 0 1.027-.542c.039-.034.093-.055.082-.129.079.018.131-.025.168-.1v.002zm-8.671-6.37c.098-.028.088-.137.106-.211.085-.355.201-.692.365-1.011.116-.223.205-.464.3-.7.07-.174.103-.365.19-.531.004-.008-.009-.038-.019-.042-.013-.005-.037.001-.044.012-.045.07-.092.139-.128.213-.103.21-.198.425-.301.635a4.494 4.494 0 0 0-.343.992c-.048.213-.085.43-.125.649.004.077-.038.155 0 .25.032-.1.012-.178-.002-.256v-.001zm2.36 7.754h.004l-.008.01c.013-.044-.013-.07-.035-.099-.066-.088-.15-.166-.192-.267a.593.593 0 0 0-.402-.364c-.048-.015-.098-.031-.132-.079-.122-.172-.284-.305-.381-.5a.47.47 0 0 0-.133-.17c-.077-.059-.145-.133-.222-.192a.51.51 0 0 1-.188-.298l-.034-.139c-.047-.223-.134-.413-.31-.542-.127-.093-.196-.238-.232-.402-.014-.065-.016-.133-.024-.201-.033-.251-.091-.49-.249-.683a.758.758 0 0 1-.099-.168 1.322 1.322 0 0 0-.257-.39c-.078-.079-.099-.176-.091-.287.005-.067.015-.134.026-.2a.727.727 0 0 0-.003-.315c-.035-.132-.041-.265-.048-.399a.839.839 0 0 0-.084-.331c-.045-.094-.052-.216-.156-.311-.006.204-.026.378-.014.55.037.581.159 1.142.338 1.685.22.669.488 1.314.826 1.917.122.219.221.457.377.65.188.233.357.486.575.69.177.165.359.324.547.468s.375.296.599.365zm-2.567-8.494c-.004.071-.041.123-.074.18-.093.161-.193.318-.27.489-.084.184-.186.373-.088.598.023.053-.011.112-.019.169-.041.28-.051.56.063.822.146.338.111.719.198 1.071.008.035-.002.077-.007.114-.026.198-.008.378.13.525.048.052.08.124.119.187.204.332.413.663.452 1.083a.725.725 0 0 0 .287.52c.139.11.218.265.26.448.008.037.022.073.028.111a.578.578 0 0 0 .294.444c.129.071.202.188.274.325.117.224.259.421.498.504a.581.581 0 0 1 .34.29c.103.217.267.373.396.561.048.069.103.091.178.067.106-.034.213-.058.319-.093a.25.25 0 0 1 .243.043c.159.128.346.2.507.323.14.106.285.151.456.12.186-.034.37-.024.538.102.097.072.207.074.317.024.054-.025.113-.039.169-.061.398-.161.796-.32 1.193-.485.069-.028.148-.049.188-.141-.053-.02-.101-.001-.151.01-.157.036-.31.088-.473.099-.313.021-.624.056-.936.084a.579.579 0 0 1-.251-.023c-.18-.064-.365-.069-.552-.084a1.652 1.652 0 0 1-.705-.215c-.369-.214-.741-.42-1.103-.652-.184-.119-.369-.233-.536-.382-.106-.095-.202-.206-.306-.303a7.263 7.263 0 0 1-.962-1.148c-.078-.113-.162-.228-.214-.357-.187-.453-.413-.884-.584-1.347a16.782 16.782 0 0 1-.305-.885 3.278 3.278 0 0 1-.103-1.395c.057-.467.132-.933.196-1.4.015-.112.059-.226-.008-.337l.015.004-.014-.009.004.001zm1.378-1.505c-.063.066-.072.146-.093.218-.026.091-.051.184-.085.271-.113.28-.229.559-.347.836a5.328 5.328 0 0 0-.269.839c-.081.329-.092.665-.103 1.003-.01.301.022.598.079.889.132.666.393 1.274.704 1.849.306.566.647 1.107 1.041 1.601.205.256.407.517.679.689.126.079.238.182.353.281.121.104.244.207.395.256.244.08.482.179.71.307.107.06.219.102.336.127.133.028.268.049.397.092.214.071.438.084.653.076a5.75 5.75 0 0 0 1.158-.15c.098-.024.194-.066.289-.105.175-.072.348-.15.522-.222.19-.079.388-.139.565-.255.206-.133.409-.272.609-.417.085-.061.17-.133.234-.22a.944.944 0 0 1 .26-.256c-.018-.028-.026-.049-.038-.058-.338-.209-.57-.572-.892-.804-.042-.03-.069-.084-.104-.126-.155-.178-.294-.376-.48-.513-.229-.168-.427-.374-.636-.571a32.884 32.884 0 0 0-1.609-1.457c-.583-.483-1.103-1.052-1.612-1.63a6.34 6.34 0 0 0-.721-.726 4.103 4.103 0 0 1-.279-.251c-.303-.294-.605-.588-.938-.838a3.967 3.967 0 0 1-.423-.368c-.119-.12-.245-.232-.353-.369l-.001-.001zm2.548 10.507c-.028-.047-.033-.07-.046-.077-.121-.065-.246-.119-.352-.218-.055-.052-.126-.055-.192-.04-.078.018-.155.049-.239.077.048.106.133.119.199.133.203.042.395.17.63.124z" opacity=".08" style="fill:var(--color1, #fcfcfc)"/>
      <path fill="#fcfcfc" d="M28.29 21.699c-.009.096-.009.194-.029.287-.041.199-.232.3-.396.216-.031-.016-.06-.034-.092-.046-.048-.017-.067-.058-.066-.108.002-.305.068-.59.218-.845a.569.569 0 0 1 .066-.087c.042-.046.085-.108.149-.093.071.017.068.099.075.164.017.171.094.332.075.511v.001zm-.234.138c.003-.037-.014-.056-.041-.054s-.04.028-.044.057c-.004.028.002.062.027.066.041.006.051-.034.059-.069h-.001zM27.73 18.418c0 .048.002.096 0 .145-.017.292-.206.474-.457.442-.232-.03-.301-.151-.208-.392.061-.158.119-.319.217-.454.048-.065.102-.105.173-.045.044.037.074.01.112-.015.111-.071.146-.05.162.088a.827.827 0 0 1 .005.086v.145h-.005zM26.931 20.349c-.026.398-.133.698-.418.881-.03.02-.063.035-.092.004-.032-.033-.063-.061-.107-.069-.069-.011-.077-.077-.063-.13.041-.145.081-.294.14-.43.083-.189.184-.368.335-.499.057-.049.112-.034.145.039.035.077.057.16.06.202v.001zm-.329.46.011-.003-.004.012c-.006.003-.013.005-.018.009-.003.002-.003.009-.005.013l.015-.03.001-.001zM26.196 18.404c-.073-.009-.154-.012-.199-.095a.275.275 0 0 1 .006-.272.838.838 0 0 1 .285-.318c.094-.062.193-.118.29-.173.081-.046.147-.018.212.084.053.083.057.202 0 .263-.141.151-.286.296-.43.442-.046.047-.104.058-.167.067l.002.001zM24.802 17.085c.051.006.15.016.251.029.047.006.073.045.087.092.035.122-.01.275-.112.314-.189.074-.381.157-.588.119-.033-.006-.068-.006-.099-.018-.091-.034-.208-.172-.195-.241.02-.114.099-.17.189-.209.135-.06.277-.074.47-.085l-.001-.001zM28.322 19.43c0-.09-.002-.128 0-.166.008-.116.056-.168.168-.146.055.01.094.006.141-.022.06-.037.116-.012.159.044.128.166.127.56 0 .727-.041.053-.087.085-.155.068-.055-.014-.132.011-.167-.024a.434.434 0 0 1-.134-.27c-.007-.086-.011-.172-.014-.208l.002-.001zM24.542 16.133a.463.463 0 0 1-.382-.134c-.096-.087-.088-.203.017-.282.156-.115.319-.172.503-.096.063.026.13.04.196.055a.15.15 0 0 1 .103.07c.148.232.132.285-.123.353-.105.028-.209.085-.315.034l-.001.001zm-.001-.266c-.004-.006-.007-.016-.011-.017-.006-.003-.017-.002-.021.003-.014.014-.007.025.014.026.006 0 .012-.008.019-.012l-.001.001zM25.555 18.913c.111-.002.156.029.172.117.009.05.007.1-.023.136-.12.147-.236.298-.39.404-.196.136-.287.131-.472-.038-.024-.022-.025-.051-.014-.076a.467.467 0 0 1 .056-.094c.119-.166.278-.276.427-.4.076-.062.163-.033.245-.049h-.002zM25.839 17.277c-.054-.008-.089-.007-.12-.02-.078-.033-.166-.059-.189-.168-.023-.112.046-.177.111-.238a.465.465 0 0 1 .423-.133c.091.018.183.032.273.053.063.016.097.078.085.15-.014.088-.038.174-.12.203-.159.057-.321.105-.464.151zM29.747 22.04c-.158.002-.245-.057-.293-.211a3.65 3.65 0 0 1-.092-.36.582.582 0 0 1-.005-.172c.011-.103.109-.154.187-.091.036.029.059.06.106.035.079-.041.126.003.161.083.076.173.144.35.136.549-.005.134-.032.164-.151.168h-.051l.001-.001zM29.697 20.369c.001-.123.095-.257.209-.291.043-.013.084-.001.115.04.1.132.19.271.26.427a.412.412 0 0 1 .028.197c-.007.103-.079.175-.171.17-.225-.012-.442-.279-.439-.541l-.001-.001zM28.183 19.169c.003.099-.041.162-.109.156s-.128-.074-.129-.147c-.002-.059.053-.113.121-.12s.116.036.118.111h-.001zM27.6 20.574c.053.004.098.068.098.139 0 .08-.056.151-.119.151-.061.001-.119-.081-.112-.156s.072-.139.134-.134H27.6zM27.599 19.811c-.008.062-.073.133-.116.127-.063-.008-.124-.099-.105-.163.017-.058.057-.094.11-.094s.118.078.11.129h.001zM29.322 20.225c.008.059-.039.118-.106.131-.069.014-.125-.026-.131-.091-.007-.074.03-.136.088-.148.075-.016.139.031.149.108zM28.793 20.836c.076-.001.145.067.15.15.005.068-.043.125-.105.127-.065.001-.115-.061-.117-.148-.002-.066.032-.127.072-.128zM26.94 17.174c.077-.001.126.04.128.103a.126.126 0 0 1-.113.127.129.129 0 0 1-.141-.126c-.002-.061.05-.103.127-.104zM28.167 18.162c.074.003.124.062.127.147.002.072-.051.134-.109.127-.064-.008-.112-.077-.112-.163 0-.06.044-.113.094-.11zM25.229 18.334a.13.13 0 0 1-.116.127c-.06.003-.117-.056-.117-.122s.054-.108.128-.104c.059.003.106.048.106.1zM26.436 19.127c.086 0 .135.047.136.131 0 .064-.036.11-.09.114-.087.005-.14-.059-.133-.164.004-.06.042-.076.088-.08zM25.509 16.132a.124.124 0 0 1 .118.145c-.012.071-.064.079-.114.08-.069.002-.13-.073-.12-.143.006-.046.06-.084.117-.082h-.001zM29.519 19.797c-.012.063-.099.13-.151.116-.042-.011-.085-.101-.078-.162.006-.049.06-.084.116-.074.073.014.124.067.114.12h-.001zM26.154 20.155c-.005.061-.048.108-.094.105a.134.134 0 0 1-.117-.148.106.106 0 0 1 .111-.085c.064.007.107.062.101.129l-.001-.001zM25.847 17.957c-.005.065-.062.13-.112.126-.059-.005-.115-.093-.1-.165.011-.053.048-.072.093-.071.069.002.124.054.12.111v-.001zM8.709 24.827c-.005.47-.078.977-.193 1.478a.495.495 0 0 1-.033.091c-.218.48-.426.966-.659 1.436-.133.267-.285.527-.531.702-.107.075-.189.194-.281.294a2.845 2.845 0 0 1-1.551.87c-.137.028-.277.048-.415.071-.267.044-.535.068-.801.12-.351.07-.695.025-1.023-.156a6.359 6.359 0 0 0-.943-.422c-.356-.126-.672-.336-.973-.575a1.372 1.372 0 0 1-.313-.352C.84 28.14.694 27.89.54 27.647a1.39 1.39 0 0 1-.174-.451c-.051-.235-.106-.464-.223-.676-.099-.18-.129-.396-.137-.601a4.083 4.083 0 0 1 .063-.949c.014-.075.031-.152.026-.226-.029-.432.036-.849.114-1.27.046-.251.121-.483.208-.715a1.19 1.19 0 0 1 .191-.331c.196-.249.384-.505.619-.714.086-.075.168-.155.251-.234.15-.142.326-.251.434-.447a.514.514 0 0 1 .256-.22c.169-.073.323-.174.474-.282a1.4 1.4 0 0 1 .698-.271c.318-.031.632-.109.949-.152.288-.04.577-.061.866.014.096.024.2.019.298.035.128.023.256.04.373.115.506.323.958.713 1.317 1.226.134.192.286.366.463.514.241.203.431.462.609.725.166.245.261.543.311.848.033.206.066.41.128.609.059.191.046.391.059.635l-.001-.001zm-4.224-2.944c-.053.048-.045.117-.053.18-.037.348-.067.696-.114 1.042a3.97 3.97 0 0 0-.013.786c.009.137.066.25.113.369.023.059.077.059.128.043.053-.015.083-.056.113-.101.076-.116.145-.237.231-.343.248-.309.403-.677.554-1.046.067-.165.129-.338.117-.531-.132-.018-.251-.032-.369-.051-.047-.008-.08-.075-.069-.125.012-.051.048-.071.087-.071.118.002.236.01.359.017 0-.038.011-.077-.002-.102a.662.662 0 0 0-.333-.313c-.145-.062-.294-.056-.443-.048-.224.013-.245.035-.316.303l.006-.011v.001zm2.244 2.541c.05-.001.1.003.149-.005.119-.017.236-.046.356-.058.169-.017.224.025.265.191.131.535.091 1.065-.06 1.585-.067.23-.162.29-.382.269-.099-.009-.197-.034-.296-.05-.063-.01-.104.029-.088.092.029.127.063.253.097.379.059.217.054.407-.142.549-.116.084-.212.2-.326.289-.276.215-.616.146-.815-.158-.049-.075-.075-.171-.191-.229.134.325.178.654.33.938.01.019.015.041.02.062.037.172.007.318-.2.358-.187.037-.38.042-.561.093-.207.058-.397.008-.592-.032a.697.697 0 0 1-.36-.222c-.068-.074-.031-.21-.031-.319 0-.065-.007-.128-.011-.193-.039.067-.052.139-.072.209-.087.288-.262.456-.542.488-.041.005-.099-.029-.126.049.023.021.044.044.068.059a2 2 0 0 0 .944.288c.384.014.759-.009 1.119-.172.166-.075.334-.146.502-.216.315-.131.571-.359.816-.603.335-.336.584-.749.844-1.153a.52.52 0 0 0 .066-.146c.128-.472.284-.937.329-1.432.025-.272.087-.542.061-.818a3.818 3.818 0 0 0-.145-.805c-.111-.339-.202-.688-.429-.968a1.357 1.357 0 0 1-.203-.363c-.12-.309-.312-.557-.517-.799a.838.838 0 0 0-.211-.18 1.763 1.763 0 0 0-.733-.27c-.208-.025-.418-.03-.618-.119-.062-.027-.138-.024-.208-.023-.24.004-.48.008-.72.021a.74.74 0 0 0-.262.059.956.956 0 0 1-.555.096.456.456 0 0 0-.291.053c-.324.177-.631.378-.89.662-.149.163-.303.32-.467.465-.253.223-.404.518-.498.844a8.228 8.228 0 0 0-.311 2.039c-.003.099-.008.2.005.296.047.324.086.652.16.97.178.77.596 1.352 1.216 1.758.026.017.062.058.103.003-.12-.282-.057-.521.142-.739.177-.194.339-.404.505-.609.029-.036.078-.071.051-.137-.076.005-.119.071-.173.112-.24.181-.49.341-.767.443-.258.095-.511-.023-.609-.295-.033-.091-.071-.185-.081-.281-.028-.262-.044-.524-.062-.787-.009-.133.05-.224.149-.301.169-.129.363-.18.553-.246.21-.073.422-.135.631-.209.05-.018.119-.029.132-.131-.17-.014-.338-.036-.507-.039-.263-.005-.516-.075-.766-.147-.223-.064-.33-.226-.339-.477-.01-.264.006-.525.076-.783.08-.3.244-.523.48-.689.082-.058.162-.059.255-.017.263.12.483.308.688.52.131.135.261.272.393.407.041.041.088.046.135.009l-.01.011.016.002a4.087 4.087 0 0 1-.534-1.348.778.778 0 0 1 .115-.618c.082-.124.176-.239.262-.359a.98.98 0 0 1 .253-.229c.135-.092.262-.083.388.025.161.138.275.316.37.511.023.047.028.108.101.121.025-.087.062-.175.074-.267a.42.42 0 0 1 .335-.374c.398-.098.772-.027 1.097.268.091.082.143.18.151.309.007.105.019.209.029.319.358-.189.545-.161.829.117.097.095.188.197.286.291.291.275.406.643.454 1.043.019.154-.029.282-.157.361-.139.087-.28.169-.418.259-.047.031-.115.048-.117.13-.023-.004-.046-.013-.058.021 0 0 .015.011.018.009.013-.011.023-.024.034-.037l.001.002zm.629-2.277c-.029.042-.013.084.004.123.08.176.162.353.269.512.065.096.128.198.172.308.196.484.317.99.347 1.521.005.098.012.199-.002.296-.072.519-.121 1.04-.274 1.545a3.547 3.547 0 0 1-.413.94c-.336.512-.711.972-1.205 1.31-.5.342-1.027.581-1.62.635-.518.047-1.023.003-1.487-.262-.275-.158-.563-.282-.839-.435-.452-.25-.852-.558-1.143-1.029a3.274 3.274 0 0 1-.395-.842 5.829 5.829 0 0 1-.125-.607 4.611 4.611 0 0 1-.057-1.268c.011-.098.01-.197.015-.296.003-.055.004-.111.012-.164.077-.464.161-.927.288-1.377a1.78 1.78 0 0 1 .361-.673c.198-.231.416-.442.628-.658.228-.232.47-.444.758-.581.11-.052.224-.097.327-.164a.637.637 0 0 1 .343-.098c.1-.003.208.016.298-.02.31-.119.629-.112.948-.126.252-.012.5.002.742.086.056.02.117.033.176.035.274.01.531.099.786.196.03.012.065.057.098-.012-.068-.091-.137-.189-.235-.243-.187-.103-.354-.25-.558-.317a.59.59 0 0 0-.118-.025c-.208-.032-.416-.06-.623-.096a.877.877 0 0 0-.298.003c-.416.063-.832.118-1.247.178a.957.957 0 0 0-.341.119c-.245.142-.503.262-.683.51a7.74 7.74 0 0 0-1.072.948c-.364.375-.653.8-.718 1.366-.013.108-.039.214-.065.32-.059.247-.08.496-.06.75.013.165.022.331-.013.493-.048.227-.053.457-.06.688-.008.258.042.503.15.728.099.206.167.423.219.645.054.228.144.43.272.616.096.14.195.28.276.43.122.224.287.394.496.512.301.17.584.381.928.449.077.015.15.062.223.097l.576.281c.213.105.431.155.669.134.221-.019.432-.088.648-.126.305-.054.613-.086.915-.169.325-.089.628-.216.888-.45.209-.187.407-.389.614-.579a1.66 1.66 0 0 0 .312-.397c.211-.361.36-.758.543-1.136.098-.203.206-.408.261-.627a5.516 5.516 0 0 0 .191-1.528 1.637 1.637 0 0 0-.062-.454 3.67 3.67 0 0 1-.123-.542c-.045-.272-.117-.546-.268-.762-.185-.266-.375-.542-.652-.712h.003zm-2.57 2.27c.161.073.279.152.389.244a.229.229 0 0 0 .253.041c.074-.031.151-.057.222-.095.197-.106.402-.191.603-.285.275-.128.539-.283.804-.435.113-.065.135-.137.111-.272-.01-.054-.014-.111-.035-.16-.081-.197-.126-.416-.28-.569-.118-.118-.235-.237-.355-.352-.211-.203-.382-.189-.566.041-.026.032-.045.072-.064.11-.237.468-.487.927-.812 1.331-.092.115-.167.245-.271.401h.001zm2.55.791c.013-.158-.044-.304-.069-.454-.018-.107-.056-.133-.145-.106-.354.109-.722.163-1.065.315-.054.024-.115.033-.173.049-.175.045-.355.071-.521.141-.103.043-.225.085-.289.208.04.161.181.148.285.189.159.064.327.1.476.194.298.188.63.272.957.371a.759.759 0 0 0 .178.027c.196.016.229-.028.275-.222.054-.231.064-.475.094-.713H7.34zm-4.529.224c-.029.003-.049.004-.068.009-.363.089-.694.27-1.025.449a.181.181 0 0 0-.094.158c-.007.285 0 .57.086.842.055.176.115.206.274.137a3.376 3.376 0 0 0 1.315-.991 1.81 1.81 0 0 0 .241-.414c.03-.07 0-.123-.076-.136a.785.785 0 0 0-.385.014c-.069.023-.135.033-.195-.028-.021-.021-.052-.027-.071-.037l-.001-.001zM4.01 22.96h.001c0-.132.006-.264-.001-.395a1.578 1.578 0 0 0-.329-.864c-.114-.153-.207-.171-.352-.019a2.184 2.184 0 0 0-.339.458c-.047.087-.089.182-.062.281.06.22.063.457.157.666.168.374.352.738.576 1.074.029.043.047.116.102.107.073-.012.073-.094.075-.157.003-.087-.006-.175-.01-.262-.003-.069.008-.143.058-.18.131-.096.122-.24.126-.381.003-.11 0-.219 0-.329H4.01zm.199 4.907h-.013c0 .099-.002.197 0 .296.004.201.038.239.214.297.291.096.574.002.857-.042a.092.092 0 0 0 .073-.121c-.061-.209-.11-.423-.192-.621-.185-.448-.406-.876-.565-1.337a1.494 1.494 0 0 0-.108-.233.744.744 0 0 0-.113-.151c-.017-.018-.067-.028-.079-.016-.062.063-.158.097-.149.224.013.174.011.35.019.525.017.393.037.786.054 1.177l.002.001zm-1.091-3.04c.004-.071 0-.123.011-.172.014-.063.04-.122.062-.183.044-.121.046-.123-.053-.217-.266-.249-.531-.499-.802-.74a1.905 1.905 0 0 0-.303-.21c-.148-.087-.17-.079-.282.051-.238.277-.27.624-.27.978 0 .169.033.223.175.258.271.066.536.169.822.16.207-.007.417-.008.64.075h.001zm3.181 2.44c.109-.004.251-.134.232-.229-.04-.212-.102-.418-.16-.626-.008-.027-.04-.047-.062-.069a.712.712 0 0 0-.231-.146c-.226-.087-.447-.186-.672-.277-.149-.061-.3-.119-.451-.177-.041-.016-.077-.007-.106.031-.033.044-.06.092-.037.149.02.05.044.099.075.14.286.38.549.779.806 1.182.046.073.1.134.17.18.045.029.093.044.143.031.025-.006.05-.029.067-.053.006-.009-.004-.044-.015-.056-.021-.021-.054-.031-.073-.054-.064-.075-.064-.17-.005-.23s.143-.038.196.057c.015.027.012.071.03.091.028.028.068.041.092.055H6.3zM3.3 26.975c.077.081.136.165.064.288-.021.037.004.106.004.161-.002.078-.048.111-.122.097-.082-.016-.119-.069-.127-.157-.004-.037.022-.097-.039-.099-.022 0-.052.029-.068.053a2.96 2.96 0 0 1-.36.441c-.084.083-.101.19-.076.3a.498.498 0 0 0 .142.247c.158.158.347.155.538.128.177-.025.231-.192.292-.342a.933.933 0 0 0 .065-.217c.065-.421.126-.843.186-1.265.012-.079.05-.161.007-.263-.2.188-.35.402-.505.63H3.3zm.579-1.349c.116-.064.201-.114.236-.249.036-.133.143-.14.229-.037.027.032.048.071.075.103.047.057.103.126.177.088.047-.025.012-.099.013-.152.002-.03.009-.073.028-.088.079-.061.096-.127.049-.223-.037-.074-.01-.147.032-.215.016-.025.02-.063-.009-.088-.075-.068-.131-.167-.253-.144-.13.025-.231-.038-.313-.147-.059-.077-.101-.041-.129.032-.048.124-.141.143-.247.132-.039-.004-.079-.017-.118-.023-.16-.023-.18-.004-.138.16.026.1.033.184-.028.277-.053.08-.036.126.044.133.148.013.24.097.297.236.024.059.034.125.054.206l.001-.001zm-.037.289c-.004-.021-.004-.049-.015-.059-.027-.023-.049 0-.067.025s-.041.047-.054.074c-.015.031-.065.069-.005.101.036.019.076.005.107-.025.033-.03.036-.072.036-.116l-.001-.001z" opacity=".08" style="fill:var(--color1, #fcfcfc)"/>
      <path fill="#fcfcfc" d="M5.735 24.238c-.019-.004-.042-.002-.055-.014a.224.224 0 0 1-.052-.07.063.063 0 0 1 .026-.08c.032-.021.067-.044.104-.054.065-.018.118.021.131.087s-.02.111-.096.123l-.057.008zM5.935 23.38c-.06.008-.094-.021-.098-.086-.006-.078.037-.139.095-.131.066.01.141.097.126.155-.017.067-.075.056-.121.063h-.001zM6.387 23.476c-.004.049-.024.086-.071.085-.043-.002-.106.033-.119-.051-.008-.057 0-.112.06-.132.054-.019.122.035.13.099v-.001zM6.473 23.239c-.011.063-.062.065-.109.065-.077 0-.114-.039-.114-.11 0-.056.042-.101.092-.099a.134.134 0 0 1 .131.145v-.001zM6.503 23.836c.067.003.104.048.126.111.015.045-.029.085-.092.084-.049 0-.097-.004-.104-.076-.005-.057.029-.117.071-.119l-.001.001zM5.343 24.092c-.006.061-.054.09-.132.08-.058-.007-.086-.043-.079-.105.007-.071.057-.115.118-.108s.1.063.093.132h.001zM5.836 23.518c.069-.002.148.074.134.134a.063.063 0 0 1-.04.038c-.081.015-.153-.037-.148-.106a.07.07 0 0 1 .054-.068v.001zM4.915 23.214c.001.088-.086.197-.184.223-.037.01-.085.021-.103-.027-.013-.037-.021-.096-.002-.123a.747.747 0 0 1 .147-.155c.034-.029.141.037.141.082zM4.586 23.899c-.088.007-.123-.009-.131-.058-.009-.055 0-.107.053-.133a.154.154 0 0 1 .14.001c.037.019.062.055.054.1-.005.027-.025.062-.047.073-.033.018-.074.018-.067.017h-.001zM4.48 21.893c.029-.047.067-.081.12-.083.055-.002.096.033.112.088.014.049-.024.073-.061.095-.109.067-.114.064-.165-.111a.134.134 0 0 1-.006.012l-.001-.001zM4.681 22.882c.004.056-.073.125-.149.121-.022-.001-.054-.032-.062-.057-.021-.079.027-.17.086-.178.051-.007.12.056.124.114h.001zM4.994 22.467c-.008.043-.09.089-.145.081-.048-.007-.079-.077-.068-.155.007-.05.038-.074.081-.07.077.01.143.085.131.143zM5.279 22.753c-.012.063-.08.113-.136.102-.066-.014-.057-.073-.051-.124.008-.064.051-.094.1-.073.045.019.09.039.087.096zM6.861 25.972c-.062 0-.112-.051-.113-.118-.001-.084.062-.167.119-.148.061.02.098.068.101.14.003.068-.047.126-.106.126zM5.829 25.478c-.096-.002-.139-.042-.131-.122s.065-.126.145-.119a.131.131 0 0 1 .119.151c-.014.076-.066.099-.132.09zM6.97 24.889c.059-.008.102.034.113.117.01.068-.02.123-.064.122-.078-.002-.149-.062-.145-.131.003-.061.038-.096.096-.108zM6.665 25.322c-.058-.004-.107-.091-.093-.175.011-.067.059-.082.112-.076.067.008.104.062.101.134-.004.063-.062.12-.12.117l-.001.001zM6.58 25.475c-.002.009-.003.021-.008.028-.042.063-.167.048-.199-.024a.121.121 0 0 1 .008-.121c.036-.054.083-.04.129-.013s.075.066.071.129H6.58zM2.287 26.395c0 .07-.052.119-.119.114-.06-.005-.104-.06-.109-.132s.042-.13.104-.132c.072-.002.123.06.123.151zM3.046 26.028c-.012.017-.021.04-.035.047-.059.028-.153-.017-.175-.08-.017-.052.016-.132.071-.162.027-.015.057-.015.079.017a.352.352 0 0 1 .061.178zM2.76 26.073c-.011.058-.053.076-.105.071-.084-.01-.137-.072-.125-.141.013-.066.062-.077.11-.079.074-.003.126.062.12.15h.001zM3.636 23.477c-.093-.003-.15-.05-.139-.119.009-.056.037-.101.088-.113.07-.017.148.081.135.164-.008.049-.041.068-.084.068zM3.598 23c.002.055-.019.077-.068.08-.06.004-.117.017-.135-.072-.013-.07.023-.149.071-.148.06 0 .12.066.131.14zM3.688 22.462c-.045.002-.077-.019-.079-.071-.002-.061.029-.111.08-.117.049-.007.095.028.117.081.019.049-.045.104-.119.107zM3.273 22.616c-.066.002-.096-.035-.099-.093-.002-.04.009-.084.061-.082.07.003.115.048.112.11-.004.055-.043.06-.073.066zM3.46 22.144c-.014.018-.029.053-.052.061-.062.023-.146-.049-.14-.117.003-.036.031-.057.062-.059a.127.127 0 0 1 .131.114l-.001.001zM4.743 27.922c.077-.007.156-.017.215.054.034.04.054.089.037.145-.014.048-.051.059-.091.063-.029.003-.058.009-.087.009-.113 0-.135-.034-.132-.212l-.006.007.07-.076-.006.012v-.001zM4.382 26.455c.064-.008.113.035.122.106.012.089-.03.167-.091.173-.071.007-.136-.049-.145-.125-.01-.081.037-.144.113-.154z" opacity=".08" style="fill:var(--color1, #fcfcfc)"/>
      <path fill="#fcfcfc" d="M4.685 27.98a.184.184 0 0 1-.164-.062c-.036-.04-.06-.09-.042-.149.014-.047.053-.063.094-.067.053-.006.104.008.127.064.021.048.029.103.044.155l.006-.012c-.041.006-.054.042-.07.076l.006-.007-.001.001zM4.68 27.228c-.001.066-.047.106-.125.108-.076.002-.118-.037-.117-.112 0-.096.051-.162.118-.154.072.009.125.075.124.158zM2.024 24.245c.068-.089.151-.087.241-.051.07.027.125.012.186-.045.068-.064.134-.035.187.059.025.043.017.092-.028.105a4.289 4.289 0 0 1-.4.093c-.132.024-.133.02-.178-.172l-.008.012zM1.827 23.543c.09.01.179.096.188.181a.08.08 0 0 1-.02.057c-.04.047-.142.054-.19.017-.046-.037-.074-.148-.044-.205.013-.025.046-.036.064-.05h.001z" opacity=".08" style="fill:var(--color1, #fcfcfc)"/>
      <path fill="#fcfcfc" d="M2.033 24.234c-.037.008-.075.017-.112.023-.036.006-.079.035-.102-.017-.026-.06-.031-.126.012-.18.037-.047.088-.037.133-.011.074.043.074.117.061.195l.008-.011zM6.235 26.747c-.003.074-.065.123-.151.121-.078-.003-.129-.069-.119-.151s.074-.139.145-.127a.156.156 0 0 1 .124.158zM5.666 26.263c-.007.088-.055.132-.139.126-.054-.004-.098-.068-.095-.136.004-.077.064-.133.14-.126.061.005.1.062.095.137v-.001zM3.182 27.777c.073.005.112.063.106.158-.004.073-.042.11-.116.112-.082.002-.129-.051-.124-.137s.056-.137.134-.132zM45.783 8.662a9.598 9.598 0 0 1-.727 1.188 4.63 4.63 0 0 1-1.052 1.044c-.304.223-.62.418-.953.583a1.81 1.81 0 0 1-.587.165.427.427 0 0 0-.273.125c-.109.112-.255.146-.391.191-.104.034-.197-.028-.269-.115-.017-.02-.025-.05-.043-.07-.092-.095-.029-.273-.173-.353-.109-.06-.154-.219-.218-.334-.173-.31-.371-.61-.468-.968-.117-.432-.151-.87-.044-1.309.097-.399.203-.797.313-1.193.035-.125.084-.249.145-.36.195-.353.395-.702.602-1.047.065-.109.154-.199.233-.296.218-.262.432-.53.692-.742.266-.217.538-.422.848-.558.231-.102.467-.162.717-.149.059.003.118-.003.177-.005a.205.205 0 0 0 .172-.102c.025-.038.054-.073.074-.114.119-.251.326-.283.543-.259.185.021.297.163.364.349.047.132.072.272.079.413a.294.294 0 0 0 .097.217c.184.172.316.387.407.638.048.133.078.267.092.409.016.159.027.32.051.477.029.198.02.394.003.591-.038.442-.12.873-.273 1.286a2.045 2.045 0 0 1-.138.3v-.001zm-.162-.283c.234-.473.307-1.039.333-1.617.002-.037-.004-.075-.008-.113l-.087-.728a1.214 1.214 0 0 0-.394-.766c-.108-.099-.169-.199-.166-.354a.852.852 0 0 0-.023-.195 1.104 1.104 0 0 0-.065-.214c-.058-.129-.148-.163-.276-.127-.09.025-.145.09-.185.177-.104.23-.281.31-.502.299-.059-.003-.118.001-.177.004a1.767 1.767 0 0 0-.543.122c-.334.128-.613.358-.884.595-.265.23-.49.515-.703.807s-.375.625-.559.941a2.634 2.634 0 0 0-.276.661c-.093.352-.197.701-.267 1.059a2.16 2.16 0 0 0 .091 1.164c.096.267.248.491.383.729.03.053.069.072.124.078.119.013.175.098.185.226.007.084.013.169.024.252.009.065.02.13.039.192.034.106.084.131.175.092.094-.04.194-.075.26-.167.063-.087.148-.113.243-.13.225-.039.448-.095.656-.198a5.1 5.1 0 0 0 .922-.584c.37-.296.724-.613.992-1.035.233-.368.482-.725.686-1.175h.001z" opacity=".08" style="fill:var(--color1, #fcfcfc)"/>
      <path fill="#fcfcfc" d="M42.252 8.283c-.021.043-.049.06-.086.056-.038-.003-.06-.03-.072-.068-.027-.088.01-.163.081-.166.081-.003.117.085.076.177h.001zM41.984 9.327c-.029.035-.063.061-.108.035-.059-.034-.084-.127-.054-.194.018-.041.09-.05.135-.016.048.035.06.112.026.175zM41.964 10.737c-.03.052-.067.067-.112.047-.051-.023-.075-.073-.094-.126a.075.075 0 0 1 .005-.051c.023-.04.108-.043.163-.008.048.03.063.094.038.137v.001zM41.505 9.136c-.02.048-.06.069-.101.064-.053-.007-.099-.111-.088-.177.008-.048.072-.071.124-.044a.128.128 0 0 1 .065.156h.001zM41.607 9.839c-.029.049-.093.07-.13.043-.051-.038-.08-.119-.059-.168.023-.05.098-.06.155-.018.046.033.061.098.033.144zM42.51 6.939c-.019.056-.075.097-.112.081-.053-.023-.084-.119-.058-.187.02-.051.062-.054.103-.041.063.019.089.081.066.147h.001zM42.965 10.442c.057.029.081.082.055.131-.023.043-.059.069-.103.059-.05-.012-.093-.104-.078-.154s.069-.066.127-.036zM41.785 8.408c-.013.043-.085.085-.123.072-.045-.017-.084-.103-.073-.16.01-.05.071-.083.12-.064a.131.131 0 0 1 .076.153v-.001zM42.591 10.805c-.06-.031-.094-.108-.069-.153.024-.043.096-.056.157-.029.038.017.051.07.029.116-.029.061-.076.088-.117.066h.001zM41.995 7.75c-.022.056-.079.085-.118.06-.049-.032-.073-.114-.045-.167.026-.05.068-.042.107-.023.057.028.077.077.057.13zM42.17 10.575c-.048-.023-.081-.087-.069-.133.011-.044.076-.067.13-.042.048.023.05.066.035.115-.017.05-.045.075-.095.06zM42.071 9.863c-.021.029-.047.056-.084.039-.052-.023-.087-.124-.057-.163.025-.033.061-.027.093-.014.051.019.072.081.047.137v.001zM43.883 5.316c-.021.018-.042.037-.065.011s-.046-.053-.057-.084c-.016-.042.017-.104.052-.109.038-.005.06.022.075.056.02.044.024.087-.005.127l-.001-.001zM43.444 5.411c-.049-.029-.064-.082-.042-.14.011-.03.035-.038.059-.03a.1.1 0 0 1 .06.128c-.014.033-.04.058-.076.041l-.001.001zM42.754 6.038c-.014.024-.035.039-.06.031-.054-.018-.044-.064-.035-.109.007-.029.024-.046.051-.034.035.016.056.073.044.112v-.001zM47.907 26.231a3.563 3.563 0 0 1-1.15-.433c-.551-.314-.922-.797-1.159-1.417a2.008 2.008 0 0 1-.13-.968.718.718 0 0 0-.082-.425.695.695 0 0 1-.091-.391c.01-.097.043-.179.134-.212.138-.05.27-.118.421-.122.27-.007.531.002.794.116a3.38 3.38 0 0 0 1.742.269c.394-.042.786-.077 1.176-.157a6.086 6.086 0 0 0 1.623-.587c.434-.227.824-.533 1.24-.791.136-.084.269-.175.406-.254.351-.202.67-.46.992-.711.144-.112.287-.227.432-.337.269-.204.564-.353.894-.37a.485.485 0 0 0 .354-.183c.137-.157.258-.327.292-.553.011-.078.041-.153.062-.229.071-.261.138-.344.371-.282.25.068.493.018.739.045.031.003.062.003.093.011a.175.175 0 0 1 .123.097c.124.28.226.565.151.887-.046.198-.088.399-.133.597-.034.154-.03.281.108.391.115.093.205.225.302.345.195.242.274.523.271.848-.005.622-.124 1.221-.282 1.812a20.43 20.43 0 0 1-.796 2.371c-.269.666-.544 1.331-.921 1.937-.449.719-.948 1.383-1.614 1.881-.343.256-.667.543-1.001.814a4.07 4.07 0 0 1-.583.396c-.278.155-.552.318-.829.477-.055.032-.112.06-.17.085-.705.314-1.426.566-2.182.694-.409.069-.786-.026-1.157-.183-.164-.07-.322-.159-.498-.197a.351.351 0 0 1-.117-.043 8.493 8.493 0 0 1-.428-.28c-.131-.093-.122-.233.022-.312.122-.067.236-.143.339-.242.033-.033.059-.068.049-.117-.051-.261.056-.436.249-.57.04-.027.027-.093-.018-.107l-.329-.102c-.492-.154-.898-.468-1.28-.826-.103-.097-.2-.201-.307-.29-.269-.221-.431-.522-.545-.857-.065-.191-.111-.383-.25-.54-.1-.113-.085-.278-.037-.423a.263.263 0 0 1 .205-.19c.175-.03.345-.087.524-.087.354-.002.708-.016 1.062-.019.325-.003.634-.071.923-.265l-.004-.002zm7.848-6.761c-.056.011-.11.051-.112.104-.007.157-.09.205-.208.176-.312-.078-.572.048-.824.225-.244.173-.489.346-.72.541a4.556 4.556 0 0 1-.621.458c-.505.299-.983.643-1.477.958-.523.334-1.068.615-1.67.739-.245.051-.491.097-.736.154-.256.06-.514.085-.775.087-.052 0-.105-.003-.156.006-.675.111-1.328-.016-1.968-.236-.238-.081-.473-.066-.711-.05-.09.006-.13.075-.095.168.073.191.128.384.114.596-.038.581.172 1.067.492 1.506.144.196.322.358.516.493.391.273.803.474 1.283.468.217-.003.437.003.654.009a.957.957 0 0 0 .478-.102c.198-.1.396-.197.589-.311.8-.472 1.542-1.037 2.267-1.634a15.405 15.405 0 0 0 1.256-1.329c.325-.4.656-.796.905-1.262.138-.258.299-.496.493-.704.237-.253.455-.538.788-.654.062-.021.102-.074.128-.14.037-.094.076-.185.113-.276-.02.009-.024.006-.009-.01l.005.019.002.001zm-7.107 10.187c.156.006.31-.02.465-.051.4-.078.805-.138 1.184-.304.863-.377 1.683-.842 2.418-1.472.148-.126.292-.26.45-.369.251-.172.452-.403.655-.63.087-.098.181-.188.268-.286.275-.311.536-.631.742-1.007.16-.291.295-.603.505-.859.105-.128.187-.274.277-.413.253-.393.454-.818.674-1.23.163-.303.342-.593.423-.947.113-.501.163-.989-.083-1.457-.191-.366-.189-.737-.054-1.118.042-.119.052-.244.066-.368.006-.062-.017-.112-.075-.13-.04-.012-.082-.017-.122-.03-.073-.024-.117.009-.148.081-.098.226-.222.44-.279.685-.038.164-.095.295-.269.319-.037.005-.071.047-.104.072-.368.284-.704.603-.967 1.008-.012.018-.025.037-.035.056-.18.349-.417.653-.64.967a6.918 6.918 0 0 1-.319.42c-.139.169-.288.329-.43.495-.278.325-.564.645-.886.913-.513.428-1.027.858-1.579 1.223-.347.229-.687.475-1.065.645-.539.242-1.08.482-1.633.68-.326.116-.654.227-1.002.241-.416.017-.831.047-1.247.075-.082.006-.163.03-.243.053-.086.025-.111.08-.059.145.136.168.191.375.253.581.052.174.113.35.235.476.255.266.522.522.788.777.158.151.35.244.532.354.407.243.838.398 1.307.405h-.003zm8.24-9.285c-.009.117.039.168.067.226.134.27.187.556.149.859a5.165 5.165 0 0 1-.242 1.059 1.24 1.24 0 0 1-.099.212c-.127.222-.249.45-.358.679-.177.375-.394.721-.59 1.082-.08.146-.169.288-.268.42a5.198 5.198 0 0 0-.429.671 6.8 6.8 0 0 1-.287.489c-.364.562-.832 1.019-1.297 1.474-.046.046-.097.086-.148.127-.319.256-.637.512-.958.767a1.59 1.59 0 0 1-.237.164c-.289.157-.564.341-.854.495-.328.175-.665.323-.992.498-.073.04-.159.052-.238.079-.299.106-.613.127-.918.203a1.887 1.887 0 0 1-.65.067.275.275 0 0 0-.272.122.969.969 0 0 1-.13.147.435.435 0 0 0-.163.351.377.377 0 0 1-.177.34c-.026.017-.048.043-.07.067-.05.059-.036.139.034.159.234.063.45.172.664.289.111.06.232.103.353.135.202.055.409.093.617.066a4.895 4.895 0 0 0 1.001-.252c.484-.172.974-.326 1.427-.596.402-.239.818-.453 1.19-.746.406-.319.806-.649 1.205-.976.092-.075.176-.16.263-.242.407-.381.724-.849 1.034-1.321.086-.129.182-.253.247-.395.248-.539.493-1.079.722-1.628.147-.352.261-.72.389-1.08.064-.18.137-.358.191-.541.172-.586.338-1.172.442-1.779.044-.251.036-.499.028-.748a.798.798 0 0 0-.14-.412c-.138-.201-.29-.388-.509-.529l.003-.003zm-.162-1.675c.074-.004.105 0 .134-.008.014-.003.033-.026.032-.04a.067.067 0 0 0-.03-.048.334.334 0 0 0-.207-.014c-.028.006-.059.023-.043.066.007.017.024.04.039.042.039.006.08.002.075.002zm.117 1.213-.006-.027c-.006.012-.013.024-.017.038-.001.004.008.012.014.018l.009-.027v-.001zm.114-.533-.012.022.017.004-.006-.026h.001z" opacity=".08" style="fill:var(--color1, #fcfcfc)"/>
      <path fill="#fcfcfc" d="M53.868 24.879c-.044.005-.055-.029-.06-.061-.01-.06.019-.111.046-.159.124-.208.247-.418.376-.623.281-.448.566-.895.851-1.341.041-.064.085-.129.137-.182.042-.043.096-.03.139.012.034.034.047.074.026.12-.061.131-.122.262-.187.392-.251.498-.568.947-.86 1.414-.108.173-.269.28-.413.41-.014.013-.038.012-.056.017l-.001.001zM52.013 26.99c-.03-.02-.063-.03-.08-.055-.038-.055-.075-.124-.032-.186a.813.813 0 0 1 .177-.188c.455-.334.827-.76 1.16-1.229a.912.912 0 0 1 .129-.147c.06-.057.134-.062.205-.025.039.02.071.062.051.109a1.006 1.006 0 0 1-.124.234c-.326.413-.64.84-1.051 1.16-.11.085-.217.175-.328.261-.033.025-.071.044-.11.067h.001zM47.597 28.923c-.082-.008-.125-.005-.164-.017-.259-.084-.518-.168-.749-.329a1.58 1.58 0 0 1-.15-.123c-.102-.095-.137-.199-.089-.258s.16-.065.263-.007c.046.025.086.063.13.094.167.117.346.207.531.285a.504.504 0 0 0 .304.042c.112-.022.228-.026.342-.033a1.31 1.31 0 0 1 .217.011c.052.007.1.035.105.102.003.054-.038.075-.074.098-.009.005-.019.012-.029.014l-.635.124-.001-.001zM50.792 27.981c.005.061-.014.092-.043.103-.364.144-.665.408-.992.622-.062.041-.124.078-.202.073-.057-.004-.097-.029-.118-.089s-.007-.115.038-.15c.099-.08.2-.162.307-.23.231-.147.441-.336.707-.413.071-.02.14-.046.212-.015.05.021.086.058.092.098l-.001.001zM56.238 20.642c.008.184-.04.301-.161.376-.04.024-.124-.017-.119-.066.014-.156.033-.312.057-.466.007-.04.041-.086.088-.072a.224.224 0 0 1 .102.068c.044.055.03.128.033.16h-.001zM56.213 21.484a.145.145 0 0 1-.153-.132c-.008-.085.054-.171.12-.162.073.01.163.104.165.174.002.051-.071.118-.132.12zM47.25 27.495c.109.01.154.067.189.141.005.009.009.022.007.031-.021.061-.071.077-.124.084-.085.011-.137-.018-.149-.08-.017-.087.039-.179.076-.176h.001zM49.05 29.15c.066 0 .114.054.111.124-.004.076-.045.121-.109.135-.066.014-.138-.056-.146-.131-.007-.072.057-.128.144-.128h-.001zM48.201 29.401c-.063-.003-.11-.064-.108-.14.003-.089.063-.145.145-.134.069.009.12.069.113.135-.007.078-.076.142-.151.139zM46.469 27.802c0 .08-.074.152-.147.135-.055-.012-.089-.053-.093-.119-.005-.074.041-.127.112-.13.073-.003.128.046.128.113l-.001.001zM56.303 22.158c0 .073-.038.107-.093.118-.063.013-.129-.035-.139-.098s.041-.15.09-.157c.062-.008.139.069.143.136h-.001zM50.046 29.08c.007.074-.034.125-.106.13-.073.005-.126-.035-.138-.101s.033-.116.111-.125c.079-.009.125.024.132.096h.001zM46.834 27.567c-.025-.01-.067-.018-.097-.043s-.065-.063-.039-.111c.014-.025.042-.053.067-.058a.233.233 0 0 1 .117.011c.049.018.091.056.084.122-.008.074-.068.067-.13.078h-.001zM46.328 27.485c-.058-.014-.094-.058-.094-.134 0-.055.048-.096.103-.085a.122.122 0 0 1 .105.131.1.1 0 0 1-.114.089v-.001zM50.243 23.926c.026.004-.016.003-.055-.009-.055-.016-.086-.059-.09-.122a.12.12 0 0 1 .08-.129.223.223 0 0 1 .06-.016c.494-.052.941-.269 1.388-.482.314-.149.624-.307.937-.46.038-.018.076-.04.116-.046.027-.004.065.007.083.029.017.019.027.068.016.09-.054.11-.113.208-.228.266-.225.115-.442.248-.675.348-.337.145-.667.31-1.015.429a1.773 1.773 0 0 1-.618.102h.001zM48.381 23.926c.165-.011.339.013.512.047.023.004.05.041.059.068a.065.065 0 0 1-.038.079c-.038.017-.074.046-.114.051-.226.03-.453.033-.679.013-.038-.003-.082-.029-.107-.059s-.037-.08-.037-.122c0-.051.041-.075.086-.076.103-.002.206 0 .321 0l-.001-.001zM46.674 23.847c-.191.049-.312-.153-.447-.318a.138.138 0 0 1-.01-.157.129.129 0 0 1 .163-.053c.019.008.04.015.055.029.149.138.3.272.482.354.032.014.039.049.033.083-.006.04-.036.056-.065.06-.05.005-.102.001-.212.001zM46.731 24.235c-.075-.004-.149-.076-.145-.143.003-.059.071-.127.125-.128.07 0 .142.074.142.147 0 .062-.064.127-.123.124zM46.996 24.806c-.022.078-.086.113-.167.089-.068-.019-.099-.074-.085-.148.017-.084.082-.119.161-.086.072.03.108.086.091.144zM47.879 24.933c0 .064-.031.106-.086.119-.067.015-.146-.052-.151-.127-.004-.063.028-.105.086-.115a.13.13 0 0 1 .151.123zM47.639 25.347c-.007.051-.069.097-.116.086-.07-.014-.122-.106-.099-.18.011-.036.041-.05.073-.046.088.009.152.074.143.139zM48.294 25.292c.058-.004.084.04.089.1.003.035-.016.069-.048.071-.06.002-.084-.048-.096-.104-.008-.041.016-.059.055-.067zM53.057 29.244c.019 0-.01-.03-.031-.072-.023-.048-.009-.089.023-.121.151-.157.298-.315.453-.466.117-.114.226-.234.322-.368a8.4 8.4 0 0 1 .673-.804c.111-.119.214-.248.322-.369a.572.572 0 0 1 .124-.101c.039-.023.081-.006.115.023.035.031.053.075.039.12a.628.628 0 0 1-.08.183c-.104.141-.206.288-.327.411a8.676 8.676 0 0 0-.674.803 3.055 3.055 0 0 1-.696.676c-.061.043-.122.087-.265.086v-.002zM51.873 30.072c-.007.021-.007.053-.02.062-.185.123-.354.277-.558.363-.076.033-.155.07-.242.052-.059-.012-.082-.063-.099-.118a.096.096 0 0 1 .044-.116c.252-.135.513-.243.787-.308.036-.008.086.002.089.065zM49.038 30.902c.139.01.233-.013.32.043.046.029.059.108.015.139a.768.768 0 0 1-.588.149.141.141 0 0 1-.079-.05c-.036-.041-.059-.091-.044-.153a.108.108 0 0 1 .086-.085c.112-.019.224-.035.29-.044v.001zM56.05 25.212c-.007.022-.012.082-.039.127a2.033 2.033 0 0 1-.168.241c-.035.045-.057.146-.135.084-.057-.045-.104-.124-.079-.206a.631.631 0 0 1 .291-.377c.053-.032.131.03.131.13l-.001.001zM50.084 31.38c-.084.005-.143-.046-.151-.126-.007-.078.052-.14.134-.14.067 0 .127.048.135.107.01.078-.047.156-.119.16h.001zM50.533 30.178c-.007.016-.014.054-.034.073a.152.152 0 0 1-.224-.004.157.157 0 0 1-.035-.088c-.007-.059.05-.104.131-.108.097-.005.161.039.162.127h.001zM49.865 30.681c.005.07-.047.128-.114.125-.065-.003-.119-.03-.135-.109-.012-.06.043-.115.118-.12.077-.005.126.035.131.104zM19.73-3.916c.158-.213.373-.342.569-.5a4.18 4.18 0 0 1 1.454-.745c.072-.021.143-.053.215-.08.065-.025.113.002.156.06-.114.274-.302.474-.501.66-.124.115-.214.263-.327.389-.032.036-.044.094-.081.178.184-.065.333-.119.482-.17.031-.011.063-.023.096-.027.052-.007.094.062.068.113-.049.097-.09.197-.198.241-.084.035-.154.113-.228.174-.01.008-.013.036-.01.05s.022.032.034.032c.084.003.167.003.251.004s.167 0 .251.004c.045.003.077.064.054.103-.041.069-.065.159-.147.186-.172.054-.313.18-.462.28-.287.193-.563.409-.842.618-.069.052-.14.108-.166.212.064.053.138.057.21.047.385-.046.769.018 1.153.027.04.001.081.021.119.038.012.005.028.037.026.04-.061.069-.066.187-.183.209-.19.035-.373.104-.544.21-.022.014-.046.023-.066.04a.079.079 0 0 0-.024.047c0 .013.013.035.023.038.137.042.275.08.413.119.186.052.375.097.56.153.087.026.085.077.034.157-.054.083-.123.089-.198.093-.362.02-.71.12-1.054.241a.18.18 0 0 0-.114.089c.165.035.313.125.483.097.043-.007.076.056.055.097-.04.082-.084.163-.128.25l.619.315c.031.016.069.045.057.081-.02.06.008.139-.052.18a.086.086 0 0 1-.072.008c-.482-.169-.96-.057-1.433.011-.024.07.011.101.041.132.147.154.26.347.425.481.069.055.041.139.034.211-.004.038-.039.059-.075.058a.128.128 0 0 1-.048-.009c-.299-.117-.606-.116-.916-.078-.015.002-.028.014-.057.029.039.108.136.162.189.253.043.073-.013.124-.036.18-.019.049-.065.064-.107.042-.266-.144-.555-.136-.836-.138-.342-.002-.684.036-1.025.072-.157.017-.319-.017-.49.048-.008.147.014.305-.024.457-.004.014.025.053.044.058.261.069.375.296.457.553.061.19.082.386.067.589-.006.08-.02.163.065.225.037.026.052.121.047.182-.016.219.016.436.014.653s-.045.431-.072.647c-.006.047-.019.092-.028.139-.06.275-.139.545-.157.833a1.37 1.37 0 0 1-.264.727c-.113.153-.222.308-.336.46-.081.108-.175.208-.139.373-.067.224-.134.451-.254.647a3.53 3.53 0 0 0-.314.612c-.11.298-.309.518-.534.705a.853.853 0 0 0-.242.318c-.134.299-.329.548-.517.802a.465.465 0 0 1-.11.115c-.219.137-.422.309-.666.394-.143.05-.283.11-.434.13a.366.366 0 0 0-.271.177.504.504 0 0 1-.36.234c-.157.021-.314.062-.472.073a.673.673 0 0 1-.475-.142c-.059-.047-.101-.046-.159-.025-.317.111-.589-.011-.837-.224-.051-.043-.098-.069-.158-.068-.466.013-.834-.23-1.165-.574-.031-.032-.06-.067-.089-.101a1.86 1.86 0 0 0-.466-.411c-.26-.147-.404-.414-.464-.735a3.689 3.689 0 0 1-.054-.365c-.026-.286-.133-.547-.194-.823a3.837 3.837 0 0 1-.11-.785 1.98 1.98 0 0 1 .078-.618c.054-.169.067-.353.146-.514a.14.14 0 0 0 .013-.08c-.039-.17.027-.317.078-.465.077-.221.157-.44.238-.658.098-.264.259-.487.395-.726.022-.04.06-.075.068-.118.035-.201.141-.364.209-.547.057-.152.133-.285.24-.395.179-.185.319-.415.524-.571.033-.025.054-.07.078-.108.222-.359.475-.685.789-.944.108-.089.228-.158.342-.237.028-.019.066-.04.055-.082-.028-.105.034-.158.087-.217.144-.158.29-.316.419-.491a.837.837 0 0 1 .299-.254c.176-.088.349-.182.526-.268.092-.044.188-.079.284-.111.039-.014.089-.015.11.036.034.08.08.082.143.052.17-.081.35-.127.53-.17.046-.011.072-.042.072-.099-.002-.374-.031-.738-.224-1.062-.075-.125-.131-.264-.194-.398-.052-.111-.034-.148.109-.224a1.949 1.949 0 0 0-.389-.358c-.242-.174-.443-.404-.678-.587a.246.246 0 0 1-.058-.089c-.023-.051.011-.13.058-.131.058-.002.117 0 .175.008.116.016.232.036.348.058a.382.382 0 0 0 .245-.014c.075-.033.136.006.153.095a.668.668 0 0 0 .139.319c.036.042.034.105.034.163-.001.035-.023.053-.046.057-.022.003-.055-.002-.067-.019a.378.378 0 0 1-.086-.23c-.002-.052-.019-.084-.063-.108-.141-.077-.291-.071-.441-.072-.006 0-.013.009-.019.016-.013.019-.01.036.004.051.031.032.06.067.092.096.249.222.513.421.78.616a.685.685 0 0 0 .013-.49 2.528 2.528 0 0 0-.11-.256c-.092-.192-.184-.384-.281-.572a1.098 1.098 0 0 0-.125-.176c-.104-.124-.211-.244-.316-.367a.634.634 0 0 1-.075-.113.088.088 0 0 1 .015-.103c.018-.017.045-.031.066-.03.068.005.126.044.186.08.147.091.294.181.443.269.043.025.082.069.138.049.031-.053.027-.108.012-.164-.096-.363-.149-.74-.291-1.088a.257.257 0 0 1-.016-.054c-.005-.039-.002-.076.025-.104.036-.036.081-.04.116-.013a.468.468 0 0 1 .127.135c.108.184.249.332.386.485.169.189.301.407.412.642.022.048.034.108.089.128a1.33 1.33 0 0 0 .019-.684 5.341 5.341 0 0 1-.148-.895c-.017-.198-.049-.395-.071-.592-.006-.056-.005-.114 0-.169s.078-.08.12-.047c.063.05.106.122.145.195.073.138.141.28.208.422.016.034.027.069.081.081.026-.069-.014-.136-.019-.202a1.687 1.687 0 0 0-.028-.225c-.089-.429-.082-.867-.104-1.302-.002-.045.016-.092.031-.136.013-.038.078-.057.109-.034.021.015.043.03.057.053.037.052.073.105.101.163.246.496.51.981.696 1.513.043.124.092.244.14.365.066.164.124.331.158.509.013.069.022.147.072.211a2.68 2.68 0 0 0-.06-1.038c-.032-.108-.068-.214-.104-.32a.326.326 0 0 1-.021-.166.123.123 0 0 1 .038-.065c.023-.02.052-.005.066.018.041.071.076.147.117.219.012.021.035.049.052.048.046-.003.042-.052.042-.086.001-.247.016-.494-.011-.74-.01-.093-.021-.189.011-.281.016-.045.049-.049.082-.039.062.02.093.073.107.143.017.08-.012.169.03.246.057-.019.049-.07.05-.116.002-.266.003-.532.007-.798.003-.285.003-.569.073-.846.013-.052.062-.07.098-.039a.586.586 0 0 1 .181.302c.101.371.207.74.287 1.118.118.564.181 1.138.139 1.72-.004.066-.005.134-.022.197-.021.081-.055.158-.083.236-.003.008-.002.019-.002.028.006.114.01.228.02.341.007.085.025.168.038.251.072.008.081-.056.103-.1.069-.141.132-.286.203-.426a.651.651 0 0 0 .057-.217c.018-.151.038-.301.052-.452.038-.435.11-.864.185-1.291.043-.24.125-.473.201-.703.11-.338.231-.672.348-1.007.011-.03.028-.044.055-.041.031.003.04.032.045.059a.537.537 0 0 1 .01.114c-.015.418-.002.836-.054 1.252a1.93 1.93 0 0 0-.014.284c.004.172-.007.341-.029.511a1.803 1.803 0 0 0-.005.539c.023.135-.018.263-.04.393-.019.117-.072.228-.051.354.057-.011.072-.057.09-.1.06-.147.125-.291.176-.441.14-.416.301-.823.393-1.259.013-.064.038-.126.056-.189.014-.051.043-.082.091-.075s.074.045.072.097c-.002.114-.011.227-.011.341-.003.255-.004.509-.004.764 0 .046.002.096.042.144.113-.11.199-.249.291-.38.146-.208.277-.428.399-.656.065-.12.151-.227.231-.335.01-.014.047-.014.068-.007.033.012.063.045.05.084-.05.15-.079.308-.153.45-.22.424-.431.854-.598 1.31a.718.718 0 0 1-.06.125c-.16.263-.224.57-.306.868-.007.024.007.054.011.08.005-.028 0-.036-.016-.026l.016.021.004-.001zm-1.576 1.999-.045.086c-.192.115-.275.304-.281.542l-.01.004.254-.429c.021-.036.053-.071.031-.122.048 0 .043-.039.041-.074.022.003.016.018.007.01-.027-.022-.005.02.003-.016l-.001-.001zm-2.879 5.942-.028.081-.06.048-.037.075-.081.028.016.011-.015.012c0-.007-.002-.014 0-.02.025-.013.051-.025.075-.039.012-.024.023-.047.037-.071.021-.014.056-.009.06-.051.01-.025.02-.052.032-.076.035 0 .069-.003.07-.057.024.006.047.014.072.017.113.013.113.012.107.123-.007.17-.019.341-.021.512a6.32 6.32 0 0 1-.173 1.433c-.029.115-.08.229-.069.363.031-.013.058-.016.075-.033.29-.272.578-.546.867-.82.048-.045.075-.098.06-.174-.019-.096.007-.188.021-.281.034-.233.079-.464.042-.706-.028-.186-.037-.377-.053-.566a2.297 2.297 0 0 0-.215-.74c-.148.118-.22.308-.345.447s-.242.288-.362.433l-.074.047-.002.002zm1.954-.459-.016.013a.076.076 0 0 1-.016.011c.01-.01.019-.02.028-.033l.026-.156c.075-.002.079-.086.118-.13.059-.065.156-.042.184.043.024.074.027.15.016.225-.054.374-.036.757-.101 1.131-.004.023.007.05.016.104.132-.247.148-.507.216-.747a.106.106 0 0 0-.002-.056c-.049-.122-.01-.242 0-.364.011-.132.019-.265.019-.398a.948.948 0 0 0-.137-.51c-.024-.039-.049-.078-.11-.067a6.064 6.064 0 0 1-.201.662c-.012.034-.007.075-.01.114-.046.044-.032.102-.029.158zm.564.963a3.29 3.29 0 0 0-.27 1.024c.074-.061.16-.073.179-.169.046-.228.111-.452.12-.689a.258.258 0 0 0-.036-.158l.013.007-.006-.014v-.001zm3.359-8.16-.295.04c-.046.006-.081-.014-.104-.061a.103.103 0 0 1 .01-.106c.189-.264.341-.563.586-.776.111-.097.213-.21.292-.355-.344.014-.962.35-1.22.665.137-.037.258-.067.372-.129.046-.025.09-.045.144-.025.056.02.077.071.045.125-.072.12-.174.204-.27.296l-.443.418c-.02.019-.037.039-.028.07.029.03.061.016.093.011.166-.025.331-.067.498-.066a.553.553 0 0 0 .325-.114c-.022.006-.025.001-.011-.014a.658.658 0 0 0 .006.022h.001zm-2.505-.923c-.052.161-.068.33-.093.497-.002.013.011.036.022.042s.038 0 .043-.009c.036-.074.069-.15.1-.226.017-.042.043-.086.044-.129.002-.062-.074-.025-.094-.072-.014-.032-.042-.06-.022-.102-.009-.151.004-.3.027-.448.04-.262.073-.524.116-.785.085-.506.097-1.018.126-1.53.002-.03.016-.078-.062-.097-.046.174-.129.333-.186.509-.163.496-.195 1.016-.231 1.535.04.111-.03.228.011.336.039.105.017.205-.002.307-.011.055-.036.108-.007.183.066-.034.137-.008.208-.012v.001zm-4.077 6.51c.029.019.058.036.091.008.213-.18.419-.371.639-.539.2-.153.275-.371.299-.622.012-.121.001-.245-.003-.368-.002-.058-.045-.089-.083-.058-.072.058-.128.083-.222.027-.103-.06-.242.025-.284.148-.056.167-.101.339-.152.508-.091.302-.143.62-.29.898l.008.01-.006-.014h.002zm2.005 4.917c.061-.151.181-.244.274-.364.078-.103.196-.189.128-.363-.011-.025.016-.07.028-.106.023-.071.052-.14.072-.212a8.044 8.044 0 0 0 .255-1.791c.002-.043.012-.097-.051-.118-.131.134-.193.323-.281.49-.072.139-.132.285-.228.405a.675.675 0 0 0-.07.116c-.019.039-.01.068.031.083.022.008.056.029.056.044-.001.113.044.223.008.338a.739.739 0 0 0-.035.193c-.01.325-.081.636-.158.947-.027.109-.059.219-.018.332-.019-.006-.021-.01-.004-.012l-.004.018-.002-.001zm-6.952-.088c.008-.034.007-.061-.029-.029-.007.006.015.03.035.024.054.24.186.441.255.673.015.051.06.047.096-.003.028-.038.053-.082.01-.122-.079-.074-.068-.154-.042-.254.09-.342.194-.68.21-1.045a1.2 1.2 0 0 0-.052-.444c-.071-.212-.137-.426-.213-.636-.024-.066-.004-.156-.084-.202-.081.09-.172.172-.228.291-.125.268-.215.552-.31.834-.012.035-.027.086.008.101.11.046.072.175.116.257.051-.02.065-.067.087-.106.028-.047.055-.095.086-.14.04-.057.106-.076.155-.053.046.022.054.07.055.117.006.17.01.341.011.512 0 .161-.002.161-.165.224h-.002zm4.918.782c.069.023.11-.033.151-.075.151-.151.317-.278.487-.398.092-.065.178-.141.256-.228.063-.069.125-.19.226-.13.085.05.085.178.087.28.006.303.004.607.007.909 0 .042-.035.092.018.125.114-.086.19-.207.263-.33-.01-.02-.016-.038-.028-.052s-.028-.02-.04-.034c-.067-.074-.07-.09-.026-.166.041-.071.084-.141.128-.211.233-.369.372-.782.463-1.219.025-.12.043-.241.037-.366-.004-.076-.046-.107-.096-.066a1.67 1.67 0 0 0-.119.104c-.294.28-.583.567-.882.842-.207.191-.425.369-.64.546-.045.037-.119.038-.151.082-.04.055-.05.138-.073.208l-.06.186-.007-.007-.001-.001zm5.436-12.871c-.092.058-.183.121-.277.175-.06.035-.117-.005-.12-.086-.005-.151-.004-.302-.005-.454l-.003-.313a.04.04 0 0 0-.011-.025c-.022-.029-.01.039-.021-.004-.018.086-.025.172-.055.247-.144.372-.251.762-.418 1.123-.069.15-.128.308-.161.476-.025.129-.069.253-.104.38-.018.065-.046.141-.104.149-.107.014-.119.109-.165.185-.058.095-.08.184-.042.291-.056.047-.107.091-.132.177-.068.234-.151.463-.226.694-.013.041-.036.086.02.129.191-.166.427-.248.628-.402.007-.005.015-.008.023-.011.033-.014.065-.017.093.013s.029.068.024.105a.322.322 0 0 1-.08.173c-.159.182-.315.367-.472.551-.025.029-.053.045-.087.043l.011.012-.007-.016c.048.021.093.027.142-.003.219-.136.444-.258.657-.405.307-.213.642-.352.972-.507.023-.011.048-.025.072-.023.04.003.093.003.116.03.034.039-.002.085-.029.12s-.049.077-.082.104c-.148.122-.298.239-.446.357.02-.009.025.008.013.009-.033.004.007.016-.009-.017.167.074.306.039.422-.125.089-.126.207-.22.319-.32.244-.218.498-.418.769-.588a.632.632 0 0 0 .247-.241c-.164-.035-.294-.024-.407.112-.048.058-.128.086-.195.121-.057.029-.092-.011-.081-.087.006-.045.037-.086.016-.142-.124-.019-.245.029-.368.042-.166.019-.331.045-.498.066a.107.107 0 0 1-.11-.052c-.046-.07-.04-.136.028-.193.193-.163.379-.335.579-.541-.054.009-.079.01-.102.018-.26.078-.501.213-.751.321-.29.125-.57.273-.804.514-.048.049-.115.075-.174.11-.031.019-.065.032-.089-.005-.029-.044-.061-.094-.006-.147.051-.146.176-.194.282-.257.198-.118.404-.219.608-.325.089-.047.201-.071.124-.236-.013-.029.017-.088.034-.13l.369-.957c.029-.076.083-.145.066-.237.007-.003.016-.004.022-.009.003-.003 0-.018 0-.018-.019-.003-.024.009-.016.032l-.002-.002zM11.683 7.292a.372.372 0 0 0 .333-.157c.101-.143.232-.245.342-.375.105-.125.239-.207.379-.271.101-.047.157.004.16.132s-.032.243-.087.352c-.028.057-.055.131-.122.125-.081-.007-.103-.083-.103-.166 0-.009-.004-.018-.006-.027-.006-.022-.019-.028-.038-.014-.013.009-.032.023-.033.036-.006.071.045.141-.007.216-.081.115-.1.256-.118.399-.016.13-.058.258-.079.387-.025.156-.086.307-.069.492.146-.098.281-.187.414-.283.044-.031.04-.076-.007-.111-.052-.039-.051-.091-.023-.148.091-.181.176-.367.276-.542.069-.122.122-.248.155-.387.08-.348.157-.698.233-1.048.005-.025.004-.061-.009-.08-.025-.04-.06-.011-.087.003-.19.098-.384.189-.567.301a2.804 2.804 0 0 0-.627.563.43.43 0 0 0-.069.118 2.225 2.225 0 0 1-.197.363c-.024.038-.054.074-.039.127-.026-.004-.047 0-.017.03.008.008.022-.016.012-.035h.001zm5.459-5.897c.023-.005.057-.024.069-.013a.25.25 0 0 0 .256.058c.039-.011.084 0 .125-.003.25-.014.501-.018.751-.045.293-.032.582-.052.873.011.057.012.116.008.175.01.022 0 .033-.015.026-.035-.005-.017-.013-.041-.025-.045a.745.745 0 0 0-.121-.032c-.044-.01-.074-.04-.1-.079-.056-.083-.033-.176.051-.198.032-.008.066-.01.099-.014.242-.032.483-.036.725-.008.075.009.15.008.225.009.035 0 .052-.047.031-.083-.075-.131-.19-.209-.3-.295a.323.323 0 0 0-.284-.064c-.278.059-.558.114-.838.164-.078.014-.146.025-.186.116-.031.071-.1.09-.15.05-.105-.084-.2-.054-.307-.011a2.864 2.864 0 0 1-.41.129c-.232.054-.435.189-.653.282-.04.018-.034.058-.031.094-.022-.006-.045-.018-.066-.017-.028.001-.054.047-.036.052.011.003.024-.008.037-.014l.065-.022-.001.001zm-.362-2.744c-.054-.027-.076.019-.095.059a3.313 3.313 0 0 1-.426.701.165.165 0 0 0-.037.157c.012.039.017.072-.025.092-.054.025-.084.097-.149.1-.068.003-.104.052-.136.11-.027.048-.049.102-.084.141-.081.091-.088.197-.072.315.022.169.039.339.01.51-.004.025-.006.053.03.078.089-.074.189-.142.275-.23s.173-.147.292-.116c.075.019.126-.016.17-.085.116-.185.235-.368.357-.549.05-.075.057-.12-.018-.185-.053-.047-.03-.123.029-.162.039-.025.081-.04.118-.008.055.047.093.051.144-.014.144-.185.301-.357.422-.554a33.22 33.22 0 0 0-.074-.3c-.046 0-.07.04-.102.069-.188.177-.404.304-.612.445-.034.023-.064.013-.091-.014s-.044-.058-.041-.099c.002-.028.012-.054.019-.082.031-.128.061-.256.09-.385.002-.009.002-.019.005-.027.011-.03.004-.038-.01-.015-.005.009.007.032.012.049v-.001zm-2.822 6.908c.073-.128.176-.226.263-.34.172-.223.386-.391.57-.598.04-.046.065-.081-.007-.125-.07-.042-.081-.114-.046-.194.011-.025.019-.053.03-.079.205-.505.281-1.049.371-1.588a.665.665 0 0 0 .004-.141c-.001-.025-.008-.056-.023-.072-.023-.025-.048-.001-.064.019-.094.126-.219.204-.339.288-.172.119-.336.25-.481.407-.052.057-.125.097-.142.19.148.086.146.086.138.248-.004.093-.036.186-.012.28.038-.005.057-.035.076-.068l.11-.191c.03-.051.071-.08.127-.07.071.012.094.069.101.141.007.075.016.151.019.226.005.163-.012.177-.155.125-.033-.012-.065-.03-.087.014-.06.12-.134.072-.207.023-.041.061-.031.131-.034.195a3.875 3.875 0 0 1-.197 1.109.282.282 0 0 0-.006.192c-.006-.003-.016-.004-.017-.009-.004-.019.002-.021.012-.005.002.003-.003.013-.005.019l.002.003zm-1.066-1.228c.008 0 .019.003.025-.003.194-.163.361-.363.572-.502.031-.02.046-.054.043-.095-.012-.14.05-.256.096-.376.086-.226.175-.45.256-.678a3.27 3.27 0 0 0 .155-.744c.011-.102-.035-.14-.121-.097-.152.075-.307.144-.447.252-.248.19-.507.36-.756.548-.135.103-.266.217-.343.392.02.01.029.019.034.016l.764-.422c.03-.016.06-.033.092-.042.037-.01.072.008.072.052.002.084.01.181-.056.238-.192.167-.273.403-.314.657-.044.268-.1.537-.066.813l-.009-.011.006.003h-.001zm-2.048 4.266c.016.008.03.018.046.022.178.048.222.099.174.289-.081.322-.056.66-.134.981a.129.129 0 0 0 .027.117c.169-.109.338-.231.533-.288a.066.066 0 0 0 .044-.087.193.193 0 0 1 .004-.138c.081-.186.156-.379.251-.556a1.34 1.34 0 0 0 .128-.336c.049-.221.102-.441.148-.662.031-.147.054-.297.076-.446.008-.057-.03-.09-.076-.069a3.35 3.35 0 0 0-.755.443 1.161 1.161 0 0 0-.195.217c-.116.155-.174.345-.261.514l.019.012c.003.001.007-.004.011-.006l-.039-.005-.001-.002zm2.665-2.823c.046.013.078-.003.101-.053.137-.283.257-.569.299-.896.043-.336.084-.671.072-1.006-.065-.029-.106.005-.151.031-.253.151-.46.374-.69.561-.166.136-.284.319-.392.51-.054.095-.093.201-.137.303a2.767 2.767 0 0 1-.349.62c-.035.045-.062.086-.121.079-.029-.004-.046.018-.051.047-.012.08-.023.161.025.251l.116-.081c.196-.145.396-.281.609-.392.174-.091.347-.185.521-.276a.467.467 0 0 1 .094-.036c.048-.012.108.045.096.097-.019.081.016.174-.036.249v.054l.003.024c.019-.002.026-.015.017-.037-.007-.017-.017-.031-.026-.047l.001-.002zm-3.253 1.395c.066-.152.211-.208.309-.322.046-.053.093-.098.12-.175.088-.252.247-.446.418-.629a.33.33 0 0 1 .083-.061c.043-.022.113.008.128.057.042.138.065.287-.006.413-.153.27-.175.567-.168.873.002.108-.018.219.007.325.034-.004.051-.002.065-.009.096-.048.097-.049.086-.195a.226.226 0 0 1 .019-.108c.062-.146.137-.28.228-.407.294-.407.331-.547.307-1.066a1.861 1.861 0 0 0-.015-.169 1.88 1.88 0 0 1-.018-.508c.005-.037.004-.08-.03-.099s-.063.014-.09.033c-.267.192-.537.38-.806.569s-.449.474-.539.825c-.04.154-.075.31-.114.464-.017.067-.022.13.019.188l-.028-.028.028.029h-.001zm7.793-11.141c-.016.105-.074.189-.112.283a.358.358 0 0 1-.14.157c-.031.022-.093-.002-.108-.04a.317.317 0 0 1-.022-.08c-.029-.234-.09-.463-.067-.704.005-.058.014-.134-.072-.175-.037.093-.086.183-.108.281s-.068.168-.136.229c-.078.071-.112.073-.149-.019-.045-.112-.084-.227-.124-.341a1.875 1.875 0 0 1-.048-.162c-.011-.045-.018-.109-.066-.103-.072.008-.043.086-.044.136-.002.085.004.17.009.256.02.332.007.663-.024.994a2.675 2.675 0 0 1-.107.583c-.052.158-.1.32-.137.485-.043.192-.071.39-.104.585-.013.072-.045.143-.005.217.109.003.098-.116.13-.18.09-.181.163-.373.245-.56.016-.036.04-.061.078-.059.052.003.069.047.075.095.017.162-.002.321-.023.48-.019.149-.035.299-.052.449 0 .006.009.014.022.032a5.24 5.24 0 0 0 .768-.62.376.376 0 0 0 .086-.136c.117-.324.23-.651.342-.978.007-.023.005-.064-.009-.079-.011-.013-.048-.009-.067.001-.036.019-.063.069-.11.043-.053-.029-.061-.086-.055-.146.007-.075.014-.151.028-.224.028-.138.054-.278.095-.413a.439.439 0 0 0 .005-.275c.022.003.019.018.007.011-.029-.017-.002.02 0-.018l.001-.002zm1.393 1.943a.096.096 0 0 0-.118-.005c-.373.247-.783.432-1.079.814-.046.06-.093.068-.149.011-.032-.032-.057-.007-.081.025-.043.058-.089.111-.134.168l-.683.871c-.022.028-.045.055-.029.097.006.004.015.014.018.012a1.79 1.79 0 0 0 .112-.064c.47-.295.961-.531 1.482-.681.258-.075.524-.114.771-.241.053-.027.113-.03.167.013-.016.122-.054.23-.17.308.068.021.107.041.148.044.116.011.234.012.35.024a.625.625 0 0 0 .339-.069c.27-.127.543-.249.836-.292.069-.01.137-.042.204-.064-.018-.075-.063-.075-.102-.086-.137-.041-.275-.077-.411-.124a.24.24 0 0 1-.149-.141c-.041-.1-.039-.166.04-.219.086-.058.178-.102.266-.155.019-.012.042-.036.046-.058.007-.042-.03-.039-.052-.039-.234 0-.468 0-.702.003a.47.47 0 0 0-.124.018c-.234.063-.477.083-.707.17a.642.642 0 0 1-.122.031c-.055.01-.096-.015-.122-.073a.16.16 0 0 1 .007-.16.423.423 0 0 1 .152-.143c-.019-.002-.017-.017-.007-.011.03.017 0-.019.002.019l.001-.002zm-4.295 5.841c.016 0 .038.008.046-.001.204-.224.41-.446.589-.698a.31.31 0 0 0 .058-.123c.041-.223.079-.444.071-.675-.012-.31-.118-.59-.192-.88-.018-.069-.058-.079-.116-.033-.143.114-.281.239-.428.346-.221.16-.419.345-.568.593a.73.73 0 0 1-.273.243c-.04.024-.111-.032-.107-.084a.525.525 0 0 1 .03-.136c.178-.471.331-.951.45-1.446.023-.097.068-.188.066-.288-.016-.009-.024-.019-.031-.018a1.625 1.625 0 0 0-.935.501 2.592 2.592 0 0 0-.428.589.254.254 0 0 1-.172.145c-.112.027-.205.078-.231.222a.077.077 0 0 1-.072.067c-.046.003-.078-.029-.095-.075-.029-.077-.022-.147.034-.208a.724.724 0 0 1 .225-.178.167.167 0 0 0 .091-.09c.137-.335.275-.671.29-1.05.001-.025-.005-.061-.019-.073-.016-.012-.052-.012-.068.002-.14.123-.303.199-.459.291s-.301.197-.399.376c-.031.056-.065.138-.145.141l.008.018-.006-.02c.072.057.142.019.215-.004.112-.035.129-.028.157.103.018.085.054.096.12.105.079.012.101.096.051.167-.021.03-.046.056-.07.081-.063.065-.081.064-.152-.034-.027-.037-.053-.051-.078-.018-.087.114-.172.225-.174.396-.001.111-.039.222-.066.331-.02.08-.045.158-.022.242.014.002.026.007.031.003.209-.207.45-.36.686-.52.193-.131.381-.274.595-.363.117-.049.229-.113.342-.173.053-.028.103-.064.165-.059.034.003.072.012.075.057.013.208.034.421-.032.62-.086.257-.125.531-.236.778-.016.037-.043.081.004.13.148-.136.295-.274.446-.408.236-.209.505-.371.696-.646.049-.069.132-.055.161.033.028.083.057.106.138.114.127.012.169.089.164.234-.003.104-.011.208-.019.312-.003.038-.016.075-.054.086-.047.014-.079-.009-.101-.058-.017-.038-.024-.093-.079-.077-.034.197-.076.391-.097.588-.019.178-.096.346-.075.53-.027.023-.013-.029-.02.008a.06.06 0 0 0 .002.017c.019 0 .023-.01.012-.03l.002-.001zm.217-7.692a1.28 1.28 0 0 0-.009.539.323.323 0 0 1-.121.34c-.042.036-.075.029-.1-.025-.075-.169-.147-.341-.225-.508-.145-.313-.326-.591-.594-.808a.478.478 0 0 0 .022.258c.062.2.094.403.075.614-.008.095.028.162.081.228.143.178.24.385.317.608.082.238.173.473.26.709.162.439.287.89.345 1.362l.057.479c.004.039.014.08.05.086.019.003.046-.021.061-.041.108-.131.209-.273.324-.396a.564.564 0 0 0 .146-.377c.016-.264.028-.532.07-.792.076-.48.073-.962.069-1.446 0-.019-.004-.037-.008-.056-.002-.006-.011-.012-.017-.014s-.019-.002-.022.003a.394.394 0 0 0-.034.072c-.033.107-.054.219-.097.32-.044.103-.12.102-.166 0-.08-.176-.155-.357-.226-.538-.074-.188-.132-.385-.255-.618l-.002.002zm3.91 4.261c.084.023.157.003.231-.01.378-.072.757-.143 1.136-.217.031-.006.078-.018.087-.041.025-.068-.048-.053-.07-.085-.015-.022-.034-.042-.048-.065a.14.14 0 0 1 .045-.192c.021-.014.048-.013.072-.021.021-.008.025-.025.015-.041-.004-.008-.009-.019-.015-.02-.031-.01-.064-.025-.096-.026-.116-.001-.227-.073-.346-.027s-.225-.041-.343-.039c-.258.006-.517-.013-.776.008a.94.94 0 0 1-.15.002c-.051-.004-.104-.022-.122-.082-.035-.117-.102-.103-.179-.07-.116.05-.232.105-.351.147-.577.197-1.073.559-1.54.976-.213.19-.213.254-.089.521.007.017.016.033.024.05.024.052.063.063.104.037.147-.09.296-.172.453-.238A7.115 7.115 0 0 1 18.352.62c.187-.048.375-.088.563-.134.039-.009.092-.02.089-.08-.006-.17.148-.184.212-.285.01-.015.048-.01.072-.009.08.003.116.08.074.16-.021.039-.052.07-.085.113l-.002-.002zM15.92-3.013c.057-.213.093-.359.134-.502.04-.137.057-.274.048-.419-.012-.178.023-.27.087-.253.105.03.098.145.107.232.031.302.062.604.075.906a5.75 5.75 0 0 1-.002.682c-.012.146-.039.297-.009.45.049-.021.045-.064.052-.099.03-.139.037-.279.04-.422.003-.14.103-.253.122-.398.033-.243.088-.483.12-.726.019-.149.015-.302.019-.454.002-.057-.021-.088-.077-.067-.061.023-.093-.023-.116-.075-.015-.034-.022-.071-.032-.108-.054-.189-.096-.384-.165-.566a48.434 48.434 0 0 0-.515-1.295c-.052-.128-.124-.247-.186-.37-.01-.02-.023-.028-.048-.015-.005.019-.015.045-.013.069.004.075.013.151.02.226.02.217.059.434.057.65-.003.289.052.559.122.831.028.108.045.221.061.333.011.081-.057.107-.098.147-.029.029-.091-.009-.116-.072a12.144 12.144 0 0 1-.149-.391c-.078-.209-.139-.427-.242-.624-.007-.012-.028-.023-.04-.02s-.031.02-.032.033c-.024.222.007.434.098.632.196.429.355.878.527 1.321.039.102.084.2.154.363l-.002.001zM11.784 9.594c.125-.052.194-.082.264-.108.111-.04.178.014.182.148.002.047-.007.095-.01.141-.007.095-.022.189-.022.284s-.066.177-.041.276c.097-.033.192-.061.284-.098.257-.104.489-.244.601-.553.025-.069.06-.136.092-.203.107-.22.125-.471.189-.707.052-.191.076-.389.081-.59.001-.043.013-.094-.031-.123-.36.108-.692.279-.989.533-.114.097-.236.199-.295.343-.085.206-.193.397-.304.655h-.001zm-.765-6.629c-.109.066-.197.115-.27.192-.152.162-.313.313-.446.498-.123.17-.226.345-.174.583a.212.212 0 0 1-.007.112c-.081.208-.037.407.02.608.086.302.208.59.26.948.119-.171.234-.296.371-.385.11-.07.136-.155.114-.296-.024-.151.033-.3.084-.439.07-.19.081-.385.077-.585l-.03-1.236zm1.799.134c-.028-.005-.048-.015-.057-.008-.181.136-.37.256-.541.412-.28.257-.54.538-.79.83a.705.705 0 0 0-.184.424 1.045 1.045 0 0 1-.048.249c-.015.051-.04.106 0 .179.166-.106.325-.224.476-.354.12-.103.239-.207.363-.304.063-.05.168-.054.186-.014.031.071.006.145-.014.213-.01.034-.043.058-.06.09a.707.707 0 0 0-.096.32 8.78 8.78 0 0 0-.007.398c0 .034-.006.081.034.097s.057-.025.075-.056c.106-.193.206-.391.319-.579.101-.169.152-.352.183-.553.068-.447.046-.906.163-1.346V3.1zm.606 6.306c.075-.049.142-.088.203-.134.133-.099.272-.186.422-.244a.896.896 0 0 0 .463-.413.622.622 0 0 1 .076-.111c.025-.026.059-.033.092-.017s.052.047.049.088c-.009.16-.021.321-.028.481-.002.042-.022.095.039.129.106-.045.182-.15.277-.223.233-.178.355-.44.446-.733.105-.342.09-.69.069-1.039-.003-.051-.047-.064-.092-.027-.192.151-.384.301-.575.454-.287.231-.552.49-.747.828-.054.094-.103.186-.189.256a.696.696 0 0 0-.217.341c-.031.107-.081.164-.184.132-.049-.015-.08.005-.092.061-.01.044-.039.084-.013.17l.002.002zm.15-.682c.134-.16.264-.319.398-.473.089-.103.157-.221.205-.355.031-.088.071-.172.104-.258a4.91 4.91 0 0 0 .292-1.319c.005-.055-.035-.085-.084-.056-.304.18-.613.349-.906.547-.21.141-.377.341-.467.614-.049.15-.122.291-.182.437-.013.03-.048.058-.002.107a.891.891 0 0 0 .376-.191c.16-.146.354-.243.466-.458.059-.113.168-.184.269-.252a.29.29 0 0 1 .094-.036c.065-.015.116.034.118.108a.604.604 0 0 1-.131.389c-.054.073-.081.08-.167.011-.031-.025-.049-.047-.077-.008a1.445 1.445 0 0 0-.225.471c-.057.219-.072.446-.106.669-.002.013.012.028.023.053h.002zM14.646.03c.117-.007.208-.009.299-.019.084-.008.149.012.178.112.012.041.037.056.076.053.072-.005.108-.041.106-.12a5.798 5.798 0 0 0-.345-1.796c-.095-.263-.184-.529-.281-.791-.064-.173-.129-.346-.248-.468-.045-.002-.056.025-.074.045-.077.085-.084.164-.022.271.063.109.129.224.152.357.051.291.025.585.018.878-.002.075-.044.119-.113.127-.031.003-.067-.003-.087.054.051.21.209.377.245.607.036.222.119.434.093.69h.001zm-1.327 6.697c.318-.202.613-.394.911-.579.131-.081.269-.151.404-.225a.32.32 0 0 1 .069-.03c.074-.022.131.036.117.123-.037.233.004.471-.064.718a.753.753 0 0 0 .281-.411c.167-.512.234-1.046.262-1.588.004-.08.012-.165-.009-.23-.045-.024-.066-.006-.084.012-.095.093-.189.186-.282.282a.06.06 0 0 0-.006.075c.015.022.039.037.053.06.071.116.09.244.05.379-.013.045-.04.085-.088.088-.037.003-.062-.025-.08-.058a.16.16 0 0 1-.019-.053c-.011-.075-.049-.089-.108-.065-.034.014-.066.002-.093-.024-.036-.033-.069-.045-.107 0-.295.346-.646.634-.864 1.061-.044.086-.112.17-.189.162-.085-.01-.101.02-.113.093-.01.062-.024.123-.04.208v.001zM9.912 9.313c.057.017.079-.014.104-.036.096-.091.187-.192.291-.27.129-.097.232-.199.265-.385.023-.129.095-.241.16-.352.057-.095.084-.201.108-.313.069-.317.028-.643.077-.961.005-.036-.037-.073-.066-.058-.052.028-.107.055-.154.092a3.078 3.078 0 0 0-.665.767.462.462 0 0 0-.065.269c.007.286-.028.565-.079.844-.025.14-.005.278.024.403v.001zm6.543-1.392v-.114a.771.771 0 0 0-.011-.084c-.013-.071-.064-.093-.107-.041-.148.18-.29.367-.44.543a4.158 4.158 0 0 0-.405.538c-.149.241-.325.456-.558.599-.08.049-.149.122-.228.173a.311.311 0 0 0-.129.199c-.014.053-.059.109-.026.157.04.059.09-.002.134-.02.094-.037.187-.08.283-.112.192-.063.38-.128.561-.229.098-.054.18-.143.281-.179.228-.082.356-.282.452-.5.127-.289.166-.612.195-.932h.001zm-4.178-6.26c-.421.116-.701.437-.986.753.047.07.12.095.131.182.004.039.034.06.075.043.092-.04.181-.008.269.018.034.01.068.03.069.071.003.173-.036.336-.099.492-.007.018-.043.031-.065.03-.034-.003-.063-.031-.064-.074-.003-.066.001-.132 0-.198-.001-.071-.037-.1-.098-.078a.953.953 0 0 0-.093.042c-.129.063-.188.165-.178.332.017.281.02.563.03.876.282-.274.505-.58.784-.806-.069-.197-.072-.197-.047-.369.063-.437.185-.859.272-1.313zm5.058-9.285a.737.737 0 0 0-.071.362c.002.237.005.474-.012.711-.008.113-.026.227-.014.336.023.208.012.416.018.623.002.073-.04.114-.107.123-.056.008-.073-.067-.123-.067-.083.252-.082.434.01.658.063.154.134.305.204.466.024-.03.052-.053.066-.086.067-.152.133-.306.195-.461.044-.108.043-.244.154-.313.016-.009.022-.049.024-.076.005-.075.008-.152.008-.227-.003-.681-.164-1.33-.319-1.981-.006-.024-.02-.044-.033-.07v.001zM14.494 9.038c-.122.073-.221.144-.328.191-.181.079-.346.188-.517.289a.886.886 0 0 0-.404.482c-.078.215-.096.441-.142.661-.009.043.021.073.06.062.13-.036.257-.092.388-.109.271-.035.455-.195.606-.442a2.21 2.21 0 0 0 .336-1.133zm2.058-4.268c.089-.158.178-.315.265-.474.04-.072.08-.145.116-.219.027-.055.045-.101-.043-.114-.049-.008-.077-.073-.069-.135a.798.798 0 0 1 .037-.164c.143-.4.201-.821.237-1.247.006-.075-.004-.151-.013-.225-.007-.055-.054-.075-.092-.04-.213.198-.424.399-.637.597-.073.068-.087.152-.082.253.005.099.043.182.081.266a.783.783 0 0 1 .093.322c.005.389.094.771.105 1.179l.002-.001zm-6.136 5.967c.283.278.578.402.918.377a.41.41 0 0 0 .336-.212c.164-.276.29-.571.342-.904.025-.155 0-.239-.17-.157-.068.033-.146.041-.216.067-.247.094-.484.207-.645.458-.046.073-.101.124-.19.091-.016-.006-.05.015-.063.035-.07.112-.175.17-.313.244h.002zm-.724-2.155c.047-.213.043-.391.063-.565a.947.947 0 0 0-.045-.389 4.277 4.277 0 0 0-.442-.98c-.021-.035-.034-.089-.085-.08-.01.006-.02.009-.023.016-.21.451-.29.922-.175 1.423.016.068.033.07.095.011.108-.101.134-.103.228.01.074.089.14.187.207.284.054.078.106.158.18.27h-.002zm1.087.548c.002-.109-.042-.146-.107-.111-.03.016-.058.037-.087.055-.199.128-.353.314-.511.497a.809.809 0 0 0-.175.401c-.007.035-.009.083.007.108.069.107.101.24.195.329.102.098.205.118.322.045a.333.333 0 0 0 .139-.159c.044-.113.086-.227.119-.344.078-.274.069-.563.1-.822h-.001zm5.839-7.71c-.051.149-.134.202-.187.285-.013.02-.039.041-.063.016-.018-.018-.042-.043-.043-.065 0-.119.03-.221.135-.28.12-.066.119-.069.069-.191a1.191 1.191 0 0 0-.174-.31c-.04-.049-.089-.057-.134-.018a5.088 5.088 0 0 0-.247.241.112.112 0 0 0-.029.103c.013.064.028.129.037.195.034.224.124.433.138.662.005.085.022.169.032.253.01.081-.015.168.022.245.019-.002.039.004.051-.004.204-.149.372-.351.56-.524.046-.042.046-.103.025-.157-.054-.137-.116-.271-.193-.452v.001zm-4.97 9.888c.154.13.303.159.483.114.164-.041.297-.129.422-.237.227-.198.349-.47.407-.784-.231-.078-.233-.083-.407.023-.101.062-.219.093-.295.207-.028.042-.078.03-.115.005-.056-.038-.096-.022-.121.041-.09.227-.232.415-.374.633zm2.361-.188c.185-.058.336-.108.488-.153.2-.058.368-.178.505-.347.163-.202.321-.41.427-.66.016-.038.06-.072.019-.125-.323.059-.612.232-.913.363a.275.275 0 0 0-.181.275c.002.098-.049.15-.1.214-.094.118-.195.234-.244.432zm-.117-.359-.595.159c-.057.015-.111.032-.172.019-.125-.029-.131-.03-.181.08-.07.157-.185.267-.293.384-.047.051-.032.096.031.125s.128.051.195.044c.166-.017.331-.04.497-.065a.161.161 0 0 0 .087-.05c.18-.185.354-.375.43-.698l.001.002zm2.789-3.172c.077-.03.103-.105.145-.163.095-.131.19-.263.284-.396.119-.17.24-.34.356-.513a1.01 1.01 0 0 0 .148-.505c.002-.027-.007-.055-.013-.081-.007-.033-.064-.054-.082-.029a5.675 5.675 0 0 0-.122.18 7.274 7.274 0 0 1-.704.921c-.036.04-.075.076-.107.119-.015.019-.031.06-.022.075.067.119.034.28.117.391h-.001zm-7.413.738a1.239 1.239 0 0 0-.059.45c.013.267.065.526.11.787.029.17.122.309.228.433.022.025.051.008.06-.019.016-.043.022-.091.034-.136A1.582 1.582 0 0 0 9.619 9c-.066-.235-.218-.419-.351-.673zM14.609.254c-.399.045-.436.081-.768.246-.119.059-.178.173-.229.287-.04.088-.043.197-.061.296.072.017.099-.038.138-.069.196-.161.38-.35.618-.427.16-.052.249-.161.304-.333h-.001zm3.598-3.763.201-.28-.118-.236a1.049 1.049 0 0 0-.084.516zm-4.034.47c.114-.169.091-.218-.139-.293a.738.738 0 0 0 .139.293zm2.113 2.041c.069-.01.084-.078.109-.133.018-.042-.01-.068-.037-.088-.04-.03-.061.003-.069.037-.013.059-.034.121-.003.184h-.001zM9.547 6.525c-.013.008-.034.011-.039.023-.016.038.004.071.028.093.025.024.042-.002.045-.029.005-.036.001-.07-.034-.087zm1.532-.051c-.004-.007-.01-.02-.013-.02-.029.003-.037.03-.041.055-.001.005.009.019.014.019.03-.001.037-.026.041-.053h-.001zM18.35-4.217l-.007-.02-.007.021h.014v-.001zM14.927 4.46l-.007.014.013.002-.004-.015h-.001z" opacity=".08" style="fill:var(--color1, #fcfcfc)"/>
      <path fill="#fcfcfc" d="M14.114 1.065c.016.008.049.011.06.03.047.083.001.164-.019.241-.013.047-.059.059-.105.038-.048-.023-.076.011-.101.052-.015.025-.037.037-.059.01-.01-.014-.022-.033-.021-.049.003-.116.114-.282.213-.322.007-.003.016 0 .032 0v-.001zM17.112.64c0 .08-.054.152-.113.15s-.119-.064-.113-.118c.007-.067.068-.117.145-.116.046.001.074.031.082.084h-.001zM17.895.285c.061.008.086.043.086.092-.001.056-.015.112-.075.124a.12.12 0 0 1-.07-.007c-.046-.021-.09-.057-.087-.118.003-.048.048-.069.087-.082.022-.008.047-.008.059-.01l-.001.001zM15.977 4.487c-.009.102-.013.177-.023.252-.007.049-.034.087-.08.095-.036.006-.063-.022-.081-.055-.051-.095-.052-.219-.139-.294-.012-.011-.011-.055-.004-.079.037-.118.119-.195.194-.19s.125.095.132.241v.03zM13.036 8.904c-.028.113-.048.252-.116.372-.023.04-.092.026-.119-.039-.032-.075-.054-.112-.116-.032-.021.027-.052.055-.08.059s-.063-.017-.089-.038a.086.086 0 0 1-.021-.101.847.847 0 0 1 .374-.396c.072-.04.161.044.167.174v.001zM10.767 4.028c-.023.11-.044.22-.071.33-.013.053-.071.08-.12.065-.201-.061-.244-.162-.153-.369.029-.067.066-.131.105-.191.064-.097.133-.091.2.008a.214.214 0 0 1 .039.158v.001zM13.604 4.735c-.004.066-.008.132-.015.197-.007.074-.041.108-.101.078a.212.212 0 0 0-.19-.006c-.043.017-.08-.018-.104-.06s-.03-.092.002-.131c.086-.103.17-.208.263-.302.056-.057.131-.008.135.082.002.047 0 .094 0 .141H13.603zM12.21 3.818c.014.003.041.003.062.016.03.019.049.051.05.092.001.029-.004.055-.029.072-.071.049-.14.101-.212.148-.04.026-.079.023-.113-.016a.115.115 0 0 1-.028-.104c.034-.136.141-.22.27-.209l.001.001zM11.531 8.638c-.001.012 0 .041-.006.068-.011.059-.041.102-.095.117-.058.017-.134-.012-.139-.08-.008-.106-.068-.136-.133-.176-.046-.03-.041-.104.002-.141.013-.011.026-.024.04-.032.187-.112.33-.012.33.246v-.001zM14.941 8.325c.004-.069-.016-.091-.064-.065-.044.024-.078.069-.133.069a.092.092 0 0 1-.084-.048.083.083 0 0 1 .017-.101c.111-.099.226-.189.355-.254.071-.036.135.002.156.083a.473.473 0 0 1-.094.442c-.037.044-.098.058-.134.026-.038-.032-.044-.075-.026-.125l.007-.027v-.001zM16.221-.07c.016.007.057.015.058.028.011.15.185.077.21.202.007.038.004.078-.021.106-.03.035-.069.064-.111.037a3.465 3.465 0 0 1-.253-.168c-.043-.03-.04-.108-.002-.148a.166.166 0 0 1 .118-.058l.001.001zM10.541 8.012c.001.051-.024.098-.084.102-.057.003-.091.037-.119.087-.04.073-.098.058-.155.036a.08.08 0 0 1-.052-.086.739.739 0 0 1 .152-.381c.078-.094.17-.075.223.036.03.061.033.125.034.208zM15.676 9.08a.121.121 0 0 1-.066.078c-.047.023-.095.039-.138-.009-.034-.039-.016-.11.046-.168a.777.777 0 0 1 .259-.165c.113-.041.2.025.212.158.009.1-.046.211-.131.25-.039.018-.083.014-.113-.028-.026-.036-.048-.075-.072-.114l.015.008-.013-.011.001.001zM16.259 6.432c-.002.075 0 .152-.048.213-.016.02-.045.053-.055.048-.123-.064-.201.044-.294.094-.028.015-.05.003-.064-.019s-.029-.052-.026-.075c.013-.103.272-.38.364-.395.071-.012.123.044.123.133v.001zM14.08 9.997c-.011.03-.027.084-.051.132-.021.043-.06.068-.104.062a1.287 1.287 0 0 1-.194-.041c-.053-.015-.07-.08-.04-.135a.528.528 0 0 1 .195-.21c.112-.066.195-.006.194.14v.053-.001zM16.667 2.799c.038 0 .07.014.087.047.031.065.055.134.084.2.017.04.011.071-.02.096-.033.025-.065.064-.108.03-.033-.026-.057-.07-.093-.086-.049-.021-.126 0-.107-.103.019-.106.084-.174.158-.184zM11.353 10.72c-.075-.023-.145.004-.215.042a.373.373 0 0 1-.117.045c-.032.005-.066-.014-.083-.051-.019-.041.003-.076.031-.096a2.98 2.98 0 0 1 .218-.14c.066-.039.136-.074.204-.108.1-.05.156.003.143.133-.013.132-.059.176-.181.174v.001zM9.505 7.391c-.008.042-.027.153-.101.235-.043.047-.093.021-.136-.012-.038-.029-.058-.072-.036-.12a.65.65 0 0 1 .166-.239c.015-.012.048-.004.069.005s.043.029.037.131h.001zM15.417.9a.388.388 0 0 1-.114.234c-.022.025-.087-.01-.098-.052-.031-.106.015-.179.081-.241.026-.025.058-.041.089-.011.018.017.028.044.044.07h-.001z" opacity=".08" style="fill:var(--color1, #fcfcfc)"/>
    </symbol>
  </defs>
</svg>