<svg xmlns="http://www.w3.org/2000/svg" aria-hidden="true" style="position:absolute;width:0;height:0;overflow:hidden">
  <defs>
    <symbol id="icon-facebook" viewBox="0 0 32 32">
      <path d="M19.52 4.64h.96v3.6h-1.2c-.48 0-.96 0-1.2.24s-.24.48-.24 1.04v1.28h2.64v3.04h-2.64v13.2h-4.08V13.76H11.6v-3.04h2.16V9.68c0-1.76.24-3.04.72-3.6.72-1.04 2.16-1.52 4.32-1.52.24.08.48.08.72.08z"/>
    </symbol>
    <symbol id="icon-instagram" viewBox="0 0 32 32">
      <path d="M28.717 10.756a9.264 9.264 0 0 0-.596-3.145 6.547 6.547 0 0 0-3.743-3.737 9.42 9.42 0 0 0-3.108-.596c-1.368-.061-1.801-.078-5.273-.078s-3.917 0-5.274.078a9.418 9.418 0 0 0-3.106.596 6.541 6.541 0 0 0-3.743 3.737 9.288 9.288 0 0 0-.596 3.101c-.061 1.367-.08 1.8-.08 5.265s0 3.909.08 5.265a9.335 9.335 0 0 0 .596 3.104 6.548 6.548 0 0 0 3.744 3.735 9.37 9.37 0 0 0 3.106.639c1.369.061 1.803.08 5.274.08s3.916 0 5.274-.08a9.357 9.357 0 0 0 3.108-.595 6.555 6.555 0 0 0 3.743-3.737 9.35 9.35 0 0 0 .596-3.104c.061-1.365.08-1.798.08-5.265-.003-3.466-.003-3.906-.082-5.264zM15.99 22.531c-3.631 0-6.572-2.936-6.572-6.561s2.941-6.561 6.572-6.561c3.628 0 6.572 2.936 6.572 6.561s-2.944 6.561-6.572 6.561zm6.833-11.835a1.53 1.53 0 1 1 0-3.06 1.53 1.53 0 1 1 0 3.06z"/>
      <path d="M15.992 19.976a4.004 4.004 0 1 0 0-8.009 4.004 4.004 0 0 0 0 8.009z"/>
    </symbol>
    <symbol id="icon-youtube" viewBox="0 0 32 32">
      <path d="M24.24 6c-1.36-.08-4.16-.16-8.4-.16h-.56c-4.08 0-6.8.08-8.16.24-1.84.16-3.12.64-3.84 1.28-.64.56-1.12 1.6-1.28 2.96-.08.88-.16 2.72-.16 5.52v.4c0 2.64.08 4.48.24 5.36.24 1.28.64 2.24 1.44 2.8.8.64 2.16 1.04 4.08 1.2 1.36.08 4.16.16 8.4.16h.56c4.08 0 6.8-.08 8.16-.24 1.84-.16 3.12-.64 3.84-1.28.64-.56 1.12-1.6 1.28-2.96.08-.88.16-2.72.16-5.52v-.4c0-2.64-.08-4.48-.24-5.36-.24-1.28-.64-2.24-1.44-2.8-.8-.64-2.16-1.04-4.08-1.2zm-3.12 9.84-8.8 5.28V10.56l8.8 5.28z"/>
    </symbol>
    <symbol id="icon-btn-menu" viewBox="0 0 32 32">
      <path stroke-linecap="round" stroke-linejoin="round" stroke-width="1.6" d="M27.555 16h-24M28 10.667H4m24 10.666H4"/>
    </symbol>
    <symbol id="icon-logo" viewBox="0 0 32 32">
      <path fill="#ff7f08" d="M29.082.314h-4.009c-1.237 0-2.24.983-2.24 2.195v3.929c0 1.212 1.003 2.195 2.24 2.195h4.009c1.237 0 2.24-.983 2.24-2.195V2.509c0-1.212-1.003-2.195-2.24-2.195zM6.73 23.04H2.412C1.08 23.04 0 24.023 0 25.235v3.929c0 1.213 1.08 2.195 2.412 2.195H6.73c1.332 0 2.412-.983 2.412-2.195v-3.929c0-1.212-1.08-2.195-2.412-2.195zm-.48-11.458H2.241c-1.237 0-2.24.983-2.24 2.195v3.929c0 1.212 1.003 2.195 2.24 2.195H6.25c1.237 0 2.24-.983 2.24-2.195v-3.929c0-1.212-1.003-2.195-2.24-2.195zm11.516 11.396h-4.009c-1.237 0-2.24.983-2.24 2.195v3.929c0 1.212 1.003 2.195 2.241 2.195h4.009c1.237 0 2.24-.983 2.24-2.195v-3.929c0-1.213-1.003-2.195-2.24-2.195zM6.25.086H2.241c-1.237 0-2.24.983-2.24 2.195V6.21c0 1.212 1.003 2.195 2.24 2.195H6.25c1.237 0 2.24-.983 2.24-2.195V2.281C8.49 1.069 7.487.086 6.25.086zm11.826 11.611h-4.009c-1.237 0-2.24.983-2.24 2.195v3.929c0 1.212 1.003 2.195 2.24 2.195h4.009c1.237 0 2.24-.983 2.24-2.195v-3.929c0-1.212-1.003-2.195-2.24-2.195zm11.257 11.281h-4.01c-1.237 0-2.24.983-2.24 2.195v3.929c0 1.212 1.003 2.195 2.24 2.195h4.009c1.237 0 2.24-.983 2.24-2.195v-3.929c0-1.213-1.003-2.195-2.24-2.195zM17.591.224h-4.009c-1.237 0-2.24.983-2.24 2.195v3.929c0 1.212 1.003 2.195 2.24 2.195h4.009c1.237 0 2.24-.984 2.24-2.196V2.418c0-1.212-1.003-2.195-2.24-2.195zm11.453 11.702h-4.01c-1.237 0-2.24.983-2.24 2.195v3.929c0 1.212 1.003 2.195 2.24 2.195h4.009c1.237 0 2.24-.983 2.24-2.195v-3.929c0-1.212-1.003-2.195-2.24-2.195z" style="fill:var(--color1, #ff7f08)"/>
    </symbol>
    <symbol id="icon-close" viewBox="0 0 32 32">
      <path stroke-linecap="round" stroke-linejoin="round" stroke-width="1.684" d="M24 8 8 24M8 8l16 16"/>
    </symbol>
    <symbol id="icon-star" viewBox="0 0 32 32">
      <path stroke-linecap="round" stroke-linejoin="round" stroke-width="1.6" d="m16 3.2 3.955 7.899 8.845 1.274-6.4 6.145 1.51 8.681L16 23.098l-7.91 4.101 1.51-8.681-6.4-6.145 8.845-1.274L16 3.2z"/>
    </symbol>



     <symbol id="icon-orange" viewBox="0 0 28 32">
      <path fill="#fcfcfc" d="M28.035 15.311c-.017 1.513-.25 3.144-.62 4.758a1.531 1.531 0 0 1-.106.293c-.701 1.545-1.37 3.109-2.123 4.622-.428.861-.916 1.696-1.709 2.261-.345.243-.609.624-.905.946-1.396 1.51-3.079 2.406-4.992 2.8-.442.091-.89.154-1.336.227-.859.142-1.723.218-2.579.388-1.129.224-2.238.079-3.292-.501a20.592 20.592 0 0 0-3.036-1.359c-1.146-.407-2.163-1.081-3.134-1.851a4.5 4.5 0 0 1-1.008-1.132c-.494-.785-.962-1.589-1.459-2.371-.282-.445-.448-.936-.56-1.454-.164-.757-.342-1.495-.718-2.176-.319-.58-.414-1.274-.442-1.936a13.101 13.101 0 0 1 .204-3.055c.046-.24.101-.489.083-.728-.095-1.39.115-2.734.368-4.089.149-.807.391-1.554.669-2.302.147-.394.353-.738.615-1.066.632-.801 1.235-1.627 1.993-2.299.276-.243.54-.498.807-.754.483-.457 1.048-.807 1.396-1.438.184-.334.485-.564.824-.709.543-.233 1.04-.561 1.525-.908.686-.492 1.413-.791 2.246-.873 1.023-.101 2.034-.35 3.056-.489.928-.129 1.858-.195 2.786.044.31.079.643.06.959.113.411.073.824.129 1.201.369 1.629 1.04 3.085 2.295 4.239 3.948a8.409 8.409 0 0 0 1.491 1.655c.776.653 1.387 1.488 1.959 2.333.534.788.842 1.747 1 2.73.106.662.213 1.321.411 1.961.19.615.149 1.258.19 2.043l-.003-.003zM14.438 5.833c-.169.154-.146.375-.169.58-.121 1.119-.215 2.242-.368 3.355-.115.845-.095 1.681-.04 2.529.029.441.213.804.365 1.189.075.189.247.189.414.139.169-.047.267-.18.365-.325.244-.372.468-.763.744-1.104.799-.993 1.298-2.179 1.784-3.367.215-.53.416-1.088.376-1.709-.425-.057-.807-.104-1.186-.164-.152-.025-.259-.243-.221-.404a.27.27 0 0 1 .281-.227c.379.006.758.032 1.155.054 0-.123.034-.249-.006-.328a2.117 2.117 0 0 0-1.071-1.006c-.468-.199-.945-.18-1.425-.154-.721.041-.787.114-1.017.974l.02-.035v.003zm7.224 8.179c.161-.003.322.009.48-.016.382-.054.761-.148 1.146-.186.543-.054.721.082.853.615.422 1.722.293 3.427-.192 5.102-.215.741-.52.933-1.229.867-.319-.028-.635-.11-.954-.161-.204-.032-.333.095-.284.296.095.41.204.813.313 1.22.19.697.175 1.308-.457 1.769-.373.271-.684.643-1.048.93-.888.691-1.982.47-2.622-.508-.158-.24-.241-.552-.615-.738.431 1.047.572 2.106 1.063 3.021.032.06.049.132.063.199.121.555.023 1.025-.643 1.154-.603.12-1.224.136-1.807.3-.666.186-1.278.025-1.904-.104-.445-.091-.85-.375-1.16-.716-.218-.24-.101-.675-.101-1.028 0-.208-.023-.413-.034-.621-.126.214-.167.448-.233.672-.279.927-.844 1.469-1.746 1.57-.132.016-.319-.095-.405.158.075.066.141.142.218.189.951.552 1.947.889 3.039.927 1.235.044 2.444-.028 3.602-.555.534-.243 1.074-.47 1.617-.697 1.014-.422 1.838-1.154 2.625-1.942 1.08-1.081 1.881-2.412 2.717-3.711a1.75 1.75 0 0 0 .213-.47c.414-1.52.913-3.017 1.06-4.61.08-.877.281-1.744.195-2.633-.086-.88-.195-1.756-.468-2.592-.356-1.091-.649-2.213-1.382-3.115a4.36 4.36 0 0 1-.655-1.17c-.385-.996-1.005-1.794-1.663-2.573a2.717 2.717 0 0 0-.681-.58c-.735-.46-1.517-.769-2.361-.87-.669-.079-1.347-.098-1.991-.382-.198-.088-.445-.076-.669-.073-.773.013-1.545.025-2.318.069a2.361 2.361 0 0 0-.844.189c-.577.268-1.158.404-1.787.309a1.474 1.474 0 0 0-.936.17c-1.043.571-2.031 1.217-2.864 2.131-.48.523-.977 1.031-1.502 1.498-.813.719-1.301 1.668-1.603 2.718-.615 2.131-.933 4.326-1.002 6.565-.009.318-.026.643.017.952.152 1.044.276 2.1.514 3.122.574 2.478 1.919 4.351 3.915 5.66.083.054.201.186.333.009-.385-.908-.184-1.677.457-2.381.569-.624 1.091-1.299 1.626-1.961.095-.117.25-.23.164-.441-.244.016-.382.227-.557.359-.773.583-1.577 1.097-2.47 1.425-.83.306-1.646-.076-1.962-.949-.106-.293-.227-.596-.261-.905-.089-.842-.141-1.687-.198-2.532-.029-.429.161-.722.48-.968.543-.416 1.169-.58 1.781-.791.675-.236 1.359-.435 2.031-.672.161-.057.382-.095.425-.423-.549-.044-1.089-.117-1.631-.126-.847-.016-1.66-.243-2.467-.473-.718-.205-1.063-.728-1.091-1.536-.032-.851.02-1.69.244-2.519a3.829 3.829 0 0 1 1.545-2.22c.264-.186.523-.189.822-.054.847.388 1.554.99 2.215 1.674.422.435.839.877 1.264 1.309.132.132.284.148.434.028l-.032.035.052.006a13.147 13.147 0 0 1-1.718-4.339c-.155-.766-.023-1.394.371-1.99.264-.4.566-.769.844-1.157.224-.312.514-.53.816-.738.434-.296.844-.268 1.249.082.517.445.885 1.018 1.192 1.646.075.151.089.347.325.388.08-.281.201-.564.238-.861.092-.706.54-1.072 1.077-1.204 1.281-.315 2.485-.088 3.53.864.293.265.46.58.485.993.023.337.06.672.092 1.028 1.152-.609 1.755-.517 2.668.375.313.306.606.634.922.936.936.886 1.307 2.068 1.462 3.358.06.495-.092.908-.506 1.163-.448.281-.902.545-1.344.832-.152.101-.371.154-.376.419-.075-.013-.149-.041-.187.069 0 0 .049.035.057.028.04-.035.075-.079.109-.12l.003.006zm2.025-7.328c-.095.136-.043.271.012.397.259.568.52 1.135.867 1.649.21.309.414.637.554.99a15.251 15.251 0 0 1 1.117 4.897c.017.315.037.64-.006.952-.233 1.671-.391 3.348-.882 4.972-.327 1.081-.715 2.09-1.33 3.027-1.083 1.649-2.289 3.128-3.878 4.216-1.608 1.1-3.306 1.87-5.216 2.043-1.666.151-3.295.009-4.788-.845-.885-.508-1.812-.908-2.7-1.4-1.456-.804-2.743-1.797-3.679-3.314-.529-.858-.997-1.725-1.272-2.712-.178-.64-.293-1.293-.402-1.955-.224-1.362-.333-2.712-.184-4.083.034-.315.032-.634.049-.952.009-.177.012-.356.04-.527.247-1.495.517-2.983.928-4.433A5.753 5.753 0 0 1 4.08 7.44c.638-.744 1.338-1.422 2.022-2.119.735-.747 1.514-1.428 2.441-1.87.353-.167.721-.312 1.051-.527.35-.23.712-.303 1.103-.315.322-.009.669.05.959-.063.997-.385 2.025-.359 3.05-.407.81-.038 1.609.006 2.387.277.181.063.376.107.566.114.882.032 1.709.318 2.53.631.098.038.21.183.316-.038-.218-.293-.439-.609-.755-.782-.603-.331-1.14-.804-1.795-1.022a2.226 2.226 0 0 0-.379-.082c-.669-.104-1.338-.192-2.005-.309a2.885 2.885 0 0 0-.959.009c-1.338.202-2.677.378-4.015.574a3.024 3.024 0 0 0-1.097.385c-.79.457-1.62.842-2.197 1.643-1.249.883-2.37 1.939-3.45 3.052-1.172 1.208-2.103 2.576-2.312 4.398-.04.347-.126.691-.21 1.031a7.655 7.655 0 0 0-.192 2.415c.04.53.072 1.066-.04 1.586-.155.732-.169 1.469-.192 2.213a4.99 4.99 0 0 0 .483 2.343c.319.662.537 1.362.704 2.078a5.72 5.72 0 0 0 .876 1.983c.31.451.626.902.888 1.384a4.095 4.095 0 0 0 1.597 1.649c.968.549 1.881 1.227 2.987 1.444.247.047.483.199.718.312.618.3 1.235.602 1.853.905.686.337 1.387.498 2.154.432.712-.06 1.39-.284 2.085-.407.982-.173 1.973-.277 2.944-.545 1.046-.287 2.022-.697 2.858-1.447.672-.602 1.31-1.252 1.976-1.863a5.367 5.367 0 0 0 1.005-1.277c.678-1.163 1.16-2.44 1.746-3.657.316-.653.664-1.315.842-2.018.405-1.602.666-3.238.615-4.919-.014-.501-.052-.99-.201-1.46a11.813 11.813 0 0 1-.396-1.744c-.144-.877-.376-1.756-.862-2.453-.595-.858-1.206-1.744-2.1-2.292h.009zm-8.276 7.306c.517.233.899.489 1.252.785.253.211.52.255.816.132.238-.101.485-.183.715-.306.635-.341 1.295-.615 1.942-.918.885-.413 1.735-.911 2.588-1.4.365-.208.434-.441.356-.877-.032-.173-.046-.356-.112-.514-.261-.634-.405-1.34-.902-1.832-.379-.378-.755-.763-1.143-1.132-.681-.653-1.229-.609-1.821.132-.083.104-.144.23-.207.353-.764 1.507-1.568 2.983-2.614 4.285-.296.369-.537.788-.873 1.29h.003zm8.209 2.547c.043-.508-.141-.977-.221-1.46-.057-.344-.181-.429-.468-.341-1.14.35-2.324.523-3.43 1.015-.175.079-.371.107-.557.158-.563.145-1.143.23-1.677.454-.33.139-.724.274-.931.668.129.517.583.476.916.609.511.205 1.054.322 1.534.624.959.605 2.028.877 3.079 1.195.184.057.379.073.572.088.632.05.738-.091.885-.716.172-.744.207-1.529.302-2.295h-.003zm-14.577.719c-.092.009-.158.013-.218.028-1.169.287-2.235.87-3.3 1.444a.582.582 0 0 0-.302.508c-.023.918 0 1.835.276 2.712.178.568.371.662.882.441 1.629-.713 3.071-1.734 4.234-3.191.319-.397.566-.854.776-1.334.098-.227 0-.397-.244-.438-.416-.069-.83-.095-1.241.044-.221.076-.434.107-.629-.091-.066-.066-.167-.088-.23-.12l-.003-.003zm3.867-7.955h.003c0-.426.02-.851-.003-1.271-.06-1.056-.454-1.967-1.06-2.781-.368-.492-.666-.552-1.135-.06a6.934 6.934 0 0 0-1.091 1.476c-.152.281-.287.586-.198.905.192.709.204 1.469.505 2.144.54 1.204 1.132 2.374 1.855 3.459.092.139.152.372.327.344.236-.038.236-.303.241-.504.009-.281-.02-.564-.032-.845-.009-.221.026-.46.187-.58.422-.309.393-.772.405-1.226.009-.353 0-.706 0-1.059h-.006zm.64 15.794h-.043c0 .318-.006.634 0 .952.014.646.123.769.689.955.936.309 1.847.006 2.76-.136a.296.296 0 0 0 .236-.388c-.195-.672-.353-1.362-.618-1.999-.595-1.441-1.307-2.819-1.818-4.304a4.604 4.604 0 0 0-.348-.75 2.36 2.36 0 0 0-.365-.486c-.055-.057-.215-.091-.256-.05-.201.202-.508.312-.48.722.04.561.034 1.126.06 1.69.055 1.264.118 2.529.175 3.79l.006.003zm-3.513-9.784c.011-.227 0-.397.034-.555.046-.202.129-.394.201-.59.141-.388.149-.397-.169-.697-.856-.801-1.709-1.605-2.582-2.384-.296-.265-.638-.476-.977-.675-.477-.281-.546-.255-.908.164-.767.892-.87 2.008-.87 3.15 0 .545.106.719.563.829.873.211 1.726.545 2.645.514.666-.022 1.341-.025 2.059.243h.003zm10.24 7.854c.35-.013.807-.432.747-.738-.129-.681-.327-1.346-.514-2.015-.026-.088-.129-.151-.201-.221a2.306 2.306 0 0 0-.744-.47c-.727-.281-1.439-.599-2.163-.892-.48-.195-.965-.381-1.451-.571-.132-.05-.247-.022-.342.101-.106.142-.192.296-.121.479.063.161.141.318.241.451.922 1.223 1.766 2.507 2.594 3.806.149.236.322.432.549.58.146.095.299.142.46.101.08-.019.161-.095.215-.17.02-.028-.012-.142-.049-.18-.066-.069-.172-.101-.236-.173-.207-.243-.207-.549-.017-.741.192-.195.46-.123.632.183.049.088.037.23.098.293.089.091.218.132.296.177h.006zm-9.654-.94c.247.262.437.53.207.927-.069.12.014.341.011.517-.006.252-.155.356-.393.312-.264-.05-.382-.221-.408-.504-.011-.12.072-.312-.126-.318-.072 0-.167.095-.218.17-.348.511-.727.99-1.158 1.419-.27.268-.325.612-.244.965.069.306.233.574.457.795.508.508 1.117.498 1.732.413.569-.079.744-.618.939-1.1.092-.224.172-.46.21-.7.21-1.356.405-2.715.597-4.074.037-.255.161-.517.023-.848-.643.605-1.126 1.293-1.626 2.027h-.003zm1.864-4.345c.373-.205.646-.366.761-.801.115-.429.46-.451.738-.12.086.104.155.227.241.331.152.183.33.407.569.284.152-.079.037-.318.043-.489.006-.098.029-.236.089-.284.253-.195.31-.41.158-.719-.118-.24-.032-.473.103-.694.052-.082.063-.202-.029-.284-.241-.218-.422-.539-.813-.463-.419.079-.744-.123-1.008-.473-.19-.249-.325-.132-.416.104-.155.4-.454.46-.796.426-.126-.013-.253-.054-.379-.073-.514-.076-.58-.013-.445.514.083.322.106.593-.089.892-.169.259-.115.407.141.429.477.041.773.312.957.76.078.189.109.404.172.662l.003-.003zm-.12.931c-.014-.066-.011-.158-.049-.189-.086-.073-.158 0-.215.079-.06.079-.132.151-.175.24-.049.101-.21.221-.017.325.115.06.244.016.345-.079.106-.098.115-.233.115-.372l-.003-.003z" opacity=".08" style="fill:var(--color1, #fcfcfc)"/>
      <path fill="#fcfcfc" d="M18.462 13.413c-.06-.013-.135-.006-.178-.044a.673.673 0 0 1-.167-.227c-.046-.104 0-.205.083-.259.103-.069.215-.142.333-.173.21-.057.379.066.422.281.046.218-.063.356-.31.397l-.184.025zM19.105 10.651c-.192.025-.302-.066-.316-.277-.02-.252.121-.448.304-.422.213.032.454.312.405.498-.055.214-.241.18-.391.202h-.003zM20.561 10.96c-.012.158-.078.277-.23.274-.138-.006-.342.107-.382-.164-.026-.183 0-.359.192-.426.172-.06.394.114.419.318v-.003zM20.837 10.197c-.034.202-.198.208-.35.208-.247 0-.368-.126-.368-.353 0-.18.135-.325.296-.318.25.013.431.199.422.467v-.003zM20.932 12.12c.215.009.336.155.405.356.049.145-.095.274-.296.271-.158 0-.313-.013-.333-.246-.017-.183.095-.375.227-.385l-.003.003zM17.201 12.943c-.02.195-.172.29-.425.259-.187-.022-.276-.139-.256-.337.023-.23.184-.369.379-.347s.322.202.299.426h.003zM18.786 11.095c.221-.006.477.24.431.432a.202.202 0 0 1-.129.123c-.261.047-.491-.12-.477-.341a.223.223 0 0 1 .175-.218v.003zM15.822 10.118c.003.284-.276.634-.592.719-.118.031-.273.069-.33-.088-.043-.12-.066-.309-.006-.397a2.41 2.41 0 0 1 .474-.498c.109-.095.454.12.454.265zM14.762 12.322c-.284.022-.396-.028-.422-.186-.029-.177 0-.344.169-.429a.486.486 0 0 1 .451.003c.121.06.198.177.172.322-.017.088-.08.199-.152.236-.106.057-.238.057-.215.054h-.003zM14.42 5.864c.092-.151.215-.262.388-.268.178-.006.31.107.362.284.046.158-.078.233-.195.306-.35.214-.368.205-.531-.356a.44.44 0 0 1-.02.038l-.003-.003zM15.067 9.049c.014.18-.236.404-.48.391-.072-.003-.175-.104-.198-.183-.069-.255.086-.549.276-.574.164-.022.385.18.399.366h.003zM16.075 7.712c-.026.139-.29.287-.465.262-.155-.022-.256-.249-.218-.498.023-.161.123-.24.261-.224.247.032.46.274.422.46zM16.994 8.633c-.037.202-.259.363-.439.328-.213-.044-.184-.236-.164-.4.026-.205.164-.303.322-.236.144.06.29.126.281.309zM22.087 18.997c-.201 0-.362-.164-.365-.382-.003-.271.198-.536.382-.476.195.063.316.218.325.451.009.218-.152.407-.342.407zM18.763 17.404c-.31-.006-.448-.136-.422-.394.026-.255.21-.407.465-.381a.421.421 0 0 1 .382.486c-.046.246-.213.318-.425.29zM22.437 15.509c.19-.025.327.11.365.375.032.218-.063.397-.207.394-.25-.006-.48-.199-.468-.422.009-.195.123-.309.31-.347zM21.455 16.903c-.187-.013-.345-.293-.299-.564.034-.214.19-.265.362-.246.215.025.336.199.325.432-.012.202-.201.388-.385.375l-.003.003zM21.182 17.395c-.006.028-.009.066-.026.091-.135.202-.537.154-.641-.076a.394.394 0 0 1 .026-.391c.115-.173.267-.129.417-.041s.241.211.227.416h-.003zM7.36 20.359c0 .224-.167.385-.382.366-.192-.016-.336-.192-.35-.426s.135-.419.336-.426c.233-.006.396.192.396.486zM9.805 19.176c-.037.054-.066.129-.112.151-.19.091-.494-.054-.563-.259-.055-.167.052-.426.227-.52.086-.047.184-.047.253.054.121.17.181.363.195.574zM8.886 19.321c-.034.186-.169.246-.339.227-.27-.032-.442-.233-.402-.454.04-.211.198-.249.353-.255.238-.009.405.199.385.482h.003zM11.706 10.963c-.299-.009-.483-.161-.448-.382.029-.18.118-.325.284-.363.224-.054.477.262.434.527-.026.158-.132.218-.27.218zM11.583 9.427c.006.177-.06.249-.218.259-.192.013-.376.054-.434-.233-.043-.224.075-.479.23-.476.192 0 .385.211.422.451zM11.873 7.696c-.144.006-.247-.06-.253-.227-.006-.195.092-.356.258-.378.158-.022.307.091.376.262.06.158-.144.334-.382.344zM10.537 8.191c-.213.006-.31-.114-.319-.3-.006-.129.029-.271.195-.265.224.009.371.154.359.353-.011.177-.138.192-.236.211zM11.137 6.671c-.046.057-.095.17-.167.196-.201.072-.471-.158-.451-.375.009-.117.101-.183.198-.189a.41.41 0 0 1 .422.366l-.003.003zM15.268 25.271c.247-.022.503-.054.692.173.109.129.172.287.121.467-.046.154-.164.189-.293.202-.092.009-.187.028-.279.028-.365 0-.434-.11-.425-.681l-.02.022.224-.246-.02.038v-.003zM14.104 20.551c.207-.025.365.113.393.34.037.287-.098.539-.293.558-.23.022-.437-.158-.465-.404-.032-.262.118-.463.365-.495z" opacity=".08" style="fill:var(--color1, #fcfcfc)"/>
      <path fill="#fcfcfc" d="M15.081 25.46a.594.594 0 0 1-.529-.199c-.115-.129-.192-.29-.135-.479.046-.151.169-.202.302-.214.169-.019.333.025.408.205.066.154.095.331.141.498l.02-.038c-.132.019-.175.136-.224.246l.02-.022-.003.003zM15.064 23.039c-.003.211-.152.34-.402.347-.244.006-.379-.12-.376-.359 0-.309.164-.52.379-.495.233.028.402.243.399.508zM6.516 13.438c.218-.287.485-.281.776-.164.224.088.402.038.597-.145.218-.205.431-.114.603.189.08.139.055.296-.089.337-.425.12-.856.221-1.287.3-.425.079-.428.063-.574-.555l-.026.038zM5.881 11.177c.29.032.577.309.606.583a.266.266 0 0 1-.063.183c-.129.151-.457.173-.612.054-.149-.12-.238-.476-.141-.659.043-.079.146-.117.207-.161h.003zM6.545 13.4c-.121.025-.241.054-.362.076-.115.019-.253.114-.327-.054-.083-.192-.101-.407.04-.58.121-.151.284-.12.428-.035.238.139.238.378.195.627l.026-.035zM20.07 21.491c-.009.24-.21.397-.485.388-.25-.009-.416-.221-.382-.486.034-.268.238-.448.468-.41s.408.265.399.508zM18.238 19.933c-.023.284-.178.426-.448.407-.172-.013-.316-.218-.307-.438.012-.249.207-.429.451-.407.195.016.322.199.304.441v-.003zM10.244 24.804c.236.016.359.202.342.508-.014.236-.135.353-.373.359-.264.006-.417-.164-.399-.441.017-.281.181-.441.431-.426z" opacity=".08" style="fill:var(--color1, #fcfcfc)"/>
    </symbol>
    <symbol id="icon-banana" viewBox="0 0 30 32">
      <path fill="#fcfcfc" d="M6.36 18.645c-.951-.169-1.822-.523-2.663-1.003-1.275-.727-2.136-1.846-2.684-3.279-.275-.72-.394-1.467-.301-2.241a1.672 1.672 0 0 0-.189-.984c-.142-.28-.245-.574-.211-.904.024-.224.099-.414.31-.49.318-.115.626-.273.974-.283.626-.016 1.23.005 1.839.268a7.853 7.853 0 0 0 4.033.624c.912-.097 1.82-.179 2.723-.363 1.312-.264 2.555-.732 3.758-1.358 1.004-.525 1.908-1.234 2.871-1.832.314-.195.622-.405.94-.589.813-.468 1.551-1.064 2.297-1.646.333-.259.665-.525 1-.779.624-.473 1.306-.817 2.069-.857.35-.019.602-.177.82-.424.318-.363.598-.758.675-1.281.026-.181.095-.353.144-.53.165-.605.32-.796.858-.652.579.158 1.142.042 1.71.104.071.007.144.007.215.026a.4.4 0 0 1 .284.224c.288.647.523 1.309.351 2.053-.105.459-.204.923-.308 1.382-.08.355-.069.65.249.904.267.214.475.52.699.798.452.56.635 1.21.628 1.963-.011 1.441-.286 2.827-.654 4.195a47.425 47.425 0 0 1-1.843 5.49c-.624 1.542-1.258 3.082-2.131 4.485-1.039 1.664-2.194 3.202-3.736 4.355-.794.593-1.544 1.257-2.316 1.886a9.366 9.366 0 0 1-1.349.916c-.643.358-1.278.737-1.919 1.104-.127.073-.26.139-.394.198-1.633.727-3.302 1.311-5.052 1.605-.946.16-1.82-.061-2.678-.424-.381-.162-.746-.367-1.153-.457a.859.859 0 0 1-.271-.099c-.333-.21-.669-.419-.992-.647-.303-.214-.282-.539.052-.723.282-.155.546-.332.785-.56.077-.075.138-.158.114-.271-.118-.605.129-1.01.576-1.321.093-.064.062-.214-.041-.247-.254-.08-.508-.155-.761-.235-1.138-.358-2.078-1.083-2.964-1.911-.239-.224-.462-.466-.712-.671-.624-.511-.998-1.208-1.263-1.985-.151-.443-.258-.887-.579-1.25-.232-.261-.196-.643-.086-.979.077-.238.247-.4.475-.44.404-.071.798-.202 1.213-.202.819-.005 1.639-.038 2.458-.045.753-.007 1.467-.165 2.136-.614l-.009-.005zM24.528 2.993c-.129.026-.254.118-.26.24-.017.363-.209.476-.482.407-.723-.181-1.325.111-1.908.52-.566.4-1.131.8-1.667 1.252-.456.386-.931.76-1.437 1.059-1.168.692-2.276 1.488-3.42 2.218-1.211.772-2.473 1.424-3.867 1.711-.568.118-1.138.224-1.704.355a8.05 8.05 0 0 1-1.794.202c-.12 0-.243-.007-.361.014-1.564.257-3.074-.038-4.556-.546-.551-.188-1.095-.153-1.645-.115-.209.014-.301.174-.219.388.168.443.297.89.265 1.38-.088 1.344.398 2.469 1.138 3.486a5.05 5.05 0 0 0 1.194 1.142c.905.633 1.858 1.097 2.97 1.083.503-.007 1.011.007 1.514.021.4.012.755-.059 1.106-.235.458-.231.916-.457 1.364-.72 1.852-1.092 3.57-2.401 5.248-3.783.116-.094.224-.202.329-.308.89-.887 1.779-1.782 2.579-2.768.753-.925 1.518-1.843 2.095-2.921a7.642 7.642 0 0 1 1.142-1.629c.549-.586 1.054-1.245 1.824-1.514.144-.049.237-.172.297-.325.086-.217.176-.428.263-.638-.047.021-.056.014-.022-.024l.011.045.004.002zM8.076 26.576c.361.014.718-.047 1.075-.118.925-.181 1.863-.32 2.74-.704 1.998-.873 3.895-1.949 5.599-3.409.342-.292.675-.603 1.041-.855.581-.398 1.045-.932 1.516-1.46.202-.226.419-.436.619-.662.637-.72 1.241-1.462 1.718-2.331.37-.673.684-1.396 1.17-1.989.243-.297.432-.633.641-.956.585-.909 1.052-1.893 1.561-2.848.377-.702.792-1.372.979-2.192.263-1.161.377-2.291-.191-3.373-.443-.847-.437-1.707-.125-2.587.097-.275.12-.565.153-.852.015-.144-.039-.259-.174-.301-.093-.028-.189-.04-.282-.071-.17-.056-.271.021-.342.188-.228.523-.514 1.019-.645 1.587-.088.379-.219.683-.624.739-.086.012-.163.108-.241.167-.852.657-1.63 1.396-2.239 2.333-.028.042-.058.085-.082.129-.417.807-.966 1.511-1.482 2.239-.237.332-.48.662-.738.972-.323.391-.667.76-.996 1.146-.643.753-1.306 1.492-2.05 2.114-1.187.991-2.377 1.987-3.656 2.832-.804.53-1.589 1.099-2.465 1.492-1.248.56-2.499 1.116-3.781 1.575-.755.268-1.514.525-2.321.558-.964.04-1.925.108-2.886.174-.189.014-.379.071-.564.122-.2.059-.256.186-.135.337.314.388.443.869.585 1.344.12.403.262.81.544 1.102.591.617 1.209 1.208 1.824 1.799.366.351.811.565 1.232.819.942.563 1.94.921 3.026.937h-.006zM27.152 5.081c-.021.271.091.388.155.523.31.624.432 1.288.344 1.989a11.903 11.903 0 0 1-.559 2.451c-.06.172-.14.337-.23.49a22.467 22.467 0 0 0-.828 1.573c-.411.869-.912 1.669-1.366 2.505a8.208 8.208 0 0 1-.619.972 12.098 12.098 0 0 0-.994 1.554c-.206.386-.428.767-.665 1.132-.843 1.302-1.925 2.359-3.003 3.413-.108.106-.226.2-.342.294-.738.593-1.476 1.186-2.218 1.775a3.669 3.669 0 0 1-.548.379c-.669.363-1.306.789-1.977 1.146-.759.405-1.54.749-2.297 1.154-.17.092-.368.12-.551.184-.693.245-1.42.294-2.125.471-.497.125-.998.207-1.506.155-.269-.028-.465.061-.63.283a2.346 2.346 0 0 1-.301.341c-.239.212-.385.464-.379.812a.873.873 0 0 1-.409.786.873.873 0 0 0-.161.155c-.116.137-.084.323.08.367.542.146 1.041.398 1.538.669.256.139.538.238.817.313.467.127.946.214 1.428.153.791-.101 1.564-.318 2.316-.584 1.121-.398 2.254-.756 3.304-1.38.931-.553 1.893-1.048 2.755-1.728.94-.739 1.865-1.502 2.79-2.26.213-.174.409-.37.609-.56.942-.883 1.675-1.966 2.394-3.058.198-.299.422-.586.572-.913a112.293 112.293 0 0 0 1.671-3.769c.34-.815.605-1.667.901-2.5.148-.417.316-.829.441-1.252.398-1.356.783-2.714 1.024-4.117.101-.581.084-1.156.064-1.733a1.814 1.814 0 0 0-.325-.953c-.318-.466-.671-.899-1.179-1.224l.006-.007zm-.376-3.877c.172-.009.243 0 .31-.019.032-.007.075-.061.073-.092 0-.038-.037-.094-.069-.111a.76.76 0 0 0-.48-.033c-.064.014-.138.054-.099.153.015.04.056.092.09.097.09.014.185.005.174.005zm.271 2.806c-.004-.021-.011-.042-.015-.064-.013.028-.03.057-.039.087-.002.009.019.028.032.042.007-.021.015-.042.021-.064v-.002zm.264-1.234-.028.052.039.009-.013-.061h.002z" opacity=".08" style="fill:var(--color1, #fcfcfc)"/>
      <path fill="#fcfcfc" d="M20.16 15.514c-.101.012-.127-.066-.14-.141-.024-.139.043-.257.108-.367.286-.483.572-.968.871-1.443.652-1.038 1.31-2.072 1.97-3.105.094-.148.196-.299.318-.421.097-.099.222-.071.323.028.08.078.11.172.06.278-.142.304-.282.607-.432.906-.581 1.154-1.314 2.192-1.992 3.275-.25.4-.624.647-.955.949-.032.031-.088.028-.129.04l-.002.002zM15.865 20.402c-.069-.047-.146-.071-.185-.127-.088-.127-.174-.287-.073-.431.114-.165.254-.32.411-.436 1.054-.772 1.914-1.759 2.686-2.846.088-.125.189-.24.299-.341.14-.132.31-.144.475-.059.09.047.166.144.118.252-.08.188-.166.386-.288.541-.755.956-1.482 1.945-2.433 2.686-.254.198-.503.405-.759.605-.077.059-.166.101-.254.155h.002zM5.642 24.877c-.189-.019-.29-.012-.381-.04-.6-.195-1.2-.388-1.734-.763a3.466 3.466 0 0 1-.346-.285c-.237-.219-.316-.461-.206-.598s.37-.151.609-.016c.105.059.2.146.301.217.387.271.8.48 1.228.659.23.097.452.146.703.097.26-.052.527-.061.792-.075.168-.007.338.005.503.026.12.016.232.08.243.235.006.125-.088.174-.172.226-.021.012-.043.028-.067.033l-1.471.287-.002-.002zM13.038 22.697c.011.141-.032.212-.099.238-.843.334-1.54.944-2.297 1.441-.144.094-.288.181-.467.169-.131-.009-.226-.066-.273-.205s-.015-.266.088-.348c.23-.186.462-.374.71-.532.536-.341 1.022-.777 1.637-.956.163-.047.325-.106.49-.035.116.049.2.134.213.226l-.002.002zM25.647 5.705c.019.426-.093.697-.372.871-.093.056-.286-.04-.275-.153.032-.36.075-.723.131-1.078.015-.092.095-.2.204-.167a.52.52 0 0 1 .237.158c.101.127.069.297.077.37h-.002zM25.589 7.654a.336.336 0 0 1-.355-.306c-.019-.198.125-.396.277-.374.17.024.376.24.383.403.004.118-.165.273-.305.278zM4.839 21.572c.252.024.357.155.437.327.011.021.021.052.015.071-.049.141-.163.179-.286.195-.196.026-.316-.042-.344-.186-.039-.202.09-.414.176-.407h.002zM9.006 25.402c.153 0 .265.125.258.287-.009.176-.103.28-.252.313-.153.033-.32-.129-.338-.304-.017-.167.131-.297.333-.297h-.002zM7.04 25.983c-.146-.007-.254-.148-.249-.325.006-.207.146-.337.336-.311.159.021.277.16.262.313-.015.181-.176.33-.348.322zM3.03 22.283c0 .186-.172.351-.34.313-.127-.028-.207-.123-.215-.276-.011-.172.095-.294.26-.301.17-.007.297.106.297.261l-.002.002zM25.797 9.215c0 .169-.088.247-.215.273-.146.031-.299-.082-.323-.226s.095-.348.209-.363c.144-.019.323.16.331.315h-.002zM11.311 25.239c.017.172-.08.29-.245.301-.168.012-.293-.08-.318-.233s.075-.268.256-.29c.183-.021.29.057.305.221h.002zM3.876 21.736c-.058-.024-.155-.042-.226-.099-.069-.056-.151-.146-.09-.257.032-.059.097-.122.155-.134a.533.533 0 0 1 .271.026c.114.042.211.129.194.282-.019.172-.157.155-.301.181h-.002zM2.704 21.548c-.133-.033-.217-.134-.217-.311a.2.2 0 0 1 .239-.198.283.283 0 0 1 .243.304.233.233 0 0 1-.265.207v-.002zM11.767 13.309c.06.009-.037.007-.127-.021-.127-.038-.2-.137-.209-.283a.281.281 0 0 1 .185-.299.493.493 0 0 1 .14-.038c1.144-.12 2.179-.624 3.213-1.116.727-.346 1.445-.711 2.168-1.064.088-.042.176-.092.269-.106.062-.009.151.016.191.066.039.045.062.158.037.21-.125.254-.262.483-.527.617-.52.266-1.024.574-1.564.805-.781.337-1.544.718-2.349.993a4.102 4.102 0 0 1-1.43.235h.002zM7.457 13.309c.383-.026.785.031 1.185.108.054.009.116.094.136.158a.149.149 0 0 1-.088.184c-.088.04-.172.106-.265.118a7.381 7.381 0 0 1-1.572.031.39.39 0 0 1-.247-.137.488.488 0 0 1-.086-.283c0-.118.095-.174.198-.177.239-.005.478 0 .742 0l-.002-.002zM3.506 13.125c-.443.113-.723-.353-1.035-.737a.317.317 0 0 1-.024-.363.297.297 0 0 1 .379-.122c.043.019.092.035.127.068.344.32.695.629 1.116.819.073.033.09.113.077.193-.013.092-.084.129-.151.139-.116.012-.237.002-.49.002zM3.637 14.024c-.174-.009-.344-.177-.336-.332.006-.137.163-.294.29-.297.161 0 .329.172.329.341 0 .144-.148.294-.284.287zM4.25 15.345c-.052.181-.2.261-.387.207-.157-.045-.23-.172-.196-.341.039-.195.189-.275.372-.2.166.068.25.2.211.334zM6.295 15.639c0 .148-.071.245-.198.275-.155.035-.338-.12-.348-.294-.009-.146.065-.242.198-.266a.299.299 0 0 1 .348.285zM5.74 16.597c-.017.118-.159.224-.269.2-.161-.033-.282-.245-.23-.417.026-.082.095-.115.168-.106.204.021.353.172.331.323zM7.255 16.47c.133-.009.194.092.207.231.006.08-.037.16-.112.165-.14.005-.194-.111-.222-.24-.019-.094.037-.137.127-.155zM18.282 25.621c.043 0-.024-.071-.071-.167-.054-.111-.021-.205.054-.28.348-.363.69-.73 1.05-1.078.271-.264.523-.542.746-.852a19.78 19.78 0 0 1 1.557-1.862c.258-.275.495-.574.746-.855.084-.092.183-.169.286-.233.09-.054.187-.014.267.054.082.071.123.174.09.278-.047.148-.097.304-.185.424-.241.327-.477.666-.757.951-.564.577-1.067 1.212-1.559 1.86a7.075 7.075 0 0 1-1.611 1.566c-.142.099-.282.203-.613.2v-.005zM15.542 27.537c-.015.05-.017.123-.047.144-.428.285-.819.64-1.293.84-.176.075-.359.162-.559.12-.136-.028-.189-.146-.23-.273a.224.224 0 0 1 .101-.268 7.505 7.505 0 0 1 1.822-.713c.084-.019.198.005.207.151zM8.978 29.458c.323.023.54-.031.74.099.105.068.136.249.034.322-.415.299-.869.424-1.361.344a.331.331 0 0 1-.183-.116c-.084-.094-.138-.212-.101-.353a.25.25 0 0 1 .2-.198c.258-.045.518-.08.671-.101v.002zM25.212 16.284c-.015.052-.028.191-.09.294-.114.198-.25.381-.389.558-.082.104-.131.339-.312.195-.131-.104-.241-.287-.183-.478.114-.384.344-.68.673-.873.123-.073.303.068.303.301l-.002.002zM11.399 30.564c-.194.012-.331-.106-.348-.292-.015-.181.12-.325.31-.325.155 0 .295.111.312.247.024.181-.11.36-.275.37h.002zM12.438 27.782c-.017.038-.032.125-.08.169a.352.352 0 0 1-.518-.009.391.391 0 0 1-.082-.205c-.017-.137.116-.24.303-.249.224-.012.372.089.374.294h.002zM10.892 28.947c.011.162-.108.297-.265.29-.151-.007-.275-.071-.312-.252-.028-.139.099-.266.273-.278.179-.012.293.08.303.24z" opacity=".08" style="fill:var(--color1, #fcfcfc)"/>
    </symbol>
    <symbol id="icon-lemon" viewBox="0 0 23 32">
      <path fill="#fcfcfc" d="M20.927 18.632a38.376 38.376 0 0 1-2.89 4.726c-1.18 1.659-2.605 2.99-4.184 4.15a25.97 25.97 0 0 1-3.788 2.318c-.746.371-1.533.558-2.333.655-.419.05-.77.174-1.087.498-.434.445-1.012.579-1.554.759-.413.137-.782-.11-1.069-.458-.069-.08-.099-.201-.171-.278-.365-.378-.114-1.084-.689-1.405-.434-.241-.611-.87-.868-1.328C1.605 27.035.818 25.844.431 24.42c-.467-1.719-.599-3.458-.174-5.207.386-1.589.806-3.171 1.243-4.742.138-.498.332-.99.575-1.431a137.41 137.41 0 0 1 2.393-4.164c.258-.431.611-.793.928-1.177.865-1.043 1.716-2.107 2.752-2.95 1.057-.863 2.141-1.679 3.372-2.221.916-.405 1.857-.642 2.851-.592.234.01.47-.01.704-.02.287-.01.515-.144.686-.405.099-.151.216-.291.293-.455.473-.997 1.297-1.127 2.159-1.03.734.084 1.183.649 1.446 1.388.186.525.287 1.08.314 1.642.018.365.135.625.386.863.731.686 1.258 1.538 1.617 2.535.192.528.311 1.064.365 1.625.063.632.108 1.271.204 1.896.117.786.081 1.565.012 2.351-.153 1.759-.479 3.472-1.084 5.114a8.412 8.412 0 0 1-.548 1.194v-.003zm-.647-1.124c.931-1.88 1.219-4.13 1.324-6.428.006-.147-.015-.298-.033-.448-.114-.967-.228-1.93-.347-2.893a4.846 4.846 0 0 0-1.566-3.047c-.431-.395-.674-.789-.659-1.408a3.382 3.382 0 0 0-.093-.776 4.218 4.218 0 0 0-.258-.849c-.231-.512-.587-.649-1.096-.505-.356.1-.575.358-.734.706-.413.916-1.117 1.234-1.995 1.191-.234-.01-.47.003-.704.017-.743.037-1.455.217-2.159.485-1.327.508-2.438 1.425-3.516 2.365-1.054.916-1.95 2.047-2.794 3.211-.848 1.167-1.491 2.485-2.222 3.742-.479.823-.85 1.692-1.099 2.629-.368 1.398-.782 2.789-1.06 4.211a8.603 8.603 0 0 0 .362 4.629c.38 1.06.985 1.953 1.521 2.9.12.211.273.288.491.311.473.05.695.388.737.9.027.334.051.672.096 1.003.036.258.078.518.156.763.135.421.335.522.695.368.374-.161.77-.298 1.033-.662.252-.348.587-.448.967-.515.895-.154 1.782-.378 2.608-.786a20.42 20.42 0 0 0 3.669-2.321c1.47-1.177 2.878-2.438 3.944-4.117.928-1.465 1.917-2.883 2.728-4.672h.003z" opacity=".08" style="fill:var(--color1, #fcfcfc)"/>
      <path fill="#fcfcfc" d="M6.885 17.127c-.084.171-.195.237-.341.224-.153-.013-.24-.12-.284-.271-.108-.351.039-.649.32-.659.323-.013.464.338.302.706h.003zM5.819 21.277c-.114.14-.249.244-.428.14-.237-.134-.335-.505-.216-.773.072-.164.359-.197.539-.064.192.14.24.445.105.696zM5.738 26.883c-.12.207-.267.268-.446.187-.204-.09-.299-.291-.374-.502a.284.284 0 0 1 .021-.204c.093-.161.428-.171.647-.03.189.12.252.375.153.545v.003zM3.914 20.518c-.081.191-.24.274-.401.254-.213-.027-.395-.442-.35-.702.033-.191.284-.281.491-.174a.51.51 0 0 1 .258.622h.003zM4.321 23.314c-.117.194-.368.278-.515.171-.204-.151-.317-.475-.234-.669.09-.201.389-.237.617-.074a.44.44 0 0 1 .132.572zM7.912 11.779c-.075.221-.299.385-.446.321-.21-.09-.335-.472-.231-.742.081-.204.246-.214.41-.164.249.077.353.321.264.585h.003zM9.718 25.712c.228.117.32.328.219.522-.09.171-.234.274-.41.234-.201-.047-.371-.415-.311-.612.063-.201.273-.261.503-.144zM5.028 17.622c-.051.171-.338.338-.488.284-.18-.067-.335-.408-.29-.635.039-.201.285-.331.476-.254.231.09.374.375.302.609v-.003zM8.232 27.154c-.24-.124-.374-.431-.276-.609.096-.171.38-.224.623-.117.15.067.204.278.117.462-.117.244-.302.351-.467.264h.003zM5.864 15.007c-.087.224-.314.338-.47.237-.195-.127-.29-.451-.18-.662.105-.201.269-.167.425-.09.225.11.305.308.225.515zM6.558 26.241c-.189-.09-.32-.345-.276-.528.042-.174.302-.268.515-.167.192.09.201.264.138.458-.066.201-.18.298-.377.237zM6.166 23.408c-.084.117-.186.224-.332.157-.207-.094-.344-.492-.228-.649.099-.13.243-.107.371-.057.204.077.284.321.189.545v.003zM13.368 5.328c-.084.07-.168.147-.258.043-.087-.1-.183-.211-.228-.334-.063-.167.069-.415.207-.431.153-.02.24.087.299.221.078.174.096.348-.018.505l-.003-.003zM11.622 5.706c-.195-.114-.255-.324-.168-.555.045-.12.141-.151.234-.12a.398.398 0 0 1 .24.508c-.054.13-.159.231-.302.164l-.003.003zM8.879 8.197c-.057.097-.141.154-.24.124-.216-.07-.177-.254-.138-.431.027-.114.096-.184.204-.134.138.064.222.291.174.445v-.003z" opacity=".08" style="fill:var(--color1, #fcfcfc)"/>
    </symbol>
    <symbol id="icon-watermelon" viewBox="0 0 30 32">
      <path fill="#fcfcfc" d="M0 12.646c-.006-1.44.337-2.809.659-4.174.178-.749.554-1.407.939-2.053.711-1.192 1.41-2.397 2.106-3.601.489-.849.968-1.705 1.59-2.442.065-.076.117-.169.184-.243.138-.15.314-.184.439-.043.213.241.502.408.625.746.111.308.31.527.506.761a13.35 13.35 0 0 0 2.154 2.049c.937.706 1.815 1.512 2.671 2.347.284.279.577.546.872.811.903.813 1.705 1.758 2.56 2.628.717.73 1.449 1.433 2.19 2.13.868.818 1.813 1.514 2.685 2.32.399.37.803.735 1.205 1.104 1.021.94 2.054 1.863 3.022 2.871.172.179.368.331.556.491.473.398.933.808 1.311 1.328.134.184.297.348.468.482.312.241.602.508.868.808.55.622 1.175 1.135 1.817 1.629.558.432.609.952.222 1.567a5.427 5.427 0 0 1-.312.434c-.326.42-.651.839-.985 1.25-.303.37-.621.706-1.048.918-.471.234-.916.544-1.349.858-1.286.94-2.696 1.614-4.043 2.418-.391.234-.828.367-1.247.544-.55.229-1.1.456-1.65.682-.682.281-1.355.606-2.11.494-.088-.014-.182.036-.274.05-.372.06-.753.098-1.121.029-.604-.117-1.211-.117-1.822-.126-1.073-.014-2.077-.379-3.047-.868-.512-.26-1.002-.577-1.504-.866-1.18-.677-2.225-1.576-3.221-2.554-.195-.191-.356-.424-.527-.644s-.326-.458-.506-.668c-.46-.541-.83-1.157-1.167-1.801-.264-.506-.546-.997-.814-1.5-.121-.229-.257-.453-.341-.701-.32-.947-.797-1.813-1.096-2.771-.274-.878-.592-1.739-.876-2.611-.429-1.316-.584-2.685-.59-4.081l-.002-.002zm28.032 12.299c.073 0 .082-.05.044-.043-.09.021.011-.036-.027.062-.071.024-.084.043-.035.05.002 0 .012-.048.019-.072v.002zm-.824.684c.318-.055.349-.098.322-.429.048-.005.044.031.021.021-.085-.041.004.067-.006-.038-.063.205-.32.184-.366.408-.201.007-.326.145-.42.329-.113.029-.247.024-.337.093-.374.291-.801.436-1.213.625-.305.138-.613.272-.904.444-.694.408-1.449.606-2.198.801-1.144.298-2.317.408-3.489.439-.671.019-1.355-.024-2.006-.308a3.248 3.248 0 0 0-.818-.22c-.494-.079-.952-.269-1.399-.513-.592-.322-1.186-.644-1.82-.851-.272-.091-.51-.251-.749-.429-.646-.484-1.251-1.037-1.943-1.443a1.063 1.063 0 0 1-.333-.291c-.402-.558-.811-1.104-1.29-1.579-.799-1.316-1.74-2.509-2.506-3.856-.533-.94-.95-1.951-1.454-2.907a7.477 7.477 0 0 1-.6-1.533c-.381-1.409-.646-2.843-.571-4.336.013-.236-.013-.475-.021-.713a3.79 3.79 0 0 0-.23.985c-.059.529-.126 1.061-.136 1.595-.027 1.443.333 2.795.816 4.109.307.837.63 1.669.985 2.483.439 1.002.864 2.018 1.474 2.91A17.165 17.165 0 0 0 7.889 23.7c1.023 1.056 1.997 2.194 3.328 2.771.044.019.082.052.121.081.659.465 1.324.911 2.075 1.166a.985.985 0 0 1 .249.146c.734.541 1.558.711 2.409.77.305.021.609.04.899.16.316.129.636.15.968.072.205-.048.42-.043.63-.06 1.05-.088 2.102-.16 3.125-.491.652-.212 1.318-.375 1.976-.553a7.064 7.064 0 0 0 2.844-1.502c.107-.093.257-.153.228-.358.22.05.362-.069.464-.277v.005zM3.183 7.981c.272-.079.245-.379.293-.584.236-.983.556-1.917 1.012-2.8.32-.618.569-1.285.832-1.939.192-.482.287-1.011.527-1.471.01-.021-.025-.105-.052-.117-.036-.014-.103.002-.121.033-.125.193-.255.384-.356.591-.284.582-.548 1.178-.835 1.76a12.399 12.399 0 0 0-.95 2.747c-.132.591-.234 1.192-.345 1.798.01.212-.107.429 0 .694.09-.277.033-.494-.006-.711V7.98zm6.538 21.483h.01l-.023.029c.036-.122-.036-.193-.096-.274-.184-.243-.416-.46-.531-.739-.232-.561-.611-.856-1.113-1.009-.134-.041-.272-.086-.366-.22-.337-.477-.786-.844-1.056-1.386a1.285 1.285 0 0 0-.368-.47c-.213-.165-.402-.367-.615-.532a1.421 1.421 0 0 1-.521-.825c-.031-.129-.065-.255-.094-.386-.13-.618-.372-1.145-.86-1.502-.351-.258-.544-.658-.642-1.114-.04-.181-.044-.37-.067-.556-.092-.696-.253-1.357-.69-1.894a2.131 2.131 0 0 1-.274-.465 3.678 3.678 0 0 0-.711-1.08c-.215-.219-.274-.489-.251-.794.015-.186.042-.37.073-.553.052-.293.067-.596-.008-.873-.098-.365-.115-.735-.132-1.107a2.369 2.369 0 0 0-.232-.916c-.125-.26-.144-.599-.431-.861-.017.565-.071 1.047-.04 1.524.102 1.61.441 3.165.937 4.67.611 1.853 1.353 3.639 2.288 5.311.339.606.613 1.266 1.044 1.801.521.646.989 1.348 1.594 1.913.489.458.993.897 1.514 1.297.519.398 1.039.82 1.661 1.011zM2.61 5.93c-.01.198-.115.341-.205.498-.257.446-.535.88-.749 1.355-.232.51-.514 1.033-.245 1.657.063.145-.029.31-.052.467-.115.775-.14 1.55.174 2.278.406.937.307 1.991.548 2.967.023.098-.004.212-.019.317-.073.549-.023 1.047.36 1.455.134.143.222.343.328.517.565.921 1.144 1.836 1.253 3 .061.632.351 1.09.795 1.44.385.305.604.735.722 1.24.023.103.061.203.077.308.088.57.366.985.814 1.231.358.198.561.52.759.899.324.62.717 1.166 1.38 1.398.376.131.745.393.941.804.287.601.738 1.033 1.098 1.555.132.191.284.253.494.186.293-.095.59-.162.883-.257a.694.694 0 0 1 .673.119c.441.355.958.553 1.405.894.387.293.791.417 1.263.332.514-.095 1.025-.067 1.491.281.268.2.573.205.878.067.151-.069.314-.107.468-.169 1.102-.446 2.206-.887 3.304-1.345.19-.079.41-.136.521-.391-.146-.055-.28-.002-.418.029-.435.1-.86.243-1.311.274-.866.057-1.728.155-2.593.234a1.616 1.616 0 0 1-.696-.064c-.498-.177-1.012-.191-1.529-.231a4.576 4.576 0 0 1-1.953-.596c-1.023-.594-2.054-1.164-3.056-1.808-.51-.329-1.023-.646-1.485-1.059-.295-.262-.558-.57-.847-.839-1-.94-1.861-2.029-2.665-3.181-.218-.312-.448-.632-.594-.99-.519-1.254-1.144-2.449-1.619-3.732a46.925 46.925 0 0 1-.845-2.452c-.395-1.276-.446-2.559-.284-3.866.159-1.295.366-2.585.544-3.878.042-.31.163-.627-.023-.933l.042.012-.038-.024.01.002zm3.819-4.169c-.176.184-.201.403-.257.603-.073.253-.14.51-.236.751-.314.775-.634 1.548-.962 2.316-.32.746-.548 1.526-.745 2.325-.224.911-.255 1.844-.287 2.778a10.91 10.91 0 0 0 .22 2.464c.366 1.846 1.088 3.53 1.949 5.123.847 1.569 1.792 3.067 2.884 4.436.567.711 1.127 1.433 1.88 1.908.349.219.659.506.977.78.335.289.676.572 1.094.708.676.222 1.336.496 1.968.851.297.167.607.281.931.351.368.079.742.136 1.1.255.594.195 1.213.234 1.809.21 1.075-.041 2.152-.155 3.208-.415.272-.067.538-.184.801-.291.485-.2.964-.415 1.447-.615.527-.22 1.075-.386 1.564-.706.571-.37 1.134-.754 1.688-1.154.236-.169.471-.367.648-.608.209-.284.431-.534.719-.708-.05-.076-.071-.136-.107-.16-.937-.579-1.579-1.586-2.472-2.227-.115-.083-.19-.234-.289-.348-.429-.494-.814-1.042-1.33-1.421-.634-.465-1.184-1.035-1.761-1.581-1.46-1.383-2.922-2.764-4.459-4.038-1.617-1.338-3.056-2.914-4.465-4.517-.634-.718-1.272-1.419-1.997-2.01a12.27 12.27 0 0 1-.774-.694c-.839-.813-1.675-1.629-2.598-2.32-.412-.31-.801-.649-1.171-1.018-.33-.332-.678-.644-.977-1.023l-.002-.002zm7.057 29.11c-.077-.131-.092-.193-.128-.212-.335-.181-.682-.329-.975-.603-.153-.143-.349-.153-.533-.11-.217.05-.431.136-.663.215.134.293.368.329.552.367.563.117 1.094.47 1.746.343z" opacity=".08" style="fill:var(--color1, #fcfcfc)"/>
      <path fill="#fcfcfc" d="M17.788 23.397c-.025.265-.025.537-.079.794-.115.551-.642.83-1.096.599-.086-.043-.167-.095-.255-.126-.134-.048-.186-.16-.184-.3.004-.847.188-1.634.604-2.342.052-.088.117-.167.184-.241.117-.126.236-.3.412-.258.197.048.188.274.207.456.048.475.259.921.207 1.417v.002zm-.648.381c.008-.103-.038-.155-.115-.15-.075.005-.111.079-.121.157s.006.172.075.184c.113.017.142-.093.163-.191h-.002zM16.236 14.306c0 .134.006.267 0 .401-.046.808-.571 1.314-1.265 1.226-.642-.083-.835-.417-.575-1.085.169-.436.328-.885.602-1.259.134-.181.282-.291.479-.124.121.103.205.029.31-.041.307-.198.406-.138.45.243a3.2 3.2 0 0 1 .015.238c.002.134 0 .267 0 .401h-.015zM14.021 19.655c-.071 1.102-.368 1.934-1.159 2.442-.084.055-.174.098-.255.012-.088-.091-.174-.169-.297-.191-.192-.031-.213-.212-.174-.36.113-.403.224-.813.389-1.19.23-.522.51-1.018.929-1.383.157-.136.312-.093.402.107.096.215.157.444.165.56v.002zm-.912 1.273.029-.01-.01.033c-.017.007-.036.014-.05.026-.008.005-.008.024-.013.036.015-.029.029-.055.042-.084l.002-.002zM11.986 14.268c-.201-.024-.427-.033-.55-.262-.132-.243-.115-.501.017-.754.195-.377.464-.665.791-.88.261-.172.533-.327.803-.479.224-.126.408-.05.588.231.146.229.159.56 0 .73-.391.417-.793.82-1.19 1.226-.128.131-.289.162-.462.186l.004.002zM8.123 10.611c.14.017.416.043.694.081.13.017.203.124.241.255.098.339-.027.761-.312.87-.525.205-1.054.434-1.629.329-.092-.017-.188-.017-.274-.05-.253-.095-.577-.477-.542-.668.056-.317.274-.47.523-.579.374-.167.768-.205 1.301-.236l-.002-.002zM17.876 17.11c0-.248-.006-.355 0-.46.021-.322.155-.465.464-.405a.494.494 0 0 0 .391-.062c.167-.103.32-.033.439.122.353.46.351 1.553 0 2.013-.113.148-.241.236-.429.188-.153-.038-.366.031-.462-.067-.186-.188-.345-.436-.37-.749-.019-.238-.031-.477-.038-.577l.004-.002zM7.404 7.976c-.412.05-.755-.093-1.058-.372-.266-.241-.245-.563.048-.782.431-.32.883-.477 1.395-.267.174.072.36.11.544.153a.424.424 0 0 1 .287.193c.41.644.366.789-.341.978-.291.079-.579.236-.872.095l-.002.002zM7.4 7.239c-.01-.017-.019-.043-.031-.048-.017-.007-.046-.005-.059.007-.038.038-.021.069.04.072.017 0 .033-.021.052-.033l-.002.002zM10.211 15.677c.307-.005.433.081.477.324.025.138.019.277-.063.377-.333.408-.655.825-1.079 1.119-.544.377-.795.363-1.307-.105-.067-.062-.069-.141-.04-.21.04-.093.096-.179.155-.26.33-.46.77-.766 1.184-1.109.209-.172.452-.091.678-.136h-.004zM10.997 11.143c-.149-.021-.247-.019-.333-.055-.218-.091-.46-.165-.523-.465-.065-.31.128-.491.307-.658.343-.315.73-.458 1.173-.367.251.05.506.088.757.148.176.043.268.217.236.415-.04.243-.105.482-.333.563-.441.157-.889.291-1.286.42zM21.822 24.341c-.437.005-.68-.157-.811-.584a10.328 10.328 0 0 1-.255-.997 1.62 1.62 0 0 1-.013-.477c.031-.286.303-.427.519-.253.1.081.163.167.295.098.22-.114.349.01.445.229.211.479.399.968.376 1.522-.015.372-.09.453-.418.465h-.14l.002-.002zM21.684 19.712c.002-.341.264-.711.579-.806.119-.036.232-.002.318.11.276.365.525.751.719 1.183.077.174.09.355.077.546-.019.286-.22.484-.475.47-.623-.033-1.224-.773-1.217-1.5l-.002-.002zM17.491 16.388c.008.274-.113.448-.301.432s-.353-.205-.358-.408c-.004-.162.146-.312.335-.331.19-.021.32.1.326.308h-.002zM15.874 20.28c.146.012.272.188.272.384 0 .222-.155.417-.33.42-.169.002-.33-.224-.31-.432s.199-.386.37-.372h-.002zM15.872 18.164c-.023.172-.203.367-.322.353-.176-.021-.343-.274-.291-.451.048-.16.157-.26.305-.26.151 0 .326.217.305.358h.002zM20.647 19.312c.021.165-.109.327-.293.363-.19.038-.345-.072-.362-.253-.019-.205.084-.377.243-.41.207-.043.385.086.412.3zM19.181 21.005c.211-.002.402.186.416.415.013.188-.119.346-.291.351-.18.002-.318-.169-.324-.41-.004-.184.09-.353.199-.355zM14.046 10.86c.213-.002.349.11.353.286a.348.348 0 0 1-.314.351.356.356 0 0 1-.391-.348c-.006-.169.138-.286.351-.289zM17.445 13.595c.205.01.343.172.351.408.006.2-.14.372-.301.351-.178-.021-.312-.215-.312-.453 0-.167.123-.312.261-.305zM9.307 14.074c-.002.179-.151.341-.322.351-.167.01-.324-.155-.324-.339 0-.181.149-.3.353-.289.163.01.293.134.293.277zM12.651 16.271c.238 0 .374.129.376.363 0 .176-.1.305-.251.315-.241.014-.387-.165-.368-.456.01-.167.117-.21.243-.222zM10.083 7.971a.342.342 0 0 1 .326.401c-.033.198-.178.219-.316.222-.19.005-.36-.203-.333-.396.017-.126.167-.231.324-.227h-.002zM21.191 18.126c-.033.174-.274.36-.418.322-.115-.031-.234-.279-.215-.448.017-.136.167-.234.32-.205.201.038.343.186.316.331h-.002zM11.869 19.118c-.015.169-.132.298-.261.291a.373.373 0 0 1-.324-.41.292.292 0 0 1 .307-.236c.178.019.295.172.28.358l-.002-.002zM11.018 13.027c-.013.181-.171.36-.312.348-.163-.014-.318-.258-.278-.458.029-.145.134-.2.257-.196.19.005.343.15.333.308v-.002z" opacity=".08" style="fill:var(--color1, #fcfcfc)"/>
    </symbol>
    <symbol id="icon-pineapple" viewBox="0 0 36 32">
      <path fill="#fcfcfc" d="M29.562-10.505c.424-.57 1.001-.918 1.527-1.341 1.189-.952 2.5-1.586 3.901-2 .194-.057.385-.141.577-.214.174-.066.304.005.418.161-.306.734-.81 1.273-1.345 1.77-.332.309-.574.704-.877 1.043-.086.095-.118.252-.218.477.494-.175.893-.318 1.293-.457.084-.03.17-.061.256-.073.14-.018.252.166.182.302-.132.261-.242.527-.532.648-.224.093-.412.302-.611.466-.026.02-.036.095-.026.134.01.036.058.086.09.086.224.009.449.009.673.011s.448 0 .672.011c.12.007.206.17.144.275-.11.186-.174.427-.394.498-.462.145-.839.482-1.239.752-.771.518-1.509 1.098-2.26 1.657-.186.139-.374.289-.444.568.172.141.37.152.565.127 1.033-.123 2.062.048 3.093.073.108.002.216.057.318.102.032.014.074.1.07.107-.162.186-.178.502-.49.561a4.194 4.194 0 0 0-1.459.564c-.06.036-.124.061-.178.107a.21.21 0 0 0-.064.125c0 .034.034.093.062.102.368.111.739.216 1.109.318.5.139 1.005.261 1.503.411.234.07.228.207.09.42-.144.223-.33.239-.531.25-.971.055-1.904.323-2.826.648a.479.479 0 0 0-.306.239c.442.093.839.336 1.297.261.116-.018.204.15.148.261-.108.22-.224.436-.344.67.56.284 1.111.564 1.659.845.084.043.186.12.154.218-.054.161.022.373-.138.482a.239.239 0 0 1-.192.023c-1.293-.455-2.574-.152-3.843.03-.064.189.03.27.11.355.394.414.697.932 1.139 1.291.184.148.11.373.092.566-.01.102-.104.159-.202.157a.358.358 0 0 1-.13-.025c-.803-.314-1.625-.311-2.456-.209-.04.005-.076.039-.152.077.104.291.364.434.506.679.114.195-.036.332-.096.482-.052.132-.174.173-.286.111-.715-.386-1.489-.366-2.244-.37-.917-.005-1.835.095-2.75.193-.422.045-.855-.045-1.315.13-.022.393.038.818-.064 1.227-.01.039.068.143.118.157.701.186 1.007.795 1.225 1.484.162.509.22 1.036.18 1.579-.016.216-.054.436.174.604.098.07.138.325.126.489-.042.589.044 1.17.038 1.752-.006.579-.12 1.157-.192 1.736-.016.125-.05.248-.076.373-.162.739-.372 1.461-.422 2.234a3.668 3.668 0 0 1-.709 1.95c-.302.411-.596.827-.901 1.234-.218.291-.47.559-.372 1-.18.602-.358 1.209-.681 1.736-.318.523-.622 1.05-.843 1.641-.296.8-.829 1.391-1.431 1.891a2.284 2.284 0 0 0-.649.852c-.358.802-.883 1.47-1.387 2.152a1.23 1.23 0 0 1-.296.309c-.586.368-1.131.829-1.785 1.057-.384.134-.759.295-1.165.35a.987.987 0 0 0-.727.475c-.23.355-.562.573-.967.627-.422.057-.843.166-1.267.196a1.803 1.803 0 0 1-1.273-.382c-.158-.125-.27-.123-.426-.068-.851.298-1.579-.029-2.246-.6-.136-.116-.262-.186-.424-.182-1.251.034-2.238-.618-3.124-1.539-.082-.086-.16-.18-.238-.27-.376-.427-.759-.823-1.251-1.102-.699-.395-1.085-1.111-1.245-1.972-.06-.323-.118-.65-.146-.98-.07-.768-.356-1.468-.52-2.207-.154-.693-.286-1.389-.294-2.107-.006-.564.04-1.123.208-1.657.144-.454.18-.948.392-1.379a.364.364 0 0 0 .034-.214c-.104-.457.072-.85.21-1.248.206-.593.42-1.179.639-1.766.264-.709.695-1.307 1.059-1.948.06-.107.162-.202.182-.316.094-.539.378-.977.56-1.468.152-.409.356-.764.643-1.059.48-.495.857-1.114 1.405-1.532.088-.066.144-.189.208-.291.595-.964 1.273-1.838 2.116-2.532.29-.239.61-.425.919-.636.076-.052.178-.107.148-.22-.076-.282.09-.423.234-.582.386-.425.777-.848 1.123-1.318.218-.295.488-.523.803-.682.472-.236.937-.489 1.411-.718.246-.118.504-.211.763-.298.106-.036.24-.041.296.098.09.216.214.22.382.139.456-.218.939-.341 1.421-.457.124-.03.192-.114.192-.266-.004-1.002-.084-1.979-.6-2.848-.2-.336-.352-.709-.52-1.068-.14-.298-.092-.398.292-.6a5.223 5.223 0 0 0-1.043-.961c-.649-.466-1.189-1.084-1.817-1.575-.068-.052-.116-.152-.156-.239-.062-.136.03-.348.156-.352.156-.005.314 0 .468.023.312.043.623.095.933.155.224.043.432.064.659-.036.202-.089.364.016.41.255.064.325.164.611.372.854.096.111.092.282.09.436-.002.093-.062.143-.124.152-.058.009-.146-.005-.18-.05a1.03 1.03 0 0 1-.23-.618c-.004-.139-.05-.225-.168-.289-.378-.207-.781-.191-1.183-.193-.016 0-.036.025-.05.043-.034.05-.028.095.01.136.082.086.16.18.248.257.669.595 1.375 1.129 2.094 1.652.172-.443.188-.875.034-1.316a6.739 6.739 0 0 0-.294-.686 53.158 53.158 0 0 0-.753-1.534 2.774 2.774 0 0 0-.336-.473c-.278-.332-.566-.655-.847-.984a1.648 1.648 0 0 1-.2-.302.234.234 0 0 1 .04-.277c.048-.045.12-.084.178-.08.182.014.338.118.498.216.394.245.789.486 1.187.72.114.068.22.184.37.132.084-.141.072-.291.032-.441-.258-.973-.4-1.986-.781-2.918a.59.59 0 0 1-.042-.145c-.014-.105-.006-.205.068-.28.096-.095.218-.107.31-.034.128.098.256.218.34.361.29.493.669.891 1.035 1.302.452.507.809 1.091 1.105 1.723.06.13.092.289.238.343a3.557 3.557 0 0 0 .05-1.834 14.378 14.378 0 0 1-.396-2.4c-.046-.532-.13-1.059-.19-1.588a2.276 2.276 0 0 1 0-.452c.016-.15.21-.216.322-.127.17.134.284.327.388.523.196.37.378.75.558 1.132.044.091.072.186.216.218.07-.186-.038-.364-.05-.541a4.678 4.678 0 0 0-.074-.604c-.24-1.15-.22-2.325-.28-3.493-.006-.12.044-.248.082-.364.034-.102.208-.152.292-.091.056.041.114.082.154.141.098.139.196.282.272.436.661 1.329 1.369 2.632 1.867 4.059.116.332.246.655.376.979.176.441.332.889.424 1.366.036.186.058.393.192.566.134-.834.064-2.038-.16-2.784a21 21 0 0 0-.28-.859.871.871 0 0 1-.056-.445.342.342 0 0 1 .102-.175c.062-.055.14-.014.176.048.11.191.204.393.314.586.032.057.094.132.138.13.122-.007.112-.139.112-.232.002-.661.044-1.325-.03-1.986-.028-.25-.056-.507.03-.755.042-.12.132-.132.22-.105.166.055.248.195.288.384.046.216-.032.454.08.659.152-.05.132-.189.134-.311.006-.714.008-1.427.018-2.141.008-.764.008-1.527.196-2.27.034-.139.166-.189.264-.105.244.207.4.491.486.809.27.995.556 1.986.769 3 .316 1.514.486 3.052.374 4.613-.012.177-.014.359-.058.527-.056.218-.148.423-.222.634a.188.188 0 0 0-.004.075c.016.304.026.611.054.914.02.227.068.45.102.673.192.023.218-.15.276-.268.184-.38.354-.768.544-1.143.092-.184.128-.38.154-.582.048-.405.102-.807.138-1.211.102-1.166.294-2.318.496-3.463.114-.643.334-1.268.539-1.886.296-.907.62-1.802.933-2.702.028-.08.076-.118.148-.111.082.007.108.086.12.159.018.1.03.202.026.305-.04 1.12-.006 2.243-.144 3.359a5.106 5.106 0 0 0-.038.761c.012.461-.02.916-.078 1.37-.062.48-.096.961-.014 1.445.062.361-.048.704-.106 1.054-.052.314-.192.611-.136.95.152-.03.194-.152.242-.268.16-.393.336-.779.472-1.182.376-1.116.809-2.209 1.053-3.377.036-.173.102-.339.15-.507.038-.136.114-.22.244-.202.13.016.198.12.194.261-.004.305-.028.609-.03.914a140.09 140.09 0 0 0-.01 2.05c0 .123.004.257.112.386.302-.295.535-.668.781-1.018.392-.559.743-1.148 1.071-1.759.174-.323.404-.609.618-.9.028-.039.126-.039.182-.018.088.032.17.12.134.225-.134.402-.212.825-.41 1.207-.59 1.139-1.157 2.291-1.605 3.513a1.77 1.77 0 0 1-.16.334c-.43.707-.6 1.529-.821 2.329-.018.064.02.145.03.214.014-.075 0-.098-.042-.07a.939.939 0 0 1 .042.057l.01-.002zm-4.227 5.361-.12.229c-.514.309-.737.816-.753 1.454a.097.097 0 0 1-.026.011l.683-1.152c.056-.098.142-.191.082-.327.13 0 .114-.105.11-.198.058.009.044.048.018.027-.072-.059-.014.055.008-.043l-.002-.002zm-7.725 15.94c-.026.073-.052.145-.076.218l-.16.13-.1.202-.216.075.042.03-.04.032c0-.018-.004-.036 0-.055a4.82 4.82 0 0 0 .202-.105c.032-.064.062-.127.098-.191.056-.039.15-.025.16-.136.026-.068.054-.139.086-.205.094 0 .186-.007.188-.152.064.016.126.039.192.045.302.034.302.032.288.33-.02.457-.05.916-.056 1.373-.022 1.304-.15 2.586-.464 3.845-.078.309-.214.614-.184.975.084-.034.156-.043.202-.089.777-.73 1.551-1.466 2.326-2.2.128-.12.202-.264.16-.466-.052-.257.02-.505.056-.755.092-.625.212-1.245.112-1.893-.076-.5-.098-1.011-.142-1.518-.05-.591-.262-1.323-.576-1.984-.396.316-.59.827-.925 1.2-.336.373-.648.773-.971 1.161-.066.043-.132.086-.198.127l-.004.005zm5.243-1.229c-.014.011-.028.023-.044.034l-.042.03a.593.593 0 0 0 .074-.089c.024-.139.048-.28.07-.418.202-.005.212-.232.316-.348.158-.175.418-.114.494.116.064.198.072.402.042.604-.146 1.004-.096 2.032-.272 3.034-.01.061.018.134.042.28.354-.661.396-1.359.578-2.004a.273.273 0 0 0-.006-.15c-.132-.327-.028-.65 0-.977.03-.354.05-.711.052-1.068a2.57 2.57 0 0 0-.366-1.368c-.064-.105-.13-.209-.294-.18-.138.598-.33 1.191-.538 1.777-.032.091-.02.2-.028.305-.122.118-.086.273-.078.423zm1.513 2.581a8.88 8.88 0 0 0-.725 2.748c.198-.164.428-.195.48-.454.124-.611.298-1.211.322-1.848a.698.698 0 0 0-.096-.425l.034.018-.016-.036v-.002zm9.011-21.889c-.264.036-.529.073-.793.107-.122.016-.218-.039-.278-.164a.276.276 0 0 1 .026-.284c.506-.709.915-1.511 1.571-2.082.298-.259.57-.564.785-.952-.923.039-2.582.939-3.272 1.784.368-.1.692-.18.997-.345.122-.066.24-.12.386-.068.15.055.206.191.12.334-.192.323-.466.548-.725.793-.394.375-.793.748-1.189 1.12-.054.05-.1.105-.074.189.078.082.164.043.25.03.444-.066.889-.18 1.335-.177.336 0 .604-.12.871-.305-.06.016-.068.002-.028-.039.006.02.01.041.016.059h.002zm-6.721-2.475c-.14.432-.182.886-.25 1.334-.006.034.03.098.06.111.032.014.102 0 .116-.025.096-.198.184-.402.268-.607.046-.114.116-.23.118-.345.004-.166-.198-.068-.252-.193-.038-.086-.112-.161-.06-.273a5.751 5.751 0 0 1 .072-1.202c.108-.702.196-1.407.312-2.107.228-1.357.26-2.732.338-4.104.004-.082.042-.209-.166-.259-.122.466-.346.893-.5 1.366-.437 1.332-.524 2.725-.619 4.118.108.298-.08.611.028.902.104.282.046.55-.004.823-.028.148-.096.289-.02.491.176-.091.366-.02.558-.032v.002zM15.719 5.246c.078.052.156.098.244.023.57-.484 1.125-.995 1.715-1.445.536-.409.737-.995.803-1.668.032-.325.004-.657-.008-.986-.006-.157-.12-.239-.222-.155-.192.157-.342.223-.594.073-.276-.161-.649.066-.761.398-.15.448-.272.909-.408 1.364-.244.809-.382 1.664-.779 2.409l.022.027-.016-.039h.004zm5.378 13.19c.164-.405.486-.654.735-.977.21-.275.526-.507.342-.975-.028-.068.042-.189.074-.284.062-.191.14-.375.192-.568.418-1.566.624-3.172.685-4.804.004-.116.032-.261-.136-.316-.35.359-.518.866-.753 1.316-.194.373-.354.764-.613 1.086a1.863 1.863 0 0 0-.188.311c-.052.105-.026.182.084.223.058.023.15.077.15.118-.002.302.118.598.022.907a1.965 1.965 0 0 0-.094.518c-.028.873-.218 1.707-.424 2.541-.072.293-.158.586-.048.891-.052-.016-.056-.027-.012-.032-.004.016-.008.032-.01.048l-.006-.002zM2.448 18.2c.022-.091.018-.164-.078-.077-.02.016.04.08.094.064.146.643.498 1.184.685 1.807.04.136.16.127.258-.007.076-.102.142-.22.028-.327-.212-.198-.182-.414-.112-.682.24-.918.52-1.825.562-2.802.018-.418-.01-.804-.138-1.191-.19-.568-.368-1.143-.572-1.707-.064-.177-.01-.418-.226-.543-.218.241-.462.461-.613.782-.336.718-.576 1.482-.831 2.238-.032.093-.072.232.022.27.296.123.194.47.31.689.136-.055.174-.18.234-.284.074-.127.148-.255.23-.375.108-.152.284-.205.414-.141.124.059.144.189.148.314.016.457.028.914.03 1.373 0 .432-.006.432-.442.6h-.004zm13.193 2.1c.184.061.294-.089.406-.202a10 10 0 0 1 1.307-1.068c.248-.175.476-.377.687-.611.168-.186.334-.509.606-.348.228.134.228.477.234.75.016.814.012 1.627.02 2.438 0 .111-.094.248.048.334.306-.23.51-.555.705-.884-.028-.055-.044-.102-.074-.139s-.074-.055-.106-.091c-.18-.198-.188-.241-.07-.445.11-.191.226-.38.344-.566.624-.989.999-2.098 1.241-3.27a3.85 3.85 0 0 0 .098-.982c-.012-.205-.122-.286-.258-.177a4.19 4.19 0 0 0-.318.28c-.789.752-1.565 1.52-2.366 2.259-.556.511-1.139.989-1.717 1.466-.12.1-.32.102-.406.22-.108.148-.134.37-.196.559-.054.166-.11.332-.162.498-.006-.007-.012-.011-.02-.018l-.002-.002zm14.583-34.529c-.246.157-.49.325-.743.47-.162.093-.314-.014-.322-.232-.014-.405-.01-.811-.014-1.218-.002-.28-.004-.559-.008-.839a.124.124 0 0 0-.028-.068c-.058-.077-.028.105-.056-.011-.048.232-.068.461-.146.664-.386.998-.672 2.043-1.121 3.013a5.736 5.736 0 0 0-.433 1.277c-.068.345-.184.679-.278 1.018-.048.175-.124.38-.278.4-.288.036-.318.293-.442.495-.156.255-.214.493-.112.782-.15.127-.288.243-.354.475-.182.627-.404 1.241-.606 1.861-.036.109-.096.232.054.345.512-.445 1.145-.666 1.685-1.079.018-.014.04-.02.062-.03.088-.036.174-.045.25.034.074.077.078.182.064.282a.86.86 0 0 1-.214.464c-.426.489-.845.984-1.265 1.479-.066.077-.142.12-.234.116l.028.032-.018-.043c.128.057.248.073.382-.009.586-.366 1.191-.691 1.762-1.086.825-.573 1.723-.945 2.608-1.359.062-.03.128-.066.192-.061.108.009.248.009.312.082.092.105-.006.227-.078.323s-.132.207-.22.28c-.396.327-.799.641-1.197.957.054-.025.068.02.034.025-.088.011.018.043-.024-.045.448.198.821.105 1.133-.336.238-.339.554-.591.855-.859a15.384 15.384 0 0 1 2.064-1.577c.248-.157.49-.327.663-.648-.44-.093-.789-.064-1.091.3-.13.157-.342.232-.524.325-.154.077-.246-.03-.218-.234.016-.12.1-.23.044-.382-.332-.052-.657.077-.987.114-.446.05-.889.12-1.335.177a.282.282 0 0 1-.294-.139c-.122-.189-.106-.364.076-.518a20.194 20.194 0 0 0 1.553-1.452c-.146.025-.212.027-.272.048-.696.209-1.343.573-2.015.861-.777.334-1.529.732-2.156 1.379-.128.132-.308.2-.467.295-.082.05-.174.086-.24-.014-.078-.118-.162-.252-.016-.393.136-.391.472-.52.757-.689.532-.316 1.085-.586 1.631-.873.238-.125.538-.191.332-.634-.036-.077.046-.236.09-.35.328-.857.663-1.711.989-2.568.078-.205.222-.389.178-.636.02-.007.042-.011.058-.025.008-.007 0-.048 0-.048-.05-.007-.064.025-.042.086l-.006-.005zM7.975 19.561c.354.014.679-.116.893-.42.27-.384.623-.657.917-1.007.282-.334.641-.555 1.017-.727.27-.125.422.011.428.355s-.086.652-.232.945c-.076.152-.148.352-.326.336-.218-.018-.276-.223-.276-.445 0-.025-.01-.048-.016-.073-.016-.059-.052-.075-.102-.039-.034.025-.086.061-.088.098-.016.191.12.377-.02.579-.216.309-.268.686-.316 1.07-.044.35-.156.691-.212 1.039-.066.418-.23.823-.186 1.32.39-.264.755-.502 1.111-.759.118-.084.108-.205-.018-.298-.14-.105-.138-.245-.062-.398.244-.486.472-.984.741-1.454.186-.327.328-.666.414-1.039.214-.934.422-1.873.627-2.811.014-.068.01-.164-.024-.216-.068-.107-.162-.03-.234.009-.508.264-1.029.507-1.521.807-.637.389-1.175.932-1.683 1.511-.076.089-.14.2-.184.316-.138.352-.332.664-.528.973-.064.102-.146.198-.104.341-.07-.011-.126 0-.046.08.022.02.058-.043.032-.093h.002zM22.619 3.742c.062-.014.152-.064.184-.034.208.189.43.23.687.157.106-.03.224 0 .334-.007.671-.036 1.345-.048 2.014-.12.785-.086 1.561-.139 2.342.03.152.032.312.023.469.027.058 0 .088-.041.07-.093-.014-.045-.036-.109-.066-.12a1.988 1.988 0 0 0-.324-.086c-.118-.027-.198-.107-.268-.211-.15-.223-.088-.473.138-.532.086-.023.178-.027.266-.039a7.72 7.72 0 0 1 1.945-.02c.2.025.402.023.602.025.094 0 .138-.127.084-.223-.2-.352-.508-.561-.805-.791a.871.871 0 0 0-.762-.173c-.747.159-1.497.307-2.248.441-.208.036-.392.068-.499.311-.084.191-.268.241-.402.134-.282-.225-.536-.145-.823-.03a7.561 7.561 0 0 1-1.099.345c-.622.145-1.167.507-1.751.757-.108.048-.09.157-.084.252-.06-.016-.12-.048-.178-.045-.076.002-.144.125-.096.139.028.007.064-.023.098-.036.058-.02.116-.041.174-.059l-.002.002zm-.971-7.361c-.146-.073-.204.052-.254.159-.318.677-.679 1.318-1.143 1.879a.443.443 0 0 0-.1.42c.032.105.046.193-.068.248-.144.068-.226.259-.398.268-.182.009-.278.139-.364.295-.072.13-.132.273-.226.377-.218.243-.236.529-.194.845.06.454.104.909.028 1.368-.012.068-.016.143.08.209.24-.198.508-.382.737-.618.23-.239.464-.393.783-.311.202.052.338-.043.456-.227.312-.495.63-.989.957-1.473.134-.2.152-.323-.048-.495-.142-.125-.08-.33.078-.434.104-.068.218-.107.316-.023.148.127.25.136.386-.036.386-.495.807-.957 1.131-1.486l-.198-.804c-.122 0-.188.107-.272.186-.504.475-1.083.816-1.641 1.193-.09.061-.172.034-.244-.036a.325.325 0 0 1-.11-.266c.006-.075.032-.145.05-.22.082-.343.164-.686.242-1.034.004-.025.006-.05.014-.073.028-.082.01-.102-.028-.041-.014.025.02.086.032.132v-.002zm-7.57 18.531c.196-.343.472-.607.707-.911.46-.598 1.035-1.05 1.529-1.604.108-.123.174-.218-.02-.334-.188-.111-.216-.305-.122-.52.03-.068.052-.141.08-.211.55-1.354.755-2.813.995-4.261.02-.123.018-.255.012-.38-.004-.066-.022-.15-.062-.193-.062-.066-.13-.002-.172.052-.252.339-.586.548-.911.773-.46.318-.901.67-1.291 1.091-.14.152-.336.261-.38.509.396.232.39.232.37.666-.012.25-.096.498-.032.752.102-.014.154-.093.204-.182l.294-.511c.08-.136.19-.214.34-.189.19.032.252.186.27.377.02.202.044.405.05.607.014.439-.032.475-.416.336-.088-.032-.174-.08-.232.036-.16.323-.36.193-.556.061-.11.164-.084.352-.092.523-.048 1.023-.192 2.02-.528 2.975a.752.752 0 0 0-.016.516c-.016-.007-.042-.011-.046-.025-.01-.05.006-.057.032-.014.006.009-.008.034-.012.052l.006.009zm-2.861-3.293c.022 0 .05.007.066-.007.52-.436.969-.975 1.533-1.348.082-.055.122-.145.114-.255-.032-.375.134-.686.258-1.009.23-.607.47-1.207.687-1.818.226-.639.344-1.314.416-1.995.028-.273-.094-.375-.324-.261-.408.202-.823.386-1.199.675-.665.509-1.361.966-2.028 1.47-.362.275-.715.582-.921 1.052.054.027.078.05.09.043.685-.375 1.365-.755 2.05-1.132.08-.043.162-.089.246-.114.098-.027.192.02.194.139.004.225.026.486-.15.639-.516.448-.733 1.082-.843 1.761-.118.718-.268 1.441-.178 2.182l-.024-.03.016.007h-.004zM5.723 23.061c.042.02.08.048.124.059.476.13.594.266.466.775-.216.864-.15 1.77-.358 2.632a.348.348 0 0 0 .072.314c.452-.293.907-.62 1.429-.773a.179.179 0 0 0 .118-.234.523.523 0 0 1 .01-.37c.218-.5.418-1.016.673-1.491.154-.289.27-.579.342-.902.132-.593.274-1.182.398-1.775.082-.395.144-.798.204-1.198.022-.152-.08-.241-.204-.184-.711.318-1.399.682-2.026 1.189-.202.164-.362.366-.524.582-.31.416-.466.925-.701 1.379.018.011.034.025.052.032.008.002.02-.011.03-.016l-.104-.014-.002-.005zm7.15-7.572c.124.034.21-.009.272-.141.366-.759.691-1.527.803-2.404.114-.902.226-1.8.192-2.7-.174-.077-.284.014-.404.084-.679.405-1.235 1.002-1.851 1.504-.446.364-.763.854-1.053 1.368-.144.255-.248.539-.366.814-.254.595-.546 1.164-.937 1.664-.094.12-.166.232-.324.211-.078-.011-.124.048-.136.125-.032.216-.062.432.066.673.124-.089.218-.152.31-.218a12.32 12.32 0 0 1 1.633-1.052c.466-.245.931-.495 1.397-.741.08-.041.166-.075.252-.095.128-.032.29.12.256.261-.052.218.044.466-.096.668 0 .048-.002.098 0 .145 0 .023.006.064.008.064.052-.005.07-.041.046-.1-.018-.045-.046-.084-.07-.125l.002-.005zm-8.727 3.743c.178-.409.566-.557.829-.864.124-.143.25-.264.322-.468.236-.675.662-1.198 1.121-1.688a.887.887 0 0 1 .222-.164c.114-.059.304.023.342.152.112.37.174.77-.016 1.107-.41.725-.47 1.52-.45 2.341.006.289-.048.586.018.873.09-.011.136-.005.174-.025.256-.13.26-.132.23-.523a.602.602 0 0 1 .052-.289c.166-.391.366-.752.611-1.091.789-1.093.889-1.468.823-2.859a5.71 5.71 0 0 0-.04-.454c-.062-.452-.11-.904-.048-1.364.014-.1.012-.216-.08-.266-.09-.048-.17.036-.242.089-.717.516-1.439 1.02-2.162 1.527s-1.205 1.273-1.445 2.213c-.106.414-.202.832-.306 1.245-.046.18-.058.348.05.505l-.076-.075.074.077h-.002zm20.906-29.887c-.042.282-.198.507-.3.759-.078.195-.224.314-.376.42-.082.059-.25-.005-.29-.107a.972.972 0 0 1-.06-.216c-.078-.627-.24-1.243-.18-1.888.014-.157.038-.359-.194-.468-.1.25-.23.491-.29.754-.062.266-.182.45-.364.614-.21.191-.3.195-.4-.052-.12-.3-.226-.609-.332-.916a5.401 5.401 0 0 1-.128-.434c-.03-.12-.048-.293-.176-.277-.192.023-.114.232-.118.364-.006.227.01.457.024.686.054.891.018 1.779-.064 2.666-.05.532-.12 1.057-.286 1.563-.14.425-.268.859-.366 1.3-.114.516-.19 1.045-.28 1.568-.034.193-.12.384-.014.582.292.007.262-.311.348-.484.242-.486.438-1 .657-1.502.042-.095.108-.164.208-.159.14.007.186.125.2.255.046.434-.006.861-.062 1.289-.052.4-.094.802-.14 1.204 0 .016.024.036.06.086.737-.468 1.409-1.05 2.062-1.663.098-.093.18-.232.23-.366.314-.87.616-1.745.917-2.623.02-.061.012-.17-.024-.211-.03-.034-.128-.025-.18.002-.096.05-.168.184-.294.116-.142-.077-.164-.232-.148-.391.02-.202.038-.405.076-.602.074-.37.146-.745.254-1.107.076-.255.096-.493.014-.739.058.007.05.048.018.03-.078-.045-.006.055 0-.048l.002-.005zm3.737 5.211a.257.257 0 0 0-.316-.014c-1.001.664-2.102 1.159-2.894 2.184-.124.161-.25.182-.4.03-.086-.086-.154-.018-.218.068-.114.155-.24.298-.36.45-.611.777-1.221 1.557-1.831 2.336-.058.075-.122.148-.078.261.016.011.04.036.048.032.102-.055.202-.109.3-.17 1.261-.791 2.578-1.425 3.975-1.827.693-.2 1.407-.307 2.068-.645.142-.073.304-.08.448.034-.042.327-.144.616-.456.825.182.057.288.109.396.118.312.03.627.032.939.064.32.032.608-.043.909-.184.725-.341 1.455-.668 2.242-.784.186-.027.368-.114.549-.17-.048-.202-.17-.2-.274-.232-.368-.109-.739-.207-1.103-.332a.628.628 0 0 1-.398-.38c-.11-.268-.104-.445.106-.589.23-.155.478-.273.714-.416.052-.032.112-.098.122-.157.02-.114-.08-.105-.138-.105-.628 0-1.255 0-1.883.007-.112 0-.224.018-.332.048-.629.168-1.279.223-1.896.457a1.775 1.775 0 0 1-.326.084c-.148.027-.258-.041-.328-.195a.427.427 0 0 1 .02-.429 1.1 1.1 0 0 1 .408-.384c-.052-.005-.046-.045-.018-.03.08.045 0-.052.006.05l.002-.005zm-11.521 15.67c.042 0 .102.02.124-.002.546-.602 1.101-1.195 1.579-1.873.07-.1.132-.2.156-.33.11-.598.212-1.191.19-1.811-.032-.832-.316-1.584-.516-2.361-.048-.184-.156-.211-.31-.089-.384.307-.753.641-1.149.927-.592.429-1.123.925-1.523 1.591-.182.304-.454.484-.733.652-.106.064-.298-.086-.286-.225.01-.123.038-.25.08-.364a32.11 32.11 0 0 0 1.207-3.879c.062-.259.182-.504.178-.773-.044-.025-.064-.05-.082-.048-.951.17-1.795.577-2.508 1.343-.442.477-.845.982-1.149 1.579-.11.216-.254.339-.46.389-.3.073-.55.209-.62.595a.208.208 0 0 1-.192.18c-.124.009-.21-.077-.256-.202-.078-.207-.06-.393.09-.557.18-.195.37-.37.602-.477a.44.44 0 0 0 .244-.241c.366-.9.739-1.8.779-2.818.002-.066-.014-.164-.052-.195-.042-.032-.14-.032-.182.005-.376.33-.813.534-1.231.779-.416.245-.809.527-1.071 1.009-.082.15-.174.37-.388.38l.022.048-.016-.055c.194.152.38.05.576-.011.3-.093.346-.075.42.275.048.227.146.257.322.282.212.032.27.257.136.448-.056.08-.122.15-.188.218-.168.175-.218.17-.408-.091-.072-.1-.142-.136-.21-.048-.234.307-.46.604-.466 1.061-.004.298-.106.595-.178.889-.054.216-.12.425-.058.65.038.005.07.018.082.007.56-.554 1.207-.966 1.839-1.395.516-.352 1.021-.734 1.595-.975.314-.132.614-.304.919-.464.142-.075.276-.173.442-.159.092.007.192.032.2.152.036.559.092 1.129-.086 1.664-.23.689-.336 1.425-.634 2.086-.044.1-.114.218.012.35.398-.366.793-.736 1.197-1.095.633-.561 1.355-.995 1.867-1.732.13-.186.354-.148.432.089.076.223.154.284.37.304.34.032.452.239.44.627-.008.28-.03.559-.052.836-.008.102-.044.202-.144.232-.126.036-.212-.025-.27-.154-.046-.102-.064-.25-.212-.207-.09.529-.204 1.05-.26 1.577-.052.477-.258.927-.2 1.423-.072.061-.034-.077-.054.023a.114.114 0 0 0 .006.045c.052 0 .062-.027.032-.082l.006-.002zm.583-20.635a3.405 3.405 0 0 0-.024 1.445c.078.423-.054.682-.324.911-.112.095-.202.077-.268-.068-.202-.454-.394-.914-.602-1.364-.388-.839-.875-1.586-1.593-2.168-.058.264-.006.484.058.691.166.536.252 1.082.202 1.648-.022.255.074.434.216.611.382.477.645 1.034.851 1.632.22.639.464 1.268.697 1.902.434 1.177.769 2.386.925 3.654.052.427.102.857.152 1.284.012.105.038.214.134.23.05.009.122-.057.164-.109.29-.352.56-.732.869-1.061.266-.284.366-.609.39-1.011.042-.709.076-1.427.188-2.125.204-1.289.196-2.582.186-3.879 0-.05-.01-.1-.022-.15-.004-.016-.028-.032-.046-.036s-.052-.005-.058.007c-.034.061-.07.125-.092.193-.088.286-.146.589-.26.859-.118.277-.322.273-.446 0a31.135 31.135 0 0 1-.607-1.443c-.198-.505-.354-1.032-.685-1.657l-.004.005zM28.337 1.022c.224.061.422.009.618-.027C29.97.802 30.987.611 32.002.413c.084-.016.208-.048.232-.109.066-.182-.13-.141-.188-.227-.04-.059-.092-.111-.128-.175a.377.377 0 0 1 .12-.516c.056-.036.13-.034.192-.057.056-.023.068-.066.04-.111-.012-.02-.024-.05-.04-.055-.084-.027-.172-.068-.258-.07-.31-.002-.61-.195-.928-.073s-.603-.111-.919-.105c-.693.016-1.387-.034-2.082.023a2.464 2.464 0 0 1-.403.005c-.138-.011-.28-.059-.328-.22-.094-.314-.272-.277-.48-.189-.312.134-.622.282-.943.393-1.547.529-2.878 1.5-4.131 2.618-.57.509-.572.682-.238 1.398.02.045.044.089.064.134.064.139.168.168.28.1a9.27 9.27 0 0 1 1.215-.639c.905-.386 1.839-.639 2.778-.879.502-.13 1.007-.236 1.511-.359.104-.025.246-.055.24-.214-.016-.457.396-.493.569-.766.026-.041.128-.027.194-.025.214.009.312.216.198.429-.056.105-.14.189-.228.302l-.004-.005zm-8.995-9.104c.152-.573.248-.964.36-1.348.108-.368.154-.736.128-1.125-.032-.477.062-.725.234-.679.282.08.264.389.288.623.084.809.166 1.62.2 2.432.024.607.044 1.216-.006 1.829-.032.391-.104.798-.024 1.207.132-.057.12-.173.14-.266.08-.373.1-.748.108-1.132.008-.375.276-.679.328-1.068.088-.652.236-1.295.322-1.948.052-.4.04-.811.05-1.218.004-.152-.056-.236-.206-.18-.164.061-.25-.061-.312-.202-.04-.091-.058-.191-.086-.289-.146-.507-.258-1.029-.442-1.518a130.76 130.76 0 0 0-1.381-3.475c-.14-.343-.332-.661-.498-.993-.028-.055-.062-.075-.13-.041-.012.052-.04.12-.036.186.012.202.034.404.054.607.054.582.158 1.164.152 1.743-.008.775.14 1.5.328 2.229.076.291.12.593.164.893.03.218-.154.286-.262.395-.078.077-.244-.025-.312-.193-.14-.345-.272-.695-.4-1.048-.208-.561-.372-1.145-.648-1.673-.018-.032-.074-.061-.108-.055-.032.007-.082.055-.086.089a3.18 3.18 0 0 0 .262 1.695c.526 1.152.953 2.357 1.413 3.543.106.273.226.536.412.975l-.006.002zM8.245 25.736c.334-.138.52-.22.709-.288.298-.107.476.039.488.398.004.127-.018.254-.028.379-.02.254-.06.507-.058.761.002.257-.176.475-.11.741.26-.089.514-.164.763-.264.691-.28 1.313-.654 1.613-1.484.068-.186.16-.364.246-.543.288-.591.334-1.263.506-1.895a6.55 6.55 0 0 0 .216-1.582c.002-.116.036-.252-.084-.33a7.224 7.224 0 0 0-2.654 1.429c-.306.261-.633.534-.791.92-.228.552-.516 1.066-.815 1.757h-.002zM6.193 7.953c-.292.177-.528.309-.725.516-.408.434-.839.841-1.195 1.336-.33.457-.606.925-.466 1.563a.564.564 0 0 1-.018.3c-.218.557-.1 1.093.054 1.632.23.809.558 1.582.697 2.543.32-.459.627-.795.995-1.032.294-.189.364-.416.306-.795-.064-.405.088-.805.226-1.177.188-.509.218-1.034.206-1.57-.024-1.068-.05-2.134-.08-3.316zm4.826.359c-.076-.014-.13-.041-.154-.023-.484.366-.993.686-1.451 1.104a25.854 25.854 0 0 0-2.12 2.227c-.272.316-.466.684-.494 1.139-.014.232-.062.45-.128.668-.04.136-.108.284 0 .48.444-.284.871-.6 1.277-.95.322-.277.643-.554.975-.816.17-.134.45-.145.498-.036.084.191.016.389-.038.573-.026.091-.114.157-.162.241a1.906 1.906 0 0 0-.258.859c-.016.354-.02.711-.018 1.068 0 .091-.016.218.092.259s.154-.066.2-.15c.284-.518.552-1.048.855-1.554.27-.454.408-.945.49-1.484.182-1.2.124-2.432.436-3.611v.007zm1.628 16.917c.202-.132.38-.236.544-.359a4.805 4.805 0 0 1 1.133-.654c.53-.207.939-.575 1.241-1.109.06-.105.126-.211.204-.298.066-.07.158-.089.248-.045s.14.125.132.236c-.024.43-.056.861-.076 1.291-.006.114-.058.255.104.345.284-.12.488-.402.743-.598.625-.477.953-1.179 1.197-1.966.282-.918.24-1.85.184-2.788-.008-.136-.126-.17-.248-.073-.514.405-1.031.807-1.541 1.218-.771.62-1.481 1.314-2.004 2.22-.146.252-.276.498-.508.686-.268.22-.472.545-.582.914-.084.286-.216.439-.492.355-.132-.041-.214.014-.248.164-.028.118-.104.225-.034.457l.004.005zm.402-1.829c.36-.43.709-.854 1.067-1.268.24-.277.42-.593.55-.952.084-.236.19-.461.28-.693.438-1.129.669-2.318.783-3.538.014-.148-.094-.227-.224-.15-.815.482-1.643.936-2.432 1.468a3.129 3.129 0 0 0-1.253 1.648c-.132.402-.326.782-.488 1.173-.034.08-.13.157-.004.286.352-.098.715-.241 1.009-.511.428-.391.949-.652 1.249-1.229.158-.302.45-.493.721-.675a.754.754 0 0 1 .252-.095c.174-.041.31.091.316.289.016.407-.13.741-.352 1.043-.144.195-.218.216-.448.03-.084-.068-.132-.125-.206-.023a3.786 3.786 0 0 0-.602 1.264c-.154.586-.192 1.195-.284 1.795-.006.034.032.075.062.141h.006zM15.923.081c.314-.018.558-.025.803-.05.224-.023.4.032.476.3.032.111.1.15.204.143.194-.014.29-.109.284-.323a15.49 15.49 0 0 0-.927-4.818c-.254-.707-.492-1.42-.753-2.123-.172-.464-.346-.929-.665-1.257-.12-.005-.15.068-.198.12-.206.227-.224.441-.058.727.17.293.346.602.408.957.136.782.066 1.57.048 2.357-.004.2-.118.32-.302.341-.082.009-.18-.009-.232.145.138.564.56 1.011.659 1.627.096.595.32 1.164.25 1.852h.002zm-3.561 17.964c.853-.543 1.643-1.057 2.444-1.554.352-.218.723-.405 1.085-.604a.958.958 0 0 1 .186-.082c.198-.059.352.095.314.33-.1.625.012 1.264-.172 1.927.42-.343.586-.595.753-1.102.448-1.373.628-2.807.703-4.259.012-.214.032-.443-.024-.616-.12-.064-.178-.016-.226.032-.254.25-.508.5-.757.757a.162.162 0 0 0-.016.202c.04.059.104.1.142.161.19.311.24.654.134 1.016-.036.12-.108.227-.236.236-.1.009-.166-.066-.214-.155a.432.432 0 0 1-.05-.141c-.03-.202-.132-.239-.29-.175-.09.036-.176.005-.25-.064-.096-.089-.186-.12-.288 0-.793.927-1.731 1.7-2.318 2.845-.118.23-.3.457-.506.434-.228-.027-.27.055-.304.25-.028.166-.064.33-.108.559v.002zm-9.139 6.936c.154.045.212-.036.278-.098.258-.243.5-.516.781-.725.346-.259.623-.534.711-1.034.062-.345.254-.648.43-.943.152-.255.224-.539.29-.841.184-.85.076-1.725.206-2.577.014-.098-.1-.195-.178-.155-.14.075-.286.148-.412.248-.709.557-1.277 1.27-1.783 2.057-.142.22-.18.466-.174.72.018.766-.074 1.516-.212 2.263-.068.375-.012.745.064 1.082v.002zm17.552-3.731c0-.102.004-.202 0-.305a1.69 1.69 0 0 0-.03-.225c-.034-.191-.172-.25-.288-.109-.396.482-.777.984-1.181 1.457-.39.454-.765.92-1.087 1.443-.4.648-.871 1.223-1.497 1.607-.214.132-.4.327-.613.464-.192.125-.286.307-.346.534-.038.141-.158.293-.07.42.108.157.24-.005.358-.052.252-.1.502-.216.759-.3.514-.168 1.021-.343 1.505-.614.262-.146.482-.384.753-.479.61-.22.955-.757 1.213-1.341.34-.775.446-1.641.522-2.5h.002zM9.568 4.456c-1.131.311-1.881 1.173-2.646 2.02.126.189.322.255.352.489.012.105.092.161.202.116.246-.107.484-.023.723.048.09.027.182.082.184.191.008.464-.096.902-.266 1.32-.02.048-.116.084-.174.08-.092-.009-.168-.084-.172-.198-.008-.177.002-.354 0-.532-.002-.191-.1-.268-.264-.209-.084.032-.166.07-.248.111-.346.168-.504.443-.476.891.046.755.054 1.511.08 2.35.757-.734 1.355-1.557 2.104-2.163-.186-.527-.192-.527-.126-.991.17-1.173.496-2.304.729-3.522zm13.569-24.907c-.162.314-.192.634-.19.97.006.636.014 1.273-.032 1.907-.022.302-.07.609-.038.902.062.557.032 1.116.048 1.673.006.195-.108.307-.288.33-.15.02-.196-.18-.33-.18-.222.675-.22 1.164.026 1.766.17.414.358.818.548 1.25.064-.082.138-.143.176-.229.18-.409.356-.82.524-1.236.118-.291.114-.655.412-.839.042-.025.058-.132.064-.205a8.85 8.85 0 0 0 .022-.609c-.008-1.827-.44-3.568-.855-5.313-.016-.064-.054-.118-.088-.189v.002zm-7.622 44.696c-.328.195-.592.386-.879.511-.484.211-.929.505-1.387.775a2.373 2.373 0 0 0-1.083 1.293c-.208.577-.258 1.182-.38 1.772-.024.116.056.196.162.166.348-.096.689-.248 1.041-.293.727-.093 1.221-.523 1.625-1.186.55-.902.873-1.87.901-3.038zm5.522-11.449c.238-.423.476-.845.711-1.27.108-.193.214-.389.312-.586.072-.148.12-.27-.116-.305-.132-.02-.206-.195-.186-.361.018-.15.05-.302.1-.441.384-1.073.54-2.202.634-3.345.016-.2-.012-.405-.036-.604-.018-.148-.144-.202-.246-.107-.57.532-1.137 1.07-1.709 1.602-.196.182-.234.409-.22.68.014.266.114.489.218.714.126.273.246.55.25.864.014 1.043.252 2.068.282 3.163l.006-.002zM4.576 28.801c.759.745 1.549 1.077 2.462 1.011.374-.027.685-.207.901-.568.44-.741.779-1.532.917-2.425.066-.416 0-.641-.456-.421-.182.089-.39.109-.58.18-.663.252-1.299.554-1.729 1.229-.124.196-.27.334-.51.245-.044-.016-.134.041-.168.093-.188.3-.468.457-.839.654h.004zm-1.941-5.779c.126-.57.114-1.048.168-1.516.042-.366-.018-.7-.12-1.043a11.467 11.467 0 0 0-1.187-2.629c-.056-.093-.09-.239-.228-.216-.026.016-.054.025-.062.043-.564 1.209-.779 2.473-.47 3.818.042.182.088.189.256.03.29-.27.358-.277.61.027.198.239.374.502.554.761.146.209.284.425.482.725h-.004zm2.916 1.471c.006-.293-.112-.391-.288-.298-.08.043-.156.1-.234.148-.534.343-.947.843-1.371 1.334-.266.307-.396.672-.47 1.075-.018.093-.024.223.02.291.186.286.272.643.522.884.274.264.55.316.865.121a.884.884 0 0 0 .372-.427 9.85 9.85 0 0 0 .318-.923c.208-.736.184-1.511.268-2.204h-.002zM21.213 3.81c-.136.4-.36.543-.5.764-.034.055-.104.109-.17.043-.048-.048-.112-.116-.114-.175 0-.32.08-.593.362-.75.322-.177.32-.186.186-.511a3.227 3.227 0 0 0-.466-.832c-.108-.132-.24-.152-.36-.048-.228.205-.446.425-.663.645a.297.297 0 0 0-.078.275c.034.173.074.345.1.523.09.602.332 1.161.37 1.777.014.227.058.452.086.679.026.218-.04.45.06.657.052-.005.104.011.136-.011.548-.4.997-.941 1.503-1.404.122-.111.122-.277.066-.42-.146-.368-.31-.727-.518-1.213v.002zM7.881 30.335c.414.35.813.425 1.297.305.44-.109.797-.345 1.131-.636.608-.532.937-1.261 1.093-2.104-.619-.209-.624-.223-1.093.061-.272.166-.588.25-.793.554-.076.114-.208.082-.308.014-.15-.102-.258-.059-.324.109-.242.609-.623 1.114-1.003 1.698zm6.333-.504c.496-.155.901-.291 1.309-.409.536-.154.987-.477 1.355-.93.438-.541.861-1.1 1.145-1.77.042-.102.162-.193.05-.334-.867.159-1.641.623-2.45.973-.294.127-.494.361-.486.736.006.263-.132.402-.268.575-.252.316-.524.627-.655 1.159zm-.314-.964-1.597.427c-.152.041-.298.086-.46.05-.334-.077-.352-.079-.484.216-.188.42-.496.716-.787 1.03-.126.136-.086.257.084.336.168.079.344.136.522.118.446-.045.889-.107 1.333-.175a.444.444 0 0 0 .234-.134c.482-.495.951-1.007 1.153-1.872l.002.005zm7.481-8.51c.206-.082.276-.282.388-.436.256-.352.51-.707.763-1.064.32-.457.645-.911.955-1.375.264-.398.366-.866.398-1.354.004-.073-.02-.148-.036-.218-.02-.089-.172-.145-.22-.077-.112.159-.22.32-.326.484a19.43 19.43 0 0 1-1.887 2.47c-.096.107-.2.205-.286.32-.04.052-.082.161-.06.2.18.318.09.75.314 1.05h-.002zM1.498 22.338c-.15.505-.176.85-.158 1.207.034.716.174 1.411.294 2.111.078.457.326.829.611 1.161.058.068.136.02.162-.05.042-.116.06-.243.092-.366.2-.761.148-1.525-.06-2.259-.178-.63-.584-1.125-.941-1.804zM15.825.681c-1.071.12-1.171.218-2.062.659-.32.159-.476.464-.614.77-.106.236-.114.53-.164.795.192.045.266-.102.37-.186.526-.432 1.021-.939 1.657-1.145.43-.139.669-.432.815-.893h-.002zm9.652-10.095c.178-.248.356-.498.54-.752l-.316-.632a2.806 2.806 0 0 0-.224 1.384zM14.654-8.152c.306-.454.244-.584-.372-.786.066.311.202.555.372.786zm5.669 5.474c.186-.027.226-.209.292-.357.048-.111-.026-.182-.098-.236-.106-.08-.164.007-.184.1-.036.159-.092.325-.008.493h-.002zM2.244 17.502c-.036.02-.09.03-.104.061-.044.102.012.191.074.25.066.064.112-.005.122-.077.014-.095.002-.189-.092-.234zm4.112-.136c-.012-.018-.026-.055-.036-.055-.078.007-.098.08-.11.148-.002.014.024.05.038.05.08-.002.098-.07.11-.143h-.002zm19.503-28.677-.02-.055-.018.057h.038v-.002zm-9.181 23.275-.02.036.034.005-.012-.041h-.002z" opacity=".08" style="fill:var(--color1, #fcfcfc)"/>
      <path fill="#fcfcfc" d="M14.496 2.856c.044.02.132.03.16.082.126.223.004.441-.052.648-.034.127-.158.159-.28.102-.13-.061-.204.03-.272.139-.04.066-.1.1-.158.027-.028-.036-.058-.089-.056-.132.008-.311.306-.757.572-.864.02-.007.044 0 .086 0v-.002zM22.538 1.717c0 .216-.144.407-.304.402s-.32-.17-.304-.316c.02-.18.182-.314.39-.311.124.002.198.084.22.225h-.002zM24.64.765c.162.02.23.116.23.248-.002.15-.04.3-.2.332a.335.335 0 0 1-.188-.018c-.124-.057-.242-.152-.232-.316.008-.13.13-.184.234-.22.06-.02.126-.023.158-.027l-.002.002zM19.494 12.037c-.024.273-.034.475-.062.675-.018.132-.092.234-.214.255-.096.016-.168-.059-.216-.148-.136-.255-.138-.586-.372-.789-.032-.03-.03-.148-.01-.211.1-.316.318-.523.52-.509.204.014.334.255.354.648.002.05 0 .1 0 .08zM11.604 23.886c-.076.302-.128.675-.312.998-.062.107-.248.07-.32-.105-.086-.202-.146-.3-.31-.086-.056.073-.138.148-.214.159-.076.009-.17-.045-.238-.102a.227.227 0 0 1-.056-.27 2.265 2.265 0 0 1 1.003-1.061c.194-.107.432.118.448.466v.002zM5.517 10.805c-.062.295-.118.591-.19.884a.255.255 0 0 1-.322.175c-.538-.164-.655-.434-.41-.991.078-.18.176-.352.282-.514.172-.261.358-.245.536.02.086.13.13.261.104.423v.002zM13.127 12.703c-.012.177-.022.354-.04.53-.02.198-.11.289-.272.209a.57.57 0 0 0-.51-.016c-.116.045-.214-.048-.278-.161-.066-.116-.08-.248.006-.352.23-.277.456-.559.707-.809.15-.152.35-.02.362.22.006.127 0 .252 0 .38h.026zM9.388 10.242c.038.009.11.009.166.043.08.05.132.136.134.248.002.077-.012.148-.078.193-.19.132-.376.27-.568.398-.106.07-.212.061-.304-.043a.31.31 0 0 1-.076-.28c.092-.366.378-.591.725-.561l.002.002zM7.569 23.172c-.002.032 0 .109-.016.182-.03.159-.11.273-.254.314-.156.045-.358-.032-.372-.214-.022-.284-.182-.364-.356-.473-.124-.08-.11-.28.006-.38.036-.03.07-.064.108-.086.5-.3.885-.032.885.659v-.002zM16.714 22.331c.012-.186-.044-.245-.172-.175-.118.064-.21.186-.356.186a.242.242 0 0 1-.224-.13.221.221 0 0 1 .046-.27 4.46 4.46 0 0 1 .953-.682c.19-.095.362.005.418.223.118.45.028.845-.252 1.186-.098.118-.262.155-.36.07-.102-.086-.118-.202-.07-.334.008-.023.012-.048.018-.073v-.002zM20.149-.187c.042.018.154.041.156.075.03.402.496.207.564.543.02.102.01.209-.056.284-.08.093-.184.17-.298.1a9.493 9.493 0 0 1-.679-.45c-.114-.082-.108-.289-.006-.398a.447.447 0 0 1 .316-.157l.002.002zM4.91 21.493c.004.136-.064.264-.224.273-.154.009-.244.1-.318.234-.108.195-.262.154-.416.095a.209.209 0 0 1-.138-.232c.054-.382.17-.739.408-1.023.21-.252.456-.202.598.095.08.164.088.336.09.557zM18.687 24.356a.326.326 0 0 1-.178.209c-.126.061-.254.105-.37-.025-.092-.105-.042-.295.124-.45.208-.193.436-.35.695-.443.302-.109.536.066.568.423.024.268-.122.566-.35.67-.106.048-.222.039-.302-.075-.07-.098-.13-.202-.194-.305l.04.023-.034-.03.002.002zM20.251 17.255c-.004.202 0 .409-.13.573-.042.055-.12.143-.146.13-.33-.173-.538.118-.789.252-.074.041-.134.009-.172-.052-.036-.059-.078-.139-.07-.202.036-.277.731-1.018.977-1.059.19-.032.33.118.33.357v.002zM14.406 26.818c-.03.082-.072.225-.136.355-.056.116-.16.182-.278.166a3.725 3.725 0 0 1-.52-.109c-.142-.041-.188-.216-.108-.361.13-.239.3-.434.522-.564.3-.177.524-.016.52.375v.141-.002zM21.345 7.508c.102 0 .188.036.232.127.082.175.148.359.224.536.046.107.03.191-.054.257-.088.068-.174.173-.29.08-.088-.07-.154-.189-.25-.23-.132-.057-.338 0-.286-.277.052-.284.224-.466.424-.493zM7.09 28.758c-.202-.061-.39.011-.576.114a.966.966 0 0 1-.314.12c-.086.014-.178-.039-.222-.136-.05-.111.008-.204.082-.257a8.25 8.25 0 0 1 .584-.375c.178-.105.364-.198.548-.291.268-.134.418.009.382.357-.036.355-.158.473-.484.466v.002zM2.132 19.827c-.022.114-.072.411-.272.63-.114.125-.248.057-.364-.032-.102-.077-.156-.193-.096-.323.114-.243.244-.48.446-.641.04-.032.128-.011.184.014.058.025.116.077.1.352h.002zM17.993 2.415c-.02.259-.15.452-.306.627-.06.068-.232-.027-.264-.139-.084-.284.04-.48.216-.648.07-.066.156-.109.238-.03.048.045.074.118.118.189h-.002z" opacity=".08" style="fill:var(--color1, #fcfcfc)"/>
    </symbol>
  </defs>
</svg>
